M48
; DRILL file {KiCad (6.0.5)} date Sun Aug  7 16:14:39 2022
; FORMAT={-:-/ absolute / inch / decimal}
; #@! TF.CreationDate,2022-08-07T16:14:39-07:00
; #@! TF.GenerationSoftware,Kicad,Pcbnew,(6.0.5)
; #@! TF.FileFunction,NonPlated,1,2,NPTH
FMAT,2
INCH
; #@! TA.AperFunction,NonPlated,NPTH,ComponentDrill
T1C0.0472
; #@! TA.AperFunction,NonPlated,NPTH,ComponentDrill
T2C0.0689
; #@! TA.AperFunction,NonPlated,NPTH,ComponentDrill
T3C0.1181
; #@! TA.AperFunction,NonPlated,NPTH,ComponentDrill
T4C0.1570
%
G90
G05
T1
X19.5538Y-0.7689
T2
X1.0965Y-1.9341
X1.0965Y-2.6841
X1.0965Y-3.4341
X1.0965Y-4.1841
X1.0965Y-4.9341
X1.0965Y-5.6841
X1.0965Y-6.4341
X1.4965Y-1.9341
X1.4965Y-2.6841
X1.4965Y-3.4341
X1.4965Y-4.1841
X1.4965Y-4.9341
X1.4965Y-5.6841
X1.4965Y-6.4341
X1.8465Y-1.9341
X1.8465Y-2.6841
X1.8465Y-3.4341
X1.8465Y-4.1841
X1.8465Y-4.9341
X1.8465Y-5.6841
X1.8465Y-6.4341
X2.2465Y-1.9341
X2.2465Y-2.6841
X2.2465Y-3.4341
X2.2465Y-4.1841
X2.2465Y-4.9341
X2.2465Y-5.6841
X2.2465Y-6.4341
X2.5965Y-1.9341
X2.5965Y-2.6841
X2.5965Y-3.4341
X2.5965Y-4.1841
X2.5965Y-4.9341
X2.5965Y-5.6841
X2.5965Y-6.4341
X2.9965Y-1.9341
X2.9965Y-2.6841
X2.9965Y-3.4341
X2.9965Y-4.1841
X2.9965Y-4.9341
X2.9965Y-5.6841
X2.9965Y-6.4341
X3.3465Y-1.9341
X3.3465Y-2.6841
X3.3465Y-3.4341
X3.3465Y-4.1841
X3.3465Y-4.9341
X3.3465Y-5.6841
X3.3465Y-6.4341
X3.7465Y-1.9341
X3.7465Y-2.6841
X3.7465Y-3.4341
X3.7465Y-4.1841
X3.7465Y-4.9341
X3.7465Y-5.6841
X3.7465Y-6.4341
X4.0965Y-1.9341
X4.0965Y-2.6841
X4.0965Y-3.4341
X4.0965Y-4.1841
X4.0965Y-4.9341
X4.0965Y-5.6841
X4.0965Y-6.4341
X4.4965Y-1.9341
X4.4965Y-2.6841
X4.4965Y-3.4341
X4.4965Y-4.1841
X4.4965Y-4.9341
X4.4965Y-5.6841
X4.4965Y-6.4341
X4.8465Y-1.9341
X4.8465Y-2.6841
X4.8465Y-3.4341
X4.8465Y-4.1841
X4.8465Y-4.9341
X4.8465Y-5.6841
X4.8465Y-6.4341
X5.2465Y-1.9341
X5.2465Y-2.6841
X5.2465Y-3.4341
X5.2465Y-4.1841
X5.2465Y-4.9341
X5.2465Y-5.6841
X5.2465Y-6.4341
X5.5965Y-1.9341
X5.5965Y-2.6841
X5.5965Y-3.4341
X5.5965Y-4.1841
X5.5965Y-4.9341
X5.5965Y-5.6841
X5.5965Y-6.4341
X5.9965Y-1.9341
X5.9965Y-2.6841
X5.9965Y-3.4341
X5.9965Y-4.1841
X5.9965Y-4.9341
X5.9965Y-5.6841
X5.9965Y-6.4341
X6.3465Y-1.9341
X6.3465Y-2.6841
X6.3465Y-3.4341
X6.3465Y-4.1841
X6.3465Y-4.9341
X6.3465Y-5.6841
X6.3465Y-6.4341
X6.7465Y-1.9341
X6.7465Y-2.6841
X6.7465Y-3.4341
X6.7465Y-4.1841
X6.7465Y-4.9341
X6.7465Y-5.6841
X6.7465Y-6.4341
X7.0965Y-1.9341
X7.0965Y-2.6841
X7.0965Y-3.4341
X7.0965Y-4.1841
X7.0965Y-4.9341
X7.0965Y-5.6841
X7.0965Y-6.4341
X7.4965Y-1.9341
X7.4965Y-2.6841
X7.4965Y-3.4341
X7.4965Y-4.1841
X7.4965Y-4.9341
X7.4965Y-5.6841
X7.4965Y-6.4341
X7.8465Y-1.9341
X7.8465Y-2.6841
X7.8465Y-3.4341
X7.8465Y-4.1841
X7.8465Y-4.9341
X7.8465Y-5.6841
X7.8465Y-6.4341
X8.2465Y-1.9341
X8.2465Y-2.6841
X8.2465Y-3.4341
X8.2465Y-4.1841
X8.2465Y-4.9341
X8.2465Y-5.6841
X8.2465Y-6.4341
X8.5965Y-1.9341
X8.5965Y-2.6841
X8.5965Y-3.4341
X8.5965Y-4.1841
X8.5965Y-4.9341
X8.5965Y-5.6841
X8.5965Y-6.4341
X8.9965Y-1.9341
X8.9965Y-2.6841
X8.9965Y-3.4341
X8.9965Y-4.1841
X8.9965Y-4.9341
X8.9965Y-5.6841
X8.9965Y-6.4341
X9.3465Y-1.9341
X9.3465Y-2.6841
X9.3465Y-3.4341
X9.3465Y-4.1841
X9.3465Y-4.9341
X9.3465Y-5.6841
X9.3465Y-6.4341
X9.7465Y-1.9341
X9.7465Y-2.6841
X9.7465Y-3.4341
X9.7465Y-4.1841
X9.7465Y-4.9341
X9.7465Y-5.6841
X9.7465Y-6.4341
X10.0959Y-1.9347
X10.0959Y-2.6847
X10.0959Y-3.4347
X10.0959Y-4.1847
X10.0959Y-4.9347
X10.0959Y-5.6847
X10.0959Y-6.4347
X10.4959Y-1.9347
X10.4959Y-2.6847
X10.4959Y-3.4347
X10.4959Y-4.1847
X10.4959Y-4.9347
X10.4959Y-5.6847
X10.4959Y-6.4347
X10.8459Y-1.9347
X10.8459Y-2.6847
X10.8459Y-3.4347
X10.8459Y-4.1847
X10.8459Y-4.9347
X10.8459Y-5.6847
X10.8459Y-6.4347
X11.2459Y-1.9347
X11.2459Y-2.6847
X11.2459Y-3.4347
X11.2459Y-4.1847
X11.2459Y-4.9347
X11.2459Y-5.6847
X11.2459Y-6.4347
X11.5965Y-1.9341
X11.5965Y-2.6841
X11.5965Y-3.4341
X11.5965Y-4.1841
X11.5965Y-4.9341
X11.5965Y-5.6841
X11.5965Y-6.4341
X11.9965Y-1.9341
X11.9965Y-2.6841
X11.9965Y-3.4341
X11.9965Y-4.1841
X11.9965Y-4.9341
X11.9965Y-5.6841
X11.9965Y-6.4341
X12.3465Y-1.9341
X12.3465Y-2.6841
X12.3465Y-3.4341
X12.3465Y-4.1841
X12.3465Y-4.9341
X12.3465Y-5.6841
X12.3465Y-6.4341
X12.7465Y-1.9341
X12.7465Y-2.6841
X12.7465Y-3.4341
X12.7465Y-4.1841
X12.7465Y-4.9341
X12.7465Y-5.6841
X12.7465Y-6.4341
X13.0965Y-1.9341
X13.0965Y-2.6841
X13.0965Y-3.4341
X13.0965Y-4.1841
X13.0965Y-4.9341
X13.0965Y-5.6841
X13.0965Y-6.4341
X13.4965Y-1.9341
X13.4965Y-2.6841
X13.4965Y-3.4341
X13.4965Y-4.1841
X13.4965Y-4.9341
X13.4965Y-5.6841
X13.4965Y-6.4341
X13.8465Y-1.9341
X13.8465Y-2.6841
X13.8465Y-3.4341
X13.8465Y-4.1841
X13.8465Y-4.9341
X13.8465Y-5.6841
X13.8465Y-6.4341
X14.2465Y-1.9341
X14.2465Y-2.6841
X14.2465Y-3.4341
X14.2465Y-4.1841
X14.2465Y-4.9341
X14.2465Y-5.6841
X14.2465Y-6.4341
X14.5965Y-1.9341
X14.5965Y-2.6841
X14.5965Y-3.4341
X14.5965Y-4.1841
X14.5965Y-4.9341
X14.5965Y-5.6841
X14.5965Y-6.4341
X14.9965Y-1.9341
X14.9965Y-2.6841
X14.9965Y-3.4341
X14.9965Y-4.1841
X14.9965Y-4.9341
X14.9965Y-5.6841
X14.9965Y-6.4341
X15.3465Y-1.9341
X15.3465Y-2.6841
X15.3465Y-3.4341
X15.3465Y-4.1841
X15.3465Y-4.9341
X15.3465Y-5.6841
X15.3465Y-6.4341
X15.7465Y-1.9341
X15.7465Y-2.6841
X15.7465Y-3.4341
X15.7465Y-4.1841
X15.7465Y-4.9341
X15.7465Y-5.6841
X15.7465Y-6.4341
X16.0965Y-1.9341
X16.0965Y-2.6841
X16.0965Y-3.4341
X16.0965Y-4.1841
X16.0965Y-4.9341
X16.0965Y-5.6841
X16.0965Y-6.4341
X16.4965Y-1.9341
X16.4965Y-2.6841
X16.4965Y-3.4341
X16.4965Y-4.1841
X16.4965Y-4.9341
X16.4965Y-5.6841
X16.4965Y-6.4341
X16.8465Y-1.9341
X16.8465Y-2.6841
X16.8465Y-3.4341
X16.8465Y-4.1841
X16.8465Y-4.9341
X16.8465Y-5.6841
X16.8465Y-6.4341
X17.2465Y-1.9341
X17.2465Y-2.6841
X17.2465Y-3.4341
X17.2465Y-4.1841
X17.2465Y-4.9341
X17.2465Y-5.6841
X17.2465Y-6.4341
X17.5965Y-1.9341
X17.5965Y-2.6841
X17.5965Y-3.4341
X17.5965Y-4.1841
X17.5965Y-4.9341
X17.5965Y-5.6841
X17.5965Y-6.4341
X17.9965Y-1.9341
X17.9965Y-2.6841
X17.9965Y-3.4341
X17.9965Y-4.1841
X17.9965Y-4.9341
X17.9965Y-5.6841
X17.9965Y-6.4341
X18.3465Y-1.9341
X18.3465Y-2.6841
X18.3465Y-3.4341
X18.3465Y-4.1841
X18.3465Y-4.9341
X18.3465Y-5.6841
X18.3465Y-6.4341
X18.7465Y-1.9341
X18.7465Y-2.6841
X18.7465Y-3.4341
X18.7465Y-4.1841
X18.7465Y-4.9341
X18.7465Y-5.6841
X18.7465Y-6.4341
X19.0965Y-1.9341
X19.0965Y-2.6841
X19.0965Y-3.4341
X19.0965Y-4.1841
X19.0965Y-4.9341
X19.0965Y-5.6841
X19.0965Y-6.4341
X19.4965Y-1.9341
X19.4965Y-2.6841
X19.4965Y-3.4341
X19.4965Y-4.1841
X19.4965Y-4.9341
X19.4965Y-5.6841
X19.4965Y-6.4341
X19.8465Y-1.9341
X19.8465Y-2.6841
X19.8465Y-3.4341
X19.8465Y-4.1841
X19.8465Y-4.9341
X19.8465Y-5.6841
X19.8465Y-6.4341
X20.2465Y-1.9341
X20.2465Y-2.6841
X20.2465Y-3.4341
X20.2465Y-4.1841
X20.2465Y-4.9341
X20.2465Y-5.6841
X20.2465Y-6.4341
T3
X1.1465Y-1.8341
X1.1465Y-2.5841
X1.1465Y-3.3341
X1.1465Y-4.0841
X1.1465Y-4.8341
X1.1465Y-5.5841
X1.1465Y-6.3341
X1.3965Y-1.7341
X1.3965Y-2.4841
X1.3965Y-3.2341
X1.3965Y-3.9841
X1.3965Y-4.7341
X1.3965Y-5.4841
X1.3965Y-6.2341
X1.8965Y-1.8341
X1.8965Y-2.5841
X1.8965Y-3.3341
X1.8965Y-4.0841
X1.8965Y-4.8341
X1.8965Y-5.5841
X1.8965Y-6.3341
X2.1465Y-1.7341
X2.1465Y-2.4841
X2.1465Y-3.2341
X2.1465Y-3.9841
X2.1465Y-4.7341
X2.1465Y-5.4841
X2.1465Y-6.2341
X2.6465Y-1.8341
X2.6465Y-2.5841
X2.6465Y-3.3341
X2.6465Y-4.0841
X2.6465Y-4.8341
X2.6465Y-5.5841
X2.6465Y-6.3341
X2.8965Y-1.7341
X2.8965Y-2.4841
X2.8965Y-3.2341
X2.8965Y-3.9841
X2.8965Y-4.7341
X2.8965Y-5.4841
X2.8965Y-6.2341
X3.3965Y-1.8341
X3.3965Y-2.5841
X3.3965Y-3.3341
X3.3965Y-4.0841
X3.3965Y-4.8341
X3.3965Y-5.5841
X3.3965Y-6.3341
X3.6465Y-1.7341
X3.6465Y-2.4841
X3.6465Y-3.2341
X3.6465Y-3.9841
X3.6465Y-4.7341
X3.6465Y-5.4841
X3.6465Y-6.2341
X4.1465Y-1.8341
X4.1465Y-2.5841
X4.1465Y-3.3341
X4.1465Y-4.0841
X4.1465Y-4.8341
X4.1465Y-5.5841
X4.1465Y-6.3341
X4.3965Y-1.7341
X4.3965Y-2.4841
X4.3965Y-3.2341
X4.3965Y-3.9841
X4.3965Y-4.7341
X4.3965Y-5.4841
X4.3965Y-6.2341
X4.8965Y-1.8341
X4.8965Y-2.5841
X4.8965Y-3.3341
X4.8965Y-4.0841
X4.8965Y-4.8341
X4.8965Y-5.5841
X4.8965Y-6.3341
X5.1465Y-1.7341
X5.1465Y-2.4841
X5.1465Y-3.2341
X5.1465Y-3.9841
X5.1465Y-4.7341
X5.1465Y-5.4841
X5.1465Y-6.2341
X5.6465Y-1.8341
X5.6465Y-2.5841
X5.6465Y-3.3341
X5.6465Y-4.0841
X5.6465Y-4.8341
X5.6465Y-5.5841
X5.6465Y-6.3341
X5.8965Y-1.7341
X5.8965Y-2.4841
X5.8965Y-3.2341
X5.8965Y-3.9841
X5.8965Y-4.7341
X5.8965Y-5.4841
X5.8965Y-6.2341
X6.3965Y-1.8341
X6.3965Y-2.5841
X6.3965Y-3.3341
X6.3965Y-4.0841
X6.3965Y-4.8341
X6.3965Y-5.5841
X6.3965Y-6.3341
X6.6465Y-1.7341
X6.6465Y-2.4841
X6.6465Y-3.2341
X6.6465Y-3.9841
X6.6465Y-4.7341
X6.6465Y-5.4841
X6.6465Y-6.2341
X7.1465Y-1.8341
X7.1465Y-2.5841
X7.1465Y-3.3341
X7.1465Y-4.0841
X7.1465Y-4.8341
X7.1465Y-5.5841
X7.1465Y-6.3341
X7.3965Y-1.7341
X7.3965Y-2.4841
X7.3965Y-3.2341
X7.3965Y-3.9841
X7.3965Y-4.7341
X7.3965Y-5.4841
X7.3965Y-6.2341
X7.8965Y-1.8341
X7.8965Y-2.5841
X7.8965Y-3.3341
X7.8965Y-4.0841
X7.8965Y-4.8341
X7.8965Y-5.5841
X7.8965Y-6.3341
X8.1465Y-1.7341
X8.1465Y-2.4841
X8.1465Y-3.2341
X8.1465Y-3.9841
X8.1465Y-4.7341
X8.1465Y-5.4841
X8.1465Y-6.2341
X8.6465Y-1.8341
X8.6465Y-2.5841
X8.6465Y-3.3341
X8.6465Y-4.0841
X8.6465Y-4.8341
X8.6465Y-5.5841
X8.6465Y-6.3341
X8.8965Y-1.7341
X8.8965Y-2.4841
X8.8965Y-3.2341
X8.8965Y-3.9841
X8.8965Y-4.7341
X8.8965Y-5.4841
X8.8965Y-6.2341
X9.3965Y-1.8341
X9.3965Y-2.5841
X9.3965Y-3.3341
X9.3965Y-4.0841
X9.3965Y-4.8341
X9.3965Y-5.5841
X9.3965Y-6.3341
X9.6465Y-1.7341
X9.6465Y-2.4841
X9.6465Y-3.2341
X9.6465Y-3.9841
X9.6465Y-4.7341
X9.6465Y-5.4841
X9.6465Y-6.2341
X10.1459Y-1.8347
X10.1459Y-2.5847
X10.1459Y-3.3347
X10.1459Y-4.0847
X10.1459Y-4.8347
X10.1459Y-5.5847
X10.1459Y-6.3347
X10.3959Y-1.7347
X10.3959Y-2.4847
X10.3959Y-3.2347
X10.3959Y-3.9847
X10.3959Y-4.7347
X10.3959Y-5.4847
X10.3959Y-6.2347
X10.8959Y-1.8347
X10.8959Y-2.5847
X10.8959Y-3.3347
X10.8959Y-4.0847
X10.8959Y-4.8347
X10.8959Y-5.5847
X10.8959Y-6.3347
X11.1459Y-1.7347
X11.1459Y-2.4847
X11.1459Y-3.2347
X11.1459Y-3.9847
X11.1459Y-4.7347
X11.1459Y-5.4847
X11.1459Y-6.2347
X11.6465Y-1.8341
X11.6465Y-2.5841
X11.6465Y-3.3341
X11.6465Y-4.0841
X11.6465Y-4.8341
X11.6465Y-5.5841
X11.6465Y-6.3341
X11.8965Y-1.7341
X11.8965Y-2.4841
X11.8965Y-3.2341
X11.8965Y-3.9841
X11.8965Y-4.7341
X11.8965Y-5.4841
X11.8965Y-6.2341
X12.3965Y-1.8341
X12.3965Y-2.5841
X12.3965Y-3.3341
X12.3965Y-4.0841
X12.3965Y-4.8341
X12.3965Y-5.5841
X12.3965Y-6.3341
X12.6465Y-1.7341
X12.6465Y-2.4841
X12.6465Y-3.2341
X12.6465Y-3.9841
X12.6465Y-4.7341
X12.6465Y-5.4841
X12.6465Y-6.2341
X13.1465Y-1.8341
X13.1465Y-2.5841
X13.1465Y-3.3341
X13.1465Y-4.0841
X13.1465Y-4.8341
X13.1465Y-5.5841
X13.1465Y-6.3341
X13.3965Y-1.7341
X13.3965Y-2.4841
X13.3965Y-3.2341
X13.3965Y-3.9841
X13.3965Y-4.7341
X13.3965Y-5.4841
X13.3965Y-6.2341
X13.8965Y-1.8341
X13.8965Y-2.5841
X13.8965Y-3.3341
X13.8965Y-4.0841
X13.8965Y-4.8341
X13.8965Y-5.5841
X13.8965Y-6.3341
X14.1465Y-1.7341
X14.1465Y-2.4841
X14.1465Y-3.2341
X14.1465Y-3.9841
X14.1465Y-4.7341
X14.1465Y-5.4841
X14.1465Y-6.2341
X14.6465Y-1.8341
X14.6465Y-2.5841
X14.6465Y-3.3341
X14.6465Y-4.0841
X14.6465Y-4.8341
X14.6465Y-5.5841
X14.6465Y-6.3341
X14.8965Y-1.7341
X14.8965Y-2.4841
X14.8965Y-3.2341
X14.8965Y-3.9841
X14.8965Y-4.7341
X14.8965Y-5.4841
X14.8965Y-6.2341
X15.3965Y-1.8341
X15.3965Y-2.5841
X15.3965Y-3.3341
X15.3965Y-4.0841
X15.3965Y-4.8341
X15.3965Y-5.5841
X15.3965Y-6.3341
X15.6465Y-1.7341
X15.6465Y-2.4841
X15.6465Y-3.2341
X15.6465Y-3.9841
X15.6465Y-4.7341
X15.6465Y-5.4841
X15.6465Y-6.2341
X16.1465Y-1.8341
X16.1465Y-2.5841
X16.1465Y-3.3341
X16.1465Y-4.0841
X16.1465Y-4.8341
X16.1465Y-5.5841
X16.1465Y-6.3341
X16.3965Y-1.7341
X16.3965Y-2.4841
X16.3965Y-3.2341
X16.3965Y-3.9841
X16.3965Y-4.7341
X16.3965Y-5.4841
X16.3965Y-6.2341
X16.8965Y-1.8341
X16.8965Y-2.5841
X16.8965Y-3.3341
X16.8965Y-4.0841
X16.8965Y-4.8341
X16.8965Y-5.5841
X16.8965Y-6.3341
X17.1465Y-1.7341
X17.1465Y-2.4841
X17.1465Y-3.2341
X17.1465Y-3.9841
X17.1465Y-4.7341
X17.1465Y-5.4841
X17.1465Y-6.2341
X17.6465Y-1.8341
X17.6465Y-2.5841
X17.6465Y-3.3341
X17.6465Y-4.0841
X17.6465Y-4.8341
X17.6465Y-5.5841
X17.6465Y-6.3341
X17.8965Y-1.7341
X17.8965Y-2.4841
X17.8965Y-3.2341
X17.8965Y-3.9841
X17.8965Y-4.7341
X17.8965Y-5.4841
X17.8965Y-6.2341
X18.3965Y-1.8341
X18.3965Y-2.5841
X18.3965Y-3.3341
X18.3965Y-4.0841
X18.3965Y-4.8341
X18.3965Y-5.5841
X18.3965Y-6.3341
X18.6465Y-1.7341
X18.6465Y-2.4841
X18.6465Y-3.2341
X18.6465Y-3.9841
X18.6465Y-4.7341
X18.6465Y-5.4841
X18.6465Y-6.2341
X19.1465Y-1.8341
X19.1465Y-2.5841
X19.1465Y-3.3341
X19.1465Y-4.0841
X19.1465Y-4.8341
X19.1465Y-5.5841
X19.1465Y-6.3341
X19.3965Y-1.7341
X19.3965Y-2.4841
X19.3965Y-3.2341
X19.3965Y-3.9841
X19.3965Y-4.7341
X19.3965Y-5.4841
X19.3965Y-6.2341
X19.8965Y-1.8341
X19.8965Y-2.5841
X19.8965Y-3.3341
X19.8965Y-4.0841
X19.8965Y-4.8341
X19.8965Y-5.5841
X19.8965Y-6.3341
X20.1465Y-1.7341
X20.1465Y-2.4841
X20.1465Y-3.2341
X20.1465Y-3.9841
X20.1465Y-4.7341
X20.1465Y-5.4841
X20.1465Y-6.2341
T4
X1.2965Y-1.9341
X1.2965Y-2.6841
X1.2965Y-3.4341
X1.2965Y-4.1841
X1.2965Y-4.9341
X1.2965Y-5.6841
X1.2965Y-6.4341
X2.0465Y-1.9341
X2.0465Y-2.6841
X2.0465Y-3.4341
X2.0465Y-4.1841
X2.0465Y-4.9341
X2.0465Y-5.6841
X2.0465Y-6.4341
X2.7965Y-1.9341
X2.7965Y-2.6841
X2.7965Y-3.4341
X2.7965Y-4.1841
X2.7965Y-4.9341
X2.7965Y-5.6841
X2.7965Y-6.4341
X3.5465Y-1.9341
X3.5465Y-2.6841
X3.5465Y-3.4341
X3.5465Y-4.1841
X3.5465Y-4.9341
X3.5465Y-5.6841
X3.5465Y-6.4341
X4.2965Y-1.9341
X4.2965Y-2.6841
X4.2965Y-3.4341
X4.2965Y-4.1841
X4.2965Y-4.9341
X4.2965Y-5.6841
X4.2965Y-6.4341
X5.0465Y-1.9341
X5.0465Y-2.6841
X5.0465Y-3.4341
X5.0465Y-4.1841
X5.0465Y-4.9341
X5.0465Y-5.6841
X5.0465Y-6.4341
X5.7965Y-1.9341
X5.7965Y-2.6841
X5.7965Y-3.4341
X5.7965Y-4.1841
X5.7965Y-4.9341
X5.7965Y-5.6841
X5.7965Y-6.4341
X6.5465Y-1.9341
X6.5465Y-2.6841
X6.5465Y-3.4341
X6.5465Y-4.1841
X6.5465Y-4.9341
X6.5465Y-5.6841
X6.5465Y-6.4341
X7.2965Y-1.9341
X7.2965Y-2.6841
X7.2965Y-3.4341
X7.2965Y-4.1841
X7.2965Y-4.9341
X7.2965Y-5.6841
X7.2965Y-6.4341
X8.0465Y-1.9341
X8.0465Y-2.6841
X8.0465Y-3.4341
X8.0465Y-4.1841
X8.0465Y-4.9341
X8.0465Y-5.6841
X8.0465Y-6.4341
X8.7965Y-1.9341
X8.7965Y-2.6841
X8.7965Y-3.4341
X8.7965Y-4.1841
X8.7965Y-4.9341
X8.7965Y-5.6841
X8.7965Y-6.4341
X9.5465Y-1.9341
X9.5465Y-2.6841
X9.5465Y-3.4341
X9.5465Y-4.1841
X9.5465Y-4.9341
X9.5465Y-5.6841
X9.5465Y-6.4341
X10.2959Y-1.9347
X10.2959Y-2.6847
X10.2959Y-3.4347
X10.2959Y-4.1847
X10.2959Y-4.9347
X10.2959Y-5.6847
X10.2959Y-6.4347
X11.0459Y-1.9347
X11.0459Y-2.6847
X11.0459Y-3.4347
X11.0459Y-4.1847
X11.0459Y-4.9347
X11.0459Y-5.6847
X11.0459Y-6.4347
X11.7965Y-1.9341
X11.7965Y-2.6841
X11.7965Y-3.4341
X11.7965Y-4.1841
X11.7965Y-4.9341
X11.7965Y-5.6841
X11.7965Y-6.4341
X12.5465Y-1.9341
X12.5465Y-2.6841
X12.5465Y-3.4341
X12.5465Y-4.1841
X12.5465Y-4.9341
X12.5465Y-5.6841
X12.5465Y-6.4341
X13.2965Y-1.9341
X13.2965Y-2.6841
X13.2965Y-3.4341
X13.2965Y-4.1841
X13.2965Y-4.9341
X13.2965Y-5.6841
X13.2965Y-6.4341
X14.0465Y-1.9341
X14.0465Y-2.6841
X14.0465Y-3.4341
X14.0465Y-4.1841
X14.0465Y-4.9341
X14.0465Y-5.6841
X14.0465Y-6.4341
X14.7965Y-1.9341
X14.7965Y-2.6841
X14.7965Y-3.4341
X14.7965Y-4.1841
X14.7965Y-4.9341
X14.7965Y-5.6841
X14.7965Y-6.4341
X15.5465Y-1.9341
X15.5465Y-2.6841
X15.5465Y-3.4341
X15.5465Y-4.1841
X15.5465Y-4.9341
X15.5465Y-5.6841
X15.5465Y-6.4341
X16.2965Y-1.9341
X16.2965Y-2.6841
X16.2965Y-3.4341
X16.2965Y-4.1841
X16.2965Y-4.9341
X16.2965Y-5.6841
X16.2965Y-6.4341
X17.0465Y-1.9341
X17.0465Y-2.6841
X17.0465Y-3.4341
X17.0465Y-4.1841
X17.0465Y-4.9341
X17.0465Y-5.6841
X17.0465Y-6.4341
X17.7965Y-1.9341
X17.7965Y-2.6841
X17.7965Y-3.4341
X17.7965Y-4.1841
X17.7965Y-4.9341
X17.7965Y-5.6841
X17.7965Y-6.4341
X18.5465Y-1.9341
X18.5465Y-2.6841
X18.5465Y-3.4341
X18.5465Y-4.1841
X18.5465Y-4.9341
X18.5465Y-5.6841
X18.5465Y-6.4341
X19.2965Y-1.9341
X19.2965Y-2.6841
X19.2965Y-3.4341
X19.2965Y-4.1841
X19.2965Y-4.9341
X19.2965Y-5.6841
X19.2965Y-6.4341
X20.0465Y-1.9341
X20.0465Y-2.6841
X20.0465Y-3.4341
X20.0465Y-4.1841
X20.0465Y-4.9341
X20.0465Y-5.6841
X20.0465Y-6.4341
T0
M30
