%TF.GenerationSoftware,KiCad,Pcbnew,(6.0.5)*%
%TF.CreationDate,2022-08-07T16:14:43-07:00*%
%TF.ProjectId,Dreadnoughtus,44726561-646e-46f7-9567-687475732e6b,rev?*%
%TF.SameCoordinates,Original*%
%TF.FileFunction,Paste,Bot*%
%TF.FilePolarity,Positive*%
%FSLAX46Y46*%
G04 Gerber Fmt 4.6, Leading zero omitted, Abs format (unit mm)*
G04 Created by KiCad (PCBNEW (6.0.5)) date 2022-08-07 16:14:43*
%MOMM*%
%LPD*%
G01*
G04 APERTURE LIST*
%TA.AperFunction,Profile*%
%ADD10C,0.100000*%
%TD*%
%ADD11R,2.550000X2.500000*%
%ADD12R,1.200000X1.600000*%
%ADD13R,1.600000X1.200000*%
G04 APERTURE END LIST*
D10*
X519659124Y-18646947D02*
X519659124Y-172634447D01*
X518865374Y-173428197D01*
X23565374Y-173428197D01*
X22771624Y-172634447D01*
X22771624Y-39284447D01*
X23565374Y-38490697D01*
X446634124Y-38490697D01*
X447427874Y-37696947D01*
X447427874Y-18646947D01*
X448221624Y-17853197D01*
X518865374Y-17853197D01*
X519659124Y-18646947D01*
D11*
%TO.C,MX131*%
X140146624Y-141836947D03*
X153073624Y-139296947D03*
%TD*%
%TO.C,MX53*%
X387796624Y-122786947D03*
X400723624Y-120246947D03*
%TD*%
%TO.C,MX92*%
X273481318Y-65651098D03*
X286408318Y-63111098D03*
%TD*%
D12*
%TO.C,D80*%
X326777874Y-109321947D03*
X326777874Y-112121947D03*
%TD*%
D11*
%TO.C,MX130*%
X140146624Y-122786947D03*
X153073624Y-120246947D03*
%TD*%
D12*
%TO.C,D102*%
X231527874Y-128371947D03*
X231527874Y-131171947D03*
%TD*%
D11*
%TO.C,MX129*%
X140146624Y-103736947D03*
X153073624Y-101196947D03*
%TD*%
%TO.C,MX155*%
X63946624Y-65636947D03*
X76873624Y-63096947D03*
%TD*%
%TO.C,MX1*%
X483046624Y-65636947D03*
X495973624Y-63096947D03*
%TD*%
D12*
%TO.C,D178*%
X60077874Y-109321947D03*
X60077874Y-112121947D03*
%TD*%
%TO.C,D177*%
X60077874Y-90271947D03*
X60077874Y-93071947D03*
%TD*%
%TO.C,D140*%
X117227874Y-52171947D03*
X117227874Y-54971947D03*
%TD*%
%TO.C,D137*%
X174377874Y-128371947D03*
X174377874Y-131171947D03*
%TD*%
D11*
%TO.C,MX181*%
X44896624Y-160886947D03*
X57823624Y-158346947D03*
%TD*%
%TO.C,MX124*%
X197296624Y-141836947D03*
X210223624Y-139296947D03*
%TD*%
D13*
%TO.C,D212*%
X104715374Y-95640697D03*
X107515374Y-95640697D03*
%TD*%
D12*
%TO.C,D62*%
X345827874Y-166471947D03*
X345827874Y-169271947D03*
%TD*%
%TO.C,D131*%
X155327874Y-147421947D03*
X155327874Y-150221947D03*
%TD*%
D11*
%TO.C,MX18*%
X444946624Y-122786947D03*
X457873624Y-120246947D03*
%TD*%
%TO.C,MX178*%
X44896624Y-103736947D03*
X57823624Y-101196947D03*
%TD*%
%TO.C,MX134*%
X159196624Y-65636947D03*
X172123624Y-63096947D03*
%TD*%
%TO.C,MX109*%
X235396624Y-122786947D03*
X248323624Y-120246947D03*
%TD*%
D12*
%TO.C,D153*%
X136277874Y-166471947D03*
X136277874Y-169271947D03*
%TD*%
%TO.C,D54*%
X402977874Y-147421947D03*
X402977874Y-150221947D03*
%TD*%
%TO.C,D129*%
X155327874Y-109321947D03*
X155327874Y-112121947D03*
%TD*%
%TO.C,D2*%
X498227874Y-90271947D03*
X498227874Y-93071947D03*
%TD*%
%TO.C,D52*%
X402977874Y-109321947D03*
X402977874Y-112121947D03*
%TD*%
D11*
%TO.C,MX33*%
X406846624Y-141836947D03*
X419773624Y-139296947D03*
%TD*%
D12*
%TO.C,D4*%
X498227874Y-128371947D03*
X498227874Y-131171947D03*
%TD*%
%TO.C,D90*%
X269612568Y-166486098D03*
X269612568Y-169286098D03*
%TD*%
%TO.C,D72*%
X307727874Y-90271947D03*
X307727874Y-93071947D03*
%TD*%
%TO.C,D139*%
X174377874Y-166471947D03*
X174377874Y-169271947D03*
%TD*%
%TO.C,D24*%
X479177874Y-109321947D03*
X479177874Y-112121947D03*
%TD*%
D11*
%TO.C,MX7*%
X502096624Y-46586947D03*
X515023624Y-44046947D03*
%TD*%
%TO.C,MX81*%
X311596624Y-122786947D03*
X324523624Y-120246947D03*
%TD*%
D12*
%TO.C,D157*%
X79127874Y-109321947D03*
X79127874Y-112121947D03*
%TD*%
%TO.C,D22*%
X479177874Y-71221947D03*
X479177874Y-74021947D03*
%TD*%
D11*
%TO.C,MX105*%
X235396624Y-46586947D03*
X248323624Y-44046947D03*
%TD*%
%TO.C,MX48*%
X368746624Y-160886947D03*
X381673624Y-158346947D03*
%TD*%
D12*
%TO.C,D1*%
X498227874Y-71221947D03*
X498227874Y-74021947D03*
%TD*%
D11*
%TO.C,MX32*%
X406846624Y-122786947D03*
X419773624Y-120246947D03*
%TD*%
%TO.C,MX150*%
X121096624Y-103736947D03*
X134023624Y-101196947D03*
%TD*%
D12*
%TO.C,D95*%
X288662568Y-128386098D03*
X288662568Y-131186098D03*
%TD*%
D11*
%TO.C,MX91*%
X273481318Y-46601098D03*
X286408318Y-44061098D03*
%TD*%
%TO.C,MX161*%
X82996624Y-46586947D03*
X95923624Y-44046947D03*
%TD*%
%TO.C,MX37*%
X425896624Y-84686947D03*
X438823624Y-82146947D03*
%TD*%
%TO.C,MX117*%
X178246624Y-141836947D03*
X191173624Y-139296947D03*
%TD*%
%TO.C,MX5*%
X483046624Y-141836947D03*
X495973624Y-139296947D03*
%TD*%
%TO.C,MX50*%
X387796624Y-65636947D03*
X400723624Y-63096947D03*
%TD*%
%TO.C,MX140*%
X102046624Y-46586947D03*
X114973624Y-44046947D03*
%TD*%
D12*
%TO.C,D147*%
X136277874Y-52171947D03*
X136277874Y-54971947D03*
%TD*%
D11*
%TO.C,MX144*%
X102046624Y-122786947D03*
X114973624Y-120246947D03*
%TD*%
%TO.C,MX71*%
X292546624Y-65636947D03*
X305473624Y-63096947D03*
%TD*%
%TO.C,MX47*%
X368746624Y-141836947D03*
X381673624Y-139296947D03*
%TD*%
D12*
%TO.C,D64*%
X364877874Y-71221947D03*
X364877874Y-74021947D03*
%TD*%
%TO.C,D70*%
X307727874Y-52171947D03*
X307727874Y-54971947D03*
%TD*%
%TO.C,D181*%
X60077874Y-166471947D03*
X60077874Y-169271947D03*
%TD*%
D11*
%TO.C,MX65*%
X349696624Y-84686947D03*
X362623624Y-82146947D03*
%TD*%
%TO.C,MX86*%
X254431318Y-84701098D03*
X267358318Y-82161098D03*
%TD*%
%TO.C,MX112*%
X178246624Y-46586947D03*
X191173624Y-44046947D03*
%TD*%
%TO.C,MX12*%
X502096624Y-141836947D03*
X515023624Y-139296947D03*
%TD*%
D12*
%TO.C,D47*%
X383927874Y-147421947D03*
X383927874Y-150221947D03*
%TD*%
%TO.C,D49*%
X402977874Y-52171947D03*
X402977874Y-54971947D03*
%TD*%
%TO.C,D63*%
X364877874Y-52171947D03*
X364877874Y-54971947D03*
%TD*%
%TO.C,D40*%
X441077874Y-147421947D03*
X441077874Y-150221947D03*
%TD*%
D11*
%TO.C,MX30*%
X406846624Y-84686947D03*
X419773624Y-82146947D03*
%TD*%
%TO.C,MX25*%
X463996624Y-122786947D03*
X476923624Y-120246947D03*
%TD*%
D12*
%TO.C,D132*%
X155327874Y-166471947D03*
X155327874Y-169271947D03*
%TD*%
%TO.C,D115*%
X193427874Y-109321947D03*
X193427874Y-112121947D03*
%TD*%
%TO.C,D16*%
X460127874Y-90271947D03*
X460127874Y-93071947D03*
%TD*%
%TO.C,D3*%
X498227874Y-109321947D03*
X498227874Y-112121947D03*
%TD*%
D11*
%TO.C,MX35*%
X425896624Y-46586947D03*
X438823624Y-44046947D03*
%TD*%
%TO.C,MX149*%
X121096624Y-84686947D03*
X134023624Y-82146947D03*
%TD*%
%TO.C,MX108*%
X235396624Y-103736947D03*
X248323624Y-101196947D03*
%TD*%
D12*
%TO.C,D55*%
X402977874Y-166471947D03*
X402977874Y-169271947D03*
%TD*%
%TO.C,D5*%
X498227874Y-147421947D03*
X498227874Y-150221947D03*
%TD*%
D11*
%TO.C,MX158*%
X63946624Y-122786947D03*
X76873624Y-120246947D03*
%TD*%
D13*
%TO.C,D214*%
X34490374Y-58334447D03*
X31690374Y-58334447D03*
%TD*%
D11*
%TO.C,MX13*%
X502096624Y-160886947D03*
X515023624Y-158346947D03*
%TD*%
D12*
%TO.C,D31*%
X422027874Y-109321947D03*
X422027874Y-112121947D03*
%TD*%
%TO.C,D92*%
X288662568Y-71236098D03*
X288662568Y-74036098D03*
%TD*%
D11*
%TO.C,MX154*%
X63946624Y-46586947D03*
X76873624Y-44046947D03*
%TD*%
D12*
%TO.C,D36*%
X441077874Y-71221947D03*
X441077874Y-74021947D03*
%TD*%
%TO.C,D84*%
X269612568Y-52186098D03*
X269612568Y-54986098D03*
%TD*%
%TO.C,D67*%
X364877874Y-128371947D03*
X364877874Y-131171947D03*
%TD*%
D11*
%TO.C,MX63*%
X349696624Y-46586947D03*
X362623624Y-44046947D03*
%TD*%
D12*
%TO.C,D78*%
X326777874Y-71221947D03*
X326777874Y-74021947D03*
%TD*%
%TO.C,D27*%
X479177874Y-166471947D03*
X479177874Y-169271947D03*
%TD*%
%TO.C,D106*%
X250577874Y-71221947D03*
X250577874Y-74021947D03*
%TD*%
D11*
%TO.C,MX122*%
X197296624Y-103736947D03*
X210223624Y-101196947D03*
%TD*%
D12*
%TO.C,D165*%
X98177874Y-128371947D03*
X98177874Y-131171947D03*
%TD*%
%TO.C,D89*%
X269612568Y-147436098D03*
X269612568Y-150236098D03*
%TD*%
D11*
%TO.C,MX113*%
X178246624Y-65636947D03*
X191173624Y-63096947D03*
%TD*%
%TO.C,MX101*%
X216346624Y-103736947D03*
X229273624Y-101196947D03*
%TD*%
D12*
%TO.C,D96*%
X288662568Y-147436098D03*
X288662568Y-150236098D03*
%TD*%
%TO.C,D0*%
X498227874Y-52171947D03*
X498227874Y-54971947D03*
%TD*%
%TO.C,D108*%
X250577874Y-109321947D03*
X250577874Y-112121947D03*
%TD*%
D11*
%TO.C,MX40*%
X425896624Y-141836947D03*
X438823624Y-139296947D03*
%TD*%
D12*
%TO.C,D83*%
X326777874Y-166471947D03*
X326777874Y-169271947D03*
%TD*%
D11*
%TO.C,MX165*%
X82996624Y-122786947D03*
X95923624Y-120246947D03*
%TD*%
%TO.C,MX46*%
X368746624Y-122786947D03*
X381673624Y-120246947D03*
%TD*%
%TO.C,MX80*%
X311596624Y-103736947D03*
X324523624Y-101196947D03*
%TD*%
%TO.C,MX151*%
X121096624Y-122786947D03*
X134023624Y-120246947D03*
%TD*%
%TO.C,MX99*%
X216346624Y-65636947D03*
X229273624Y-63096947D03*
%TD*%
D12*
%TO.C,D28*%
X422027874Y-52171947D03*
X422027874Y-54971947D03*
%TD*%
D11*
%TO.C,MX164*%
X82996624Y-103736947D03*
X95923624Y-101196947D03*
%TD*%
D13*
%TO.C,D213*%
X66615374Y-76590697D03*
X69415374Y-76590697D03*
%TD*%
D12*
%TO.C,D104*%
X231527874Y-166284447D03*
X231527874Y-169084447D03*
%TD*%
D11*
%TO.C,MX14*%
X444946624Y-46586947D03*
X457873624Y-44046947D03*
%TD*%
%TO.C,MX44*%
X368746624Y-84686947D03*
X381673624Y-82146947D03*
%TD*%
%TO.C,MX74*%
X292546624Y-122786947D03*
X305473624Y-120246947D03*
%TD*%
%TO.C,MX23*%
X463996624Y-84686947D03*
X476923624Y-82146947D03*
%TD*%
D12*
%TO.C,D125*%
X212477874Y-166471947D03*
X212477874Y-169271947D03*
%TD*%
D11*
%TO.C,MX24*%
X463996624Y-103736947D03*
X476923624Y-101196947D03*
%TD*%
D12*
%TO.C,D121*%
X212477874Y-90271947D03*
X212477874Y-93071947D03*
%TD*%
D11*
%TO.C,MX4*%
X483046624Y-122786947D03*
X495973624Y-120246947D03*
%TD*%
D12*
%TO.C,D23*%
X479177874Y-90271947D03*
X479177874Y-93071947D03*
%TD*%
D11*
%TO.C,MX93*%
X273481318Y-84701098D03*
X286408318Y-82161098D03*
%TD*%
%TO.C,MX66*%
X349696624Y-103736947D03*
X362623624Y-101196947D03*
%TD*%
%TO.C,MX87*%
X254431318Y-103751098D03*
X267358318Y-101211098D03*
%TD*%
D12*
%TO.C,D117*%
X193427874Y-147421947D03*
X193427874Y-150221947D03*
%TD*%
D11*
%TO.C,MX79*%
X311596624Y-84686947D03*
X324523624Y-82146947D03*
%TD*%
D12*
%TO.C,D8*%
X517277874Y-71221947D03*
X517277874Y-74021947D03*
%TD*%
%TO.C,D33*%
X422027874Y-147421947D03*
X422027874Y-150221947D03*
%TD*%
%TO.C,D35*%
X441077874Y-52171947D03*
X441077874Y-54971947D03*
%TD*%
D11*
%TO.C,MX15*%
X444946624Y-65636947D03*
X457873624Y-63096947D03*
%TD*%
D12*
%TO.C,D164*%
X98177874Y-109321947D03*
X98177874Y-112121947D03*
%TD*%
D11*
%TO.C,MX75*%
X292546624Y-141836947D03*
X305473624Y-139296947D03*
%TD*%
%TO.C,MX116*%
X178246624Y-122786947D03*
X191173624Y-120246947D03*
%TD*%
%TO.C,MX120*%
X197296624Y-65636947D03*
X210223624Y-63096947D03*
%TD*%
%TO.C,MX115*%
X178246624Y-103736947D03*
X191173624Y-101196947D03*
%TD*%
D12*
%TO.C,D19*%
X460127874Y-147421947D03*
X460127874Y-150221947D03*
%TD*%
D11*
%TO.C,MX3*%
X483046624Y-103736947D03*
X495973624Y-101196947D03*
%TD*%
%TO.C,MX90*%
X254431318Y-160901098D03*
X267358318Y-158361098D03*
%TD*%
D12*
%TO.C,D174*%
X41027874Y-166471947D03*
X41027874Y-169271947D03*
%TD*%
D13*
%TO.C,D202*%
X468252874Y-76590697D03*
X471052874Y-76590697D03*
%TD*%
D11*
%TO.C,MX153*%
X121096624Y-160886947D03*
X134023624Y-158346947D03*
%TD*%
%TO.C,MX159*%
X63946624Y-141836947D03*
X76873624Y-139296947D03*
%TD*%
%TO.C,MX167*%
X82996624Y-160886947D03*
X95923624Y-158346947D03*
%TD*%
%TO.C,MX51*%
X387796624Y-84686947D03*
X400723624Y-82146947D03*
%TD*%
D12*
%TO.C,D161*%
X98177874Y-52171947D03*
X98177874Y-54971947D03*
%TD*%
%TO.C,D38*%
X441077874Y-109321947D03*
X441077874Y-112121947D03*
%TD*%
D11*
%TO.C,MX162*%
X82996624Y-65636947D03*
X95923624Y-63096947D03*
%TD*%
%TO.C,MX54*%
X387796624Y-141836947D03*
X400723624Y-139296947D03*
%TD*%
D12*
%TO.C,D101*%
X231527874Y-109321947D03*
X231527874Y-112121947D03*
%TD*%
%TO.C,D65*%
X364877874Y-90271947D03*
X364877874Y-93071947D03*
%TD*%
D11*
%TO.C,MX20*%
X444946624Y-160886947D03*
X457873624Y-158346947D03*
%TD*%
%TO.C,MX21*%
X463996624Y-46586947D03*
X476923624Y-44046947D03*
%TD*%
D12*
%TO.C,D136*%
X174377874Y-109321947D03*
X174377874Y-112121947D03*
%TD*%
D11*
%TO.C,MX176*%
X44896624Y-65636947D03*
X57823624Y-63096947D03*
%TD*%
D12*
%TO.C,D122*%
X212477874Y-109321947D03*
X212477874Y-112121947D03*
%TD*%
D11*
%TO.C,MX11*%
X502096624Y-122786947D03*
X515023624Y-120246947D03*
%TD*%
%TO.C,MX141*%
X102046624Y-65636947D03*
X114973624Y-63096947D03*
%TD*%
%TO.C,MX49*%
X387796624Y-46586947D03*
X400723624Y-44046947D03*
%TD*%
%TO.C,MX142*%
X102046624Y-84686947D03*
X114973624Y-82146947D03*
%TD*%
%TO.C,MX6*%
X483046624Y-160886947D03*
X495973624Y-158346947D03*
%TD*%
%TO.C,MX59*%
X330646624Y-103736947D03*
X343573624Y-101196947D03*
%TD*%
%TO.C,MX36*%
X425896624Y-65636947D03*
X438823624Y-63096947D03*
%TD*%
D12*
%TO.C,D59*%
X345827874Y-109321947D03*
X345827874Y-112121947D03*
%TD*%
%TO.C,D172*%
X41027874Y-128371947D03*
X41027874Y-131171947D03*
%TD*%
D11*
%TO.C,MX95*%
X273481318Y-122801098D03*
X286408318Y-120261098D03*
%TD*%
D12*
%TO.C,D32*%
X422027874Y-128371947D03*
X422027874Y-131171947D03*
%TD*%
%TO.C,D155*%
X79127874Y-71221947D03*
X79127874Y-74021947D03*
%TD*%
%TO.C,D76*%
X307727874Y-166471947D03*
X307727874Y-169271947D03*
%TD*%
D11*
%TO.C,MX82*%
X311596624Y-141836947D03*
X324523624Y-139296947D03*
%TD*%
D12*
%TO.C,D94*%
X288662568Y-109336098D03*
X288662568Y-112136098D03*
%TD*%
%TO.C,D168*%
X41027874Y-52171947D03*
X41027874Y-54971947D03*
%TD*%
%TO.C,D171*%
X41027874Y-109321947D03*
X41027874Y-112121947D03*
%TD*%
D11*
%TO.C,MX17*%
X444946624Y-103736947D03*
X457873624Y-101196947D03*
%TD*%
D12*
%TO.C,D93*%
X288662568Y-90286098D03*
X288662568Y-93086098D03*
%TD*%
%TO.C,D113*%
X193427874Y-71221947D03*
X193427874Y-74021947D03*
%TD*%
D11*
%TO.C,MX10*%
X502096624Y-103736947D03*
X515023624Y-101196947D03*
%TD*%
%TO.C,MX77*%
X311596624Y-46586947D03*
X324523624Y-44046947D03*
%TD*%
D12*
%TO.C,D130*%
X155327874Y-128371947D03*
X155327874Y-131171947D03*
%TD*%
D11*
%TO.C,MX55*%
X387796624Y-160886947D03*
X400723624Y-158346947D03*
%TD*%
D12*
%TO.C,D91*%
X288662568Y-52186098D03*
X288662568Y-54986098D03*
%TD*%
D11*
%TO.C,MX148*%
X121096624Y-65636947D03*
X134023624Y-63096947D03*
%TD*%
%TO.C,MX132*%
X140146624Y-160886947D03*
X153073624Y-158346947D03*
%TD*%
%TO.C,MX88*%
X254431318Y-122801098D03*
X267358318Y-120261098D03*
%TD*%
D12*
%TO.C,D111*%
X250577874Y-166471947D03*
X250577874Y-169271947D03*
%TD*%
%TO.C,D123*%
X212477874Y-128371947D03*
X212477874Y-131171947D03*
%TD*%
D11*
%TO.C,MX72*%
X292546624Y-84686947D03*
X305473624Y-82146947D03*
%TD*%
D12*
%TO.C,D179*%
X60077874Y-128371947D03*
X60077874Y-131171947D03*
%TD*%
D11*
%TO.C,MX127*%
X140146624Y-65636947D03*
X153073624Y-63096947D03*
%TD*%
D13*
%TO.C,D209*%
X243246624Y-152790697D03*
X240446624Y-152790697D03*
%TD*%
D11*
%TO.C,MX76*%
X292546624Y-160886947D03*
X305473624Y-158346947D03*
%TD*%
D12*
%TO.C,D112*%
X193427874Y-52171947D03*
X193427874Y-54971947D03*
%TD*%
%TO.C,D150*%
X136277874Y-109321947D03*
X136277874Y-112121947D03*
%TD*%
%TO.C,D15*%
X460127874Y-71221947D03*
X460127874Y-74021947D03*
%TD*%
D11*
%TO.C,MX170*%
X25846624Y-84686947D03*
X38773624Y-82146947D03*
%TD*%
D12*
%TO.C,D86*%
X269612568Y-90286098D03*
X269612568Y-93086098D03*
%TD*%
D11*
%TO.C,MX125*%
X197296624Y-160886947D03*
X210223624Y-158346947D03*
%TD*%
D13*
%TO.C,D201*%
X505440374Y-57540697D03*
X508240374Y-57540697D03*
%TD*%
D11*
%TO.C,MX52*%
X387796624Y-103736947D03*
X400723624Y-101196947D03*
%TD*%
D12*
%TO.C,D73*%
X307727874Y-109321947D03*
X307727874Y-112121947D03*
%TD*%
D11*
%TO.C,MX166*%
X82996624Y-141836947D03*
X95923624Y-139296947D03*
%TD*%
%TO.C,MX60*%
X330646624Y-122786947D03*
X343573624Y-120246947D03*
%TD*%
%TO.C,MX157*%
X63946624Y-103736947D03*
X76873624Y-101196947D03*
%TD*%
%TO.C,MX61*%
X330646624Y-141836947D03*
X343573624Y-139296947D03*
%TD*%
D12*
%TO.C,D75*%
X307727874Y-147421947D03*
X307727874Y-150221947D03*
%TD*%
D11*
%TO.C,MX121*%
X197296624Y-84686947D03*
X210223624Y-82146947D03*
%TD*%
%TO.C,MX152*%
X121096624Y-141836947D03*
X134023624Y-139296947D03*
%TD*%
%TO.C,MX62*%
X330646624Y-160886947D03*
X343573624Y-158346947D03*
%TD*%
D13*
%TO.C,D206*%
X300396624Y-152790697D03*
X297596624Y-152790697D03*
%TD*%
D12*
%TO.C,D133*%
X174377874Y-52171947D03*
X174377874Y-54971947D03*
%TD*%
%TO.C,D13*%
X517277874Y-166471947D03*
X517277874Y-169271947D03*
%TD*%
D11*
%TO.C,MX146*%
X102046624Y-160886947D03*
X114973624Y-158346947D03*
%TD*%
%TO.C,MX102*%
X216346624Y-122786947D03*
X229273624Y-120246947D03*
%TD*%
D12*
%TO.C,D126*%
X155327874Y-52171947D03*
X155327874Y-54971947D03*
%TD*%
D11*
%TO.C,MX41*%
X425896624Y-160886947D03*
X438823624Y-158346947D03*
%TD*%
%TO.C,MX133*%
X159196624Y-46586947D03*
X172123624Y-44046947D03*
%TD*%
D12*
%TO.C,D12*%
X517277874Y-147421947D03*
X517277874Y-150221947D03*
%TD*%
D11*
%TO.C,MX163*%
X82996624Y-84686947D03*
X95923624Y-82146947D03*
%TD*%
D12*
%TO.C,D105*%
X250577874Y-52171947D03*
X250577874Y-54971947D03*
%TD*%
%TO.C,D79*%
X326777874Y-90271947D03*
X326777874Y-93071947D03*
%TD*%
%TO.C,D148*%
X136277874Y-71221947D03*
X136277874Y-74021947D03*
%TD*%
%TO.C,D74*%
X307727874Y-128371947D03*
X307727874Y-131171947D03*
%TD*%
%TO.C,D166*%
X98177874Y-147421947D03*
X98177874Y-150221947D03*
%TD*%
%TO.C,D156*%
X79127874Y-90271947D03*
X79127874Y-93071947D03*
%TD*%
D11*
%TO.C,MX43*%
X368746624Y-65636947D03*
X381673624Y-63096947D03*
%TD*%
D12*
%TO.C,D149*%
X136277874Y-90271947D03*
X136277874Y-93071947D03*
%TD*%
D11*
%TO.C,MX171*%
X25846624Y-103736947D03*
X38773624Y-101196947D03*
%TD*%
D12*
%TO.C,D53*%
X402977874Y-128371947D03*
X402977874Y-131171947D03*
%TD*%
%TO.C,D30*%
X422027874Y-90271947D03*
X422027874Y-93071947D03*
%TD*%
%TO.C,D98*%
X231527874Y-52171947D03*
X231527874Y-54971947D03*
%TD*%
%TO.C,D39*%
X441077874Y-128371947D03*
X441077874Y-131171947D03*
%TD*%
%TO.C,D134*%
X174377874Y-71221947D03*
X174377874Y-74021947D03*
%TD*%
D11*
%TO.C,MX119*%
X197296624Y-46586947D03*
X210223624Y-44046947D03*
%TD*%
D12*
%TO.C,D176*%
X60077874Y-71221947D03*
X60077874Y-74021947D03*
%TD*%
D13*
%TO.C,D210*%
X181709124Y-134534447D03*
X184509124Y-134534447D03*
%TD*%
D11*
%TO.C,MX107*%
X235396624Y-84686947D03*
X248323624Y-82146947D03*
%TD*%
%TO.C,MX70*%
X292546624Y-46586947D03*
X305473624Y-44046947D03*
%TD*%
%TO.C,MX69*%
X349696624Y-160886947D03*
X362623624Y-158346947D03*
%TD*%
%TO.C,MX78*%
X311596624Y-65636947D03*
X324523624Y-63096947D03*
%TD*%
D12*
%TO.C,D158*%
X79127874Y-128371947D03*
X79127874Y-131171947D03*
%TD*%
D11*
%TO.C,MX173*%
X25846624Y-141836947D03*
X38773624Y-139296947D03*
%TD*%
%TO.C,MX145*%
X102046624Y-141836947D03*
X114973624Y-139296947D03*
%TD*%
%TO.C,MX100*%
X216346624Y-84686947D03*
X229273624Y-82146947D03*
%TD*%
%TO.C,MX28*%
X406846624Y-46586947D03*
X419773624Y-44046947D03*
%TD*%
D12*
%TO.C,D69*%
X364877874Y-166471947D03*
X364877874Y-169271947D03*
%TD*%
D11*
%TO.C,MX147*%
X121096624Y-46586947D03*
X134023624Y-44046947D03*
%TD*%
%TO.C,MX8*%
X502096624Y-65636947D03*
X515023624Y-63096947D03*
%TD*%
D12*
%TO.C,D99*%
X231527874Y-71221947D03*
X231527874Y-74021947D03*
%TD*%
D11*
%TO.C,MX34*%
X406846624Y-160886947D03*
X419773624Y-158346947D03*
%TD*%
D12*
%TO.C,D144*%
X117227874Y-128371947D03*
X117227874Y-131171947D03*
%TD*%
D11*
%TO.C,MX97*%
X273481318Y-160901098D03*
X286408318Y-158361098D03*
%TD*%
D12*
%TO.C,D109*%
X250577874Y-128371947D03*
X250577874Y-131171947D03*
%TD*%
%TO.C,D7*%
X517277874Y-52171947D03*
X517277874Y-54971947D03*
%TD*%
%TO.C,D14*%
X460127874Y-52171947D03*
X460127874Y-54971947D03*
%TD*%
%TO.C,D26*%
X479177874Y-147421947D03*
X479177874Y-150221947D03*
%TD*%
D11*
%TO.C,MX111*%
X235396624Y-160886947D03*
X248323624Y-158346947D03*
%TD*%
D12*
%TO.C,D71*%
X307727874Y-71221947D03*
X307727874Y-74021947D03*
%TD*%
%TO.C,D143*%
X117227874Y-109321947D03*
X117227874Y-112121947D03*
%TD*%
D11*
%TO.C,MX110*%
X235396624Y-141836947D03*
X248323624Y-139296947D03*
%TD*%
%TO.C,MX56*%
X330646624Y-46586947D03*
X343573624Y-44046947D03*
%TD*%
D12*
%TO.C,D118*%
X193427874Y-166471947D03*
X193427874Y-169271947D03*
%TD*%
D13*
%TO.C,D211*%
X164246624Y-114690697D03*
X167046624Y-114690697D03*
%TD*%
D11*
%TO.C,MX58*%
X330646624Y-84686947D03*
X343573624Y-82146947D03*
%TD*%
D12*
%TO.C,D45*%
X383927874Y-109321947D03*
X383927874Y-112121947D03*
%TD*%
%TO.C,D60*%
X345827874Y-128371947D03*
X345827874Y-131171947D03*
%TD*%
%TO.C,D120*%
X212477874Y-71221947D03*
X212477874Y-74021947D03*
%TD*%
D11*
%TO.C,MX180*%
X44896624Y-141836947D03*
X57823624Y-139296947D03*
%TD*%
D12*
%TO.C,D159*%
X79127874Y-147421947D03*
X79127874Y-150221947D03*
%TD*%
%TO.C,D10*%
X517277874Y-109321947D03*
X517277874Y-112121947D03*
%TD*%
%TO.C,D103*%
X231527874Y-147421947D03*
X231527874Y-150221947D03*
%TD*%
D11*
%TO.C,MX169*%
X25846624Y-65636947D03*
X38773624Y-63096947D03*
%TD*%
D12*
%TO.C,D116*%
X193427874Y-128371947D03*
X193427874Y-131171947D03*
%TD*%
%TO.C,D25*%
X479177874Y-128371947D03*
X479177874Y-131171947D03*
%TD*%
D11*
%TO.C,MX136*%
X159196624Y-103736947D03*
X172123624Y-101196947D03*
%TD*%
D12*
%TO.C,D145*%
X117227874Y-147421947D03*
X117227874Y-150221947D03*
%TD*%
D11*
%TO.C,MX2*%
X483046624Y-84686947D03*
X495973624Y-82146947D03*
%TD*%
%TO.C,MX156*%
X63946624Y-84686947D03*
X76873624Y-82146947D03*
%TD*%
%TO.C,MX68*%
X349696624Y-141836947D03*
X362623624Y-139296947D03*
%TD*%
D12*
%TO.C,D50*%
X402977874Y-71221947D03*
X402977874Y-74021947D03*
%TD*%
%TO.C,D152*%
X136277874Y-147234447D03*
X136277874Y-150034447D03*
%TD*%
%TO.C,D175*%
X60077874Y-52171947D03*
X60077874Y-54971947D03*
%TD*%
%TO.C,D77*%
X326777874Y-52171947D03*
X326777874Y-54971947D03*
%TD*%
%TO.C,D138*%
X174377874Y-147421947D03*
X174377874Y-150221947D03*
%TD*%
D11*
%TO.C,MX73*%
X292546624Y-103736947D03*
X305473624Y-101196947D03*
%TD*%
%TO.C,MX84*%
X254431318Y-46601098D03*
X267358318Y-44061098D03*
%TD*%
%TO.C,MX135*%
X159196624Y-84686947D03*
X172123624Y-82146947D03*
%TD*%
%TO.C,MX114*%
X178246624Y-84686947D03*
X191173624Y-82146947D03*
%TD*%
D12*
%TO.C,D43*%
X383927874Y-71221947D03*
X383927874Y-74021947D03*
%TD*%
%TO.C,D17*%
X460127874Y-109321947D03*
X460127874Y-112121947D03*
%TD*%
D11*
%TO.C,MX168*%
X25846624Y-46586947D03*
X38773624Y-44046947D03*
%TD*%
D12*
%TO.C,D87*%
X269612568Y-109336098D03*
X269612568Y-112136098D03*
%TD*%
D11*
%TO.C,MX177*%
X44896624Y-84686947D03*
X57823624Y-82146947D03*
%TD*%
D12*
%TO.C,D37*%
X441077874Y-90271947D03*
X441077874Y-93071947D03*
%TD*%
D11*
%TO.C,MX98*%
X216346624Y-46586947D03*
X229273624Y-44046947D03*
%TD*%
D12*
%TO.C,D163*%
X98177874Y-90271947D03*
X98177874Y-93071947D03*
%TD*%
%TO.C,D29*%
X422027874Y-71221947D03*
X422027874Y-74021947D03*
%TD*%
D11*
%TO.C,MX174*%
X25846624Y-160886947D03*
X38773624Y-158346947D03*
%TD*%
D13*
%TO.C,D205*%
X354746624Y-132946947D03*
X357546624Y-132946947D03*
%TD*%
D12*
%TO.C,D18*%
X460127874Y-128371947D03*
X460127874Y-131171947D03*
%TD*%
%TO.C,D170*%
X41027874Y-90271947D03*
X41027874Y-93071947D03*
%TD*%
%TO.C,D114*%
X193427874Y-90271947D03*
X193427874Y-93071947D03*
%TD*%
D13*
%TO.C,D204*%
X392846624Y-115484447D03*
X395646624Y-115484447D03*
%TD*%
D12*
%TO.C,D154*%
X79127874Y-52171947D03*
X79127874Y-54971947D03*
%TD*%
D11*
%TO.C,MX38*%
X425896624Y-103736947D03*
X438823624Y-101196947D03*
%TD*%
%TO.C,MX64*%
X349696624Y-65636947D03*
X362623624Y-63096947D03*
%TD*%
D12*
%TO.C,D162*%
X98177874Y-71221947D03*
X98177874Y-74021947D03*
%TD*%
D11*
%TO.C,MX94*%
X273481318Y-103751098D03*
X286408318Y-101211098D03*
%TD*%
D13*
%TO.C,D203*%
X427771624Y-95640697D03*
X430571624Y-95640697D03*
%TD*%
D12*
%TO.C,D68*%
X364877874Y-147421947D03*
X364877874Y-150221947D03*
%TD*%
%TO.C,D124*%
X212477874Y-147421947D03*
X212477874Y-150221947D03*
%TD*%
%TO.C,D21*%
X479177874Y-52171947D03*
X479177874Y-54971947D03*
%TD*%
%TO.C,D169*%
X41027874Y-71221947D03*
X41027874Y-74021947D03*
%TD*%
%TO.C,D127*%
X155327874Y-71221947D03*
X155327874Y-74021947D03*
%TD*%
D11*
%TO.C,MX106*%
X235396624Y-65636947D03*
X248323624Y-63096947D03*
%TD*%
D12*
%TO.C,D97*%
X288662568Y-166486098D03*
X288662568Y-169286098D03*
%TD*%
%TO.C,D173*%
X41027874Y-147421947D03*
X41027874Y-150221947D03*
%TD*%
D11*
%TO.C,MX104*%
X216346624Y-160886947D03*
X229273624Y-158346947D03*
%TD*%
%TO.C,MX29*%
X406846624Y-65636947D03*
X419773624Y-63096947D03*
%TD*%
D12*
%TO.C,D151*%
X136277874Y-128371947D03*
X136277874Y-131171947D03*
%TD*%
%TO.C,D41*%
X441077874Y-166471947D03*
X441077874Y-169271947D03*
%TD*%
D13*
%TO.C,D207*%
X279340374Y-171840697D03*
X282140374Y-171840697D03*
%TD*%
D11*
%TO.C,MX0*%
X483046624Y-46586947D03*
X495973624Y-44046947D03*
%TD*%
D12*
%TO.C,D141*%
X117227874Y-71221947D03*
X117227874Y-74021947D03*
%TD*%
D13*
%TO.C,D208*%
X258702874Y-171840697D03*
X261502874Y-171840697D03*
%TD*%
D11*
%TO.C,MX19*%
X444946624Y-141836947D03*
X457873624Y-139296947D03*
%TD*%
D12*
%TO.C,D58*%
X345827874Y-90271947D03*
X345827874Y-93071947D03*
%TD*%
%TO.C,D110*%
X250577874Y-147421947D03*
X250577874Y-150221947D03*
%TD*%
D11*
%TO.C,MX39*%
X425896624Y-122786947D03*
X438823624Y-120246947D03*
%TD*%
D12*
%TO.C,D34*%
X422027874Y-166471947D03*
X422027874Y-169271947D03*
%TD*%
D11*
%TO.C,MX27*%
X463996624Y-160886947D03*
X476923624Y-158346947D03*
%TD*%
%TO.C,MX143*%
X102046624Y-103736947D03*
X114973624Y-101196947D03*
%TD*%
%TO.C,MX128*%
X140146624Y-84686947D03*
X153073624Y-82146947D03*
%TD*%
D12*
%TO.C,D20*%
X460127874Y-166471947D03*
X460127874Y-169271947D03*
%TD*%
D11*
%TO.C,MX118*%
X178246624Y-160886947D03*
X191173624Y-158346947D03*
%TD*%
D12*
%TO.C,D135*%
X174377874Y-90271947D03*
X174377874Y-93071947D03*
%TD*%
D11*
%TO.C,MX172*%
X25846624Y-122786947D03*
X38773624Y-120246947D03*
%TD*%
D12*
%TO.C,D119*%
X212477874Y-52171947D03*
X212477874Y-54971947D03*
%TD*%
D11*
%TO.C,MX45*%
X368746624Y-103736947D03*
X381673624Y-101196947D03*
%TD*%
%TO.C,MX89*%
X254431318Y-141851098D03*
X267358318Y-139311098D03*
%TD*%
%TO.C,MX57*%
X330646624Y-65636947D03*
X343573624Y-63096947D03*
%TD*%
%TO.C,MX67*%
X349696624Y-122786947D03*
X362623624Y-120246947D03*
%TD*%
D12*
%TO.C,D57*%
X345827874Y-71221947D03*
X345827874Y-74021947D03*
%TD*%
D11*
%TO.C,MX9*%
X502096624Y-84686947D03*
X515023624Y-82146947D03*
%TD*%
D12*
%TO.C,D88*%
X269612568Y-128386098D03*
X269612568Y-131186098D03*
%TD*%
D11*
%TO.C,MX175*%
X44896624Y-46586947D03*
X57823624Y-44046947D03*
%TD*%
%TO.C,MX22*%
X463996624Y-65636947D03*
X476923624Y-63096947D03*
%TD*%
D12*
%TO.C,D100*%
X231527874Y-90271947D03*
X231527874Y-93071947D03*
%TD*%
%TO.C,D128*%
X155327874Y-90271947D03*
X155327874Y-93071947D03*
%TD*%
D11*
%TO.C,MX31*%
X406846624Y-103736947D03*
X419773624Y-101196947D03*
%TD*%
D12*
%TO.C,D66*%
X364877874Y-109321947D03*
X364877874Y-112121947D03*
%TD*%
%TO.C,D56*%
X345827874Y-52171947D03*
X345827874Y-54971947D03*
%TD*%
D11*
%TO.C,MX123*%
X197296624Y-122786947D03*
X210223624Y-120246947D03*
%TD*%
D12*
%TO.C,D46*%
X383927874Y-128371947D03*
X383927874Y-131171947D03*
%TD*%
%TO.C,D180*%
X60077874Y-147421947D03*
X60077874Y-150221947D03*
%TD*%
%TO.C,D42*%
X383927874Y-52171947D03*
X383927874Y-54971947D03*
%TD*%
D11*
%TO.C,MX85*%
X254431318Y-65651098D03*
X267358318Y-63111098D03*
%TD*%
%TO.C,MX160*%
X63946624Y-160886947D03*
X76873624Y-158346947D03*
%TD*%
%TO.C,MX26*%
X463996624Y-141836947D03*
X476923624Y-139296947D03*
%TD*%
D12*
%TO.C,D61*%
X345827874Y-147421947D03*
X345827874Y-150221947D03*
%TD*%
%TO.C,D81*%
X326777874Y-128184447D03*
X326777874Y-130984447D03*
%TD*%
%TO.C,D44*%
X383927874Y-90271947D03*
X383927874Y-93071947D03*
%TD*%
D11*
%TO.C,MX96*%
X273481318Y-141851098D03*
X286408318Y-139311098D03*
%TD*%
D12*
%TO.C,D160*%
X79127874Y-166471947D03*
X79127874Y-169271947D03*
%TD*%
D11*
%TO.C,MX16*%
X444946624Y-84686947D03*
X457873624Y-82146947D03*
%TD*%
D12*
%TO.C,D107*%
X250577874Y-90271947D03*
X250577874Y-93071947D03*
%TD*%
D11*
%TO.C,MX179*%
X44896624Y-122786947D03*
X57823624Y-120246947D03*
%TD*%
D12*
%TO.C,D9*%
X517277874Y-90271947D03*
X517277874Y-93071947D03*
%TD*%
%TO.C,D51*%
X402977874Y-90271947D03*
X402977874Y-93071947D03*
%TD*%
%TO.C,D11*%
X517277874Y-128371947D03*
X517277874Y-131171947D03*
%TD*%
D11*
%TO.C,MX42*%
X368746624Y-46586947D03*
X381673624Y-44046947D03*
%TD*%
%TO.C,MX83*%
X311596624Y-160886947D03*
X324523624Y-158346947D03*
%TD*%
D12*
%TO.C,D167*%
X98177874Y-166471947D03*
X98177874Y-169271947D03*
%TD*%
D11*
%TO.C,MX103*%
X216346624Y-141836947D03*
X229273624Y-139296947D03*
%TD*%
%TO.C,MX139*%
X159196624Y-160886947D03*
X172123624Y-158346947D03*
%TD*%
%TO.C,MX138*%
X159196624Y-141836947D03*
X172123624Y-139296947D03*
%TD*%
D12*
%TO.C,D85*%
X269612568Y-71236098D03*
X269612568Y-74036098D03*
%TD*%
%TO.C,D142*%
X117227874Y-90271947D03*
X117227874Y-93071947D03*
%TD*%
D11*
%TO.C,MX137*%
X159196624Y-122786947D03*
X172123624Y-120246947D03*
%TD*%
D12*
%TO.C,D6*%
X498227874Y-166471947D03*
X498227874Y-169271947D03*
%TD*%
D11*
%TO.C,MX126*%
X140146624Y-46586947D03*
X153073624Y-44046947D03*
%TD*%
D12*
%TO.C,D146*%
X117227874Y-166471947D03*
X117227874Y-169271947D03*
%TD*%
%TO.C,D82*%
X326777874Y-147421947D03*
X326777874Y-150221947D03*
%TD*%
%TO.C,D48*%
X383927874Y-166471947D03*
X383927874Y-169271947D03*
%TD*%
M02*
