%TF.GenerationSoftware,KiCad,Pcbnew,(6.0.5)*%
%TF.CreationDate,2022-08-07T16:14:43-07:00*%
%TF.ProjectId,Dreadnoughtus,44726561-646e-46f7-9567-687475732e6b,rev?*%
%TF.SameCoordinates,Original*%
%TF.FileFunction,Copper,L1,Top*%
%TF.FilePolarity,Positive*%
%FSLAX46Y46*%
G04 Gerber Fmt 4.6, Leading zero omitted, Abs format (unit mm)*
G04 Created by KiCad (PCBNEW (6.0.5)) date 2022-08-07 16:14:43*
%MOMM*%
%LPD*%
G01*
G04 APERTURE LIST*
%TA.AperFunction,Profile*%
%ADD10C,0.100000*%
%TD*%
%TA.AperFunction,SMDPad,CuDef*%
%ADD11R,0.500000X2.900000*%
%TD*%
%TA.AperFunction,ComponentPad*%
%ADD12R,1.600000X1.600000*%
%TD*%
%TA.AperFunction,SMDPad,CuDef*%
%ADD13R,1.200000X1.600000*%
%TD*%
%TA.AperFunction,ComponentPad*%
%ADD14C,1.600000*%
%TD*%
%TA.AperFunction,SMDPad,CuDef*%
%ADD15R,2.900000X0.500000*%
%TD*%
%TA.AperFunction,SMDPad,CuDef*%
%ADD16R,1.600000X1.200000*%
%TD*%
%TA.AperFunction,ComponentPad*%
%ADD17C,1.651000*%
%TD*%
%TA.AperFunction,ComponentPad*%
%ADD18R,1.752600X1.752600*%
%TD*%
%TA.AperFunction,ComponentPad*%
%ADD19C,1.752600*%
%TD*%
%TA.AperFunction,ComponentPad*%
%ADD20C,1.700000*%
%TD*%
%TA.AperFunction,ComponentPad*%
%ADD21O,1.700000X1.700000*%
%TD*%
%TA.AperFunction,ComponentPad*%
%ADD22C,2.100000*%
%TD*%
%TA.AperFunction,ComponentPad*%
%ADD23C,1.750000*%
%TD*%
%TA.AperFunction,ViaPad*%
%ADD24C,0.800000*%
%TD*%
%TA.AperFunction,Conductor*%
%ADD25C,0.250000*%
%TD*%
G04 APERTURE END LIST*
D10*
X519659124Y-18646947D02*
X519659124Y-172634447D01*
X518865374Y-173428197D01*
X23565374Y-173428197D01*
X22771624Y-172634447D01*
X22771624Y-39284447D01*
X23565374Y-38490697D01*
X446634124Y-38490697D01*
X447427874Y-37696947D01*
X447427874Y-18646947D01*
X448221624Y-17853197D01*
X518865374Y-17853197D01*
X519659124Y-18646947D01*
D11*
%TO.P,D80,1,A*%
%TO.N,Net-(D80-Pad1)*%
X326777874Y-108221947D03*
D12*
X326777874Y-106821947D03*
D13*
X326777874Y-109321947D03*
D11*
%TO.P,D80,2,K*%
%TO.N,Net-(D10-Pad2)*%
X326777874Y-113221947D03*
D13*
X326777874Y-112121947D03*
D14*
X326777874Y-114621947D03*
%TD*%
D13*
%TO.P,D102,1,A*%
%TO.N,Net-(D102-Pad1)*%
X231527874Y-128371947D03*
D12*
X231527874Y-125871947D03*
D11*
X231527874Y-127271947D03*
D13*
%TO.P,D102,2,K*%
%TO.N,Net-(D102-Pad2)*%
X231527874Y-131171947D03*
D14*
X231527874Y-133671947D03*
D11*
X231527874Y-132271947D03*
%TD*%
D12*
%TO.P,D178,1,A*%
%TO.N,Net-(D178-Pad1)*%
X60077874Y-106821947D03*
D11*
X60077874Y-108221947D03*
D13*
X60077874Y-109321947D03*
%TO.P,D178,2,K*%
%TO.N,Net-(D10-Pad2)*%
X60077874Y-112121947D03*
D14*
X60077874Y-114621947D03*
D11*
X60077874Y-113221947D03*
%TD*%
D12*
%TO.P,D177,1,A*%
%TO.N,Net-(D177-Pad1)*%
X60077874Y-87771947D03*
D11*
X60077874Y-89171947D03*
D13*
X60077874Y-90271947D03*
D11*
%TO.P,D177,2,K*%
%TO.N,Net-(D107-Pad2)*%
X60077874Y-94171947D03*
D13*
X60077874Y-93071947D03*
D14*
X60077874Y-95571947D03*
%TD*%
D12*
%TO.P,D140,1,A*%
%TO.N,Net-(D140-Pad1)*%
X117227874Y-49671947D03*
D13*
X117227874Y-52171947D03*
D11*
X117227874Y-51071947D03*
D13*
%TO.P,D140,2,K*%
%TO.N,Net-(D0-Pad2)*%
X117227874Y-54971947D03*
D14*
X117227874Y-57471947D03*
D11*
X117227874Y-56071947D03*
%TD*%
%TO.P,D137,1,A*%
%TO.N,Net-(D137-Pad1)*%
X174377874Y-127271947D03*
D13*
X174377874Y-128371947D03*
D12*
X174377874Y-125871947D03*
D11*
%TO.P,D137,2,K*%
%TO.N,Net-(D109-Pad2)*%
X174377874Y-132271947D03*
D13*
X174377874Y-131171947D03*
D14*
X174377874Y-133671947D03*
%TD*%
D12*
%TO.P,D212,1,A*%
%TO.N,Net-(D107-Pad2)*%
X102215374Y-95640697D03*
D15*
X103615374Y-95640697D03*
D16*
X104715374Y-95640697D03*
D15*
%TO.P,D212,2,K*%
%TO.N,row11*%
X108615374Y-95640697D03*
D14*
X110015374Y-95640697D03*
D16*
X107515374Y-95640697D03*
%TD*%
D12*
%TO.P,D62,1,A*%
%TO.N,Net-(D62-Pad1)*%
X345827874Y-163971947D03*
D13*
X345827874Y-166471947D03*
D11*
X345827874Y-165371947D03*
D14*
%TO.P,D62,2,K*%
%TO.N,Net-(D104-Pad2)*%
X345827874Y-171771947D03*
D11*
X345827874Y-170371947D03*
D13*
X345827874Y-169271947D03*
%TD*%
D11*
%TO.P,D131,1,A*%
%TO.N,Net-(D131-Pad1)*%
X155327874Y-146321947D03*
D13*
X155327874Y-147421947D03*
D12*
X155327874Y-144921947D03*
D14*
%TO.P,D131,2,K*%
%TO.N,Net-(D103-Pad2)*%
X155327874Y-152721947D03*
D13*
X155327874Y-150221947D03*
D11*
X155327874Y-151321947D03*
%TD*%
D12*
%TO.P,D153,1,A*%
%TO.N,Net-(D153-Pad1)*%
X136277874Y-163971947D03*
D11*
X136277874Y-165371947D03*
D13*
X136277874Y-166471947D03*
D11*
%TO.P,D153,2,K*%
%TO.N,Net-(D111-Pad2)*%
X136277874Y-170371947D03*
D14*
X136277874Y-171771947D03*
D13*
X136277874Y-169271947D03*
%TD*%
D11*
%TO.P,D54,1,A*%
%TO.N,Net-(D54-Pad1)*%
X402977874Y-146321947D03*
D12*
X402977874Y-144921947D03*
D13*
X402977874Y-147421947D03*
%TO.P,D54,2,K*%
%TO.N,Net-(D110-Pad2)*%
X402977874Y-150221947D03*
D11*
X402977874Y-151321947D03*
D14*
X402977874Y-152721947D03*
%TD*%
D13*
%TO.P,D129,1,A*%
%TO.N,Net-(D129-Pad1)*%
X155327874Y-109321947D03*
D11*
X155327874Y-108221947D03*
D12*
X155327874Y-106821947D03*
D14*
%TO.P,D129,2,K*%
%TO.N,Net-(D101-Pad2)*%
X155327874Y-114621947D03*
D11*
X155327874Y-113221947D03*
D13*
X155327874Y-112121947D03*
%TD*%
%TO.P,D2,1,A*%
%TO.N,Net-(D2-Pad1)*%
X498227874Y-90271947D03*
D12*
X498227874Y-87771947D03*
D11*
X498227874Y-89171947D03*
D13*
%TO.P,D2,2,K*%
%TO.N,Net-(D100-Pad2)*%
X498227874Y-93071947D03*
D14*
X498227874Y-95571947D03*
D11*
X498227874Y-94171947D03*
%TD*%
D13*
%TO.P,D52,1,A*%
%TO.N,Net-(D52-Pad1)*%
X402977874Y-109321947D03*
D11*
X402977874Y-108221947D03*
D12*
X402977874Y-106821947D03*
D14*
%TO.P,D52,2,K*%
%TO.N,Net-(D10-Pad2)*%
X402977874Y-114621947D03*
D11*
X402977874Y-113221947D03*
D13*
X402977874Y-112121947D03*
%TD*%
%TO.P,D4,1,A*%
%TO.N,Net-(D4-Pad1)*%
X498227874Y-128371947D03*
D12*
X498227874Y-125871947D03*
D11*
X498227874Y-127271947D03*
%TO.P,D4,2,K*%
%TO.N,Net-(D102-Pad2)*%
X498227874Y-132271947D03*
D14*
X498227874Y-133671947D03*
D13*
X498227874Y-131171947D03*
%TD*%
D11*
%TO.P,D90,1,A*%
%TO.N,Net-(D90-Pad1)*%
X269612568Y-165386098D03*
D13*
X269612568Y-166486098D03*
D12*
X269612568Y-163986098D03*
D13*
%TO.P,D90,2,K*%
%TO.N,Net-(D104-Pad2)*%
X269612568Y-169286098D03*
D11*
X269612568Y-170386098D03*
D14*
X269612568Y-171786098D03*
%TD*%
D12*
%TO.P,D72,1,A*%
%TO.N,Net-(D72-Pad1)*%
X307727874Y-87771947D03*
D11*
X307727874Y-89171947D03*
D13*
X307727874Y-90271947D03*
D11*
%TO.P,D72,2,K*%
%TO.N,Net-(D100-Pad2)*%
X307727874Y-94171947D03*
D13*
X307727874Y-93071947D03*
D14*
X307727874Y-95571947D03*
%TD*%
D13*
%TO.P,D139,1,A*%
%TO.N,Net-(D139-Pad1)*%
X174377874Y-166471947D03*
D12*
X174377874Y-163971947D03*
D11*
X174377874Y-165371947D03*
D14*
%TO.P,D139,2,K*%
%TO.N,Net-(D111-Pad2)*%
X174377874Y-171771947D03*
D11*
X174377874Y-170371947D03*
D13*
X174377874Y-169271947D03*
%TD*%
%TO.P,D24,1,A*%
%TO.N,Net-(D24-Pad1)*%
X479177874Y-109321947D03*
D12*
X479177874Y-106821947D03*
D11*
X479177874Y-108221947D03*
D14*
%TO.P,D24,2,K*%
%TO.N,Net-(D10-Pad2)*%
X479177874Y-114621947D03*
D11*
X479177874Y-113221947D03*
D13*
X479177874Y-112121947D03*
%TD*%
%TO.P,D157,1,A*%
%TO.N,Net-(D157-Pad1)*%
X79127874Y-109321947D03*
D12*
X79127874Y-106821947D03*
D11*
X79127874Y-108221947D03*
D14*
%TO.P,D157,2,K*%
%TO.N,Net-(D101-Pad2)*%
X79127874Y-114621947D03*
D13*
X79127874Y-112121947D03*
D11*
X79127874Y-113221947D03*
%TD*%
D13*
%TO.P,D22,1,A*%
%TO.N,Net-(D22-Pad1)*%
X479177874Y-71221947D03*
D11*
X479177874Y-70121947D03*
D12*
X479177874Y-68721947D03*
D14*
%TO.P,D22,2,K*%
%TO.N,Net-(D106-Pad2)*%
X479177874Y-76521947D03*
D11*
X479177874Y-75121947D03*
D13*
X479177874Y-74021947D03*
%TD*%
D17*
%TO.P,R0,1*%
%TO.N,SCL*%
X494461318Y-37696947D03*
%TO.P,R0,2*%
%TO.N,+5V*%
X484301318Y-37696947D03*
%TD*%
D12*
%TO.P,D1,1,A*%
%TO.N,Net-(D1-Pad1)*%
X498227874Y-68721947D03*
D11*
X498227874Y-70121947D03*
D13*
X498227874Y-71221947D03*
D11*
%TO.P,D1,2,K*%
%TO.N,Net-(D1-Pad2)*%
X498227874Y-75121947D03*
D14*
X498227874Y-76521947D03*
D13*
X498227874Y-74021947D03*
%TD*%
D12*
%TO.P,D95,1,A*%
%TO.N,Net-(D95-Pad1)*%
X288662568Y-125886098D03*
D11*
X288662568Y-127286098D03*
D13*
X288662568Y-128386098D03*
D11*
%TO.P,D95,2,K*%
%TO.N,Net-(D109-Pad2)*%
X288662568Y-132286098D03*
D14*
X288662568Y-133686098D03*
D13*
X288662568Y-131186098D03*
%TD*%
D12*
%TO.P,D147,1,A*%
%TO.N,Net-(D147-Pad1)*%
X136277874Y-49671947D03*
D11*
X136277874Y-51071947D03*
D13*
X136277874Y-52171947D03*
D11*
%TO.P,D147,2,K*%
%TO.N,Net-(D105-Pad2)*%
X136277874Y-56071947D03*
D14*
X136277874Y-57471947D03*
D13*
X136277874Y-54971947D03*
%TD*%
D12*
%TO.P,D64,1,A*%
%TO.N,Net-(D64-Pad1)*%
X364877874Y-68721947D03*
D11*
X364877874Y-70121947D03*
D13*
X364877874Y-71221947D03*
D11*
%TO.P,D64,2,K*%
%TO.N,Net-(D106-Pad2)*%
X364877874Y-75121947D03*
D13*
X364877874Y-74021947D03*
D14*
X364877874Y-76521947D03*
%TD*%
D11*
%TO.P,D70,1,A*%
%TO.N,Net-(D70-Pad1)*%
X307727874Y-51071947D03*
D13*
X307727874Y-52171947D03*
D12*
X307727874Y-49671947D03*
D14*
%TO.P,D70,2,K*%
%TO.N,Net-(D0-Pad2)*%
X307727874Y-57471947D03*
D11*
X307727874Y-56071947D03*
D13*
X307727874Y-54971947D03*
%TD*%
D12*
%TO.P,D181,1,A*%
%TO.N,Net-(D181-Pad1)*%
X60077874Y-163971947D03*
D11*
X60077874Y-165371947D03*
D13*
X60077874Y-166471947D03*
D11*
%TO.P,D181,2,K*%
%TO.N,Net-(D111-Pad2)*%
X60077874Y-170371947D03*
D13*
X60077874Y-169271947D03*
D14*
X60077874Y-171771947D03*
%TD*%
D12*
%TO.P,D47,1,A*%
%TO.N,Net-(D47-Pad1)*%
X383927874Y-144921947D03*
D11*
X383927874Y-146321947D03*
D13*
X383927874Y-147421947D03*
%TO.P,D47,2,K*%
%TO.N,Net-(D103-Pad2)*%
X383927874Y-150221947D03*
D14*
X383927874Y-152721947D03*
D11*
X383927874Y-151321947D03*
%TD*%
%TO.P,D49,1,A*%
%TO.N,Net-(D49-Pad1)*%
X402977874Y-51071947D03*
D13*
X402977874Y-52171947D03*
D12*
X402977874Y-49671947D03*
D13*
%TO.P,D49,2,K*%
%TO.N,Net-(D105-Pad2)*%
X402977874Y-54971947D03*
D11*
X402977874Y-56071947D03*
D14*
X402977874Y-57471947D03*
%TD*%
D12*
%TO.P,D63,1,A*%
%TO.N,Net-(D63-Pad1)*%
X364877874Y-49671947D03*
D11*
X364877874Y-51071947D03*
D13*
X364877874Y-52171947D03*
D14*
%TO.P,D63,2,K*%
%TO.N,Net-(D105-Pad2)*%
X364877874Y-57471947D03*
D11*
X364877874Y-56071947D03*
D13*
X364877874Y-54971947D03*
%TD*%
D11*
%TO.P,D40,1,A*%
%TO.N,Net-(D40-Pad1)*%
X441077874Y-146321947D03*
D12*
X441077874Y-144921947D03*
D13*
X441077874Y-147421947D03*
D11*
%TO.P,D40,2,K*%
%TO.N,Net-(D110-Pad2)*%
X441077874Y-151321947D03*
D13*
X441077874Y-150221947D03*
D14*
X441077874Y-152721947D03*
%TD*%
D12*
%TO.P,D132,1,A*%
%TO.N,Net-(D132-Pad1)*%
X155327874Y-163971947D03*
D13*
X155327874Y-166471947D03*
D11*
X155327874Y-165371947D03*
D14*
%TO.P,D132,2,K*%
%TO.N,Net-(D104-Pad2)*%
X155327874Y-171771947D03*
D13*
X155327874Y-169271947D03*
D11*
X155327874Y-170371947D03*
%TD*%
D12*
%TO.P,D115,1,A*%
%TO.N,Net-(D115-Pad1)*%
X193427874Y-106821947D03*
D13*
X193427874Y-109321947D03*
D11*
X193427874Y-108221947D03*
D13*
%TO.P,D115,2,K*%
%TO.N,Net-(D101-Pad2)*%
X193427874Y-112121947D03*
D11*
X193427874Y-113221947D03*
D14*
X193427874Y-114621947D03*
%TD*%
D13*
%TO.P,D16,1,A*%
%TO.N,Net-(D16-Pad1)*%
X460127874Y-90271947D03*
D12*
X460127874Y-87771947D03*
D11*
X460127874Y-89171947D03*
D13*
%TO.P,D16,2,K*%
%TO.N,Net-(D100-Pad2)*%
X460127874Y-93071947D03*
D14*
X460127874Y-95571947D03*
D11*
X460127874Y-94171947D03*
%TD*%
D13*
%TO.P,D3,1,A*%
%TO.N,Net-(D3-Pad1)*%
X498227874Y-109321947D03*
D12*
X498227874Y-106821947D03*
D11*
X498227874Y-108221947D03*
D14*
%TO.P,D3,2,K*%
%TO.N,Net-(D101-Pad2)*%
X498227874Y-114621947D03*
D13*
X498227874Y-112121947D03*
D11*
X498227874Y-113221947D03*
%TD*%
D12*
%TO.P,D55,1,A*%
%TO.N,Net-(D55-Pad1)*%
X402977874Y-163971947D03*
D13*
X402977874Y-166471947D03*
D11*
X402977874Y-165371947D03*
D14*
%TO.P,D55,2,K*%
%TO.N,Net-(D111-Pad2)*%
X402977874Y-171771947D03*
D11*
X402977874Y-170371947D03*
D13*
X402977874Y-169271947D03*
%TD*%
D11*
%TO.P,D5,1,A*%
%TO.N,Net-(D5-Pad1)*%
X498227874Y-146321947D03*
D13*
X498227874Y-147421947D03*
D12*
X498227874Y-144921947D03*
D13*
%TO.P,D5,2,K*%
%TO.N,Net-(D103-Pad2)*%
X498227874Y-150221947D03*
D14*
X498227874Y-152721947D03*
D11*
X498227874Y-151321947D03*
%TD*%
D15*
%TO.P,D214,1,A*%
%TO.N,Net-(D105-Pad2)*%
X35590374Y-58334447D03*
D12*
X36990374Y-58334447D03*
D16*
X34490374Y-58334447D03*
D14*
%TO.P,D214,2,K*%
%TO.N,row13*%
X29190374Y-58334447D03*
D16*
X31690374Y-58334447D03*
D15*
X30590374Y-58334447D03*
%TD*%
D11*
%TO.P,D31,1,A*%
%TO.N,Net-(D31-Pad1)*%
X422027874Y-108221947D03*
D13*
X422027874Y-109321947D03*
D12*
X422027874Y-106821947D03*
D13*
%TO.P,D31,2,K*%
%TO.N,Net-(D101-Pad2)*%
X422027874Y-112121947D03*
D11*
X422027874Y-113221947D03*
D14*
X422027874Y-114621947D03*
%TD*%
D13*
%TO.P,D92,1,A*%
%TO.N,Net-(D92-Pad1)*%
X288662568Y-71236098D03*
D12*
X288662568Y-68736098D03*
D11*
X288662568Y-70136098D03*
D14*
%TO.P,D92,2,K*%
%TO.N,Net-(D106-Pad2)*%
X288662568Y-76536098D03*
D13*
X288662568Y-74036098D03*
D11*
X288662568Y-75136098D03*
%TD*%
D12*
%TO.P,D36,1,A*%
%TO.N,Net-(D36-Pad1)*%
X441077874Y-68721947D03*
D11*
X441077874Y-70121947D03*
D13*
X441077874Y-71221947D03*
D14*
%TO.P,D36,2,K*%
%TO.N,Net-(D106-Pad2)*%
X441077874Y-76521947D03*
D11*
X441077874Y-75121947D03*
D13*
X441077874Y-74021947D03*
%TD*%
D12*
%TO.P,D84,1,A*%
%TO.N,Net-(D84-Pad1)*%
X269612568Y-49686098D03*
D13*
X269612568Y-52186098D03*
D11*
X269612568Y-51086098D03*
D14*
%TO.P,D84,2,K*%
%TO.N,Net-(D0-Pad2)*%
X269612568Y-57486098D03*
D11*
X269612568Y-56086098D03*
D13*
X269612568Y-54986098D03*
%TD*%
D11*
%TO.P,D67,1,A*%
%TO.N,Net-(D67-Pad1)*%
X364877874Y-127271947D03*
D13*
X364877874Y-128371947D03*
D12*
X364877874Y-125871947D03*
D13*
%TO.P,D67,2,K*%
%TO.N,Net-(D109-Pad2)*%
X364877874Y-131171947D03*
D14*
X364877874Y-133671947D03*
D11*
X364877874Y-132271947D03*
%TD*%
D13*
%TO.P,D78,1,A*%
%TO.N,Net-(D78-Pad1)*%
X326777874Y-71221947D03*
D12*
X326777874Y-68721947D03*
D11*
X326777874Y-70121947D03*
D13*
%TO.P,D78,2,K*%
%TO.N,Net-(D106-Pad2)*%
X326777874Y-74021947D03*
D11*
X326777874Y-75121947D03*
D14*
X326777874Y-76521947D03*
%TD*%
D13*
%TO.P,D27,1,A*%
%TO.N,Net-(D27-Pad1)*%
X479177874Y-166471947D03*
D11*
X479177874Y-165371947D03*
D12*
X479177874Y-163971947D03*
D11*
%TO.P,D27,2,K*%
%TO.N,Net-(D111-Pad2)*%
X479177874Y-170371947D03*
D13*
X479177874Y-169271947D03*
D14*
X479177874Y-171771947D03*
%TD*%
D11*
%TO.P,D106,1,A*%
%TO.N,Net-(D106-Pad1)*%
X250577874Y-70121947D03*
D13*
X250577874Y-71221947D03*
D12*
X250577874Y-68721947D03*
D13*
%TO.P,D106,2,K*%
%TO.N,Net-(D106-Pad2)*%
X250577874Y-74021947D03*
D11*
X250577874Y-75121947D03*
D14*
X250577874Y-76521947D03*
%TD*%
D12*
%TO.P,D165,1,A*%
%TO.N,Net-(D165-Pad1)*%
X98177874Y-125871947D03*
D13*
X98177874Y-128371947D03*
D11*
X98177874Y-127271947D03*
%TO.P,D165,2,K*%
%TO.N,Net-(D109-Pad2)*%
X98177874Y-132271947D03*
D13*
X98177874Y-131171947D03*
D14*
X98177874Y-133671947D03*
%TD*%
D13*
%TO.P,D89,1,A*%
%TO.N,Net-(D89-Pad1)*%
X269612568Y-147436098D03*
D12*
X269612568Y-144936098D03*
D11*
X269612568Y-146336098D03*
D13*
%TO.P,D89,2,K*%
%TO.N,Net-(D103-Pad2)*%
X269612568Y-150236098D03*
D11*
X269612568Y-151336098D03*
D14*
X269612568Y-152736098D03*
%TD*%
D11*
%TO.P,D96,1,A*%
%TO.N,Net-(D96-Pad1)*%
X288662568Y-146336098D03*
D13*
X288662568Y-147436098D03*
D12*
X288662568Y-144936098D03*
D13*
%TO.P,D96,2,K*%
%TO.N,Net-(D110-Pad2)*%
X288662568Y-150236098D03*
D11*
X288662568Y-151336098D03*
D14*
X288662568Y-152736098D03*
%TD*%
D11*
%TO.P,D0,1,A*%
%TO.N,Net-(D0-Pad1)*%
X498227874Y-51071947D03*
D13*
X498227874Y-52171947D03*
D12*
X498227874Y-49671947D03*
D13*
%TO.P,D0,2,K*%
%TO.N,Net-(D0-Pad2)*%
X498227874Y-54971947D03*
D14*
X498227874Y-57471947D03*
D11*
X498227874Y-56071947D03*
%TD*%
D12*
%TO.P,D108,1,A*%
%TO.N,Net-(D108-Pad1)*%
X250577874Y-106821947D03*
D13*
X250577874Y-109321947D03*
D11*
X250577874Y-108221947D03*
%TO.P,D108,2,K*%
%TO.N,Net-(D10-Pad2)*%
X250577874Y-113221947D03*
D13*
X250577874Y-112121947D03*
D14*
X250577874Y-114621947D03*
%TD*%
D13*
%TO.P,D83,1,A*%
%TO.N,Net-(D83-Pad1)*%
X326777874Y-166471947D03*
D12*
X326777874Y-163971947D03*
D11*
X326777874Y-165371947D03*
%TO.P,D83,2,K*%
%TO.N,Net-(D111-Pad2)*%
X326777874Y-170371947D03*
D13*
X326777874Y-169271947D03*
D14*
X326777874Y-171771947D03*
%TD*%
D13*
%TO.P,D28,1,A*%
%TO.N,Net-(D28-Pad1)*%
X422027874Y-52171947D03*
D12*
X422027874Y-49671947D03*
D11*
X422027874Y-51071947D03*
D13*
%TO.P,D28,2,K*%
%TO.N,Net-(D0-Pad2)*%
X422027874Y-54971947D03*
D11*
X422027874Y-56071947D03*
D14*
X422027874Y-57471947D03*
%TD*%
D15*
%TO.P,D213,1,A*%
%TO.N,Net-(D106-Pad2)*%
X65515374Y-76590697D03*
D16*
X66615374Y-76590697D03*
D12*
X64115374Y-76590697D03*
D14*
%TO.P,D213,2,K*%
%TO.N,row12*%
X71915374Y-76590697D03*
D15*
X70515374Y-76590697D03*
D16*
X69415374Y-76590697D03*
%TD*%
D11*
%TO.P,D104,1,A*%
%TO.N,Net-(D104-Pad1)*%
X231527874Y-165184447D03*
D13*
X231527874Y-166284447D03*
D12*
X231527874Y-163784447D03*
D14*
%TO.P,D104,2,K*%
%TO.N,Net-(D104-Pad2)*%
X231527874Y-171584447D03*
D13*
X231527874Y-169084447D03*
D11*
X231527874Y-170184447D03*
%TD*%
D12*
%TO.P,D125,1,A*%
%TO.N,Net-(D125-Pad1)*%
X212477874Y-163971947D03*
D13*
X212477874Y-166471947D03*
D11*
X212477874Y-165371947D03*
D13*
%TO.P,D125,2,K*%
%TO.N,Net-(D111-Pad2)*%
X212477874Y-169271947D03*
D11*
X212477874Y-170371947D03*
D14*
X212477874Y-171771947D03*
%TD*%
D12*
%TO.P,D121,1,A*%
%TO.N,Net-(D121-Pad1)*%
X212477874Y-87771947D03*
D13*
X212477874Y-90271947D03*
D11*
X212477874Y-89171947D03*
D13*
%TO.P,D121,2,K*%
%TO.N,Net-(D107-Pad2)*%
X212477874Y-93071947D03*
D14*
X212477874Y-95571947D03*
D11*
X212477874Y-94171947D03*
%TD*%
D12*
%TO.P,D23,1,A*%
%TO.N,Net-(D23-Pad1)*%
X479177874Y-87771947D03*
D13*
X479177874Y-90271947D03*
D11*
X479177874Y-89171947D03*
D14*
%TO.P,D23,2,K*%
%TO.N,Net-(D107-Pad2)*%
X479177874Y-95571947D03*
D11*
X479177874Y-94171947D03*
D13*
X479177874Y-93071947D03*
%TD*%
D18*
%TO.P,U1,1,TX0/PD3*%
%TO.N,unconnected-(U1-Pad1)*%
X452113374Y-37061947D03*
D19*
%TO.P,U1,2,RX1/PD2*%
%TO.N,unconnected-(U1-Pad2)*%
X454653374Y-37061947D03*
%TO.P,U1,3,GND*%
%TO.N,GND1*%
X457193374Y-37061947D03*
%TO.P,U1,4,GND*%
X459733374Y-37061947D03*
%TO.P,U1,5,2/PD1*%
%TO.N,SCL*%
X462273374Y-37061947D03*
%TO.P,U1,6,3/PD0*%
%TO.N,SDA*%
X464813374Y-37061947D03*
%TO.P,U1,7,4/PD4*%
%TO.N,row5*%
X467353374Y-37061947D03*
%TO.P,U1,8,5/PC6*%
%TO.N,row4*%
X469893374Y-37061947D03*
%TO.P,U1,9,6/PD7*%
%TO.N,row3*%
X472433374Y-37061947D03*
%TO.P,U1,10,7/PE6*%
%TO.N,row2*%
X474973374Y-37061947D03*
%TO.P,U1,11,8/PB4*%
%TO.N,row1*%
X477513374Y-37061947D03*
%TO.P,U1,12,9/PB5*%
%TO.N,row0*%
X480053374Y-36833347D03*
%TO.P,U1,13,10/PB6*%
%TO.N,row8*%
X480053374Y-21821947D03*
%TO.P,U1,14,16/PB2*%
%TO.N,row9*%
X477513374Y-21821947D03*
%TO.P,U1,15,14/PB3*%
%TO.N,row10*%
X474973374Y-21821947D03*
%TO.P,U1,16,15/PB1*%
%TO.N,row11*%
X472433374Y-21821947D03*
%TO.P,U1,17,A0/PF7*%
%TO.N,row12*%
X469893374Y-21821947D03*
%TO.P,U1,18,A1/PF6*%
%TO.N,row13*%
X467353374Y-21821947D03*
%TO.P,U1,19,A2/PF5*%
%TO.N,unconnected-(U1-Pad19)*%
X464813374Y-21821947D03*
%TO.P,U1,20,A3/PF4*%
%TO.N,unconnected-(U1-Pad20)*%
X462273374Y-21821947D03*
%TO.P,U1,21,VCC*%
%TO.N,+5V*%
X459733374Y-21821947D03*
%TO.P,U1,22,RST*%
%TO.N,reset*%
X457193374Y-21821947D03*
%TO.P,U1,23,GND*%
%TO.N,GND1*%
X454653374Y-21821947D03*
%TO.P,U1,24,B0*%
%TO.N,unconnected-(U1-Pad24)*%
X452113374Y-21821947D03*
%TO.P,U1,25,B7*%
%TO.N,row6*%
X480053374Y-34521947D03*
%TO.P,U1,26,D5*%
%TO.N,unconnected-(U1-Pad26)*%
X480053374Y-31981947D03*
%TO.P,U1,27,C7*%
%TO.N,unconnected-(U1-Pad27)*%
X480053374Y-29441947D03*
%TO.P,U1,28,F1*%
%TO.N,unconnected-(U1-Pad28)*%
X480053374Y-26901947D03*
%TO.P,U1,29,F0*%
%TO.N,row7*%
X480053374Y-24361947D03*
%TD*%
D13*
%TO.P,D117,1,A*%
%TO.N,Net-(D117-Pad1)*%
X193427874Y-147421947D03*
D11*
X193427874Y-146321947D03*
D12*
X193427874Y-144921947D03*
D11*
%TO.P,D117,2,K*%
%TO.N,Net-(D103-Pad2)*%
X193427874Y-151321947D03*
D14*
X193427874Y-152721947D03*
D13*
X193427874Y-150221947D03*
%TD*%
D12*
%TO.P,D8,1,A*%
%TO.N,Net-(D8-Pad1)*%
X517277874Y-68721947D03*
D13*
X517277874Y-71221947D03*
D11*
X517277874Y-70121947D03*
D14*
%TO.P,D8,2,K*%
%TO.N,Net-(D106-Pad2)*%
X517277874Y-76521947D03*
D11*
X517277874Y-75121947D03*
D13*
X517277874Y-74021947D03*
%TD*%
%TO.P,D33,1,A*%
%TO.N,Net-(D33-Pad1)*%
X422027874Y-147421947D03*
D11*
X422027874Y-146321947D03*
D12*
X422027874Y-144921947D03*
D11*
%TO.P,D33,2,K*%
%TO.N,Net-(D103-Pad2)*%
X422027874Y-151321947D03*
D14*
X422027874Y-152721947D03*
D13*
X422027874Y-150221947D03*
%TD*%
D12*
%TO.P,D35,1,A*%
%TO.N,Net-(D35-Pad1)*%
X441077874Y-49671947D03*
D13*
X441077874Y-52171947D03*
D11*
X441077874Y-51071947D03*
D14*
%TO.P,D35,2,K*%
%TO.N,Net-(D105-Pad2)*%
X441077874Y-57471947D03*
D13*
X441077874Y-54971947D03*
D11*
X441077874Y-56071947D03*
%TD*%
%TO.P,D164,1,A*%
%TO.N,Net-(D164-Pad1)*%
X98177874Y-108221947D03*
D12*
X98177874Y-106821947D03*
D13*
X98177874Y-109321947D03*
D14*
%TO.P,D164,2,K*%
%TO.N,Net-(D10-Pad2)*%
X98177874Y-114621947D03*
D11*
X98177874Y-113221947D03*
D13*
X98177874Y-112121947D03*
%TD*%
D11*
%TO.P,D19,1,A*%
%TO.N,Net-(D19-Pad1)*%
X460127874Y-146321947D03*
D13*
X460127874Y-147421947D03*
D12*
X460127874Y-144921947D03*
D14*
%TO.P,D19,2,K*%
%TO.N,Net-(D103-Pad2)*%
X460127874Y-152721947D03*
D13*
X460127874Y-150221947D03*
D11*
X460127874Y-151321947D03*
%TD*%
%TO.P,D174,1,A*%
%TO.N,Net-(D174-Pad1)*%
X41027874Y-165371947D03*
D13*
X41027874Y-166471947D03*
D12*
X41027874Y-163971947D03*
D14*
%TO.P,D174,2,K*%
%TO.N,Net-(D104-Pad2)*%
X41027874Y-171771947D03*
D13*
X41027874Y-169271947D03*
D11*
X41027874Y-170371947D03*
%TD*%
D12*
%TO.P,D202,1,A*%
%TO.N,Net-(D1-Pad2)*%
X465752874Y-76590697D03*
D16*
X468252874Y-76590697D03*
D15*
X467152874Y-76590697D03*
D14*
%TO.P,D202,2,K*%
%TO.N,row1*%
X473552874Y-76590697D03*
D15*
X472152874Y-76590697D03*
D16*
X471052874Y-76590697D03*
%TD*%
D12*
%TO.P,D161,1,A*%
%TO.N,Net-(D161-Pad1)*%
X98177874Y-49671947D03*
D13*
X98177874Y-52171947D03*
D11*
X98177874Y-51071947D03*
%TO.P,D161,2,K*%
%TO.N,Net-(D105-Pad2)*%
X98177874Y-56071947D03*
D14*
X98177874Y-57471947D03*
D13*
X98177874Y-54971947D03*
%TD*%
%TO.P,D38,1,A*%
%TO.N,Net-(D38-Pad1)*%
X441077874Y-109321947D03*
D12*
X441077874Y-106821947D03*
D11*
X441077874Y-108221947D03*
D13*
%TO.P,D38,2,K*%
%TO.N,Net-(D10-Pad2)*%
X441077874Y-112121947D03*
D14*
X441077874Y-114621947D03*
D11*
X441077874Y-113221947D03*
%TD*%
%TO.P,D101,1,A*%
%TO.N,Net-(D101-Pad1)*%
X231527874Y-108221947D03*
D13*
X231527874Y-109321947D03*
D12*
X231527874Y-106821947D03*
D13*
%TO.P,D101,2,K*%
%TO.N,Net-(D101-Pad2)*%
X231527874Y-112121947D03*
D11*
X231527874Y-113221947D03*
D14*
X231527874Y-114621947D03*
%TD*%
D13*
%TO.P,D65,1,A*%
%TO.N,Net-(D65-Pad1)*%
X364877874Y-90271947D03*
D12*
X364877874Y-87771947D03*
D11*
X364877874Y-89171947D03*
D13*
%TO.P,D65,2,K*%
%TO.N,Net-(D107-Pad2)*%
X364877874Y-93071947D03*
D14*
X364877874Y-95571947D03*
D11*
X364877874Y-94171947D03*
%TD*%
%TO.P,D136,1,A*%
%TO.N,Net-(D136-Pad1)*%
X174377874Y-108221947D03*
D13*
X174377874Y-109321947D03*
D12*
X174377874Y-106821947D03*
D11*
%TO.P,D136,2,K*%
%TO.N,Net-(D10-Pad2)*%
X174377874Y-113221947D03*
D13*
X174377874Y-112121947D03*
D14*
X174377874Y-114621947D03*
%TD*%
D11*
%TO.P,D122,1,A*%
%TO.N,Net-(D122-Pad1)*%
X212477874Y-108221947D03*
D13*
X212477874Y-109321947D03*
D12*
X212477874Y-106821947D03*
D14*
%TO.P,D122,2,K*%
%TO.N,Net-(D10-Pad2)*%
X212477874Y-114621947D03*
D13*
X212477874Y-112121947D03*
D11*
X212477874Y-113221947D03*
%TD*%
%TO.P,D59,1,A*%
%TO.N,Net-(D59-Pad1)*%
X345827874Y-108221947D03*
D12*
X345827874Y-106821947D03*
D13*
X345827874Y-109321947D03*
%TO.P,D59,2,K*%
%TO.N,Net-(D101-Pad2)*%
X345827874Y-112121947D03*
D14*
X345827874Y-114621947D03*
D11*
X345827874Y-113221947D03*
%TD*%
%TO.P,D172,1,A*%
%TO.N,Net-(D172-Pad1)*%
X41027874Y-127271947D03*
D13*
X41027874Y-128371947D03*
D12*
X41027874Y-125871947D03*
D13*
%TO.P,D172,2,K*%
%TO.N,Net-(D102-Pad2)*%
X41027874Y-131171947D03*
D11*
X41027874Y-132271947D03*
D14*
X41027874Y-133671947D03*
%TD*%
D12*
%TO.P,D32,1,A*%
%TO.N,Net-(D32-Pad1)*%
X422027874Y-125871947D03*
D11*
X422027874Y-127271947D03*
D13*
X422027874Y-128371947D03*
%TO.P,D32,2,K*%
%TO.N,Net-(D102-Pad2)*%
X422027874Y-131171947D03*
D11*
X422027874Y-132271947D03*
D14*
X422027874Y-133671947D03*
%TD*%
D13*
%TO.P,D155,1,A*%
%TO.N,Net-(D155-Pad1)*%
X79127874Y-71221947D03*
D12*
X79127874Y-68721947D03*
D11*
X79127874Y-70121947D03*
D13*
%TO.P,D155,2,K*%
%TO.N,Net-(D1-Pad2)*%
X79127874Y-74021947D03*
D11*
X79127874Y-75121947D03*
D14*
X79127874Y-76521947D03*
%TD*%
D13*
%TO.P,D76,1,A*%
%TO.N,Net-(D76-Pad1)*%
X307727874Y-166471947D03*
D11*
X307727874Y-165371947D03*
D12*
X307727874Y-163971947D03*
D14*
%TO.P,D76,2,K*%
%TO.N,Net-(D104-Pad2)*%
X307727874Y-171771947D03*
D13*
X307727874Y-169271947D03*
D11*
X307727874Y-170371947D03*
%TD*%
D12*
%TO.P,D94,1,A*%
%TO.N,Net-(D94-Pad1)*%
X288662568Y-106836098D03*
D13*
X288662568Y-109336098D03*
D11*
X288662568Y-108236098D03*
%TO.P,D94,2,K*%
%TO.N,Net-(D10-Pad2)*%
X288662568Y-113236098D03*
D13*
X288662568Y-112136098D03*
D14*
X288662568Y-114636098D03*
%TD*%
D11*
%TO.P,D168,1,A*%
%TO.N,Net-(D168-Pad1)*%
X41027874Y-51071947D03*
D13*
X41027874Y-52171947D03*
D12*
X41027874Y-49671947D03*
D14*
%TO.P,D168,2,K*%
%TO.N,Net-(D0-Pad2)*%
X41027874Y-57471947D03*
D13*
X41027874Y-54971947D03*
D11*
X41027874Y-56071947D03*
%TD*%
D13*
%TO.P,D171,1,A*%
%TO.N,Net-(D171-Pad1)*%
X41027874Y-109321947D03*
D11*
X41027874Y-108221947D03*
D12*
X41027874Y-106821947D03*
D11*
%TO.P,D171,2,K*%
%TO.N,Net-(D101-Pad2)*%
X41027874Y-113221947D03*
D14*
X41027874Y-114621947D03*
D13*
X41027874Y-112121947D03*
%TD*%
D11*
%TO.P,D93,1,A*%
%TO.N,Net-(D93-Pad1)*%
X288662568Y-89186098D03*
D13*
X288662568Y-90286098D03*
D12*
X288662568Y-87786098D03*
D11*
%TO.P,D93,2,K*%
%TO.N,Net-(D107-Pad2)*%
X288662568Y-94186098D03*
D14*
X288662568Y-95586098D03*
D13*
X288662568Y-93086098D03*
%TD*%
%TO.P,D113,1,A*%
%TO.N,Net-(D113-Pad1)*%
X193427874Y-71221947D03*
D11*
X193427874Y-70121947D03*
D12*
X193427874Y-68721947D03*
D13*
%TO.P,D113,2,K*%
%TO.N,Net-(D1-Pad2)*%
X193427874Y-74021947D03*
D14*
X193427874Y-76521947D03*
D11*
X193427874Y-75121947D03*
%TD*%
D13*
%TO.P,D130,1,A*%
%TO.N,Net-(D130-Pad1)*%
X155327874Y-128371947D03*
D11*
X155327874Y-127271947D03*
D12*
X155327874Y-125871947D03*
D14*
%TO.P,D130,2,K*%
%TO.N,Net-(D102-Pad2)*%
X155327874Y-133671947D03*
D13*
X155327874Y-131171947D03*
D11*
X155327874Y-132271947D03*
%TD*%
D13*
%TO.P,D91,1,A*%
%TO.N,Net-(D91-Pad1)*%
X288662568Y-52186098D03*
D11*
X288662568Y-51086098D03*
D12*
X288662568Y-49686098D03*
D13*
%TO.P,D91,2,K*%
%TO.N,Net-(D105-Pad2)*%
X288662568Y-54986098D03*
D11*
X288662568Y-56086098D03*
D14*
X288662568Y-57486098D03*
%TD*%
D11*
%TO.P,D111,1,A*%
%TO.N,Net-(D111-Pad1)*%
X250577874Y-165371947D03*
D12*
X250577874Y-163971947D03*
D13*
X250577874Y-166471947D03*
D11*
%TO.P,D111,2,K*%
%TO.N,Net-(D111-Pad2)*%
X250577874Y-170371947D03*
D14*
X250577874Y-171771947D03*
D13*
X250577874Y-169271947D03*
%TD*%
%TO.P,D123,1,A*%
%TO.N,Net-(D123-Pad1)*%
X212477874Y-128371947D03*
D12*
X212477874Y-125871947D03*
D11*
X212477874Y-127271947D03*
%TO.P,D123,2,K*%
%TO.N,Net-(D109-Pad2)*%
X212477874Y-132271947D03*
D13*
X212477874Y-131171947D03*
D14*
X212477874Y-133671947D03*
%TD*%
D12*
%TO.P,D179,1,A*%
%TO.N,Net-(D179-Pad1)*%
X60077874Y-125871947D03*
D13*
X60077874Y-128371947D03*
D11*
X60077874Y-127271947D03*
%TO.P,D179,2,K*%
%TO.N,Net-(D109-Pad2)*%
X60077874Y-132271947D03*
D14*
X60077874Y-133671947D03*
D13*
X60077874Y-131171947D03*
%TD*%
D16*
%TO.P,D209,1,A*%
%TO.N,Net-(D110-Pad2)*%
X243246624Y-152790697D03*
D12*
X245746624Y-152790697D03*
D15*
X244346624Y-152790697D03*
%TO.P,D209,2,K*%
%TO.N,row8*%
X239346624Y-152790697D03*
D14*
X237946624Y-152790697D03*
D16*
X240446624Y-152790697D03*
%TD*%
D13*
%TO.P,D112,1,A*%
%TO.N,Net-(D112-Pad1)*%
X193427874Y-52171947D03*
D11*
X193427874Y-51071947D03*
D12*
X193427874Y-49671947D03*
D14*
%TO.P,D112,2,K*%
%TO.N,Net-(D0-Pad2)*%
X193427874Y-57471947D03*
D13*
X193427874Y-54971947D03*
D11*
X193427874Y-56071947D03*
%TD*%
D12*
%TO.P,D150,1,A*%
%TO.N,Net-(D150-Pad1)*%
X136277874Y-106821947D03*
D11*
X136277874Y-108221947D03*
D13*
X136277874Y-109321947D03*
D11*
%TO.P,D150,2,K*%
%TO.N,Net-(D10-Pad2)*%
X136277874Y-113221947D03*
D13*
X136277874Y-112121947D03*
D14*
X136277874Y-114621947D03*
%TD*%
D13*
%TO.P,D15,1,A*%
%TO.N,Net-(D15-Pad1)*%
X460127874Y-71221947D03*
D12*
X460127874Y-68721947D03*
D11*
X460127874Y-70121947D03*
D13*
%TO.P,D15,2,K*%
%TO.N,Net-(D1-Pad2)*%
X460127874Y-74021947D03*
D14*
X460127874Y-76521947D03*
D11*
X460127874Y-75121947D03*
%TD*%
D12*
%TO.P,D86,1,A*%
%TO.N,Net-(D86-Pad1)*%
X269612568Y-87786098D03*
D13*
X269612568Y-90286098D03*
D11*
X269612568Y-89186098D03*
D13*
%TO.P,D86,2,K*%
%TO.N,Net-(D100-Pad2)*%
X269612568Y-93086098D03*
D11*
X269612568Y-94186098D03*
D14*
X269612568Y-95586098D03*
%TD*%
D16*
%TO.P,D201,1,A*%
%TO.N,Net-(D0-Pad2)*%
X505440374Y-57540697D03*
D15*
X504340374Y-57540697D03*
D12*
X502940374Y-57540697D03*
D15*
%TO.P,D201,2,K*%
%TO.N,row0*%
X509340374Y-57540697D03*
D14*
X510740374Y-57540697D03*
D16*
X508240374Y-57540697D03*
%TD*%
D11*
%TO.P,D73,1,A*%
%TO.N,Net-(D73-Pad1)*%
X307727874Y-108221947D03*
D12*
X307727874Y-106821947D03*
D13*
X307727874Y-109321947D03*
%TO.P,D73,2,K*%
%TO.N,Net-(D101-Pad2)*%
X307727874Y-112121947D03*
D14*
X307727874Y-114621947D03*
D11*
X307727874Y-113221947D03*
%TD*%
D12*
%TO.P,D75,1,A*%
%TO.N,Net-(D75-Pad1)*%
X307727874Y-144921947D03*
D13*
X307727874Y-147421947D03*
D11*
X307727874Y-146321947D03*
%TO.P,D75,2,K*%
%TO.N,Net-(D103-Pad2)*%
X307727874Y-151321947D03*
D13*
X307727874Y-150221947D03*
D14*
X307727874Y-152721947D03*
%TD*%
D12*
%TO.P,D206,1,A*%
%TO.N,Net-(D103-Pad2)*%
X302896624Y-152790697D03*
D16*
X300396624Y-152790697D03*
D15*
X301496624Y-152790697D03*
D14*
%TO.P,D206,2,K*%
%TO.N,row5*%
X295096624Y-152790697D03*
D15*
X296496624Y-152790697D03*
D16*
X297596624Y-152790697D03*
%TD*%
D13*
%TO.P,D133,1,A*%
%TO.N,Net-(D133-Pad1)*%
X174377874Y-52171947D03*
D11*
X174377874Y-51071947D03*
D12*
X174377874Y-49671947D03*
D13*
%TO.P,D133,2,K*%
%TO.N,Net-(D105-Pad2)*%
X174377874Y-54971947D03*
D14*
X174377874Y-57471947D03*
D11*
X174377874Y-56071947D03*
%TD*%
D12*
%TO.P,D13,1,A*%
%TO.N,Net-(D13-Pad1)*%
X517277874Y-163971947D03*
D13*
X517277874Y-166471947D03*
D11*
X517277874Y-165371947D03*
D13*
%TO.P,D13,2,K*%
%TO.N,Net-(D111-Pad2)*%
X517277874Y-169271947D03*
D11*
X517277874Y-170371947D03*
D14*
X517277874Y-171771947D03*
%TD*%
D11*
%TO.P,D126,1,A*%
%TO.N,Net-(D126-Pad1)*%
X155327874Y-51071947D03*
D12*
X155327874Y-49671947D03*
D13*
X155327874Y-52171947D03*
%TO.P,D126,2,K*%
%TO.N,Net-(D0-Pad2)*%
X155327874Y-54971947D03*
D14*
X155327874Y-57471947D03*
D11*
X155327874Y-56071947D03*
%TD*%
D12*
%TO.P,D12,1,A*%
%TO.N,Net-(D12-Pad1)*%
X517277874Y-144921947D03*
D11*
X517277874Y-146321947D03*
D13*
X517277874Y-147421947D03*
D11*
%TO.P,D12,2,K*%
%TO.N,Net-(D110-Pad2)*%
X517277874Y-151321947D03*
D14*
X517277874Y-152721947D03*
D13*
X517277874Y-150221947D03*
%TD*%
D11*
%TO.P,D105,1,A*%
%TO.N,Net-(D105-Pad1)*%
X250577874Y-51071947D03*
D13*
X250577874Y-52171947D03*
D12*
X250577874Y-49671947D03*
D14*
%TO.P,D105,2,K*%
%TO.N,Net-(D105-Pad2)*%
X250577874Y-57471947D03*
D13*
X250577874Y-54971947D03*
D11*
X250577874Y-56071947D03*
%TD*%
D12*
%TO.P,D79,1,A*%
%TO.N,Net-(D79-Pad1)*%
X326777874Y-87771947D03*
D11*
X326777874Y-89171947D03*
D13*
X326777874Y-90271947D03*
D14*
%TO.P,D79,2,K*%
%TO.N,Net-(D107-Pad2)*%
X326777874Y-95571947D03*
D11*
X326777874Y-94171947D03*
D13*
X326777874Y-93071947D03*
%TD*%
D12*
%TO.P,D148,1,A*%
%TO.N,Net-(D148-Pad1)*%
X136277874Y-68721947D03*
D13*
X136277874Y-71221947D03*
D11*
X136277874Y-70121947D03*
D13*
%TO.P,D148,2,K*%
%TO.N,Net-(D106-Pad2)*%
X136277874Y-74021947D03*
D11*
X136277874Y-75121947D03*
D14*
X136277874Y-76521947D03*
%TD*%
D11*
%TO.P,D74,1,A*%
%TO.N,Net-(D74-Pad1)*%
X307727874Y-127271947D03*
D12*
X307727874Y-125871947D03*
D13*
X307727874Y-128371947D03*
%TO.P,D74,2,K*%
%TO.N,Net-(D102-Pad2)*%
X307727874Y-131171947D03*
D11*
X307727874Y-132271947D03*
D14*
X307727874Y-133671947D03*
%TD*%
D11*
%TO.P,D166,1,A*%
%TO.N,Net-(D166-Pad1)*%
X98177874Y-146321947D03*
D13*
X98177874Y-147421947D03*
D12*
X98177874Y-144921947D03*
D13*
%TO.P,D166,2,K*%
%TO.N,Net-(D110-Pad2)*%
X98177874Y-150221947D03*
D11*
X98177874Y-151321947D03*
D14*
X98177874Y-152721947D03*
%TD*%
D13*
%TO.P,D156,1,A*%
%TO.N,Net-(D156-Pad1)*%
X79127874Y-90271947D03*
D12*
X79127874Y-87771947D03*
D11*
X79127874Y-89171947D03*
%TO.P,D156,2,K*%
%TO.N,Net-(D100-Pad2)*%
X79127874Y-94171947D03*
D13*
X79127874Y-93071947D03*
D14*
X79127874Y-95571947D03*
%TD*%
D12*
%TO.P,D149,1,A*%
%TO.N,Net-(D149-Pad1)*%
X136277874Y-87771947D03*
D13*
X136277874Y-90271947D03*
D11*
X136277874Y-89171947D03*
D13*
%TO.P,D149,2,K*%
%TO.N,Net-(D107-Pad2)*%
X136277874Y-93071947D03*
D11*
X136277874Y-94171947D03*
D14*
X136277874Y-95571947D03*
%TD*%
D11*
%TO.P,D53,1,A*%
%TO.N,Net-(D53-Pad1)*%
X402977874Y-127271947D03*
D12*
X402977874Y-125871947D03*
D13*
X402977874Y-128371947D03*
%TO.P,D53,2,K*%
%TO.N,Net-(D109-Pad2)*%
X402977874Y-131171947D03*
D11*
X402977874Y-132271947D03*
D14*
X402977874Y-133671947D03*
%TD*%
D12*
%TO.P,D30,1,A*%
%TO.N,Net-(D30-Pad1)*%
X422027874Y-87771947D03*
D11*
X422027874Y-89171947D03*
D13*
X422027874Y-90271947D03*
%TO.P,D30,2,K*%
%TO.N,Net-(D100-Pad2)*%
X422027874Y-93071947D03*
D11*
X422027874Y-94171947D03*
D14*
X422027874Y-95571947D03*
%TD*%
D13*
%TO.P,D98,1,A*%
%TO.N,Net-(D98-Pad1)*%
X231527874Y-52171947D03*
D12*
X231527874Y-49671947D03*
D11*
X231527874Y-51071947D03*
D14*
%TO.P,D98,2,K*%
%TO.N,Net-(D0-Pad2)*%
X231527874Y-57471947D03*
D13*
X231527874Y-54971947D03*
D11*
X231527874Y-56071947D03*
%TD*%
D12*
%TO.P,D39,1,A*%
%TO.N,Net-(D39-Pad1)*%
X441077874Y-125871947D03*
D11*
X441077874Y-127271947D03*
D13*
X441077874Y-128371947D03*
%TO.P,D39,2,K*%
%TO.N,Net-(D109-Pad2)*%
X441077874Y-131171947D03*
D14*
X441077874Y-133671947D03*
D11*
X441077874Y-132271947D03*
%TD*%
%TO.P,D134,1,A*%
%TO.N,Net-(D134-Pad1)*%
X174377874Y-70121947D03*
D12*
X174377874Y-68721947D03*
D13*
X174377874Y-71221947D03*
D14*
%TO.P,D134,2,K*%
%TO.N,Net-(D106-Pad2)*%
X174377874Y-76521947D03*
D13*
X174377874Y-74021947D03*
D11*
X174377874Y-75121947D03*
%TD*%
D13*
%TO.P,D176,1,A*%
%TO.N,Net-(D176-Pad1)*%
X60077874Y-71221947D03*
D12*
X60077874Y-68721947D03*
D11*
X60077874Y-70121947D03*
%TO.P,D176,2,K*%
%TO.N,Net-(D106-Pad2)*%
X60077874Y-75121947D03*
D14*
X60077874Y-76521947D03*
D13*
X60077874Y-74021947D03*
%TD*%
D16*
%TO.P,D210,1,A*%
%TO.N,Net-(D109-Pad2)*%
X181709124Y-134534447D03*
D12*
X179209124Y-134534447D03*
D15*
X180609124Y-134534447D03*
D14*
%TO.P,D210,2,K*%
%TO.N,row9*%
X187009124Y-134534447D03*
D16*
X184509124Y-134534447D03*
D15*
X185609124Y-134534447D03*
%TD*%
D13*
%TO.P,D158,1,A*%
%TO.N,Net-(D158-Pad1)*%
X79127874Y-128371947D03*
D12*
X79127874Y-125871947D03*
D11*
X79127874Y-127271947D03*
D13*
%TO.P,D158,2,K*%
%TO.N,Net-(D102-Pad2)*%
X79127874Y-131171947D03*
D11*
X79127874Y-132271947D03*
D14*
X79127874Y-133671947D03*
%TD*%
D11*
%TO.P,D69,1,A*%
%TO.N,Net-(D69-Pad1)*%
X364877874Y-165371947D03*
D13*
X364877874Y-166471947D03*
D12*
X364877874Y-163971947D03*
D14*
%TO.P,D69,2,K*%
%TO.N,Net-(D111-Pad2)*%
X364877874Y-171771947D03*
D13*
X364877874Y-169271947D03*
D11*
X364877874Y-170371947D03*
%TD*%
D12*
%TO.P,D99,1,A*%
%TO.N,Net-(D99-Pad1)*%
X231527874Y-68721947D03*
D13*
X231527874Y-71221947D03*
D11*
X231527874Y-70121947D03*
D13*
%TO.P,D99,2,K*%
%TO.N,Net-(D1-Pad2)*%
X231527874Y-74021947D03*
D14*
X231527874Y-76521947D03*
D11*
X231527874Y-75121947D03*
%TD*%
D13*
%TO.P,D144,1,A*%
%TO.N,Net-(D144-Pad1)*%
X117227874Y-128371947D03*
D11*
X117227874Y-127271947D03*
D12*
X117227874Y-125871947D03*
D14*
%TO.P,D144,2,K*%
%TO.N,Net-(D102-Pad2)*%
X117227874Y-133671947D03*
D11*
X117227874Y-132271947D03*
D13*
X117227874Y-131171947D03*
%TD*%
D12*
%TO.P,D109,1,A*%
%TO.N,Net-(D109-Pad1)*%
X250577874Y-125871947D03*
D13*
X250577874Y-128371947D03*
D11*
X250577874Y-127271947D03*
%TO.P,D109,2,K*%
%TO.N,Net-(D109-Pad2)*%
X250577874Y-132271947D03*
D14*
X250577874Y-133671947D03*
D13*
X250577874Y-131171947D03*
%TD*%
%TO.P,D7,1,A*%
%TO.N,Net-(D7-Pad1)*%
X517277874Y-52171947D03*
D12*
X517277874Y-49671947D03*
D11*
X517277874Y-51071947D03*
D13*
%TO.P,D7,2,K*%
%TO.N,Net-(D105-Pad2)*%
X517277874Y-54971947D03*
D11*
X517277874Y-56071947D03*
D14*
X517277874Y-57471947D03*
%TD*%
D12*
%TO.P,D14,1,A*%
%TO.N,Net-(D14-Pad1)*%
X460127874Y-49671947D03*
D11*
X460127874Y-51071947D03*
D13*
X460127874Y-52171947D03*
D14*
%TO.P,D14,2,K*%
%TO.N,Net-(D0-Pad2)*%
X460127874Y-57471947D03*
D13*
X460127874Y-54971947D03*
D11*
X460127874Y-56071947D03*
%TD*%
D13*
%TO.P,D26,1,A*%
%TO.N,Net-(D26-Pad1)*%
X479177874Y-147421947D03*
D12*
X479177874Y-144921947D03*
D11*
X479177874Y-146321947D03*
D13*
%TO.P,D26,2,K*%
%TO.N,Net-(D110-Pad2)*%
X479177874Y-150221947D03*
D14*
X479177874Y-152721947D03*
D11*
X479177874Y-151321947D03*
%TD*%
D12*
%TO.P,D71,1,A*%
%TO.N,Net-(D71-Pad1)*%
X307727874Y-68721947D03*
D11*
X307727874Y-70121947D03*
D13*
X307727874Y-71221947D03*
%TO.P,D71,2,K*%
%TO.N,Net-(D1-Pad2)*%
X307727874Y-74021947D03*
D11*
X307727874Y-75121947D03*
D14*
X307727874Y-76521947D03*
%TD*%
D12*
%TO.P,D143,1,A*%
%TO.N,Net-(D143-Pad1)*%
X117227874Y-106821947D03*
D11*
X117227874Y-108221947D03*
D13*
X117227874Y-109321947D03*
D14*
%TO.P,D143,2,K*%
%TO.N,Net-(D101-Pad2)*%
X117227874Y-114621947D03*
D11*
X117227874Y-113221947D03*
D13*
X117227874Y-112121947D03*
%TD*%
%TO.P,D118,1,A*%
%TO.N,Net-(D118-Pad1)*%
X193427874Y-166471947D03*
D11*
X193427874Y-165371947D03*
D12*
X193427874Y-163971947D03*
D13*
%TO.P,D118,2,K*%
%TO.N,Net-(D104-Pad2)*%
X193427874Y-169271947D03*
D11*
X193427874Y-170371947D03*
D14*
X193427874Y-171771947D03*
%TD*%
D12*
%TO.P,D211,1,A*%
%TO.N,Net-(D10-Pad2)*%
X161746624Y-114690697D03*
D15*
X163146624Y-114690697D03*
D16*
X164246624Y-114690697D03*
D15*
%TO.P,D211,2,K*%
%TO.N,row10*%
X168146624Y-114690697D03*
D14*
X169546624Y-114690697D03*
D16*
X167046624Y-114690697D03*
%TD*%
D11*
%TO.P,D45,1,A*%
%TO.N,Net-(D45-Pad1)*%
X383927874Y-108221947D03*
D13*
X383927874Y-109321947D03*
D12*
X383927874Y-106821947D03*
D11*
%TO.P,D45,2,K*%
%TO.N,Net-(D101-Pad2)*%
X383927874Y-113221947D03*
D14*
X383927874Y-114621947D03*
D13*
X383927874Y-112121947D03*
%TD*%
%TO.P,D60,1,A*%
%TO.N,Net-(D60-Pad1)*%
X345827874Y-128371947D03*
D11*
X345827874Y-127271947D03*
D12*
X345827874Y-125871947D03*
D14*
%TO.P,D60,2,K*%
%TO.N,Net-(D102-Pad2)*%
X345827874Y-133671947D03*
D11*
X345827874Y-132271947D03*
D13*
X345827874Y-131171947D03*
%TD*%
D12*
%TO.P,D120,1,A*%
%TO.N,Net-(D120-Pad1)*%
X212477874Y-68721947D03*
D11*
X212477874Y-70121947D03*
D13*
X212477874Y-71221947D03*
D14*
%TO.P,D120,2,K*%
%TO.N,Net-(D106-Pad2)*%
X212477874Y-76521947D03*
D13*
X212477874Y-74021947D03*
D11*
X212477874Y-75121947D03*
%TD*%
%TO.P,D159,1,A*%
%TO.N,Net-(D159-Pad1)*%
X79127874Y-146321947D03*
D13*
X79127874Y-147421947D03*
D12*
X79127874Y-144921947D03*
D14*
%TO.P,D159,2,K*%
%TO.N,Net-(D103-Pad2)*%
X79127874Y-152721947D03*
D13*
X79127874Y-150221947D03*
D11*
X79127874Y-151321947D03*
%TD*%
D13*
%TO.P,D10,1,A*%
%TO.N,Net-(D10-Pad1)*%
X517277874Y-109321947D03*
D12*
X517277874Y-106821947D03*
D11*
X517277874Y-108221947D03*
D13*
%TO.P,D10,2,K*%
%TO.N,Net-(D10-Pad2)*%
X517277874Y-112121947D03*
D14*
X517277874Y-114621947D03*
D11*
X517277874Y-113221947D03*
%TD*%
%TO.P,D103,1,A*%
%TO.N,Net-(D103-Pad1)*%
X231527874Y-146321947D03*
D13*
X231527874Y-147421947D03*
D12*
X231527874Y-144921947D03*
D13*
%TO.P,D103,2,K*%
%TO.N,Net-(D103-Pad2)*%
X231527874Y-150221947D03*
D14*
X231527874Y-152721947D03*
D11*
X231527874Y-151321947D03*
%TD*%
%TO.P,D116,1,A*%
%TO.N,Net-(D116-Pad1)*%
X193427874Y-127271947D03*
D13*
X193427874Y-128371947D03*
D12*
X193427874Y-125871947D03*
D13*
%TO.P,D116,2,K*%
%TO.N,Net-(D102-Pad2)*%
X193427874Y-131171947D03*
D11*
X193427874Y-132271947D03*
D14*
X193427874Y-133671947D03*
%TD*%
D11*
%TO.P,D25,1,A*%
%TO.N,Net-(D25-Pad1)*%
X479177874Y-127271947D03*
D13*
X479177874Y-128371947D03*
D12*
X479177874Y-125871947D03*
D11*
%TO.P,D25,2,K*%
%TO.N,Net-(D109-Pad2)*%
X479177874Y-132271947D03*
D14*
X479177874Y-133671947D03*
D13*
X479177874Y-131171947D03*
%TD*%
%TO.P,D145,1,A*%
%TO.N,Net-(D145-Pad1)*%
X117227874Y-147421947D03*
D11*
X117227874Y-146321947D03*
D12*
X117227874Y-144921947D03*
D13*
%TO.P,D145,2,K*%
%TO.N,Net-(D103-Pad2)*%
X117227874Y-150221947D03*
D11*
X117227874Y-151321947D03*
D14*
X117227874Y-152721947D03*
%TD*%
D13*
%TO.P,D50,1,A*%
%TO.N,Net-(D50-Pad1)*%
X402977874Y-71221947D03*
D12*
X402977874Y-68721947D03*
D11*
X402977874Y-70121947D03*
D13*
%TO.P,D50,2,K*%
%TO.N,Net-(D106-Pad2)*%
X402977874Y-74021947D03*
D14*
X402977874Y-76521947D03*
D11*
X402977874Y-75121947D03*
%TD*%
%TO.P,D152,1,A*%
%TO.N,Net-(D152-Pad1)*%
X136277874Y-146134447D03*
D12*
X136277874Y-144734447D03*
D13*
X136277874Y-147234447D03*
D14*
%TO.P,D152,2,K*%
%TO.N,Net-(D110-Pad2)*%
X136277874Y-152534447D03*
D11*
X136277874Y-151134447D03*
D13*
X136277874Y-150034447D03*
%TD*%
%TO.P,D175,1,A*%
%TO.N,Net-(D175-Pad1)*%
X60077874Y-52171947D03*
D11*
X60077874Y-51071947D03*
D12*
X60077874Y-49671947D03*
D13*
%TO.P,D175,2,K*%
%TO.N,Net-(D105-Pad2)*%
X60077874Y-54971947D03*
D11*
X60077874Y-56071947D03*
D14*
X60077874Y-57471947D03*
%TD*%
D12*
%TO.P,D77,1,A*%
%TO.N,Net-(D77-Pad1)*%
X326777874Y-49671947D03*
D11*
X326777874Y-51071947D03*
D13*
X326777874Y-52171947D03*
D11*
%TO.P,D77,2,K*%
%TO.N,Net-(D105-Pad2)*%
X326777874Y-56071947D03*
D14*
X326777874Y-57471947D03*
D13*
X326777874Y-54971947D03*
%TD*%
D12*
%TO.P,D138,1,A*%
%TO.N,Net-(D138-Pad1)*%
X174377874Y-144921947D03*
D11*
X174377874Y-146321947D03*
D13*
X174377874Y-147421947D03*
%TO.P,D138,2,K*%
%TO.N,Net-(D110-Pad2)*%
X174377874Y-150221947D03*
D14*
X174377874Y-152721947D03*
D11*
X174377874Y-151321947D03*
%TD*%
D13*
%TO.P,D43,1,A*%
%TO.N,Net-(D43-Pad1)*%
X383927874Y-71221947D03*
D11*
X383927874Y-70121947D03*
D12*
X383927874Y-68721947D03*
D13*
%TO.P,D43,2,K*%
%TO.N,Net-(D1-Pad2)*%
X383927874Y-74021947D03*
D11*
X383927874Y-75121947D03*
D14*
X383927874Y-76521947D03*
%TD*%
D11*
%TO.P,D17,1,A*%
%TO.N,Net-(D17-Pad1)*%
X460127874Y-108221947D03*
D12*
X460127874Y-106821947D03*
D13*
X460127874Y-109321947D03*
D11*
%TO.P,D17,2,K*%
%TO.N,Net-(D101-Pad2)*%
X460127874Y-113221947D03*
D13*
X460127874Y-112121947D03*
D14*
X460127874Y-114621947D03*
%TD*%
D11*
%TO.P,D87,1,A*%
%TO.N,Net-(D87-Pad1)*%
X269612568Y-108236098D03*
D13*
X269612568Y-109336098D03*
D12*
X269612568Y-106836098D03*
D13*
%TO.P,D87,2,K*%
%TO.N,Net-(D101-Pad2)*%
X269612568Y-112136098D03*
D11*
X269612568Y-113236098D03*
D14*
X269612568Y-114636098D03*
%TD*%
D20*
%TO.P,U2,1,GND*%
%TO.N,GND1*%
X510812568Y-25155697D03*
D21*
%TO.P,U2,2,I/O1*%
%TO.N,+5V*%
X510812568Y-27695697D03*
%TO.P,U2,3,I/O2*%
%TO.N,SCL*%
X510812568Y-30235697D03*
%TO.P,U2,4,VCC*%
%TO.N,SDA*%
X510812568Y-32775697D03*
%TD*%
D13*
%TO.P,D37,1,A*%
%TO.N,Net-(D37-Pad1)*%
X441077874Y-90271947D03*
D12*
X441077874Y-87771947D03*
D11*
X441077874Y-89171947D03*
D14*
%TO.P,D37,2,K*%
%TO.N,Net-(D107-Pad2)*%
X441077874Y-95571947D03*
D11*
X441077874Y-94171947D03*
D13*
X441077874Y-93071947D03*
%TD*%
D11*
%TO.P,D163,1,A*%
%TO.N,Net-(D163-Pad1)*%
X98177874Y-89171947D03*
D12*
X98177874Y-87771947D03*
D13*
X98177874Y-90271947D03*
%TO.P,D163,2,K*%
%TO.N,Net-(D107-Pad2)*%
X98177874Y-93071947D03*
D14*
X98177874Y-95571947D03*
D11*
X98177874Y-94171947D03*
%TD*%
D12*
%TO.P,D29,1,A*%
%TO.N,Net-(D29-Pad1)*%
X422027874Y-68721947D03*
D13*
X422027874Y-71221947D03*
D11*
X422027874Y-70121947D03*
D14*
%TO.P,D29,2,K*%
%TO.N,Net-(D1-Pad2)*%
X422027874Y-76521947D03*
D11*
X422027874Y-75121947D03*
D13*
X422027874Y-74021947D03*
%TD*%
D12*
%TO.P,D205,1,A*%
%TO.N,Net-(D102-Pad2)*%
X352246624Y-132946947D03*
D15*
X353646624Y-132946947D03*
D16*
X354746624Y-132946947D03*
D14*
%TO.P,D205,2,K*%
%TO.N,row4*%
X360046624Y-132946947D03*
D15*
X358646624Y-132946947D03*
D16*
X357546624Y-132946947D03*
%TD*%
D12*
%TO.P,D18,1,A*%
%TO.N,Net-(D18-Pad1)*%
X460127874Y-125871947D03*
D11*
X460127874Y-127271947D03*
D13*
X460127874Y-128371947D03*
%TO.P,D18,2,K*%
%TO.N,Net-(D102-Pad2)*%
X460127874Y-131171947D03*
D14*
X460127874Y-133671947D03*
D11*
X460127874Y-132271947D03*
%TD*%
D13*
%TO.P,D170,1,A*%
%TO.N,Net-(D170-Pad1)*%
X41027874Y-90271947D03*
D11*
X41027874Y-89171947D03*
D12*
X41027874Y-87771947D03*
D11*
%TO.P,D170,2,K*%
%TO.N,Net-(D100-Pad2)*%
X41027874Y-94171947D03*
D13*
X41027874Y-93071947D03*
D14*
X41027874Y-95571947D03*
%TD*%
D11*
%TO.P,D114,1,A*%
%TO.N,Net-(D114-Pad1)*%
X193427874Y-89171947D03*
D12*
X193427874Y-87771947D03*
D13*
X193427874Y-90271947D03*
D14*
%TO.P,D114,2,K*%
%TO.N,Net-(D100-Pad2)*%
X193427874Y-95571947D03*
D13*
X193427874Y-93071947D03*
D11*
X193427874Y-94171947D03*
%TD*%
D15*
%TO.P,D204,1,A*%
%TO.N,Net-(D101-Pad2)*%
X391746624Y-115484447D03*
D16*
X392846624Y-115484447D03*
D12*
X390346624Y-115484447D03*
D14*
%TO.P,D204,2,K*%
%TO.N,row3*%
X398146624Y-115484447D03*
D15*
X396746624Y-115484447D03*
D16*
X395646624Y-115484447D03*
%TD*%
D13*
%TO.P,D154,1,A*%
%TO.N,Net-(D154-Pad1)*%
X79127874Y-52171947D03*
D11*
X79127874Y-51071947D03*
D12*
X79127874Y-49671947D03*
D11*
%TO.P,D154,2,K*%
%TO.N,Net-(D0-Pad2)*%
X79127874Y-56071947D03*
D13*
X79127874Y-54971947D03*
D14*
X79127874Y-57471947D03*
%TD*%
D13*
%TO.P,D162,1,A*%
%TO.N,Net-(D162-Pad1)*%
X98177874Y-71221947D03*
D12*
X98177874Y-68721947D03*
D11*
X98177874Y-70121947D03*
D14*
%TO.P,D162,2,K*%
%TO.N,Net-(D106-Pad2)*%
X98177874Y-76521947D03*
D11*
X98177874Y-75121947D03*
D13*
X98177874Y-74021947D03*
%TD*%
D16*
%TO.P,D203,1,A*%
%TO.N,Net-(D100-Pad2)*%
X427771624Y-95640697D03*
D12*
X425271624Y-95640697D03*
D15*
X426671624Y-95640697D03*
%TO.P,D203,2,K*%
%TO.N,row2*%
X431671624Y-95640697D03*
D16*
X430571624Y-95640697D03*
D14*
X433071624Y-95640697D03*
%TD*%
D12*
%TO.P,D68,1,A*%
%TO.N,Net-(D68-Pad1)*%
X364877874Y-144921947D03*
D13*
X364877874Y-147421947D03*
D11*
X364877874Y-146321947D03*
%TO.P,D68,2,K*%
%TO.N,Net-(D110-Pad2)*%
X364877874Y-151321947D03*
D13*
X364877874Y-150221947D03*
D14*
X364877874Y-152721947D03*
%TD*%
D12*
%TO.P,D124,1,A*%
%TO.N,Net-(D124-Pad1)*%
X212477874Y-144921947D03*
D13*
X212477874Y-147421947D03*
D11*
X212477874Y-146321947D03*
D13*
%TO.P,D124,2,K*%
%TO.N,Net-(D110-Pad2)*%
X212477874Y-150221947D03*
D14*
X212477874Y-152721947D03*
D11*
X212477874Y-151321947D03*
%TD*%
D12*
%TO.P,D21,1,A*%
%TO.N,Net-(D21-Pad1)*%
X479177874Y-49671947D03*
D13*
X479177874Y-52171947D03*
D11*
X479177874Y-51071947D03*
D13*
%TO.P,D21,2,K*%
%TO.N,Net-(D105-Pad2)*%
X479177874Y-54971947D03*
D11*
X479177874Y-56071947D03*
D14*
X479177874Y-57471947D03*
%TD*%
D13*
%TO.P,D169,1,A*%
%TO.N,Net-(D169-Pad1)*%
X41027874Y-71221947D03*
D11*
X41027874Y-70121947D03*
D12*
X41027874Y-68721947D03*
D11*
%TO.P,D169,2,K*%
%TO.N,Net-(D1-Pad2)*%
X41027874Y-75121947D03*
D14*
X41027874Y-76521947D03*
D13*
X41027874Y-74021947D03*
%TD*%
D12*
%TO.P,D127,1,A*%
%TO.N,Net-(D127-Pad1)*%
X155327874Y-68721947D03*
D11*
X155327874Y-70121947D03*
D13*
X155327874Y-71221947D03*
%TO.P,D127,2,K*%
%TO.N,Net-(D1-Pad2)*%
X155327874Y-74021947D03*
D14*
X155327874Y-76521947D03*
D11*
X155327874Y-75121947D03*
%TD*%
D13*
%TO.P,D97,1,A*%
%TO.N,Net-(D97-Pad1)*%
X288662568Y-166486098D03*
D11*
X288662568Y-165386098D03*
D12*
X288662568Y-163986098D03*
D13*
%TO.P,D97,2,K*%
%TO.N,Net-(D111-Pad2)*%
X288662568Y-169286098D03*
D11*
X288662568Y-170386098D03*
D14*
X288662568Y-171786098D03*
%TD*%
D12*
%TO.P,D173,1,A*%
%TO.N,Net-(D173-Pad1)*%
X41027874Y-144921947D03*
D11*
X41027874Y-146321947D03*
D13*
X41027874Y-147421947D03*
%TO.P,D173,2,K*%
%TO.N,Net-(D103-Pad2)*%
X41027874Y-150221947D03*
D11*
X41027874Y-151321947D03*
D14*
X41027874Y-152721947D03*
%TD*%
D11*
%TO.P,D151,1,A*%
%TO.N,Net-(D151-Pad1)*%
X136277874Y-127271947D03*
D13*
X136277874Y-128371947D03*
D12*
X136277874Y-125871947D03*
D11*
%TO.P,D151,2,K*%
%TO.N,Net-(D109-Pad2)*%
X136277874Y-132271947D03*
D13*
X136277874Y-131171947D03*
D14*
X136277874Y-133671947D03*
%TD*%
D12*
%TO.P,D41,1,A*%
%TO.N,Net-(D41-Pad1)*%
X441077874Y-163971947D03*
D13*
X441077874Y-166471947D03*
D11*
X441077874Y-165371947D03*
%TO.P,D41,2,K*%
%TO.N,Net-(D111-Pad2)*%
X441077874Y-170371947D03*
D13*
X441077874Y-169271947D03*
D14*
X441077874Y-171771947D03*
%TD*%
D12*
%TO.P,D207,1,A*%
%TO.N,Net-(D104-Pad2)*%
X276840374Y-171840697D03*
D15*
X278240374Y-171840697D03*
D16*
X279340374Y-171840697D03*
D14*
%TO.P,D207,2,K*%
%TO.N,row6*%
X284640374Y-171840697D03*
D15*
X283240374Y-171840697D03*
D16*
X282140374Y-171840697D03*
%TD*%
D12*
%TO.P,D141,1,A*%
%TO.N,Net-(D141-Pad1)*%
X117227874Y-68721947D03*
D11*
X117227874Y-70121947D03*
D13*
X117227874Y-71221947D03*
%TO.P,D141,2,K*%
%TO.N,Net-(D1-Pad2)*%
X117227874Y-74021947D03*
D11*
X117227874Y-75121947D03*
D14*
X117227874Y-76521947D03*
%TD*%
D16*
%TO.P,D208,1,A*%
%TO.N,Net-(D111-Pad2)*%
X258702874Y-171840697D03*
D15*
X257602874Y-171840697D03*
D12*
X256202874Y-171840697D03*
D16*
%TO.P,D208,2,K*%
%TO.N,row7*%
X261502874Y-171840697D03*
D15*
X262602874Y-171840697D03*
D14*
X264002874Y-171840697D03*
%TD*%
D11*
%TO.P,D58,1,A*%
%TO.N,Net-(D58-Pad1)*%
X345827874Y-89171947D03*
D13*
X345827874Y-90271947D03*
D12*
X345827874Y-87771947D03*
D11*
%TO.P,D58,2,K*%
%TO.N,Net-(D100-Pad2)*%
X345827874Y-94171947D03*
D14*
X345827874Y-95571947D03*
D13*
X345827874Y-93071947D03*
%TD*%
%TO.P,D110,1,A*%
%TO.N,Net-(D110-Pad1)*%
X250577874Y-147421947D03*
D12*
X250577874Y-144921947D03*
D11*
X250577874Y-146321947D03*
D13*
%TO.P,D110,2,K*%
%TO.N,Net-(D110-Pad2)*%
X250577874Y-150221947D03*
D11*
X250577874Y-151321947D03*
D14*
X250577874Y-152721947D03*
%TD*%
D13*
%TO.P,D34,1,A*%
%TO.N,Net-(D34-Pad1)*%
X422027874Y-166471947D03*
D11*
X422027874Y-165371947D03*
D12*
X422027874Y-163971947D03*
D11*
%TO.P,D34,2,K*%
%TO.N,Net-(D104-Pad2)*%
X422027874Y-170371947D03*
D14*
X422027874Y-171771947D03*
D13*
X422027874Y-169271947D03*
%TD*%
D11*
%TO.P,D20,1,A*%
%TO.N,Net-(D20-Pad1)*%
X460127874Y-165371947D03*
D13*
X460127874Y-166471947D03*
D12*
X460127874Y-163971947D03*
D13*
%TO.P,D20,2,K*%
%TO.N,Net-(D104-Pad2)*%
X460127874Y-169271947D03*
D11*
X460127874Y-170371947D03*
D14*
X460127874Y-171771947D03*
%TD*%
D11*
%TO.P,D135,1,A*%
%TO.N,Net-(D135-Pad1)*%
X174377874Y-89171947D03*
D13*
X174377874Y-90271947D03*
D12*
X174377874Y-87771947D03*
D14*
%TO.P,D135,2,K*%
%TO.N,Net-(D107-Pad2)*%
X174377874Y-95571947D03*
D13*
X174377874Y-93071947D03*
D11*
X174377874Y-94171947D03*
%TD*%
D13*
%TO.P,D119,1,A*%
%TO.N,Net-(D119-Pad1)*%
X212477874Y-52171947D03*
D12*
X212477874Y-49671947D03*
D11*
X212477874Y-51071947D03*
%TO.P,D119,2,K*%
%TO.N,Net-(D105-Pad2)*%
X212477874Y-56071947D03*
D13*
X212477874Y-54971947D03*
D14*
X212477874Y-57471947D03*
%TD*%
D12*
%TO.P,D57,1,A*%
%TO.N,Net-(D57-Pad1)*%
X345827874Y-68721947D03*
D13*
X345827874Y-71221947D03*
D11*
X345827874Y-70121947D03*
D13*
%TO.P,D57,2,K*%
%TO.N,Net-(D1-Pad2)*%
X345827874Y-74021947D03*
D11*
X345827874Y-75121947D03*
D14*
X345827874Y-76521947D03*
%TD*%
D12*
%TO.P,D88,1,A*%
%TO.N,Net-(D88-Pad1)*%
X269612568Y-125886098D03*
D11*
X269612568Y-127286098D03*
D13*
X269612568Y-128386098D03*
%TO.P,D88,2,K*%
%TO.N,Net-(D102-Pad2)*%
X269612568Y-131186098D03*
D14*
X269612568Y-133686098D03*
D11*
X269612568Y-132286098D03*
%TD*%
%TO.P,D100,1,A*%
%TO.N,Net-(D100-Pad1)*%
X231527874Y-89171947D03*
D12*
X231527874Y-87771947D03*
D13*
X231527874Y-90271947D03*
D11*
%TO.P,D100,2,K*%
%TO.N,Net-(D100-Pad2)*%
X231527874Y-94171947D03*
D14*
X231527874Y-95571947D03*
D13*
X231527874Y-93071947D03*
%TD*%
D11*
%TO.P,D128,1,A*%
%TO.N,Net-(D128-Pad1)*%
X155327874Y-89171947D03*
D12*
X155327874Y-87771947D03*
D13*
X155327874Y-90271947D03*
%TO.P,D128,2,K*%
%TO.N,Net-(D100-Pad2)*%
X155327874Y-93071947D03*
D11*
X155327874Y-94171947D03*
D14*
X155327874Y-95571947D03*
%TD*%
D13*
%TO.P,D66,1,A*%
%TO.N,Net-(D66-Pad1)*%
X364877874Y-109321947D03*
D11*
X364877874Y-108221947D03*
D12*
X364877874Y-106821947D03*
D13*
%TO.P,D66,2,K*%
%TO.N,Net-(D10-Pad2)*%
X364877874Y-112121947D03*
D14*
X364877874Y-114621947D03*
D11*
X364877874Y-113221947D03*
%TD*%
D13*
%TO.P,D56,1,A*%
%TO.N,Net-(D56-Pad1)*%
X345827874Y-52171947D03*
D11*
X345827874Y-51071947D03*
D12*
X345827874Y-49671947D03*
D14*
%TO.P,D56,2,K*%
%TO.N,Net-(D0-Pad2)*%
X345827874Y-57471947D03*
D13*
X345827874Y-54971947D03*
D11*
X345827874Y-56071947D03*
%TD*%
D12*
%TO.P,D46,1,A*%
%TO.N,Net-(D46-Pad1)*%
X383927874Y-125871947D03*
D11*
X383927874Y-127271947D03*
D13*
X383927874Y-128371947D03*
D11*
%TO.P,D46,2,K*%
%TO.N,Net-(D102-Pad2)*%
X383927874Y-132271947D03*
D13*
X383927874Y-131171947D03*
D14*
X383927874Y-133671947D03*
%TD*%
D12*
%TO.P,D180,1,A*%
%TO.N,Net-(D180-Pad1)*%
X60077874Y-144921947D03*
D13*
X60077874Y-147421947D03*
D11*
X60077874Y-146321947D03*
D14*
%TO.P,D180,2,K*%
%TO.N,Net-(D110-Pad2)*%
X60077874Y-152721947D03*
D11*
X60077874Y-151321947D03*
D13*
X60077874Y-150221947D03*
%TD*%
%TO.P,D42,1,A*%
%TO.N,Net-(D42-Pad1)*%
X383927874Y-52171947D03*
D11*
X383927874Y-51071947D03*
D12*
X383927874Y-49671947D03*
D11*
%TO.P,D42,2,K*%
%TO.N,Net-(D0-Pad2)*%
X383927874Y-56071947D03*
D13*
X383927874Y-54971947D03*
D14*
X383927874Y-57471947D03*
%TD*%
D12*
%TO.P,D61,1,A*%
%TO.N,Net-(D61-Pad1)*%
X345827874Y-144921947D03*
D11*
X345827874Y-146321947D03*
D13*
X345827874Y-147421947D03*
%TO.P,D61,2,K*%
%TO.N,Net-(D103-Pad2)*%
X345827874Y-150221947D03*
D11*
X345827874Y-151321947D03*
D14*
X345827874Y-152721947D03*
%TD*%
D11*
%TO.P,D81,1,A*%
%TO.N,Net-(D81-Pad1)*%
X326777874Y-127084447D03*
D13*
X326777874Y-128184447D03*
D12*
X326777874Y-125684447D03*
D14*
%TO.P,D81,2,K*%
%TO.N,Net-(D109-Pad2)*%
X326777874Y-133484447D03*
D11*
X326777874Y-132084447D03*
D13*
X326777874Y-130984447D03*
%TD*%
D12*
%TO.P,D44,1,A*%
%TO.N,Net-(D44-Pad1)*%
X383927874Y-87771947D03*
D13*
X383927874Y-90271947D03*
D11*
X383927874Y-89171947D03*
%TO.P,D44,2,K*%
%TO.N,Net-(D100-Pad2)*%
X383927874Y-94171947D03*
D14*
X383927874Y-95571947D03*
D13*
X383927874Y-93071947D03*
%TD*%
%TO.P,D160,1,A*%
%TO.N,Net-(D160-Pad1)*%
X79127874Y-166471947D03*
D11*
X79127874Y-165371947D03*
D12*
X79127874Y-163971947D03*
D11*
%TO.P,D160,2,K*%
%TO.N,Net-(D104-Pad2)*%
X79127874Y-170371947D03*
D14*
X79127874Y-171771947D03*
D13*
X79127874Y-169271947D03*
%TD*%
D12*
%TO.P,D107,1,A*%
%TO.N,Net-(D107-Pad1)*%
X250577874Y-87771947D03*
D13*
X250577874Y-90271947D03*
D11*
X250577874Y-89171947D03*
D14*
%TO.P,D107,2,K*%
%TO.N,Net-(D107-Pad2)*%
X250577874Y-95571947D03*
D13*
X250577874Y-93071947D03*
D11*
X250577874Y-94171947D03*
%TD*%
D13*
%TO.P,D9,1,A*%
%TO.N,Net-(D9-Pad1)*%
X517277874Y-90271947D03*
D12*
X517277874Y-87771947D03*
D11*
X517277874Y-89171947D03*
D14*
%TO.P,D9,2,K*%
%TO.N,Net-(D107-Pad2)*%
X517277874Y-95571947D03*
D11*
X517277874Y-94171947D03*
D13*
X517277874Y-93071947D03*
%TD*%
%TO.P,D51,1,A*%
%TO.N,Net-(D51-Pad1)*%
X402977874Y-90271947D03*
D12*
X402977874Y-87771947D03*
D11*
X402977874Y-89171947D03*
D13*
%TO.P,D51,2,K*%
%TO.N,Net-(D107-Pad2)*%
X402977874Y-93071947D03*
D11*
X402977874Y-94171947D03*
D14*
X402977874Y-95571947D03*
%TD*%
D13*
%TO.P,D11,1,A*%
%TO.N,Net-(D11-Pad1)*%
X517277874Y-128371947D03*
D11*
X517277874Y-127271947D03*
D12*
X517277874Y-125871947D03*
D14*
%TO.P,D11,2,K*%
%TO.N,Net-(D109-Pad2)*%
X517277874Y-133671947D03*
D13*
X517277874Y-131171947D03*
D11*
X517277874Y-132271947D03*
%TD*%
%TO.P,D167,1,A*%
%TO.N,Net-(D167-Pad1)*%
X98177874Y-165371947D03*
D12*
X98177874Y-163971947D03*
D13*
X98177874Y-166471947D03*
D11*
%TO.P,D167,2,K*%
%TO.N,Net-(D111-Pad2)*%
X98177874Y-170371947D03*
D14*
X98177874Y-171771947D03*
D13*
X98177874Y-169271947D03*
%TD*%
%TO.P,D85,1,A*%
%TO.N,Net-(D85-Pad1)*%
X269612568Y-71236098D03*
D12*
X269612568Y-68736098D03*
D11*
X269612568Y-70136098D03*
D13*
%TO.P,D85,2,K*%
%TO.N,Net-(D1-Pad2)*%
X269612568Y-74036098D03*
D14*
X269612568Y-76536098D03*
D11*
X269612568Y-75136098D03*
%TD*%
%TO.P,D142,1,A*%
%TO.N,Net-(D142-Pad1)*%
X117227874Y-89171947D03*
D13*
X117227874Y-90271947D03*
D12*
X117227874Y-87771947D03*
D13*
%TO.P,D142,2,K*%
%TO.N,Net-(D100-Pad2)*%
X117227874Y-93071947D03*
D14*
X117227874Y-95571947D03*
D11*
X117227874Y-94171947D03*
%TD*%
D17*
%TO.P,R1,1*%
%TO.N,SDA*%
X494461318Y-34521947D03*
%TO.P,R1,2*%
%TO.N,+5V*%
X484301318Y-34521947D03*
%TD*%
D11*
%TO.P,D6,1,A*%
%TO.N,Net-(D6-Pad1)*%
X498227874Y-165371947D03*
D12*
X498227874Y-163971947D03*
D13*
X498227874Y-166471947D03*
%TO.P,D6,2,K*%
%TO.N,Net-(D104-Pad2)*%
X498227874Y-169271947D03*
D14*
X498227874Y-171771947D03*
D11*
X498227874Y-170371947D03*
%TD*%
%TO.P,D146,1,A*%
%TO.N,Net-(D146-Pad1)*%
X117227874Y-165371947D03*
D12*
X117227874Y-163971947D03*
D13*
X117227874Y-166471947D03*
D14*
%TO.P,D146,2,K*%
%TO.N,Net-(D104-Pad2)*%
X117227874Y-171771947D03*
D11*
X117227874Y-170371947D03*
D13*
X117227874Y-169271947D03*
%TD*%
%TO.P,D82,1,A*%
%TO.N,Net-(D82-Pad1)*%
X326777874Y-147421947D03*
D11*
X326777874Y-146321947D03*
D12*
X326777874Y-144921947D03*
D11*
%TO.P,D82,2,K*%
%TO.N,Net-(D110-Pad2)*%
X326777874Y-151321947D03*
D13*
X326777874Y-150221947D03*
D14*
X326777874Y-152721947D03*
%TD*%
D13*
%TO.P,D48,1,A*%
%TO.N,Net-(D48-Pad1)*%
X383927874Y-166471947D03*
D11*
X383927874Y-165371947D03*
D12*
X383927874Y-163971947D03*
D13*
%TO.P,D48,2,K*%
%TO.N,Net-(D104-Pad2)*%
X383927874Y-169271947D03*
D11*
X383927874Y-170371947D03*
D14*
X383927874Y-171771947D03*
%TD*%
D22*
%TO.P,U3,*%
%TO.N,*%
X500165374Y-23230697D03*
X493155374Y-23230697D03*
D23*
%TO.P,U3,1*%
%TO.N,GND1*%
X499165374Y-20740697D03*
%TO.P,U3,2*%
%TO.N,reset*%
X494165374Y-20740697D03*
%TD*%
D24*
%TO.N,row5*%
X337890374Y-42459447D03*
%TO.N,row6*%
X451396624Y-34204447D03*
X294234124Y-43253197D03*
X469652874Y-34204447D03*
%TO.N,row7*%
X466477874Y-26266947D03*
X257721624Y-42459447D03*
%TO.N,row8*%
X465684124Y-25473197D03*
X220415374Y-42459447D03*
%TO.N,row9*%
X464096624Y-24679447D03*
X460921624Y-24679447D03*
%TO.N,row10*%
X463302874Y-23885697D03*
X141834124Y-44046947D03*
%TO.N,row11*%
X450602874Y-18646947D03*
%TO.N,row12*%
X449809124Y-19440697D03*
%TO.N,row13*%
X449015374Y-20234447D03*
%TO.N,SCL*%
X493465374Y-39284447D03*
X470446624Y-39284447D03*
X464890374Y-39284447D03*
%TO.N,SDA*%
X466477874Y-40078197D03*
X469652874Y-40078197D03*
%TO.N,GND1*%
X464495874Y-28191355D03*
%TD*%
D25*
%TO.N,Net-(D0-Pad2)*%
X231527874Y-57471947D02*
X230403363Y-58596458D01*
X268502208Y-58596458D02*
X232652385Y-58596458D01*
X497103363Y-58596458D02*
X461252385Y-58596458D01*
X422027874Y-57471947D02*
X420903363Y-58596458D01*
X502940374Y-57540697D02*
X498296624Y-57540697D01*
X77140863Y-59458958D02*
X43014885Y-59458958D01*
X79127874Y-57471947D02*
X77140863Y-59458958D01*
X230403363Y-58596458D02*
X194552385Y-58596458D01*
X345827874Y-57471947D02*
X344703363Y-58596458D01*
X192303363Y-58596458D02*
X156452385Y-58596458D01*
X308852385Y-58596458D02*
X307727874Y-57471947D01*
X460127874Y-57471947D02*
X459003363Y-58596458D01*
X155327874Y-57471947D02*
X154203363Y-58596458D01*
X382803363Y-58596458D02*
X346952385Y-58596458D01*
X498227874Y-57471947D02*
X497103363Y-58596458D01*
X194552385Y-58596458D02*
X193427874Y-57471947D01*
X306589212Y-58610609D02*
X270737079Y-58610609D01*
X43014885Y-59458958D02*
X41027874Y-57471947D01*
X383927874Y-57471947D02*
X382803363Y-58596458D01*
X420903363Y-58596458D02*
X385052385Y-58596458D01*
X346952385Y-58596458D02*
X345827874Y-57471947D01*
X385052385Y-58596458D02*
X383927874Y-57471947D01*
X193427874Y-57471947D02*
X192303363Y-58596458D01*
X118352385Y-58596458D02*
X117227874Y-57471947D01*
X117227874Y-57471947D02*
X116103363Y-58596458D01*
X423152385Y-58596458D02*
X422027874Y-57471947D01*
X232652385Y-58596458D02*
X231527874Y-57471947D01*
X80252385Y-58596458D02*
X79127874Y-57471947D01*
X154203363Y-58596458D02*
X118352385Y-58596458D01*
X269612568Y-57486098D02*
X268502208Y-58596458D01*
X459003363Y-58596458D02*
X423152385Y-58596458D01*
X344703363Y-58596458D02*
X308852385Y-58596458D01*
X307727874Y-57471947D02*
X306589212Y-58610609D01*
X156452385Y-58596458D02*
X155327874Y-57471947D01*
X116103363Y-58596458D02*
X80252385Y-58596458D01*
X461252385Y-58596458D02*
X460127874Y-57471947D01*
X270737079Y-58610609D02*
X269612568Y-57486098D01*
%TO.N,Net-(D1-Pad2)*%
X265698417Y-72621947D02*
X269612568Y-76536098D01*
X369426896Y-76521947D02*
X383927874Y-76521947D01*
X75227874Y-72621947D02*
X79127874Y-76521947D01*
X207784124Y-76521947D02*
X211684124Y-72621947D01*
X307727874Y-76521947D02*
X322084124Y-76521947D01*
X460127874Y-76521947D02*
X465684124Y-76521947D01*
X398284124Y-76521947D02*
X402184124Y-72621947D01*
X345827874Y-76521947D02*
X360184124Y-76521947D01*
X440284124Y-72621947D02*
X441726896Y-72621947D01*
X131584124Y-76521947D02*
X135484124Y-72621947D01*
X441726896Y-72621947D02*
X445626896Y-76521947D01*
X465752874Y-76590697D02*
X469721624Y-72621947D01*
X287884124Y-72621947D02*
X303827874Y-72621947D01*
X135484124Y-72621947D02*
X151427874Y-72621947D01*
X365526896Y-72621947D02*
X369426896Y-76521947D01*
X364084124Y-72621947D02*
X365526896Y-72621947D01*
X169684124Y-76521947D02*
X173584124Y-72621947D01*
X422027874Y-76521947D02*
X436384124Y-76521947D01*
X59284124Y-72621947D02*
X75227874Y-72621947D01*
X407526896Y-76521947D02*
X422027874Y-76521947D01*
X117227874Y-76521947D02*
X131584124Y-76521947D01*
X245884124Y-76521947D02*
X249784124Y-72621947D01*
X383927874Y-76521947D02*
X398284124Y-76521947D01*
X189527874Y-72621947D02*
X193427874Y-76521947D01*
X155327874Y-76521947D02*
X169684124Y-76521947D01*
X113327874Y-72621947D02*
X117227874Y-76521947D01*
X151427874Y-72621947D02*
X155327874Y-76521947D01*
X283969973Y-76536098D02*
X287884124Y-72621947D01*
X331326896Y-76521947D02*
X345827874Y-76521947D01*
X360184124Y-76521947D02*
X364084124Y-72621947D01*
X93484124Y-76521947D02*
X97384124Y-72621947D01*
X227627874Y-72621947D02*
X231527874Y-76521947D01*
X436384124Y-76521947D02*
X440284124Y-72621947D01*
X327426896Y-72621947D02*
X331326896Y-76521947D01*
X193427874Y-76521947D02*
X207784124Y-76521947D01*
X403626896Y-72621947D02*
X407526896Y-76521947D01*
X269612568Y-76536098D02*
X283969973Y-76536098D01*
X402184124Y-72621947D02*
X403626896Y-72621947D01*
X231527874Y-76521947D02*
X245884124Y-76521947D01*
X303827874Y-72621947D02*
X307727874Y-76521947D01*
X494327874Y-72621947D02*
X498227874Y-76521947D01*
X173584124Y-72621947D02*
X189527874Y-72621947D01*
X469721624Y-72621947D02*
X494327874Y-72621947D01*
X211684124Y-72621947D02*
X227627874Y-72621947D01*
X445626896Y-76521947D02*
X460127874Y-76521947D01*
X41027874Y-76521947D02*
X55384124Y-76521947D01*
X325984124Y-72621947D02*
X327426896Y-72621947D01*
X249784124Y-72621947D02*
X265698417Y-72621947D01*
X97384124Y-72621947D02*
X113327874Y-72621947D01*
X55384124Y-76521947D02*
X59284124Y-72621947D01*
X79127874Y-76521947D02*
X93484124Y-76521947D01*
X322084124Y-76521947D02*
X325984124Y-72621947D01*
%TO.N,Net-(D100-Pad2)*%
X420903363Y-96696458D02*
X422027874Y-95571947D01*
X460127874Y-95571947D02*
X461252385Y-96696458D01*
X345827874Y-95571947D02*
X346952385Y-96696458D01*
X269612568Y-95586098D02*
X270737079Y-96710609D01*
X425271624Y-95640697D02*
X426396135Y-96765208D01*
X41027874Y-95571947D02*
X42152385Y-96696458D01*
X426396135Y-96765208D02*
X458934613Y-96765208D01*
X232652385Y-96696458D02*
X268502208Y-96696458D01*
X78003363Y-96696458D02*
X79127874Y-95571947D01*
X458934613Y-96765208D02*
X460127874Y-95571947D01*
X306589212Y-96710609D02*
X307727874Y-95571947D01*
X116034613Y-96765208D02*
X117227874Y-95571947D01*
X79127874Y-95571947D02*
X80321135Y-96765208D01*
X118352385Y-96696458D02*
X154203363Y-96696458D01*
X270737079Y-96710609D02*
X306589212Y-96710609D01*
X42152385Y-96696458D02*
X78003363Y-96696458D01*
X194552385Y-96696458D02*
X230403363Y-96696458D01*
X231527874Y-95571947D02*
X232652385Y-96696458D01*
X155327874Y-95571947D02*
X156452385Y-96696458D01*
X307727874Y-95571947D02*
X308852385Y-96696458D01*
X117227874Y-95571947D02*
X118352385Y-96696458D01*
X308852385Y-96696458D02*
X344703363Y-96696458D01*
X230403363Y-96696458D02*
X231527874Y-95571947D01*
X156452385Y-96696458D02*
X192303363Y-96696458D01*
X385052385Y-96696458D02*
X420903363Y-96696458D01*
X497103363Y-96696458D02*
X498227874Y-95571947D01*
X461252385Y-96696458D02*
X497103363Y-96696458D01*
X346952385Y-96696458D02*
X382803363Y-96696458D01*
X192303363Y-96696458D02*
X193427874Y-95571947D01*
X154203363Y-96696458D02*
X155327874Y-95571947D01*
X193427874Y-95571947D02*
X194552385Y-96696458D01*
X344703363Y-96696458D02*
X345827874Y-95571947D01*
X80321135Y-96765208D02*
X116034613Y-96765208D01*
X382803363Y-96696458D02*
X383927874Y-95571947D01*
X268502208Y-96696458D02*
X269612568Y-95586098D01*
X383927874Y-95571947D02*
X385052385Y-96696458D01*
X422027874Y-95571947D02*
X425202874Y-95571947D01*
%TO.N,Net-(D101-Pad2)*%
X154203363Y-115746458D02*
X155327874Y-114621947D01*
X307727874Y-114621947D02*
X308852385Y-115746458D01*
X79127874Y-114621947D02*
X80252385Y-115746458D01*
X155327874Y-114621947D02*
X156521135Y-115815208D01*
X497103363Y-115746458D02*
X498227874Y-114621947D01*
X306589212Y-115760609D02*
X307727874Y-114621947D01*
X77934613Y-115815208D02*
X79127874Y-114621947D01*
X232666536Y-115760609D02*
X268488057Y-115760609D01*
X344703363Y-115746458D02*
X345827874Y-114621947D01*
X269612568Y-114636098D02*
X270737079Y-115760609D01*
X118352385Y-115746458D02*
X154203363Y-115746458D01*
X346952385Y-115746458D02*
X382803363Y-115746458D01*
X194552385Y-115746458D02*
X230403363Y-115746458D01*
X41027874Y-114621947D02*
X42221135Y-115815208D01*
X308852385Y-115746458D02*
X344703363Y-115746458D01*
X80252385Y-115746458D02*
X116103363Y-115746458D01*
X461252385Y-115746458D02*
X497103363Y-115746458D01*
X193427874Y-114621947D02*
X194552385Y-115746458D01*
X389484124Y-114621947D02*
X390346624Y-115484447D01*
X231527874Y-114621947D02*
X232666536Y-115760609D01*
X268488057Y-115760609D02*
X269612568Y-114636098D01*
X420040863Y-116608958D02*
X422027874Y-114621947D01*
X391471135Y-116608958D02*
X420040863Y-116608958D01*
X156521135Y-115815208D02*
X192234613Y-115815208D01*
X422027874Y-114621947D02*
X423152385Y-115746458D01*
X116103363Y-115746458D02*
X117227874Y-114621947D01*
X382803363Y-115746458D02*
X383927874Y-114621947D01*
X459003363Y-115746458D02*
X460127874Y-114621947D01*
X383927874Y-114621947D02*
X389484124Y-114621947D01*
X460127874Y-114621947D02*
X461252385Y-115746458D01*
X117227874Y-114621947D02*
X118352385Y-115746458D01*
X192234613Y-115815208D02*
X193427874Y-114621947D01*
X390346624Y-115484447D02*
X391471135Y-116608958D01*
X42221135Y-115815208D02*
X77934613Y-115815208D01*
X270737079Y-115760609D02*
X306589212Y-115760609D01*
X423152385Y-115746458D02*
X459003363Y-115746458D01*
X230403363Y-115746458D02*
X231527874Y-114621947D01*
X345827874Y-114621947D02*
X346952385Y-115746458D01*
%TO.N,Net-(D102-Pad2)*%
X155327874Y-133671947D02*
X157314885Y-135658958D01*
X422027874Y-133671947D02*
X423152385Y-134796458D01*
X269612568Y-133686098D02*
X270737079Y-134810609D01*
X385052385Y-134796458D02*
X420903363Y-134796458D01*
X268502208Y-134796458D02*
X269612568Y-133686098D01*
X459003363Y-134796458D02*
X460127874Y-133671947D01*
X354096135Y-134796458D02*
X382803363Y-134796458D01*
X232652385Y-134796458D02*
X268502208Y-134796458D01*
X461252385Y-134796458D02*
X497103363Y-134796458D01*
X79127874Y-133671947D02*
X80252385Y-134796458D01*
X270737079Y-134810609D02*
X306589212Y-134810609D01*
X191440863Y-135658958D02*
X193427874Y-133671947D01*
X497103363Y-134796458D02*
X498227874Y-133671947D01*
X460127874Y-133671947D02*
X461252385Y-134796458D01*
X118352385Y-134796458D02*
X154203363Y-134796458D01*
X382803363Y-134796458D02*
X383927874Y-133671947D01*
X116103363Y-134796458D02*
X117227874Y-133671947D01*
X78003363Y-134796458D02*
X79127874Y-133671947D01*
X157314885Y-135658958D02*
X191440863Y-135658958D01*
X345827874Y-133671947D02*
X351521624Y-133671947D01*
X41027874Y-133671947D02*
X42152385Y-134796458D01*
X307727874Y-133671947D02*
X308664885Y-134608958D01*
X80252385Y-134796458D02*
X116103363Y-134796458D01*
X193427874Y-133671947D02*
X194552385Y-134796458D01*
X117227874Y-133671947D02*
X118352385Y-134796458D01*
X352246624Y-132946947D02*
X354096135Y-134796458D01*
X420903363Y-134796458D02*
X422027874Y-133671947D01*
X383927874Y-133671947D02*
X385052385Y-134796458D01*
X423152385Y-134796458D02*
X459003363Y-134796458D01*
X344890863Y-134608958D02*
X345827874Y-133671947D01*
X308664885Y-134608958D02*
X344890863Y-134608958D01*
X351521624Y-133671947D02*
X352246624Y-132946947D01*
X230403363Y-134796458D02*
X231527874Y-133671947D01*
X154203363Y-134796458D02*
X155327874Y-133671947D01*
X42152385Y-134796458D02*
X78003363Y-134796458D01*
X306589212Y-134810609D02*
X307727874Y-133671947D01*
X194552385Y-134796458D02*
X230403363Y-134796458D01*
X231527874Y-133671947D02*
X232652385Y-134796458D01*
%TO.N,Net-(D103-Pad2)*%
X460127874Y-152721947D02*
X445771624Y-152721947D01*
X173584124Y-148821947D02*
X189527874Y-148821947D01*
X365671624Y-148821947D02*
X349727874Y-148821947D01*
X425927874Y-148821947D02*
X422027874Y-152721947D01*
X383927874Y-152721947D02*
X369571624Y-152721947D01*
X169684124Y-152721947D02*
X173584124Y-148821947D01*
X235427874Y-148821947D02*
X231527874Y-152721947D01*
X97384124Y-148821947D02*
X113327874Y-148821947D01*
X403771624Y-148821947D02*
X387827874Y-148821947D01*
X327571624Y-148821947D02*
X311627874Y-148821947D01*
X331471624Y-152721947D02*
X327571624Y-148821947D01*
X211684124Y-148821947D02*
X213126896Y-148821947D01*
X441871624Y-148821947D02*
X425927874Y-148821947D01*
X498227874Y-152721947D02*
X483871624Y-152721947D01*
X276032473Y-152736098D02*
X269612568Y-152736098D01*
X93484124Y-152721947D02*
X97384124Y-148821947D01*
X113327874Y-148821947D02*
X117227874Y-152721947D01*
X483871624Y-152721947D02*
X479971624Y-148821947D01*
X55384124Y-152721947D02*
X59284124Y-148821947D01*
X307727874Y-152721947D02*
X302965374Y-152721947D01*
X151427874Y-148821947D02*
X155327874Y-152721947D01*
X269612568Y-152736098D02*
X255285775Y-152736098D01*
X131584124Y-152721947D02*
X135484124Y-148821947D01*
X193427874Y-152721947D02*
X207784124Y-152721947D01*
X387827874Y-148821947D02*
X383927874Y-152721947D01*
X311627874Y-148821947D02*
X307727874Y-152721947D01*
X207784124Y-152721947D02*
X211684124Y-148821947D01*
X135484124Y-148821947D02*
X151427874Y-148821947D01*
X75227874Y-148821947D02*
X79127874Y-152721947D01*
X189527874Y-148821947D02*
X193427874Y-152721947D01*
X422027874Y-152721947D02*
X407671624Y-152721947D01*
X349727874Y-148821947D02*
X345827874Y-152721947D01*
X255285775Y-152736098D02*
X251371624Y-148821947D01*
X217026896Y-152721947D02*
X231527874Y-152721947D01*
X302896624Y-152721947D02*
X298996624Y-148821947D01*
X445771624Y-152721947D02*
X441871624Y-148821947D01*
X251371624Y-148821947D02*
X235427874Y-148821947D01*
X298996624Y-148821947D02*
X279946624Y-148821947D01*
X155327874Y-152721947D02*
X169684124Y-152721947D01*
X213126896Y-148821947D02*
X217026896Y-152721947D01*
X479971624Y-148821947D02*
X464027874Y-148821947D01*
X117227874Y-152721947D02*
X131584124Y-152721947D01*
X345827874Y-152721947D02*
X331471624Y-152721947D01*
X41027874Y-152721947D02*
X55384124Y-152721947D01*
X407671624Y-152721947D02*
X403771624Y-148821947D01*
X279946624Y-148821947D02*
X276032473Y-152736098D01*
X79127874Y-152721947D02*
X93484124Y-152721947D01*
X464027874Y-148821947D02*
X460127874Y-152721947D01*
X369571624Y-152721947D02*
X365671624Y-148821947D01*
X59284124Y-148821947D02*
X75227874Y-148821947D01*
%TO.N,Net-(D104-Pad2)*%
X158952385Y-168147436D02*
X189803363Y-168147436D01*
X345827874Y-171771947D02*
X360184124Y-171771947D01*
X494327874Y-167871947D02*
X498227874Y-171771947D01*
X474484124Y-171771947D02*
X478384124Y-167871947D01*
X402184124Y-167871947D02*
X418127874Y-167871947D01*
X96590374Y-167871947D02*
X113327874Y-167871947D01*
X383927874Y-171771947D02*
X398284124Y-171771947D01*
X135484124Y-167871947D02*
X151427874Y-167871947D01*
X304117514Y-168161587D02*
X307727874Y-171771947D01*
X189803363Y-168147436D02*
X193427874Y-171771947D01*
X380027874Y-167871947D02*
X383927874Y-171771947D01*
X478384124Y-167871947D02*
X494327874Y-167871947D01*
X155327874Y-171771947D02*
X158952385Y-168147436D01*
X249784124Y-167871947D02*
X265698417Y-167871947D01*
X269612568Y-171786098D02*
X276785775Y-171786098D01*
X276840374Y-171840697D02*
X280519484Y-168161587D01*
X322084124Y-171771947D02*
X325984124Y-167871947D01*
X307727874Y-171771947D02*
X322084124Y-171771947D01*
X131584124Y-171771947D02*
X135484124Y-167871947D01*
X460127874Y-171771947D02*
X474484124Y-171771947D01*
X440284124Y-167871947D02*
X456227874Y-167871947D01*
X280519484Y-168161587D02*
X304117514Y-168161587D01*
X418127874Y-167871947D02*
X422027874Y-171771947D01*
X227815374Y-167871947D02*
X231527874Y-171584447D01*
X117227874Y-171771947D02*
X131584124Y-171771947D01*
X79127874Y-171771947D02*
X92690374Y-171771947D01*
X211684124Y-167871947D02*
X227815374Y-167871947D01*
X113327874Y-167871947D02*
X117227874Y-171771947D01*
X41027874Y-171771947D02*
X55384124Y-171771947D01*
X55384124Y-171771947D02*
X59284124Y-167871947D01*
X341927874Y-167871947D02*
X345827874Y-171771947D01*
X325984124Y-167871947D02*
X341927874Y-167871947D01*
X436384124Y-171771947D02*
X440284124Y-167871947D01*
X75227874Y-167871947D02*
X79127874Y-171771947D01*
X456227874Y-167871947D02*
X460127874Y-171771947D01*
X360184124Y-171771947D02*
X364084124Y-167871947D01*
X231527874Y-171584447D02*
X246071624Y-171584447D01*
X364084124Y-167871947D02*
X380027874Y-167871947D01*
X422027874Y-171771947D02*
X436384124Y-171771947D01*
X207784124Y-171771947D02*
X211684124Y-167871947D01*
X265698417Y-167871947D02*
X269612568Y-171786098D01*
X59284124Y-167871947D02*
X75227874Y-167871947D01*
X193427874Y-171771947D02*
X207784124Y-171771947D01*
X246071624Y-171584447D02*
X249784124Y-167871947D01*
X151427874Y-167871947D02*
X155327874Y-171771947D01*
X92690374Y-171771947D02*
X96590374Y-167871947D01*
X398284124Y-171771947D02*
X402184124Y-167871947D01*
%TO.N,Net-(D105-Pad2)*%
X284748417Y-53571947D02*
X288662568Y-57486098D01*
X264934124Y-57471947D02*
X268834124Y-53571947D01*
X212477874Y-57471947D02*
X226834124Y-57471947D01*
X150634124Y-57471947D02*
X154534124Y-53571947D01*
X154534124Y-53571947D02*
X170477874Y-53571947D01*
X364877874Y-57471947D02*
X379234124Y-57471947D01*
X421234124Y-53571947D02*
X437177874Y-53571947D01*
X250577874Y-57471947D02*
X264934124Y-57471947D01*
X268834124Y-53571947D02*
X284748417Y-53571947D01*
X60077874Y-57471947D02*
X56453363Y-53847436D01*
X174377874Y-57471947D02*
X188734124Y-57471947D01*
X230734124Y-53571947D02*
X246677874Y-53571947D01*
X132377874Y-53571947D02*
X136277874Y-57471947D01*
X341134124Y-57471947D02*
X345034124Y-53571947D01*
X60077874Y-57471947D02*
X73640374Y-57471947D01*
X384576896Y-53571947D02*
X388476896Y-57471947D01*
X360977874Y-53571947D02*
X364877874Y-57471947D01*
X459334124Y-53571947D02*
X475277874Y-53571947D01*
X98177874Y-57471947D02*
X112534124Y-57471947D01*
X441077874Y-57471947D02*
X455434124Y-57471947D01*
X116434124Y-53571947D02*
X132377874Y-53571947D01*
X73640374Y-57471947D02*
X77815863Y-53296458D01*
X226834124Y-57471947D02*
X230734124Y-53571947D01*
X192634124Y-53571947D02*
X208577874Y-53571947D01*
X136277874Y-57471947D02*
X150634124Y-57471947D01*
X479177874Y-57471947D02*
X493534124Y-57471947D01*
X208577874Y-53571947D02*
X212477874Y-57471947D01*
X112534124Y-57471947D02*
X116434124Y-53571947D01*
X303019973Y-57486098D02*
X306934124Y-53571947D01*
X246677874Y-53571947D02*
X250577874Y-57471947D01*
X437177874Y-53571947D02*
X441077874Y-57471947D01*
X493534124Y-57471947D02*
X497434124Y-53571947D01*
X77815863Y-53296458D02*
X94002385Y-53296458D01*
X322877874Y-53571947D02*
X326777874Y-57471947D01*
X497434124Y-53571947D02*
X513377874Y-53571947D01*
X188734124Y-57471947D02*
X192634124Y-53571947D01*
X379234124Y-57471947D02*
X383134124Y-53571947D01*
X455434124Y-57471947D02*
X459334124Y-53571947D01*
X417334124Y-57471947D02*
X421234124Y-53571947D01*
X36990374Y-56815697D02*
X36990374Y-58334447D01*
X288662568Y-57486098D02*
X303019973Y-57486098D01*
X513377874Y-53571947D02*
X517277874Y-57471947D01*
X306934124Y-53571947D02*
X322877874Y-53571947D01*
X94002385Y-53296458D02*
X98177874Y-57471947D01*
X388476896Y-57471947D02*
X402977874Y-57471947D01*
X402977874Y-57471947D02*
X417334124Y-57471947D01*
X345034124Y-53571947D02*
X360977874Y-53571947D01*
X475277874Y-53571947D02*
X479177874Y-57471947D01*
X383134124Y-53571947D02*
X384576896Y-53571947D01*
X39958635Y-53847436D02*
X36990374Y-56815697D01*
X326777874Y-57471947D02*
X341134124Y-57471947D01*
X170477874Y-53571947D02*
X174377874Y-57471947D01*
X56453363Y-53847436D02*
X39958635Y-53847436D01*
%TO.N,Net-(D106-Pad2)*%
X101284124Y-76521947D02*
X98177874Y-76521947D01*
X146596624Y-78178197D02*
X144940374Y-76521947D01*
X294973275Y-76536098D02*
X288662568Y-76536098D01*
X250577874Y-76521947D02*
X248921624Y-78178197D01*
X253684124Y-76521947D02*
X250577874Y-76521947D01*
X480834124Y-78178197D02*
X479177874Y-76521947D01*
X479177874Y-76521947D02*
X477521624Y-78178197D01*
X288662568Y-76536098D02*
X287020469Y-78178197D01*
X97315374Y-77384447D02*
X79855674Y-77384447D01*
X174377874Y-76521947D02*
X172721624Y-78178197D01*
X144940374Y-76521947D02*
X136277874Y-76521947D01*
X134621624Y-78178197D02*
X102940374Y-78178197D01*
X407740374Y-78178197D02*
X406084124Y-76521947D01*
X64115374Y-76590697D02*
X60146624Y-76590697D01*
X212477874Y-76521947D02*
X210821624Y-78178197D01*
X499815374Y-78178197D02*
X480834124Y-78178197D01*
X325121624Y-78178197D02*
X296615374Y-78178197D01*
X214790374Y-76521947D02*
X212477874Y-76521947D01*
X441077874Y-76521947D02*
X439421624Y-78178197D01*
X442734124Y-78178197D02*
X441077874Y-76521947D01*
X77077385Y-77715208D02*
X73571624Y-74209447D01*
X402977874Y-76521947D02*
X401321624Y-78178197D01*
X501471624Y-76521947D02*
X499815374Y-78178197D01*
X401321624Y-78178197D02*
X369640374Y-78178197D01*
X364877874Y-76521947D02*
X363221624Y-78178197D01*
X179140374Y-78178197D02*
X177484124Y-76521947D01*
X439421624Y-78178197D02*
X407740374Y-78178197D01*
X326777874Y-76521947D02*
X325121624Y-78178197D01*
X172721624Y-78178197D02*
X146596624Y-78178197D01*
X79855674Y-77384447D02*
X79524913Y-77715208D01*
X406084124Y-76521947D02*
X402977874Y-76521947D01*
X136277874Y-76521947D02*
X134621624Y-78178197D01*
X363221624Y-78178197D02*
X328434124Y-78178197D01*
X73571624Y-74209447D02*
X66496624Y-74209447D01*
X79524913Y-77715208D02*
X77077385Y-77715208D01*
X210821624Y-78178197D02*
X179140374Y-78178197D01*
X177484124Y-76521947D02*
X174377874Y-76521947D01*
X328434124Y-78178197D02*
X326777874Y-76521947D01*
X287020469Y-78178197D02*
X255340374Y-78178197D01*
X248921624Y-78178197D02*
X216446624Y-78178197D01*
X98177874Y-76521947D02*
X97315374Y-77384447D01*
X517277874Y-76521947D02*
X501471624Y-76521947D01*
X66496624Y-74209447D02*
X64115374Y-76590697D01*
X102940374Y-78178197D02*
X101284124Y-76521947D01*
X296615374Y-78178197D02*
X294973275Y-76536098D01*
X477521624Y-78178197D02*
X442734124Y-78178197D01*
X216446624Y-78178197D02*
X214790374Y-76521947D01*
X255340374Y-78178197D02*
X253684124Y-76521947D01*
X369640374Y-78178197D02*
X367984124Y-76521947D01*
X367984124Y-76521947D02*
X364877874Y-76521947D01*
%TO.N,Net-(D107-Pad2)*%
X479177874Y-95571947D02*
X475553363Y-91947436D01*
X406602385Y-91947436D02*
X402977874Y-95571947D01*
X326777874Y-95571947D02*
X322602385Y-91396458D01*
X517277874Y-95571947D02*
X513653363Y-91947436D01*
X208853363Y-91947436D02*
X178002385Y-91947436D01*
X330677874Y-91671947D02*
X326777874Y-95571947D01*
X246953363Y-91947436D02*
X216102385Y-91947436D01*
X431828363Y-91947436D02*
X406602385Y-91947436D01*
X364877874Y-95571947D02*
X350521624Y-95571947D01*
X178002385Y-91947436D02*
X174377874Y-95571947D01*
X350521624Y-95571947D02*
X346621624Y-91671947D01*
X435452874Y-95571947D02*
X431828363Y-91947436D01*
X444702385Y-91947436D02*
X441077874Y-95571947D01*
X513653363Y-91947436D02*
X482802385Y-91947436D01*
X83821624Y-95571947D02*
X79921624Y-91671947D01*
X98177874Y-95571947D02*
X83821624Y-95571947D01*
X441077874Y-95571947D02*
X435452874Y-95571947D01*
X368502385Y-91947436D02*
X364877874Y-95571947D01*
X482802385Y-91947436D02*
X479177874Y-95571947D01*
X399353363Y-91947436D02*
X368502385Y-91947436D01*
X475553363Y-91947436D02*
X444702385Y-91947436D01*
X136277874Y-95571947D02*
X132653363Y-91947436D01*
X212477874Y-95571947D02*
X208853363Y-91947436D01*
X288662568Y-95586098D02*
X285038057Y-91961587D01*
X250577874Y-95571947D02*
X246953363Y-91947436D01*
X216102385Y-91947436D02*
X212477874Y-95571947D01*
X132653363Y-91947436D02*
X105908635Y-91947436D01*
X105908635Y-91947436D02*
X102215374Y-95640697D01*
X322602385Y-91396458D02*
X292852208Y-91396458D01*
X285038057Y-91961587D02*
X254188234Y-91961587D01*
X346621624Y-91671947D02*
X330677874Y-91671947D01*
X292852208Y-91396458D02*
X288662568Y-95586098D01*
X174377874Y-95571947D02*
X160021624Y-95571947D01*
X79921624Y-91671947D02*
X63977874Y-91671947D01*
X140177874Y-91671947D02*
X136277874Y-95571947D01*
X63977874Y-91671947D02*
X60077874Y-95571947D01*
X254188234Y-91961587D02*
X250577874Y-95571947D01*
X160021624Y-95571947D02*
X156121624Y-91671947D01*
X156121624Y-91671947D02*
X140177874Y-91671947D01*
X402977874Y-95571947D02*
X399353363Y-91947436D01*
X102215374Y-95640697D02*
X98246624Y-95640697D01*
%TO.N,Net-(D10-Pad2)*%
X170753363Y-110997436D02*
X165439885Y-110997436D01*
X402977874Y-114621947D02*
X401321624Y-114621947D01*
X246953363Y-110997436D02*
X216102385Y-110997436D01*
X499815374Y-110721947D02*
X483077874Y-110721947D01*
X503715374Y-114621947D02*
X499815374Y-110721947D01*
X139902385Y-110997436D02*
X136277874Y-114621947D01*
X312421624Y-114621947D02*
X308521624Y-110721947D01*
X401321624Y-114621947D02*
X397697113Y-110997436D01*
X517277874Y-114621947D02*
X503715374Y-114621947D01*
X326777874Y-114621947D02*
X312421624Y-114621947D01*
X212477874Y-114621947D02*
X208853363Y-110997436D01*
X94553363Y-110997436D02*
X63702385Y-110997436D01*
X285038057Y-111011587D02*
X254188234Y-111011587D01*
X406877874Y-110721947D02*
X402977874Y-114621947D01*
X63702385Y-110997436D02*
X60077874Y-114621947D01*
X158053363Y-110997436D02*
X139902385Y-110997436D01*
X288662568Y-114636098D02*
X285038057Y-111011587D01*
X308521624Y-110721947D02*
X292576719Y-110721947D01*
X136277874Y-114621947D02*
X132653363Y-110997436D01*
X330402385Y-110997436D02*
X326777874Y-114621947D01*
X483077874Y-110721947D02*
X479177874Y-114621947D01*
X361253363Y-110997436D02*
X330402385Y-110997436D01*
X132653363Y-110997436D02*
X101802385Y-110997436D01*
X426721624Y-114621947D02*
X422821624Y-110721947D01*
X208853363Y-110997436D02*
X178002385Y-110997436D01*
X422821624Y-110721947D02*
X406877874Y-110721947D01*
X292576719Y-110721947D02*
X288662568Y-114636098D01*
X368502385Y-110997436D02*
X364877874Y-114621947D01*
X364877874Y-114621947D02*
X361253363Y-110997436D01*
X101802385Y-110997436D02*
X98177874Y-114621947D01*
X165439885Y-110997436D02*
X161746624Y-114690697D01*
X479177874Y-114621947D02*
X475553363Y-110997436D01*
X178002385Y-110997436D02*
X174377874Y-114621947D01*
X441077874Y-114621947D02*
X426721624Y-114621947D01*
X444702385Y-110997436D02*
X441077874Y-114621947D01*
X250577874Y-114621947D02*
X246953363Y-110997436D01*
X475553363Y-110997436D02*
X444702385Y-110997436D01*
X161746624Y-114690697D02*
X158053363Y-110997436D01*
X98177874Y-114621947D02*
X94553363Y-110997436D01*
X397697113Y-110997436D02*
X368502385Y-110997436D01*
X174377874Y-114621947D02*
X170753363Y-110997436D01*
X254188234Y-111011587D02*
X250577874Y-114621947D01*
X216102385Y-110997436D02*
X212477874Y-114621947D01*
%TO.N,Net-(D109-Pad2)*%
X179209124Y-134534447D02*
X175240374Y-134534447D01*
X79921624Y-129771947D02*
X63977874Y-129771947D01*
X483077874Y-129771947D02*
X479177874Y-133671947D01*
X208853363Y-130047436D02*
X183696135Y-130047436D01*
X426721624Y-133671947D02*
X422821624Y-129771947D01*
X441077874Y-133671947D02*
X426721624Y-133671947D01*
X517277874Y-133671947D02*
X502921624Y-133671947D01*
X183696135Y-130047436D02*
X179209124Y-134534447D01*
X236221624Y-133671947D02*
X232321624Y-129771947D01*
X136277874Y-133671947D02*
X121921624Y-133671947D01*
X63977874Y-129771947D02*
X60077874Y-133671947D01*
X292576719Y-129771947D02*
X288662568Y-133686098D01*
X406877874Y-129771947D02*
X402977874Y-133671947D01*
X216377874Y-129771947D02*
X212477874Y-133671947D01*
X285038057Y-130061587D02*
X254188234Y-130061587D01*
X330214885Y-130047436D02*
X326777874Y-133484447D01*
X475553363Y-130047436D02*
X444702385Y-130047436D01*
X140177874Y-129771947D02*
X136277874Y-133671947D01*
X499021624Y-129771947D02*
X483077874Y-129771947D01*
X175240374Y-134534447D02*
X174377874Y-133671947D01*
X102077874Y-129771947D02*
X98177874Y-133671947D01*
X98177874Y-133671947D02*
X83821624Y-133671947D01*
X308521624Y-129771947D02*
X292576719Y-129771947D01*
X399353363Y-130047436D02*
X368502385Y-130047436D01*
X368502385Y-130047436D02*
X364877874Y-133671947D01*
X422821624Y-129771947D02*
X406877874Y-129771947D01*
X444702385Y-130047436D02*
X441077874Y-133671947D01*
X174377874Y-133671947D02*
X160021624Y-133671947D01*
X361253363Y-130047436D02*
X330214885Y-130047436D01*
X326777874Y-133484447D02*
X312234124Y-133484447D01*
X250577874Y-133671947D02*
X236221624Y-133671947D01*
X118021624Y-129771947D02*
X102077874Y-129771947D01*
X364877874Y-133671947D02*
X361253363Y-130047436D01*
X232321624Y-129771947D02*
X216377874Y-129771947D01*
X288662568Y-133686098D02*
X285038057Y-130061587D01*
X121921624Y-133671947D02*
X118021624Y-129771947D01*
X254188234Y-130061587D02*
X250577874Y-133671947D01*
X160021624Y-133671947D02*
X156121624Y-129771947D01*
X212477874Y-133671947D02*
X208853363Y-130047436D01*
X479177874Y-133671947D02*
X475553363Y-130047436D01*
X502921624Y-133671947D02*
X499021624Y-129771947D01*
X312234124Y-133484447D02*
X308521624Y-129771947D01*
X402977874Y-133671947D02*
X399353363Y-130047436D01*
X83821624Y-133671947D02*
X79921624Y-129771947D01*
X156121624Y-129771947D02*
X140177874Y-129771947D01*
%TO.N,Net-(D110-Pad2)*%
X401853363Y-153846458D02*
X366002385Y-153846458D01*
X245746624Y-152790697D02*
X244622113Y-153915208D01*
X98177874Y-152721947D02*
X97053363Y-153846458D01*
X363753363Y-153846458D02*
X327902385Y-153846458D01*
X174377874Y-152721947D02*
X173253363Y-153846458D01*
X288662568Y-152736098D02*
X286675557Y-154723109D01*
X211353363Y-153846458D02*
X175502385Y-153846458D01*
X244622113Y-153915208D02*
X213671135Y-153915208D01*
X327902385Y-153846458D02*
X326777874Y-152721947D01*
X286675557Y-154723109D02*
X252579036Y-154723109D01*
X175502385Y-153846458D02*
X174377874Y-152721947D01*
X325584613Y-153915208D02*
X289841678Y-153915208D01*
X252579036Y-154723109D02*
X250577874Y-152721947D01*
X326777874Y-152721947D02*
X325584613Y-153915208D01*
X136277874Y-152534447D02*
X134965863Y-153846458D01*
X134965863Y-153846458D02*
X99302385Y-153846458D01*
X404102385Y-153846458D02*
X402977874Y-152721947D01*
X137589885Y-153846458D02*
X136277874Y-152534447D01*
X250577874Y-152721947D02*
X245815374Y-152721947D01*
X439953363Y-153846458D02*
X404102385Y-153846458D01*
X516153363Y-153846458D02*
X480302385Y-153846458D01*
X480302385Y-153846458D02*
X479177874Y-152721947D01*
X173253363Y-153846458D02*
X137589885Y-153846458D01*
X289841678Y-153915208D02*
X288662568Y-152736098D01*
X61202385Y-153846458D02*
X60077874Y-152721947D01*
X366002385Y-153846458D02*
X364877874Y-152721947D01*
X213671135Y-153915208D02*
X212477874Y-152721947D01*
X479177874Y-152721947D02*
X478053363Y-153846458D01*
X478053363Y-153846458D02*
X442202385Y-153846458D01*
X517277874Y-152721947D02*
X516153363Y-153846458D01*
X364877874Y-152721947D02*
X363753363Y-153846458D01*
X97053363Y-153846458D02*
X61202385Y-153846458D01*
X99302385Y-153846458D02*
X98177874Y-152721947D01*
X441077874Y-152721947D02*
X439953363Y-153846458D01*
X442202385Y-153846458D02*
X441077874Y-152721947D01*
X212477874Y-152721947D02*
X211353363Y-153846458D01*
X402977874Y-152721947D02*
X401853363Y-153846458D01*
%TO.N,Net-(D111-Pad2)*%
X98177874Y-171771947D02*
X97053363Y-172896458D01*
X256202874Y-171840697D02*
X250646624Y-171840697D01*
X478053363Y-172896458D02*
X442202385Y-172896458D01*
X327902385Y-172896458D02*
X326777874Y-171771947D01*
X211353363Y-172896458D02*
X175502385Y-172896458D01*
X212477874Y-171771947D02*
X211353363Y-172896458D01*
X173253363Y-172896458D02*
X137402385Y-172896458D01*
X404102385Y-172896458D02*
X402977874Y-171771947D01*
X442202385Y-172896458D02*
X441077874Y-171771947D01*
X61202385Y-172896458D02*
X60077874Y-171771947D01*
X439953363Y-172896458D02*
X404102385Y-172896458D01*
X249640863Y-172708958D02*
X213414885Y-172708958D01*
X441077874Y-171771947D02*
X439953363Y-172896458D01*
X402977874Y-171771947D02*
X401853363Y-172896458D01*
X289772928Y-172896458D02*
X288662568Y-171786098D01*
X326777874Y-171771947D02*
X325653363Y-172896458D01*
X364877874Y-171771947D02*
X363753363Y-172896458D01*
X137402385Y-172896458D02*
X136277874Y-171771947D01*
X175502385Y-172896458D02*
X174377874Y-171771947D01*
X97053363Y-172896458D02*
X61202385Y-172896458D01*
X479177874Y-171771947D02*
X478053363Y-172896458D01*
X174377874Y-171771947D02*
X173253363Y-172896458D01*
X288662568Y-171786098D02*
X287483458Y-172965208D01*
X99302385Y-172896458D02*
X98177874Y-171771947D01*
X287483458Y-172965208D02*
X259827385Y-172965208D01*
X366002385Y-172896458D02*
X364877874Y-171771947D01*
X517277874Y-171771947D02*
X516153363Y-172896458D01*
X401853363Y-172896458D02*
X366002385Y-172896458D01*
X325653363Y-172896458D02*
X289772928Y-172896458D01*
X259827385Y-172965208D02*
X258702874Y-171840697D01*
X135153363Y-172896458D02*
X99302385Y-172896458D01*
X516153363Y-172896458D02*
X480302385Y-172896458D01*
X136277874Y-171771947D02*
X135153363Y-172896458D01*
X213414885Y-172708958D02*
X212477874Y-171771947D01*
X250577874Y-171771947D02*
X249640863Y-172708958D01*
X363753363Y-172896458D02*
X327902385Y-172896458D01*
X480302385Y-172896458D02*
X479177874Y-171771947D01*
%TO.N,row5*%
X467353374Y-40790197D02*
X466477874Y-41665697D01*
X467353374Y-37061947D02*
X467353374Y-40790197D01*
X338684124Y-41665697D02*
X466477874Y-41665697D01*
X337890374Y-42459447D02*
X338684124Y-41665697D01*
%TO.N,row6*%
X450602874Y-34204447D02*
X449464894Y-35342427D01*
X480053374Y-34521947D02*
X469970374Y-34521947D01*
X448671144Y-41216177D02*
X296271144Y-41216177D01*
X296271144Y-41216177D02*
X294234124Y-43253197D01*
X469970374Y-34521947D02*
X469652874Y-34204447D01*
X449464894Y-35342427D02*
X449464894Y-40422427D01*
X449464894Y-40422427D02*
X448671144Y-41216177D01*
X451396624Y-34204447D02*
X450602874Y-34204447D01*
%TO.N,row7*%
X295926914Y-40766657D02*
X448326914Y-40766657D01*
X449015374Y-34998197D02*
X449015374Y-40078197D01*
X258515374Y-41665697D02*
X257721624Y-42459447D01*
X295926914Y-40766657D02*
X295027874Y-41665697D01*
X295027874Y-41665697D02*
X258515374Y-41665697D01*
X449015374Y-40078197D02*
X448326914Y-40766657D01*
X457746624Y-26266947D02*
X449015374Y-34998197D01*
X457746624Y-26266947D02*
X466477874Y-26266947D01*
%TO.N,row8*%
X251371624Y-41665697D02*
X221209124Y-41665697D01*
X221209124Y-41665697D02*
X220415374Y-42459447D01*
X251821144Y-41216177D02*
X251371624Y-41665697D01*
X447982684Y-40317137D02*
X295582684Y-40317137D01*
X465684124Y-25473197D02*
X457673792Y-25473197D01*
X448565854Y-34581135D02*
X448565854Y-39733967D01*
X295582684Y-40317137D02*
X294683644Y-41216177D01*
X294683644Y-41216177D02*
X251821144Y-41216177D01*
X457673792Y-25473197D02*
X448565854Y-34581135D01*
X448565854Y-39733967D02*
X447982684Y-40317137D01*
%TO.N,row9*%
X464096624Y-24679447D02*
X460921624Y-24679447D01*
%TO.N,row10*%
X294339414Y-40766657D02*
X251027394Y-40766657D01*
X458300723Y-23914768D02*
X448116334Y-34099157D01*
X448116334Y-34099157D02*
X448116334Y-39389737D01*
X295238454Y-39867617D02*
X294339414Y-40766657D01*
X447638454Y-39867617D02*
X295238454Y-39867617D01*
X250577874Y-41216177D02*
X220864894Y-41216177D01*
X458300723Y-23914768D02*
X463273803Y-23914768D01*
X448116334Y-39389737D02*
X447638454Y-39867617D01*
X251027394Y-40766657D02*
X250577874Y-41216177D01*
X144215374Y-41665697D02*
X141834124Y-44046947D01*
X463273803Y-23914768D02*
X463302874Y-23885697D01*
X220415374Y-41665697D02*
X144215374Y-41665697D01*
X220864894Y-41216177D02*
X220415374Y-41665697D01*
%TO.N,row11*%
X472433374Y-19046197D02*
X472034124Y-18646947D01*
X472034124Y-18646947D02*
X450602874Y-18646947D01*
X472433374Y-21821947D02*
X472433374Y-19046197D01*
%TO.N,row12*%
X469308644Y-19096467D02*
X451740854Y-19096467D01*
X451740854Y-19096467D02*
X451396624Y-19440697D01*
X451396624Y-19440697D02*
X449809124Y-19440697D01*
X469308644Y-19096467D02*
X469893374Y-19681197D01*
X469893374Y-21821947D02*
X469893374Y-19681197D01*
%TO.N,row13*%
X451238592Y-20234447D02*
X451927052Y-19545987D01*
X467353374Y-21821947D02*
X465077414Y-19545987D01*
X451238592Y-20234447D02*
X449015374Y-20234447D01*
X465077414Y-19545987D02*
X451927052Y-19545987D01*
%TO.N,SCL*%
X462273374Y-37061947D02*
X464495874Y-39284447D01*
X470446624Y-39284447D02*
X493465374Y-39284447D01*
X493465374Y-39284447D02*
X493465374Y-38692891D01*
X493465374Y-38692891D02*
X494461318Y-37696947D01*
X464495874Y-39284447D02*
X464890374Y-39284447D01*
%TO.N,SDA*%
X466477874Y-38726447D02*
X466477874Y-40078197D01*
X508070374Y-34521947D02*
X494461318Y-34521947D01*
X469652874Y-40078197D02*
X502514124Y-40078197D01*
X502514124Y-40078197D02*
X508070374Y-34521947D01*
X508070374Y-34521947D02*
X509066318Y-34521947D01*
X464813374Y-37061947D02*
X466477874Y-38726447D01*
X509066318Y-34521947D02*
X510812568Y-32775697D01*
%TO.N,GND1*%
X459733374Y-37061947D02*
X457193374Y-37061947D01*
X457193374Y-37061947D02*
X464495874Y-29759447D01*
X464495874Y-29759447D02*
X464495874Y-28191355D01*
%TD*%
M02*
