%TF.GenerationSoftware,KiCad,Pcbnew,(6.0.5)*%
%TF.CreationDate,2022-08-07T16:14:43-07:00*%
%TF.ProjectId,Dreadnoughtus,44726561-646e-46f7-9567-687475732e6b,rev?*%
%TF.SameCoordinates,Original*%
%TF.FileFunction,Paste,Top*%
%TF.FilePolarity,Positive*%
%FSLAX46Y46*%
G04 Gerber Fmt 4.6, Leading zero omitted, Abs format (unit mm)*
G04 Created by KiCad (PCBNEW (6.0.5)) date 2022-08-07 16:14:43*
%MOMM*%
%LPD*%
G01*
G04 APERTURE LIST*
%TA.AperFunction,Profile*%
%ADD10C,0.100000*%
%TD*%
%ADD11R,1.200000X1.600000*%
%ADD12R,1.600000X1.200000*%
G04 APERTURE END LIST*
D10*
X519659124Y-18646947D02*
X519659124Y-172634447D01*
X518865374Y-173428197D01*
X23565374Y-173428197D01*
X22771624Y-172634447D01*
X22771624Y-39284447D01*
X23565374Y-38490697D01*
X446634124Y-38490697D01*
X447427874Y-37696947D01*
X447427874Y-18646947D01*
X448221624Y-17853197D01*
X518865374Y-17853197D01*
X519659124Y-18646947D01*
D11*
%TO.C,D80*%
X326777874Y-109321947D03*
X326777874Y-112121947D03*
%TD*%
%TO.C,D102*%
X231527874Y-128371947D03*
X231527874Y-131171947D03*
%TD*%
%TO.C,D178*%
X60077874Y-109321947D03*
X60077874Y-112121947D03*
%TD*%
%TO.C,D177*%
X60077874Y-90271947D03*
X60077874Y-93071947D03*
%TD*%
%TO.C,D140*%
X117227874Y-52171947D03*
X117227874Y-54971947D03*
%TD*%
%TO.C,D137*%
X174377874Y-128371947D03*
X174377874Y-131171947D03*
%TD*%
D12*
%TO.C,D212*%
X104715374Y-95640697D03*
X107515374Y-95640697D03*
%TD*%
D11*
%TO.C,D62*%
X345827874Y-166471947D03*
X345827874Y-169271947D03*
%TD*%
%TO.C,D131*%
X155327874Y-147421947D03*
X155327874Y-150221947D03*
%TD*%
%TO.C,D153*%
X136277874Y-166471947D03*
X136277874Y-169271947D03*
%TD*%
%TO.C,D54*%
X402977874Y-147421947D03*
X402977874Y-150221947D03*
%TD*%
%TO.C,D129*%
X155327874Y-109321947D03*
X155327874Y-112121947D03*
%TD*%
%TO.C,D2*%
X498227874Y-90271947D03*
X498227874Y-93071947D03*
%TD*%
%TO.C,D52*%
X402977874Y-109321947D03*
X402977874Y-112121947D03*
%TD*%
%TO.C,D4*%
X498227874Y-128371947D03*
X498227874Y-131171947D03*
%TD*%
%TO.C,D90*%
X269612568Y-166486098D03*
X269612568Y-169286098D03*
%TD*%
%TO.C,D72*%
X307727874Y-90271947D03*
X307727874Y-93071947D03*
%TD*%
%TO.C,D139*%
X174377874Y-166471947D03*
X174377874Y-169271947D03*
%TD*%
%TO.C,D24*%
X479177874Y-109321947D03*
X479177874Y-112121947D03*
%TD*%
%TO.C,D157*%
X79127874Y-109321947D03*
X79127874Y-112121947D03*
%TD*%
%TO.C,D22*%
X479177874Y-71221947D03*
X479177874Y-74021947D03*
%TD*%
%TO.C,D1*%
X498227874Y-71221947D03*
X498227874Y-74021947D03*
%TD*%
%TO.C,D95*%
X288662568Y-128386098D03*
X288662568Y-131186098D03*
%TD*%
%TO.C,D147*%
X136277874Y-52171947D03*
X136277874Y-54971947D03*
%TD*%
%TO.C,D64*%
X364877874Y-71221947D03*
X364877874Y-74021947D03*
%TD*%
%TO.C,D70*%
X307727874Y-52171947D03*
X307727874Y-54971947D03*
%TD*%
%TO.C,D181*%
X60077874Y-166471947D03*
X60077874Y-169271947D03*
%TD*%
%TO.C,D47*%
X383927874Y-147421947D03*
X383927874Y-150221947D03*
%TD*%
%TO.C,D49*%
X402977874Y-52171947D03*
X402977874Y-54971947D03*
%TD*%
%TO.C,D63*%
X364877874Y-52171947D03*
X364877874Y-54971947D03*
%TD*%
%TO.C,D40*%
X441077874Y-147421947D03*
X441077874Y-150221947D03*
%TD*%
%TO.C,D132*%
X155327874Y-166471947D03*
X155327874Y-169271947D03*
%TD*%
%TO.C,D115*%
X193427874Y-109321947D03*
X193427874Y-112121947D03*
%TD*%
%TO.C,D16*%
X460127874Y-90271947D03*
X460127874Y-93071947D03*
%TD*%
%TO.C,D3*%
X498227874Y-109321947D03*
X498227874Y-112121947D03*
%TD*%
%TO.C,D55*%
X402977874Y-166471947D03*
X402977874Y-169271947D03*
%TD*%
%TO.C,D5*%
X498227874Y-147421947D03*
X498227874Y-150221947D03*
%TD*%
D12*
%TO.C,D214*%
X34490374Y-58334447D03*
X31690374Y-58334447D03*
%TD*%
D11*
%TO.C,D31*%
X422027874Y-109321947D03*
X422027874Y-112121947D03*
%TD*%
%TO.C,D92*%
X288662568Y-71236098D03*
X288662568Y-74036098D03*
%TD*%
%TO.C,D36*%
X441077874Y-71221947D03*
X441077874Y-74021947D03*
%TD*%
%TO.C,D84*%
X269612568Y-52186098D03*
X269612568Y-54986098D03*
%TD*%
%TO.C,D67*%
X364877874Y-128371947D03*
X364877874Y-131171947D03*
%TD*%
%TO.C,D78*%
X326777874Y-71221947D03*
X326777874Y-74021947D03*
%TD*%
%TO.C,D27*%
X479177874Y-166471947D03*
X479177874Y-169271947D03*
%TD*%
%TO.C,D106*%
X250577874Y-71221947D03*
X250577874Y-74021947D03*
%TD*%
%TO.C,D165*%
X98177874Y-128371947D03*
X98177874Y-131171947D03*
%TD*%
%TO.C,D89*%
X269612568Y-147436098D03*
X269612568Y-150236098D03*
%TD*%
%TO.C,D96*%
X288662568Y-147436098D03*
X288662568Y-150236098D03*
%TD*%
%TO.C,D0*%
X498227874Y-52171947D03*
X498227874Y-54971947D03*
%TD*%
%TO.C,D108*%
X250577874Y-109321947D03*
X250577874Y-112121947D03*
%TD*%
%TO.C,D83*%
X326777874Y-166471947D03*
X326777874Y-169271947D03*
%TD*%
%TO.C,D28*%
X422027874Y-52171947D03*
X422027874Y-54971947D03*
%TD*%
D12*
%TO.C,D213*%
X66615374Y-76590697D03*
X69415374Y-76590697D03*
%TD*%
D11*
%TO.C,D104*%
X231527874Y-166284447D03*
X231527874Y-169084447D03*
%TD*%
%TO.C,D125*%
X212477874Y-166471947D03*
X212477874Y-169271947D03*
%TD*%
%TO.C,D121*%
X212477874Y-90271947D03*
X212477874Y-93071947D03*
%TD*%
%TO.C,D23*%
X479177874Y-90271947D03*
X479177874Y-93071947D03*
%TD*%
%TO.C,D117*%
X193427874Y-147421947D03*
X193427874Y-150221947D03*
%TD*%
%TO.C,D8*%
X517277874Y-71221947D03*
X517277874Y-74021947D03*
%TD*%
%TO.C,D33*%
X422027874Y-147421947D03*
X422027874Y-150221947D03*
%TD*%
%TO.C,D35*%
X441077874Y-52171947D03*
X441077874Y-54971947D03*
%TD*%
%TO.C,D164*%
X98177874Y-109321947D03*
X98177874Y-112121947D03*
%TD*%
%TO.C,D19*%
X460127874Y-147421947D03*
X460127874Y-150221947D03*
%TD*%
%TO.C,D174*%
X41027874Y-166471947D03*
X41027874Y-169271947D03*
%TD*%
D12*
%TO.C,D202*%
X468252874Y-76590697D03*
X471052874Y-76590697D03*
%TD*%
D11*
%TO.C,D161*%
X98177874Y-52171947D03*
X98177874Y-54971947D03*
%TD*%
%TO.C,D38*%
X441077874Y-109321947D03*
X441077874Y-112121947D03*
%TD*%
%TO.C,D101*%
X231527874Y-109321947D03*
X231527874Y-112121947D03*
%TD*%
%TO.C,D65*%
X364877874Y-90271947D03*
X364877874Y-93071947D03*
%TD*%
%TO.C,D136*%
X174377874Y-109321947D03*
X174377874Y-112121947D03*
%TD*%
%TO.C,D122*%
X212477874Y-109321947D03*
X212477874Y-112121947D03*
%TD*%
%TO.C,D59*%
X345827874Y-109321947D03*
X345827874Y-112121947D03*
%TD*%
%TO.C,D172*%
X41027874Y-128371947D03*
X41027874Y-131171947D03*
%TD*%
%TO.C,D32*%
X422027874Y-128371947D03*
X422027874Y-131171947D03*
%TD*%
%TO.C,D155*%
X79127874Y-71221947D03*
X79127874Y-74021947D03*
%TD*%
%TO.C,D76*%
X307727874Y-166471947D03*
X307727874Y-169271947D03*
%TD*%
%TO.C,D94*%
X288662568Y-109336098D03*
X288662568Y-112136098D03*
%TD*%
%TO.C,D168*%
X41027874Y-52171947D03*
X41027874Y-54971947D03*
%TD*%
%TO.C,D171*%
X41027874Y-109321947D03*
X41027874Y-112121947D03*
%TD*%
%TO.C,D93*%
X288662568Y-90286098D03*
X288662568Y-93086098D03*
%TD*%
%TO.C,D113*%
X193427874Y-71221947D03*
X193427874Y-74021947D03*
%TD*%
%TO.C,D130*%
X155327874Y-128371947D03*
X155327874Y-131171947D03*
%TD*%
%TO.C,D91*%
X288662568Y-52186098D03*
X288662568Y-54986098D03*
%TD*%
%TO.C,D111*%
X250577874Y-166471947D03*
X250577874Y-169271947D03*
%TD*%
%TO.C,D123*%
X212477874Y-128371947D03*
X212477874Y-131171947D03*
%TD*%
%TO.C,D179*%
X60077874Y-128371947D03*
X60077874Y-131171947D03*
%TD*%
D12*
%TO.C,D209*%
X243246624Y-152790697D03*
X240446624Y-152790697D03*
%TD*%
D11*
%TO.C,D112*%
X193427874Y-52171947D03*
X193427874Y-54971947D03*
%TD*%
%TO.C,D150*%
X136277874Y-109321947D03*
X136277874Y-112121947D03*
%TD*%
%TO.C,D15*%
X460127874Y-71221947D03*
X460127874Y-74021947D03*
%TD*%
%TO.C,D86*%
X269612568Y-90286098D03*
X269612568Y-93086098D03*
%TD*%
D12*
%TO.C,D201*%
X505440374Y-57540697D03*
X508240374Y-57540697D03*
%TD*%
D11*
%TO.C,D73*%
X307727874Y-109321947D03*
X307727874Y-112121947D03*
%TD*%
%TO.C,D75*%
X307727874Y-147421947D03*
X307727874Y-150221947D03*
%TD*%
D12*
%TO.C,D206*%
X300396624Y-152790697D03*
X297596624Y-152790697D03*
%TD*%
D11*
%TO.C,D133*%
X174377874Y-52171947D03*
X174377874Y-54971947D03*
%TD*%
%TO.C,D13*%
X517277874Y-166471947D03*
X517277874Y-169271947D03*
%TD*%
%TO.C,D126*%
X155327874Y-52171947D03*
X155327874Y-54971947D03*
%TD*%
%TO.C,D12*%
X517277874Y-147421947D03*
X517277874Y-150221947D03*
%TD*%
%TO.C,D105*%
X250577874Y-52171947D03*
X250577874Y-54971947D03*
%TD*%
%TO.C,D79*%
X326777874Y-90271947D03*
X326777874Y-93071947D03*
%TD*%
%TO.C,D148*%
X136277874Y-71221947D03*
X136277874Y-74021947D03*
%TD*%
%TO.C,D74*%
X307727874Y-128371947D03*
X307727874Y-131171947D03*
%TD*%
%TO.C,D166*%
X98177874Y-147421947D03*
X98177874Y-150221947D03*
%TD*%
%TO.C,D156*%
X79127874Y-90271947D03*
X79127874Y-93071947D03*
%TD*%
%TO.C,D149*%
X136277874Y-90271947D03*
X136277874Y-93071947D03*
%TD*%
%TO.C,D53*%
X402977874Y-128371947D03*
X402977874Y-131171947D03*
%TD*%
%TO.C,D30*%
X422027874Y-90271947D03*
X422027874Y-93071947D03*
%TD*%
%TO.C,D98*%
X231527874Y-52171947D03*
X231527874Y-54971947D03*
%TD*%
%TO.C,D39*%
X441077874Y-128371947D03*
X441077874Y-131171947D03*
%TD*%
%TO.C,D134*%
X174377874Y-71221947D03*
X174377874Y-74021947D03*
%TD*%
%TO.C,D176*%
X60077874Y-71221947D03*
X60077874Y-74021947D03*
%TD*%
D12*
%TO.C,D210*%
X181709124Y-134534447D03*
X184509124Y-134534447D03*
%TD*%
D11*
%TO.C,D158*%
X79127874Y-128371947D03*
X79127874Y-131171947D03*
%TD*%
%TO.C,D69*%
X364877874Y-166471947D03*
X364877874Y-169271947D03*
%TD*%
%TO.C,D99*%
X231527874Y-71221947D03*
X231527874Y-74021947D03*
%TD*%
%TO.C,D144*%
X117227874Y-128371947D03*
X117227874Y-131171947D03*
%TD*%
%TO.C,D109*%
X250577874Y-128371947D03*
X250577874Y-131171947D03*
%TD*%
%TO.C,D7*%
X517277874Y-52171947D03*
X517277874Y-54971947D03*
%TD*%
%TO.C,D14*%
X460127874Y-52171947D03*
X460127874Y-54971947D03*
%TD*%
%TO.C,D26*%
X479177874Y-147421947D03*
X479177874Y-150221947D03*
%TD*%
%TO.C,D71*%
X307727874Y-71221947D03*
X307727874Y-74021947D03*
%TD*%
%TO.C,D143*%
X117227874Y-109321947D03*
X117227874Y-112121947D03*
%TD*%
%TO.C,D118*%
X193427874Y-166471947D03*
X193427874Y-169271947D03*
%TD*%
D12*
%TO.C,D211*%
X164246624Y-114690697D03*
X167046624Y-114690697D03*
%TD*%
D11*
%TO.C,D45*%
X383927874Y-109321947D03*
X383927874Y-112121947D03*
%TD*%
%TO.C,D60*%
X345827874Y-128371947D03*
X345827874Y-131171947D03*
%TD*%
%TO.C,D120*%
X212477874Y-71221947D03*
X212477874Y-74021947D03*
%TD*%
%TO.C,D159*%
X79127874Y-147421947D03*
X79127874Y-150221947D03*
%TD*%
%TO.C,D10*%
X517277874Y-109321947D03*
X517277874Y-112121947D03*
%TD*%
%TO.C,D103*%
X231527874Y-147421947D03*
X231527874Y-150221947D03*
%TD*%
%TO.C,D116*%
X193427874Y-128371947D03*
X193427874Y-131171947D03*
%TD*%
%TO.C,D25*%
X479177874Y-128371947D03*
X479177874Y-131171947D03*
%TD*%
%TO.C,D145*%
X117227874Y-147421947D03*
X117227874Y-150221947D03*
%TD*%
%TO.C,D50*%
X402977874Y-71221947D03*
X402977874Y-74021947D03*
%TD*%
%TO.C,D152*%
X136277874Y-147234447D03*
X136277874Y-150034447D03*
%TD*%
%TO.C,D175*%
X60077874Y-52171947D03*
X60077874Y-54971947D03*
%TD*%
%TO.C,D77*%
X326777874Y-52171947D03*
X326777874Y-54971947D03*
%TD*%
%TO.C,D138*%
X174377874Y-147421947D03*
X174377874Y-150221947D03*
%TD*%
%TO.C,D43*%
X383927874Y-71221947D03*
X383927874Y-74021947D03*
%TD*%
%TO.C,D17*%
X460127874Y-109321947D03*
X460127874Y-112121947D03*
%TD*%
%TO.C,D87*%
X269612568Y-109336098D03*
X269612568Y-112136098D03*
%TD*%
%TO.C,D37*%
X441077874Y-90271947D03*
X441077874Y-93071947D03*
%TD*%
%TO.C,D163*%
X98177874Y-90271947D03*
X98177874Y-93071947D03*
%TD*%
%TO.C,D29*%
X422027874Y-71221947D03*
X422027874Y-74021947D03*
%TD*%
D12*
%TO.C,D205*%
X354746624Y-132946947D03*
X357546624Y-132946947D03*
%TD*%
D11*
%TO.C,D18*%
X460127874Y-128371947D03*
X460127874Y-131171947D03*
%TD*%
%TO.C,D170*%
X41027874Y-90271947D03*
X41027874Y-93071947D03*
%TD*%
%TO.C,D114*%
X193427874Y-90271947D03*
X193427874Y-93071947D03*
%TD*%
D12*
%TO.C,D204*%
X392846624Y-115484447D03*
X395646624Y-115484447D03*
%TD*%
D11*
%TO.C,D154*%
X79127874Y-52171947D03*
X79127874Y-54971947D03*
%TD*%
%TO.C,D162*%
X98177874Y-71221947D03*
X98177874Y-74021947D03*
%TD*%
D12*
%TO.C,D203*%
X427771624Y-95640697D03*
X430571624Y-95640697D03*
%TD*%
D11*
%TO.C,D68*%
X364877874Y-147421947D03*
X364877874Y-150221947D03*
%TD*%
%TO.C,D124*%
X212477874Y-147421947D03*
X212477874Y-150221947D03*
%TD*%
%TO.C,D21*%
X479177874Y-52171947D03*
X479177874Y-54971947D03*
%TD*%
%TO.C,D169*%
X41027874Y-71221947D03*
X41027874Y-74021947D03*
%TD*%
%TO.C,D127*%
X155327874Y-71221947D03*
X155327874Y-74021947D03*
%TD*%
%TO.C,D97*%
X288662568Y-166486098D03*
X288662568Y-169286098D03*
%TD*%
%TO.C,D173*%
X41027874Y-147421947D03*
X41027874Y-150221947D03*
%TD*%
%TO.C,D151*%
X136277874Y-128371947D03*
X136277874Y-131171947D03*
%TD*%
%TO.C,D41*%
X441077874Y-166471947D03*
X441077874Y-169271947D03*
%TD*%
D12*
%TO.C,D207*%
X279340374Y-171840697D03*
X282140374Y-171840697D03*
%TD*%
D11*
%TO.C,D141*%
X117227874Y-71221947D03*
X117227874Y-74021947D03*
%TD*%
D12*
%TO.C,D208*%
X258702874Y-171840697D03*
X261502874Y-171840697D03*
%TD*%
D11*
%TO.C,D58*%
X345827874Y-90271947D03*
X345827874Y-93071947D03*
%TD*%
%TO.C,D110*%
X250577874Y-147421947D03*
X250577874Y-150221947D03*
%TD*%
%TO.C,D34*%
X422027874Y-166471947D03*
X422027874Y-169271947D03*
%TD*%
%TO.C,D20*%
X460127874Y-166471947D03*
X460127874Y-169271947D03*
%TD*%
%TO.C,D135*%
X174377874Y-90271947D03*
X174377874Y-93071947D03*
%TD*%
%TO.C,D119*%
X212477874Y-52171947D03*
X212477874Y-54971947D03*
%TD*%
%TO.C,D57*%
X345827874Y-71221947D03*
X345827874Y-74021947D03*
%TD*%
%TO.C,D88*%
X269612568Y-128386098D03*
X269612568Y-131186098D03*
%TD*%
%TO.C,D100*%
X231527874Y-90271947D03*
X231527874Y-93071947D03*
%TD*%
%TO.C,D128*%
X155327874Y-90271947D03*
X155327874Y-93071947D03*
%TD*%
%TO.C,D66*%
X364877874Y-109321947D03*
X364877874Y-112121947D03*
%TD*%
%TO.C,D56*%
X345827874Y-52171947D03*
X345827874Y-54971947D03*
%TD*%
%TO.C,D46*%
X383927874Y-128371947D03*
X383927874Y-131171947D03*
%TD*%
%TO.C,D180*%
X60077874Y-147421947D03*
X60077874Y-150221947D03*
%TD*%
%TO.C,D42*%
X383927874Y-52171947D03*
X383927874Y-54971947D03*
%TD*%
%TO.C,D61*%
X345827874Y-147421947D03*
X345827874Y-150221947D03*
%TD*%
%TO.C,D81*%
X326777874Y-128184447D03*
X326777874Y-130984447D03*
%TD*%
%TO.C,D44*%
X383927874Y-90271947D03*
X383927874Y-93071947D03*
%TD*%
%TO.C,D160*%
X79127874Y-166471947D03*
X79127874Y-169271947D03*
%TD*%
%TO.C,D107*%
X250577874Y-90271947D03*
X250577874Y-93071947D03*
%TD*%
%TO.C,D9*%
X517277874Y-90271947D03*
X517277874Y-93071947D03*
%TD*%
%TO.C,D51*%
X402977874Y-90271947D03*
X402977874Y-93071947D03*
%TD*%
%TO.C,D11*%
X517277874Y-128371947D03*
X517277874Y-131171947D03*
%TD*%
%TO.C,D167*%
X98177874Y-166471947D03*
X98177874Y-169271947D03*
%TD*%
%TO.C,D85*%
X269612568Y-71236098D03*
X269612568Y-74036098D03*
%TD*%
%TO.C,D142*%
X117227874Y-90271947D03*
X117227874Y-93071947D03*
%TD*%
%TO.C,D6*%
X498227874Y-166471947D03*
X498227874Y-169271947D03*
%TD*%
%TO.C,D146*%
X117227874Y-166471947D03*
X117227874Y-169271947D03*
%TD*%
%TO.C,D82*%
X326777874Y-147421947D03*
X326777874Y-150221947D03*
%TD*%
%TO.C,D48*%
X383927874Y-166471947D03*
X383927874Y-169271947D03*
%TD*%
M02*
