%TF.GenerationSoftware,KiCad,Pcbnew,(6.0.5)*%
%TF.CreationDate,2022-08-07T16:14:43-07:00*%
%TF.ProjectId,Dreadnoughtus,44726561-646e-46f7-9567-687475732e6b,rev?*%
%TF.SameCoordinates,Original*%
%TF.FileFunction,Soldermask,Bot*%
%TF.FilePolarity,Negative*%
%FSLAX46Y46*%
G04 Gerber Fmt 4.6, Leading zero omitted, Abs format (unit mm)*
G04 Created by KiCad (PCBNEW (6.0.5)) date 2022-08-07 16:14:43*
%MOMM*%
%LPD*%
G01*
G04 APERTURE LIST*
%TA.AperFunction,Profile*%
%ADD10C,0.100000*%
%TD*%
%ADD11C,3.000000*%
%ADD12C,1.750000*%
%ADD13C,3.987800*%
%ADD14R,2.550000X2.500000*%
%ADD15R,1.600000X1.600000*%
%ADD16R,1.200000X1.600000*%
%ADD17C,1.600000*%
%ADD18R,1.600000X1.200000*%
%ADD19C,1.651000*%
%ADD20R,1.752600X1.752600*%
%ADD21C,1.752600*%
%ADD22C,1.700000*%
%ADD23O,1.700000X1.700000*%
%ADD24C,2.100000*%
%ADD25C,1.200000*%
G04 APERTURE END LIST*
D10*
X519659124Y-18646947D02*
X519659124Y-172634447D01*
X518865374Y-173428197D01*
X23565374Y-173428197D01*
X22771624Y-172634447D01*
X22771624Y-39284447D01*
X23565374Y-38490697D01*
X446634124Y-38490697D01*
X447427874Y-37696947D01*
X447427874Y-18646947D01*
X448221624Y-17853197D01*
X518865374Y-17853197D01*
X519659124Y-18646947D01*
D11*
%TO.C,MX131*%
X143421624Y-141836947D03*
D12*
X142151624Y-144376947D03*
D11*
X149771624Y-139296947D03*
D13*
X147231624Y-144376947D03*
D12*
X152311624Y-144376947D03*
D14*
X140146624Y-141836947D03*
X153073624Y-139296947D03*
%TD*%
D13*
%TO.C,MX53*%
X394881624Y-125326947D03*
D11*
X397421624Y-120246947D03*
X391071624Y-122786947D03*
D12*
X389801624Y-125326947D03*
X399961624Y-125326947D03*
D14*
X387796624Y-122786947D03*
X400723624Y-120246947D03*
%TD*%
D13*
%TO.C,MX92*%
X280566318Y-68191098D03*
D11*
X276756318Y-65651098D03*
X283106318Y-63111098D03*
D12*
X285646318Y-68191098D03*
X275486318Y-68191098D03*
D14*
X273481318Y-65651098D03*
X286408318Y-63111098D03*
%TD*%
D15*
%TO.C,D80*%
X326777874Y-106821947D03*
D16*
X326777874Y-109321947D03*
X326777874Y-112121947D03*
D17*
X326777874Y-114621947D03*
%TD*%
D11*
%TO.C,MX130*%
X143421624Y-122786947D03*
X149771624Y-120246947D03*
D12*
X152311624Y-125326947D03*
X142151624Y-125326947D03*
D13*
X147231624Y-125326947D03*
D14*
X140146624Y-122786947D03*
X153073624Y-120246947D03*
%TD*%
D16*
%TO.C,D102*%
X231527874Y-128371947D03*
D15*
X231527874Y-125871947D03*
D17*
X231527874Y-133671947D03*
D16*
X231527874Y-131171947D03*
%TD*%
D12*
%TO.C,MX129*%
X152311624Y-106276947D03*
D11*
X149771624Y-101196947D03*
D12*
X142151624Y-106276947D03*
D13*
X147231624Y-106276947D03*
D11*
X143421624Y-103736947D03*
D14*
X140146624Y-103736947D03*
X153073624Y-101196947D03*
%TD*%
D11*
%TO.C,MX155*%
X73571624Y-63096947D03*
D12*
X65951624Y-68176947D03*
D11*
X67221624Y-65636947D03*
D13*
X71031624Y-68176947D03*
D12*
X76111624Y-68176947D03*
D14*
X63946624Y-65636947D03*
X76873624Y-63096947D03*
%TD*%
D12*
%TO.C,MX1*%
X495211624Y-68176947D03*
D11*
X486321624Y-65636947D03*
D12*
X485051624Y-68176947D03*
D11*
X492671624Y-63096947D03*
D13*
X490131624Y-68176947D03*
D14*
X483046624Y-65636947D03*
X495973624Y-63096947D03*
%TD*%
D15*
%TO.C,D178*%
X60077874Y-106821947D03*
D16*
X60077874Y-109321947D03*
X60077874Y-112121947D03*
D17*
X60077874Y-114621947D03*
%TD*%
D15*
%TO.C,D177*%
X60077874Y-87771947D03*
D16*
X60077874Y-90271947D03*
X60077874Y-93071947D03*
D17*
X60077874Y-95571947D03*
%TD*%
D15*
%TO.C,D140*%
X117227874Y-49671947D03*
D16*
X117227874Y-52171947D03*
D17*
X117227874Y-57471947D03*
D16*
X117227874Y-54971947D03*
%TD*%
D15*
%TO.C,D137*%
X174377874Y-125871947D03*
D16*
X174377874Y-128371947D03*
D17*
X174377874Y-133671947D03*
D16*
X174377874Y-131171947D03*
%TD*%
D12*
%TO.C,MX181*%
X46901624Y-163426947D03*
D11*
X48171624Y-160886947D03*
D13*
X51981624Y-163426947D03*
D11*
X54521624Y-158346947D03*
D12*
X57061624Y-163426947D03*
D14*
X44896624Y-160886947D03*
X57823624Y-158346947D03*
%TD*%
D11*
%TO.C,MX124*%
X200571624Y-141836947D03*
X206921624Y-139296947D03*
D13*
X204381624Y-144376947D03*
D12*
X199301624Y-144376947D03*
X209461624Y-144376947D03*
D14*
X197296624Y-141836947D03*
X210223624Y-139296947D03*
%TD*%
D15*
%TO.C,D212*%
X102215374Y-95640697D03*
D18*
X104715374Y-95640697D03*
D17*
X110015374Y-95640697D03*
D18*
X107515374Y-95640697D03*
%TD*%
D15*
%TO.C,D62*%
X345827874Y-163971947D03*
D16*
X345827874Y-166471947D03*
X345827874Y-169271947D03*
D17*
X345827874Y-171771947D03*
%TD*%
D16*
%TO.C,D131*%
X155327874Y-147421947D03*
D15*
X155327874Y-144921947D03*
D17*
X155327874Y-152721947D03*
D16*
X155327874Y-150221947D03*
%TD*%
D12*
%TO.C,MX18*%
X457111624Y-125326947D03*
D11*
X454571624Y-120246947D03*
X448221624Y-122786947D03*
D13*
X452031624Y-125326947D03*
D12*
X446951624Y-125326947D03*
D14*
X444946624Y-122786947D03*
X457873624Y-120246947D03*
%TD*%
D13*
%TO.C,MX178*%
X51981624Y-106276947D03*
D11*
X48171624Y-103736947D03*
D12*
X46901624Y-106276947D03*
X57061624Y-106276947D03*
D11*
X54521624Y-101196947D03*
D14*
X44896624Y-103736947D03*
X57823624Y-101196947D03*
%TD*%
D11*
%TO.C,MX134*%
X168821624Y-63096947D03*
D12*
X161201624Y-68176947D03*
D11*
X162471624Y-65636947D03*
D12*
X171361624Y-68176947D03*
D13*
X166281624Y-68176947D03*
D14*
X159196624Y-65636947D03*
X172123624Y-63096947D03*
%TD*%
D13*
%TO.C,MX109*%
X242481624Y-125326947D03*
D11*
X238671624Y-122786947D03*
X245021624Y-120246947D03*
D12*
X247561624Y-125326947D03*
X237401624Y-125326947D03*
D14*
X235396624Y-122786947D03*
X248323624Y-120246947D03*
%TD*%
D15*
%TO.C,D153*%
X136277874Y-163971947D03*
D16*
X136277874Y-166471947D03*
X136277874Y-169271947D03*
D17*
X136277874Y-171771947D03*
%TD*%
D16*
%TO.C,D54*%
X402977874Y-147421947D03*
D15*
X402977874Y-144921947D03*
D17*
X402977874Y-152721947D03*
D16*
X402977874Y-150221947D03*
%TD*%
%TO.C,D129*%
X155327874Y-109321947D03*
D15*
X155327874Y-106821947D03*
D17*
X155327874Y-114621947D03*
D16*
X155327874Y-112121947D03*
%TD*%
D15*
%TO.C,D2*%
X498227874Y-87771947D03*
D16*
X498227874Y-90271947D03*
D17*
X498227874Y-95571947D03*
D16*
X498227874Y-93071947D03*
%TD*%
D15*
%TO.C,D52*%
X402977874Y-106821947D03*
D16*
X402977874Y-109321947D03*
X402977874Y-112121947D03*
D17*
X402977874Y-114621947D03*
%TD*%
D12*
%TO.C,MX33*%
X419011624Y-144376947D03*
D11*
X410121624Y-141836947D03*
X416471624Y-139296947D03*
D13*
X413931624Y-144376947D03*
D12*
X408851624Y-144376947D03*
D14*
X406846624Y-141836947D03*
X419773624Y-139296947D03*
%TD*%
D16*
%TO.C,D4*%
X498227874Y-128371947D03*
D15*
X498227874Y-125871947D03*
D16*
X498227874Y-131171947D03*
D17*
X498227874Y-133671947D03*
%TD*%
D16*
%TO.C,D90*%
X269612568Y-166486098D03*
D15*
X269612568Y-163986098D03*
D16*
X269612568Y-169286098D03*
D17*
X269612568Y-171786098D03*
%TD*%
D16*
%TO.C,D72*%
X307727874Y-90271947D03*
D15*
X307727874Y-87771947D03*
D16*
X307727874Y-93071947D03*
D17*
X307727874Y-95571947D03*
%TD*%
D15*
%TO.C,D139*%
X174377874Y-163971947D03*
D16*
X174377874Y-166471947D03*
X174377874Y-169271947D03*
D17*
X174377874Y-171771947D03*
%TD*%
D15*
%TO.C,D24*%
X479177874Y-106821947D03*
D16*
X479177874Y-109321947D03*
D17*
X479177874Y-114621947D03*
D16*
X479177874Y-112121947D03*
%TD*%
D11*
%TO.C,MX7*%
X505371624Y-46586947D03*
D13*
X509181624Y-49126947D03*
D12*
X514261624Y-49126947D03*
X504101624Y-49126947D03*
D11*
X511721624Y-44046947D03*
D14*
X502096624Y-46586947D03*
X515023624Y-44046947D03*
%TD*%
D12*
%TO.C,MX81*%
X313601624Y-125326947D03*
D11*
X321221624Y-120246947D03*
D12*
X323761624Y-125326947D03*
D13*
X318681624Y-125326947D03*
D11*
X314871624Y-122786947D03*
D14*
X311596624Y-122786947D03*
X324523624Y-120246947D03*
%TD*%
D16*
%TO.C,D157*%
X79127874Y-109321947D03*
D15*
X79127874Y-106821947D03*
D16*
X79127874Y-112121947D03*
D17*
X79127874Y-114621947D03*
%TD*%
D16*
%TO.C,D22*%
X479177874Y-71221947D03*
D15*
X479177874Y-68721947D03*
D16*
X479177874Y-74021947D03*
D17*
X479177874Y-76521947D03*
%TD*%
D12*
%TO.C,MX105*%
X237401624Y-49126947D03*
D11*
X245021624Y-44046947D03*
D12*
X247561624Y-49126947D03*
D13*
X242481624Y-49126947D03*
D11*
X238671624Y-46586947D03*
D14*
X235396624Y-46586947D03*
X248323624Y-44046947D03*
%TD*%
D19*
%TO.C,R0*%
X494461318Y-37696947D03*
X484301318Y-37696947D03*
%TD*%
D11*
%TO.C,MX48*%
X378371624Y-158346947D03*
D12*
X380911624Y-163426947D03*
D11*
X372021624Y-160886947D03*
D13*
X375831624Y-163426947D03*
D12*
X370751624Y-163426947D03*
D14*
X368746624Y-160886947D03*
X381673624Y-158346947D03*
%TD*%
D15*
%TO.C,D1*%
X498227874Y-68721947D03*
D16*
X498227874Y-71221947D03*
X498227874Y-74021947D03*
D17*
X498227874Y-76521947D03*
%TD*%
D12*
%TO.C,MX32*%
X408851624Y-125326947D03*
D11*
X416471624Y-120246947D03*
D13*
X413931624Y-125326947D03*
D11*
X410121624Y-122786947D03*
D12*
X419011624Y-125326947D03*
D14*
X406846624Y-122786947D03*
X419773624Y-120246947D03*
%TD*%
D12*
%TO.C,MX150*%
X133261624Y-106276947D03*
D11*
X124371624Y-103736947D03*
D12*
X123101624Y-106276947D03*
D11*
X130721624Y-101196947D03*
D13*
X128181624Y-106276947D03*
D14*
X121096624Y-103736947D03*
X134023624Y-101196947D03*
%TD*%
D15*
%TO.C,D95*%
X288662568Y-125886098D03*
D16*
X288662568Y-128386098D03*
D17*
X288662568Y-133686098D03*
D16*
X288662568Y-131186098D03*
%TD*%
D13*
%TO.C,MX91*%
X280566318Y-49141098D03*
D11*
X276756318Y-46601098D03*
D12*
X275486318Y-49141098D03*
X285646318Y-49141098D03*
D11*
X283106318Y-44061098D03*
D14*
X273481318Y-46601098D03*
X286408318Y-44061098D03*
%TD*%
D12*
%TO.C,MX161*%
X85001624Y-49126947D03*
D11*
X92621624Y-44046947D03*
X86271624Y-46586947D03*
D12*
X95161624Y-49126947D03*
D13*
X90081624Y-49126947D03*
D14*
X82996624Y-46586947D03*
X95923624Y-44046947D03*
%TD*%
D11*
%TO.C,MX37*%
X429171624Y-84686947D03*
D12*
X427901624Y-87226947D03*
X438061624Y-87226947D03*
D13*
X432981624Y-87226947D03*
D11*
X435521624Y-82146947D03*
D14*
X425896624Y-84686947D03*
X438823624Y-82146947D03*
%TD*%
D13*
%TO.C,MX117*%
X185331624Y-144376947D03*
D11*
X181521624Y-141836947D03*
X187871624Y-139296947D03*
D12*
X180251624Y-144376947D03*
X190411624Y-144376947D03*
D14*
X178246624Y-141836947D03*
X191173624Y-139296947D03*
%TD*%
D11*
%TO.C,MX5*%
X486321624Y-141836947D03*
D13*
X490131624Y-144376947D03*
D12*
X495211624Y-144376947D03*
X485051624Y-144376947D03*
D11*
X492671624Y-139296947D03*
D14*
X483046624Y-141836947D03*
X495973624Y-139296947D03*
%TD*%
D12*
%TO.C,MX50*%
X389801624Y-68176947D03*
X399961624Y-68176947D03*
D11*
X391071624Y-65636947D03*
X397421624Y-63096947D03*
D13*
X394881624Y-68176947D03*
D14*
X387796624Y-65636947D03*
X400723624Y-63096947D03*
%TD*%
D11*
%TO.C,MX140*%
X105321624Y-46586947D03*
D13*
X109131624Y-49126947D03*
D12*
X114211624Y-49126947D03*
X104051624Y-49126947D03*
D11*
X111671624Y-44046947D03*
D14*
X102046624Y-46586947D03*
X114973624Y-44046947D03*
%TD*%
D15*
%TO.C,D147*%
X136277874Y-49671947D03*
D16*
X136277874Y-52171947D03*
X136277874Y-54971947D03*
D17*
X136277874Y-57471947D03*
%TD*%
D13*
%TO.C,MX144*%
X109131624Y-125326947D03*
D11*
X105321624Y-122786947D03*
X111671624Y-120246947D03*
D12*
X114211624Y-125326947D03*
X104051624Y-125326947D03*
D14*
X102046624Y-122786947D03*
X114973624Y-120246947D03*
%TD*%
D11*
%TO.C,MX71*%
X302171624Y-63096947D03*
D13*
X299631624Y-68176947D03*
D12*
X294551624Y-68176947D03*
X304711624Y-68176947D03*
D11*
X295821624Y-65636947D03*
D14*
X292546624Y-65636947D03*
X305473624Y-63096947D03*
%TD*%
D13*
%TO.C,MX47*%
X375831624Y-144376947D03*
D11*
X372021624Y-141836947D03*
D12*
X370751624Y-144376947D03*
D11*
X378371624Y-139296947D03*
D12*
X380911624Y-144376947D03*
D14*
X368746624Y-141836947D03*
X381673624Y-139296947D03*
%TD*%
D15*
%TO.C,D64*%
X364877874Y-68721947D03*
D16*
X364877874Y-71221947D03*
X364877874Y-74021947D03*
D17*
X364877874Y-76521947D03*
%TD*%
D16*
%TO.C,D70*%
X307727874Y-52171947D03*
D15*
X307727874Y-49671947D03*
D17*
X307727874Y-57471947D03*
D16*
X307727874Y-54971947D03*
%TD*%
D15*
%TO.C,D181*%
X60077874Y-163971947D03*
D16*
X60077874Y-166471947D03*
X60077874Y-169271947D03*
D17*
X60077874Y-171771947D03*
%TD*%
D12*
%TO.C,MX65*%
X361861624Y-87226947D03*
D11*
X359321624Y-82146947D03*
D12*
X351701624Y-87226947D03*
D11*
X352971624Y-84686947D03*
D13*
X356781624Y-87226947D03*
D14*
X349696624Y-84686947D03*
X362623624Y-82146947D03*
%TD*%
D11*
%TO.C,MX86*%
X257706318Y-84701098D03*
D12*
X266596318Y-87241098D03*
D11*
X264056318Y-82161098D03*
D13*
X261516318Y-87241098D03*
D12*
X256436318Y-87241098D03*
D14*
X254431318Y-84701098D03*
X267358318Y-82161098D03*
%TD*%
D13*
%TO.C,MX112*%
X185331624Y-49126947D03*
D12*
X180251624Y-49126947D03*
D11*
X187871624Y-44046947D03*
X181521624Y-46586947D03*
D12*
X190411624Y-49126947D03*
D14*
X178246624Y-46586947D03*
X191173624Y-44046947D03*
%TD*%
D11*
%TO.C,MX12*%
X511721624Y-139296947D03*
D12*
X514261624Y-144376947D03*
D11*
X505371624Y-141836947D03*
D12*
X504101624Y-144376947D03*
D13*
X509181624Y-144376947D03*
D14*
X502096624Y-141836947D03*
X515023624Y-139296947D03*
%TD*%
D15*
%TO.C,D47*%
X383927874Y-144921947D03*
D16*
X383927874Y-147421947D03*
X383927874Y-150221947D03*
D17*
X383927874Y-152721947D03*
%TD*%
D16*
%TO.C,D49*%
X402977874Y-52171947D03*
D15*
X402977874Y-49671947D03*
D17*
X402977874Y-57471947D03*
D16*
X402977874Y-54971947D03*
%TD*%
D15*
%TO.C,D63*%
X364877874Y-49671947D03*
D16*
X364877874Y-52171947D03*
X364877874Y-54971947D03*
D17*
X364877874Y-57471947D03*
%TD*%
D16*
%TO.C,D40*%
X441077874Y-147421947D03*
D15*
X441077874Y-144921947D03*
D16*
X441077874Y-150221947D03*
D17*
X441077874Y-152721947D03*
%TD*%
D12*
%TO.C,MX30*%
X419011624Y-87226947D03*
D11*
X410121624Y-84686947D03*
D13*
X413931624Y-87226947D03*
D11*
X416471624Y-82146947D03*
D12*
X408851624Y-87226947D03*
D14*
X406846624Y-84686947D03*
X419773624Y-82146947D03*
%TD*%
D13*
%TO.C,MX25*%
X471081624Y-125326947D03*
D11*
X467271624Y-122786947D03*
D12*
X466001624Y-125326947D03*
X476161624Y-125326947D03*
D11*
X473621624Y-120246947D03*
D14*
X463996624Y-122786947D03*
X476923624Y-120246947D03*
%TD*%
D15*
%TO.C,D132*%
X155327874Y-163971947D03*
D16*
X155327874Y-166471947D03*
X155327874Y-169271947D03*
D17*
X155327874Y-171771947D03*
%TD*%
D16*
%TO.C,D115*%
X193427874Y-109321947D03*
D15*
X193427874Y-106821947D03*
D16*
X193427874Y-112121947D03*
D17*
X193427874Y-114621947D03*
%TD*%
D16*
%TO.C,D16*%
X460127874Y-90271947D03*
D15*
X460127874Y-87771947D03*
D17*
X460127874Y-95571947D03*
D16*
X460127874Y-93071947D03*
%TD*%
D15*
%TO.C,D3*%
X498227874Y-106821947D03*
D16*
X498227874Y-109321947D03*
X498227874Y-112121947D03*
D17*
X498227874Y-114621947D03*
%TD*%
D12*
%TO.C,MX35*%
X438061624Y-49126947D03*
D11*
X435521624Y-44046947D03*
D12*
X427901624Y-49126947D03*
D11*
X429171624Y-46586947D03*
D13*
X432981624Y-49126947D03*
D14*
X425896624Y-46586947D03*
X438823624Y-44046947D03*
%TD*%
D12*
%TO.C,MX149*%
X123101624Y-87226947D03*
D11*
X124371624Y-84686947D03*
D12*
X133261624Y-87226947D03*
D13*
X128181624Y-87226947D03*
D11*
X130721624Y-82146947D03*
D14*
X121096624Y-84686947D03*
X134023624Y-82146947D03*
%TD*%
D11*
%TO.C,MX108*%
X245021624Y-101196947D03*
D12*
X247561624Y-106276947D03*
D11*
X238671624Y-103736947D03*
D12*
X237401624Y-106276947D03*
D13*
X242481624Y-106276947D03*
D14*
X235396624Y-103736947D03*
X248323624Y-101196947D03*
%TD*%
D15*
%TO.C,D55*%
X402977874Y-163971947D03*
D16*
X402977874Y-166471947D03*
D17*
X402977874Y-171771947D03*
D16*
X402977874Y-169271947D03*
%TD*%
%TO.C,D5*%
X498227874Y-147421947D03*
D15*
X498227874Y-144921947D03*
D17*
X498227874Y-152721947D03*
D16*
X498227874Y-150221947D03*
%TD*%
D12*
%TO.C,MX158*%
X76111624Y-125326947D03*
D11*
X73571624Y-120246947D03*
D13*
X71031624Y-125326947D03*
D11*
X67221624Y-122786947D03*
D12*
X65951624Y-125326947D03*
D14*
X63946624Y-122786947D03*
X76873624Y-120246947D03*
%TD*%
D18*
%TO.C,D214*%
X34490374Y-58334447D03*
D15*
X36990374Y-58334447D03*
D17*
X29190374Y-58334447D03*
D18*
X31690374Y-58334447D03*
%TD*%
D11*
%TO.C,MX13*%
X511721624Y-158346947D03*
X505371624Y-160886947D03*
D12*
X514261624Y-163426947D03*
D13*
X509181624Y-163426947D03*
D12*
X504101624Y-163426947D03*
D14*
X502096624Y-160886947D03*
X515023624Y-158346947D03*
%TD*%
D16*
%TO.C,D31*%
X422027874Y-109321947D03*
D15*
X422027874Y-106821947D03*
D16*
X422027874Y-112121947D03*
D17*
X422027874Y-114621947D03*
%TD*%
D15*
%TO.C,D92*%
X288662568Y-68736098D03*
D16*
X288662568Y-71236098D03*
D17*
X288662568Y-76536098D03*
D16*
X288662568Y-74036098D03*
%TD*%
D13*
%TO.C,MX154*%
X71031624Y-49126947D03*
D12*
X65951624Y-49126947D03*
X76111624Y-49126947D03*
D11*
X67221624Y-46586947D03*
X73571624Y-44046947D03*
D14*
X63946624Y-46586947D03*
X76873624Y-44046947D03*
%TD*%
D15*
%TO.C,D36*%
X441077874Y-68721947D03*
D16*
X441077874Y-71221947D03*
D17*
X441077874Y-76521947D03*
D16*
X441077874Y-74021947D03*
%TD*%
D15*
%TO.C,D84*%
X269612568Y-49686098D03*
D16*
X269612568Y-52186098D03*
D17*
X269612568Y-57486098D03*
D16*
X269612568Y-54986098D03*
%TD*%
%TO.C,D67*%
X364877874Y-128371947D03*
D15*
X364877874Y-125871947D03*
D17*
X364877874Y-133671947D03*
D16*
X364877874Y-131171947D03*
%TD*%
D11*
%TO.C,MX63*%
X359321624Y-44046947D03*
D13*
X356781624Y-49126947D03*
D11*
X352971624Y-46586947D03*
D12*
X361861624Y-49126947D03*
X351701624Y-49126947D03*
D14*
X349696624Y-46586947D03*
X362623624Y-44046947D03*
%TD*%
D15*
%TO.C,D78*%
X326777874Y-68721947D03*
D16*
X326777874Y-71221947D03*
X326777874Y-74021947D03*
D17*
X326777874Y-76521947D03*
%TD*%
D16*
%TO.C,D27*%
X479177874Y-166471947D03*
D15*
X479177874Y-163971947D03*
D17*
X479177874Y-171771947D03*
D16*
X479177874Y-169271947D03*
%TD*%
%TO.C,D106*%
X250577874Y-71221947D03*
D15*
X250577874Y-68721947D03*
D16*
X250577874Y-74021947D03*
D17*
X250577874Y-76521947D03*
%TD*%
D12*
%TO.C,MX122*%
X209461624Y-106276947D03*
X199301624Y-106276947D03*
D13*
X204381624Y-106276947D03*
D11*
X206921624Y-101196947D03*
X200571624Y-103736947D03*
D14*
X197296624Y-103736947D03*
X210223624Y-101196947D03*
%TD*%
D15*
%TO.C,D165*%
X98177874Y-125871947D03*
D16*
X98177874Y-128371947D03*
X98177874Y-131171947D03*
D17*
X98177874Y-133671947D03*
%TD*%
D15*
%TO.C,D89*%
X269612568Y-144936098D03*
D16*
X269612568Y-147436098D03*
X269612568Y-150236098D03*
D17*
X269612568Y-152736098D03*
%TD*%
D12*
%TO.C,MX113*%
X180251624Y-68176947D03*
X190411624Y-68176947D03*
D11*
X187871624Y-63096947D03*
X181521624Y-65636947D03*
D13*
X185331624Y-68176947D03*
D14*
X178246624Y-65636947D03*
X191173624Y-63096947D03*
%TD*%
D13*
%TO.C,MX101*%
X223431624Y-106276947D03*
D12*
X218351624Y-106276947D03*
D11*
X219621624Y-103736947D03*
X225971624Y-101196947D03*
D12*
X228511624Y-106276947D03*
D14*
X216346624Y-103736947D03*
X229273624Y-101196947D03*
%TD*%
D15*
%TO.C,D96*%
X288662568Y-144936098D03*
D16*
X288662568Y-147436098D03*
X288662568Y-150236098D03*
D17*
X288662568Y-152736098D03*
%TD*%
D16*
%TO.C,D0*%
X498227874Y-52171947D03*
D15*
X498227874Y-49671947D03*
D16*
X498227874Y-54971947D03*
D17*
X498227874Y-57471947D03*
%TD*%
D15*
%TO.C,D108*%
X250577874Y-106821947D03*
D16*
X250577874Y-109321947D03*
D17*
X250577874Y-114621947D03*
D16*
X250577874Y-112121947D03*
%TD*%
D12*
%TO.C,MX40*%
X438061624Y-144376947D03*
D11*
X429171624Y-141836947D03*
X435521624Y-139296947D03*
D13*
X432981624Y-144376947D03*
D12*
X427901624Y-144376947D03*
D14*
X425896624Y-141836947D03*
X438823624Y-139296947D03*
%TD*%
D15*
%TO.C,D83*%
X326777874Y-163971947D03*
D16*
X326777874Y-166471947D03*
X326777874Y-169271947D03*
D17*
X326777874Y-171771947D03*
%TD*%
D12*
%TO.C,MX165*%
X95161624Y-125326947D03*
D11*
X92621624Y-120246947D03*
D12*
X85001624Y-125326947D03*
D13*
X90081624Y-125326947D03*
D11*
X86271624Y-122786947D03*
D14*
X82996624Y-122786947D03*
X95923624Y-120246947D03*
%TD*%
D12*
%TO.C,MX46*%
X370751624Y-125326947D03*
D13*
X375831624Y-125326947D03*
D11*
X372021624Y-122786947D03*
X378371624Y-120246947D03*
D12*
X380911624Y-125326947D03*
D14*
X368746624Y-122786947D03*
X381673624Y-120246947D03*
%TD*%
D12*
%TO.C,MX80*%
X323761624Y-106276947D03*
D11*
X321221624Y-101196947D03*
D13*
X318681624Y-106276947D03*
D11*
X314871624Y-103736947D03*
D12*
X313601624Y-106276947D03*
D14*
X311596624Y-103736947D03*
X324523624Y-101196947D03*
%TD*%
D12*
%TO.C,MX151*%
X123101624Y-125326947D03*
X133261624Y-125326947D03*
D11*
X130721624Y-120246947D03*
D13*
X128181624Y-125326947D03*
D11*
X124371624Y-122786947D03*
D14*
X121096624Y-122786947D03*
X134023624Y-120246947D03*
%TD*%
D11*
%TO.C,MX99*%
X225971624Y-63096947D03*
D13*
X223431624Y-68176947D03*
D12*
X218351624Y-68176947D03*
D11*
X219621624Y-65636947D03*
D12*
X228511624Y-68176947D03*
D14*
X216346624Y-65636947D03*
X229273624Y-63096947D03*
%TD*%
D16*
%TO.C,D28*%
X422027874Y-52171947D03*
D15*
X422027874Y-49671947D03*
D16*
X422027874Y-54971947D03*
D17*
X422027874Y-57471947D03*
%TD*%
D12*
%TO.C,MX164*%
X95161624Y-106276947D03*
D11*
X92621624Y-101196947D03*
D13*
X90081624Y-106276947D03*
D11*
X86271624Y-103736947D03*
D12*
X85001624Y-106276947D03*
D14*
X82996624Y-103736947D03*
X95923624Y-101196947D03*
%TD*%
D18*
%TO.C,D213*%
X66615374Y-76590697D03*
D15*
X64115374Y-76590697D03*
D17*
X71915374Y-76590697D03*
D18*
X69415374Y-76590697D03*
%TD*%
D16*
%TO.C,D104*%
X231527874Y-166284447D03*
D15*
X231527874Y-163784447D03*
D16*
X231527874Y-169084447D03*
D17*
X231527874Y-171584447D03*
%TD*%
D12*
%TO.C,MX14*%
X457111624Y-49126947D03*
X446951624Y-49126947D03*
D11*
X454571624Y-44046947D03*
D13*
X452031624Y-49126947D03*
D11*
X448221624Y-46586947D03*
D14*
X444946624Y-46586947D03*
X457873624Y-44046947D03*
%TD*%
D11*
%TO.C,MX44*%
X378371624Y-82146947D03*
D12*
X370751624Y-87226947D03*
D13*
X375831624Y-87226947D03*
D12*
X380911624Y-87226947D03*
D11*
X372021624Y-84686947D03*
D14*
X368746624Y-84686947D03*
X381673624Y-82146947D03*
%TD*%
D13*
%TO.C,MX74*%
X299631624Y-125326947D03*
D12*
X294551624Y-125326947D03*
D11*
X295821624Y-122786947D03*
X302171624Y-120246947D03*
D12*
X304711624Y-125326947D03*
D14*
X292546624Y-122786947D03*
X305473624Y-120246947D03*
%TD*%
D11*
%TO.C,MX23*%
X473621624Y-82146947D03*
D12*
X476161624Y-87226947D03*
X466001624Y-87226947D03*
D11*
X467271624Y-84686947D03*
D13*
X471081624Y-87226947D03*
D14*
X463996624Y-84686947D03*
X476923624Y-82146947D03*
%TD*%
D15*
%TO.C,D125*%
X212477874Y-163971947D03*
D16*
X212477874Y-166471947D03*
X212477874Y-169271947D03*
D17*
X212477874Y-171771947D03*
%TD*%
D11*
%TO.C,MX24*%
X473621624Y-101196947D03*
D12*
X466001624Y-106276947D03*
D11*
X467271624Y-103736947D03*
D12*
X476161624Y-106276947D03*
D13*
X471081624Y-106276947D03*
D14*
X463996624Y-103736947D03*
X476923624Y-101196947D03*
%TD*%
D15*
%TO.C,D121*%
X212477874Y-87771947D03*
D16*
X212477874Y-90271947D03*
D17*
X212477874Y-95571947D03*
D16*
X212477874Y-93071947D03*
%TD*%
D12*
%TO.C,MX4*%
X485051624Y-125326947D03*
X495211624Y-125326947D03*
D13*
X490131624Y-125326947D03*
D11*
X486321624Y-122786947D03*
X492671624Y-120246947D03*
D14*
X483046624Y-122786947D03*
X495973624Y-120246947D03*
%TD*%
D16*
%TO.C,D23*%
X479177874Y-90271947D03*
D15*
X479177874Y-87771947D03*
D17*
X479177874Y-95571947D03*
D16*
X479177874Y-93071947D03*
%TD*%
D13*
%TO.C,MX93*%
X280566318Y-87241098D03*
D11*
X276756318Y-84701098D03*
D12*
X285646318Y-87241098D03*
D11*
X283106318Y-82161098D03*
D12*
X275486318Y-87241098D03*
D14*
X273481318Y-84701098D03*
X286408318Y-82161098D03*
%TD*%
D13*
%TO.C,MX66*%
X356781624Y-106276947D03*
D12*
X351701624Y-106276947D03*
D11*
X352971624Y-103736947D03*
X359321624Y-101196947D03*
D12*
X361861624Y-106276947D03*
D14*
X349696624Y-103736947D03*
X362623624Y-101196947D03*
%TD*%
D20*
%TO.C,U1*%
X452113374Y-37061947D03*
D21*
X454653374Y-37061947D03*
X457193374Y-37061947D03*
X459733374Y-37061947D03*
X462273374Y-37061947D03*
X464813374Y-37061947D03*
X467353374Y-37061947D03*
X469893374Y-37061947D03*
X472433374Y-37061947D03*
X474973374Y-37061947D03*
X477513374Y-37061947D03*
X480053374Y-36833347D03*
X480053374Y-21821947D03*
X477513374Y-21821947D03*
X474973374Y-21821947D03*
X472433374Y-21821947D03*
X469893374Y-21821947D03*
X467353374Y-21821947D03*
X464813374Y-21821947D03*
X462273374Y-21821947D03*
X459733374Y-21821947D03*
X457193374Y-21821947D03*
X454653374Y-21821947D03*
X452113374Y-21821947D03*
X480053374Y-34521947D03*
X480053374Y-31981947D03*
X480053374Y-29441947D03*
X480053374Y-26901947D03*
X480053374Y-24361947D03*
%TD*%
D12*
%TO.C,MX87*%
X266596318Y-106291098D03*
D13*
X261516318Y-106291098D03*
D11*
X264056318Y-101211098D03*
D12*
X256436318Y-106291098D03*
D11*
X257706318Y-103751098D03*
D14*
X254431318Y-103751098D03*
X267358318Y-101211098D03*
%TD*%
D15*
%TO.C,D117*%
X193427874Y-144921947D03*
D16*
X193427874Y-147421947D03*
X193427874Y-150221947D03*
D17*
X193427874Y-152721947D03*
%TD*%
D12*
%TO.C,MX79*%
X313601624Y-87226947D03*
D11*
X314871624Y-84686947D03*
D12*
X323761624Y-87226947D03*
D11*
X321221624Y-82146947D03*
D13*
X318681624Y-87226947D03*
D14*
X311596624Y-84686947D03*
X324523624Y-82146947D03*
%TD*%
D15*
%TO.C,D8*%
X517277874Y-68721947D03*
D16*
X517277874Y-71221947D03*
D17*
X517277874Y-76521947D03*
D16*
X517277874Y-74021947D03*
%TD*%
%TO.C,D33*%
X422027874Y-147421947D03*
D15*
X422027874Y-144921947D03*
D16*
X422027874Y-150221947D03*
D17*
X422027874Y-152721947D03*
%TD*%
D15*
%TO.C,D35*%
X441077874Y-49671947D03*
D16*
X441077874Y-52171947D03*
X441077874Y-54971947D03*
D17*
X441077874Y-57471947D03*
%TD*%
D11*
%TO.C,MX15*%
X454571624Y-63096947D03*
D12*
X457111624Y-68176947D03*
X446951624Y-68176947D03*
D13*
X452031624Y-68176947D03*
D11*
X448221624Y-65636947D03*
D14*
X444946624Y-65636947D03*
X457873624Y-63096947D03*
%TD*%
D16*
%TO.C,D164*%
X98177874Y-109321947D03*
D15*
X98177874Y-106821947D03*
D17*
X98177874Y-114621947D03*
D16*
X98177874Y-112121947D03*
%TD*%
D11*
%TO.C,MX75*%
X295821624Y-141836947D03*
D13*
X299631624Y-144376947D03*
D11*
X302171624Y-139296947D03*
D12*
X294551624Y-144376947D03*
X304711624Y-144376947D03*
D14*
X292546624Y-141836947D03*
X305473624Y-139296947D03*
%TD*%
D13*
%TO.C,MX116*%
X185331624Y-125326947D03*
D12*
X180251624Y-125326947D03*
D11*
X181521624Y-122786947D03*
X187871624Y-120246947D03*
D12*
X190411624Y-125326947D03*
D14*
X178246624Y-122786947D03*
X191173624Y-120246947D03*
%TD*%
D11*
%TO.C,MX120*%
X206921624Y-63096947D03*
D12*
X199301624Y-68176947D03*
D13*
X204381624Y-68176947D03*
D12*
X209461624Y-68176947D03*
D11*
X200571624Y-65636947D03*
D14*
X197296624Y-65636947D03*
X210223624Y-63096947D03*
%TD*%
D13*
%TO.C,MX115*%
X185331624Y-106276947D03*
D12*
X180251624Y-106276947D03*
X190411624Y-106276947D03*
D11*
X181521624Y-103736947D03*
X187871624Y-101196947D03*
D14*
X178246624Y-103736947D03*
X191173624Y-101196947D03*
%TD*%
D15*
%TO.C,D19*%
X460127874Y-144921947D03*
D16*
X460127874Y-147421947D03*
X460127874Y-150221947D03*
D17*
X460127874Y-152721947D03*
%TD*%
D12*
%TO.C,MX3*%
X495211624Y-106276947D03*
D11*
X486321624Y-103736947D03*
D12*
X485051624Y-106276947D03*
D13*
X490131624Y-106276947D03*
D11*
X492671624Y-101196947D03*
D14*
X483046624Y-103736947D03*
X495973624Y-101196947D03*
%TD*%
D12*
%TO.C,MX90*%
X266596318Y-163441098D03*
D13*
X261516318Y-163441098D03*
D11*
X264056318Y-158361098D03*
X257706318Y-160901098D03*
D12*
X256436318Y-163441098D03*
D14*
X254431318Y-160901098D03*
X267358318Y-158361098D03*
%TD*%
D16*
%TO.C,D174*%
X41027874Y-166471947D03*
D15*
X41027874Y-163971947D03*
D17*
X41027874Y-171771947D03*
D16*
X41027874Y-169271947D03*
%TD*%
D15*
%TO.C,D202*%
X465752874Y-76590697D03*
D18*
X468252874Y-76590697D03*
D17*
X473552874Y-76590697D03*
D18*
X471052874Y-76590697D03*
%TD*%
D12*
%TO.C,MX153*%
X123101624Y-163426947D03*
D11*
X130721624Y-158346947D03*
D13*
X128181624Y-163426947D03*
D12*
X133261624Y-163426947D03*
D11*
X124371624Y-160886947D03*
D14*
X121096624Y-160886947D03*
X134023624Y-158346947D03*
%TD*%
D13*
%TO.C,MX159*%
X71031624Y-144376947D03*
D12*
X65951624Y-144376947D03*
D11*
X73571624Y-139296947D03*
D12*
X76111624Y-144376947D03*
D11*
X67221624Y-141836947D03*
D14*
X63946624Y-141836947D03*
X76873624Y-139296947D03*
%TD*%
D13*
%TO.C,MX167*%
X90081624Y-163426947D03*
D12*
X95161624Y-163426947D03*
D11*
X92621624Y-158346947D03*
X86271624Y-160886947D03*
D12*
X85001624Y-163426947D03*
D14*
X82996624Y-160886947D03*
X95923624Y-158346947D03*
%TD*%
D12*
%TO.C,MX51*%
X399961624Y-87226947D03*
D11*
X397421624Y-82146947D03*
D13*
X394881624Y-87226947D03*
D11*
X391071624Y-84686947D03*
D12*
X389801624Y-87226947D03*
D14*
X387796624Y-84686947D03*
X400723624Y-82146947D03*
%TD*%
D15*
%TO.C,D161*%
X98177874Y-49671947D03*
D16*
X98177874Y-52171947D03*
X98177874Y-54971947D03*
D17*
X98177874Y-57471947D03*
%TD*%
D15*
%TO.C,D38*%
X441077874Y-106821947D03*
D16*
X441077874Y-109321947D03*
X441077874Y-112121947D03*
D17*
X441077874Y-114621947D03*
%TD*%
D12*
%TO.C,MX162*%
X85001624Y-68176947D03*
X95161624Y-68176947D03*
D11*
X92621624Y-63096947D03*
D13*
X90081624Y-68176947D03*
D11*
X86271624Y-65636947D03*
D14*
X82996624Y-65636947D03*
X95923624Y-63096947D03*
%TD*%
D11*
%TO.C,MX54*%
X397421624Y-139296947D03*
D12*
X399961624Y-144376947D03*
X389801624Y-144376947D03*
D11*
X391071624Y-141836947D03*
D13*
X394881624Y-144376947D03*
D14*
X387796624Y-141836947D03*
X400723624Y-139296947D03*
%TD*%
D15*
%TO.C,D101*%
X231527874Y-106821947D03*
D16*
X231527874Y-109321947D03*
X231527874Y-112121947D03*
D17*
X231527874Y-114621947D03*
%TD*%
D16*
%TO.C,D65*%
X364877874Y-90271947D03*
D15*
X364877874Y-87771947D03*
D16*
X364877874Y-93071947D03*
D17*
X364877874Y-95571947D03*
%TD*%
D12*
%TO.C,MX20*%
X446951624Y-163426947D03*
D13*
X452031624Y-163426947D03*
D11*
X454571624Y-158346947D03*
D12*
X457111624Y-163426947D03*
D11*
X448221624Y-160886947D03*
D14*
X444946624Y-160886947D03*
X457873624Y-158346947D03*
%TD*%
D11*
%TO.C,MX21*%
X467271624Y-46586947D03*
D12*
X466001624Y-49126947D03*
D13*
X471081624Y-49126947D03*
D12*
X476161624Y-49126947D03*
D11*
X473621624Y-44046947D03*
D14*
X463996624Y-46586947D03*
X476923624Y-44046947D03*
%TD*%
D15*
%TO.C,D136*%
X174377874Y-106821947D03*
D16*
X174377874Y-109321947D03*
X174377874Y-112121947D03*
D17*
X174377874Y-114621947D03*
%TD*%
D11*
%TO.C,MX176*%
X54521624Y-63096947D03*
D13*
X51981624Y-68176947D03*
D12*
X57061624Y-68176947D03*
D11*
X48171624Y-65636947D03*
D12*
X46901624Y-68176947D03*
D14*
X44896624Y-65636947D03*
X57823624Y-63096947D03*
%TD*%
D16*
%TO.C,D122*%
X212477874Y-109321947D03*
D15*
X212477874Y-106821947D03*
D17*
X212477874Y-114621947D03*
D16*
X212477874Y-112121947D03*
%TD*%
D12*
%TO.C,MX11*%
X514261624Y-125326947D03*
D11*
X505371624Y-122786947D03*
D13*
X509181624Y-125326947D03*
D12*
X504101624Y-125326947D03*
D11*
X511721624Y-120246947D03*
D14*
X502096624Y-122786947D03*
X515023624Y-120246947D03*
%TD*%
D11*
%TO.C,MX141*%
X111671624Y-63096947D03*
D12*
X114211624Y-68176947D03*
X104051624Y-68176947D03*
D11*
X105321624Y-65636947D03*
D13*
X109131624Y-68176947D03*
D14*
X102046624Y-65636947D03*
X114973624Y-63096947D03*
%TD*%
D12*
%TO.C,MX49*%
X389801624Y-49126947D03*
D11*
X397421624Y-44046947D03*
D12*
X399961624Y-49126947D03*
D13*
X394881624Y-49126947D03*
D11*
X391071624Y-46586947D03*
D14*
X387796624Y-46586947D03*
X400723624Y-44046947D03*
%TD*%
D13*
%TO.C,MX142*%
X109131624Y-87226947D03*
D11*
X111671624Y-82146947D03*
X105321624Y-84686947D03*
D12*
X104051624Y-87226947D03*
X114211624Y-87226947D03*
D14*
X102046624Y-84686947D03*
X114973624Y-82146947D03*
%TD*%
D13*
%TO.C,MX6*%
X490131624Y-163426947D03*
D11*
X492671624Y-158346947D03*
X486321624Y-160886947D03*
D12*
X495211624Y-163426947D03*
X485051624Y-163426947D03*
D14*
X483046624Y-160886947D03*
X495973624Y-158346947D03*
%TD*%
D13*
%TO.C,MX59*%
X337731624Y-106276947D03*
D12*
X332651624Y-106276947D03*
D11*
X340271624Y-101196947D03*
D12*
X342811624Y-106276947D03*
D11*
X333921624Y-103736947D03*
D14*
X330646624Y-103736947D03*
X343573624Y-101196947D03*
%TD*%
D13*
%TO.C,MX36*%
X432981624Y-68176947D03*
D11*
X435521624Y-63096947D03*
D12*
X438061624Y-68176947D03*
X427901624Y-68176947D03*
D11*
X429171624Y-65636947D03*
D14*
X425896624Y-65636947D03*
X438823624Y-63096947D03*
%TD*%
D15*
%TO.C,D59*%
X345827874Y-106821947D03*
D16*
X345827874Y-109321947D03*
X345827874Y-112121947D03*
D17*
X345827874Y-114621947D03*
%TD*%
D15*
%TO.C,D172*%
X41027874Y-125871947D03*
D16*
X41027874Y-128371947D03*
D17*
X41027874Y-133671947D03*
D16*
X41027874Y-131171947D03*
%TD*%
D11*
%TO.C,MX95*%
X276756318Y-122801098D03*
D13*
X280566318Y-125341098D03*
D12*
X285646318Y-125341098D03*
D11*
X283106318Y-120261098D03*
D12*
X275486318Y-125341098D03*
D14*
X273481318Y-122801098D03*
X286408318Y-120261098D03*
%TD*%
D16*
%TO.C,D32*%
X422027874Y-128371947D03*
D15*
X422027874Y-125871947D03*
D16*
X422027874Y-131171947D03*
D17*
X422027874Y-133671947D03*
%TD*%
D15*
%TO.C,D155*%
X79127874Y-68721947D03*
D16*
X79127874Y-71221947D03*
X79127874Y-74021947D03*
D17*
X79127874Y-76521947D03*
%TD*%
D15*
%TO.C,D76*%
X307727874Y-163971947D03*
D16*
X307727874Y-166471947D03*
D17*
X307727874Y-171771947D03*
D16*
X307727874Y-169271947D03*
%TD*%
D11*
%TO.C,MX82*%
X314871624Y-141836947D03*
D13*
X318681624Y-144376947D03*
D11*
X321221624Y-139296947D03*
D12*
X313601624Y-144376947D03*
X323761624Y-144376947D03*
D14*
X311596624Y-141836947D03*
X324523624Y-139296947D03*
%TD*%
D15*
%TO.C,D94*%
X288662568Y-106836098D03*
D16*
X288662568Y-109336098D03*
X288662568Y-112136098D03*
D17*
X288662568Y-114636098D03*
%TD*%
D16*
%TO.C,D168*%
X41027874Y-52171947D03*
D15*
X41027874Y-49671947D03*
D17*
X41027874Y-57471947D03*
D16*
X41027874Y-54971947D03*
%TD*%
%TO.C,D171*%
X41027874Y-109321947D03*
D15*
X41027874Y-106821947D03*
D17*
X41027874Y-114621947D03*
D16*
X41027874Y-112121947D03*
%TD*%
D12*
%TO.C,MX17*%
X457111624Y-106276947D03*
D13*
X452031624Y-106276947D03*
D12*
X446951624Y-106276947D03*
D11*
X448221624Y-103736947D03*
X454571624Y-101196947D03*
D14*
X444946624Y-103736947D03*
X457873624Y-101196947D03*
%TD*%
D16*
%TO.C,D93*%
X288662568Y-90286098D03*
D15*
X288662568Y-87786098D03*
D17*
X288662568Y-95586098D03*
D16*
X288662568Y-93086098D03*
%TD*%
%TO.C,D113*%
X193427874Y-71221947D03*
D15*
X193427874Y-68721947D03*
D17*
X193427874Y-76521947D03*
D16*
X193427874Y-74021947D03*
%TD*%
D12*
%TO.C,MX10*%
X514261624Y-106276947D03*
X504101624Y-106276947D03*
D11*
X505371624Y-103736947D03*
X511721624Y-101196947D03*
D13*
X509181624Y-106276947D03*
D14*
X502096624Y-103736947D03*
X515023624Y-101196947D03*
%TD*%
D12*
%TO.C,MX77*%
X323761624Y-49126947D03*
D11*
X321221624Y-44046947D03*
D13*
X318681624Y-49126947D03*
D12*
X313601624Y-49126947D03*
D11*
X314871624Y-46586947D03*
D14*
X311596624Y-46586947D03*
X324523624Y-44046947D03*
%TD*%
D15*
%TO.C,D130*%
X155327874Y-125871947D03*
D16*
X155327874Y-128371947D03*
X155327874Y-131171947D03*
D17*
X155327874Y-133671947D03*
%TD*%
D12*
%TO.C,MX55*%
X389801624Y-163426947D03*
D11*
X391071624Y-160886947D03*
D13*
X394881624Y-163426947D03*
D11*
X397421624Y-158346947D03*
D12*
X399961624Y-163426947D03*
D14*
X387796624Y-160886947D03*
X400723624Y-158346947D03*
%TD*%
D16*
%TO.C,D91*%
X288662568Y-52186098D03*
D15*
X288662568Y-49686098D03*
D16*
X288662568Y-54986098D03*
D17*
X288662568Y-57486098D03*
%TD*%
D11*
%TO.C,MX148*%
X124371624Y-65636947D03*
D12*
X133261624Y-68176947D03*
D13*
X128181624Y-68176947D03*
D12*
X123101624Y-68176947D03*
D11*
X130721624Y-63096947D03*
D14*
X121096624Y-65636947D03*
X134023624Y-63096947D03*
%TD*%
D11*
%TO.C,MX132*%
X143421624Y-160886947D03*
X149771624Y-158346947D03*
D13*
X147231624Y-163426947D03*
D12*
X152311624Y-163426947D03*
X142151624Y-163426947D03*
D14*
X140146624Y-160886947D03*
X153073624Y-158346947D03*
%TD*%
D12*
%TO.C,MX88*%
X256436318Y-125341098D03*
D11*
X264056318Y-120261098D03*
X257706318Y-122801098D03*
D12*
X266596318Y-125341098D03*
D13*
X261516318Y-125341098D03*
D14*
X254431318Y-122801098D03*
X267358318Y-120261098D03*
%TD*%
D16*
%TO.C,D111*%
X250577874Y-166471947D03*
D15*
X250577874Y-163971947D03*
D16*
X250577874Y-169271947D03*
D17*
X250577874Y-171771947D03*
%TD*%
D15*
%TO.C,D123*%
X212477874Y-125871947D03*
D16*
X212477874Y-128371947D03*
X212477874Y-131171947D03*
D17*
X212477874Y-133671947D03*
%TD*%
D13*
%TO.C,MX72*%
X299631624Y-87226947D03*
D11*
X295821624Y-84686947D03*
D12*
X294551624Y-87226947D03*
D11*
X302171624Y-82146947D03*
D12*
X304711624Y-87226947D03*
D14*
X292546624Y-84686947D03*
X305473624Y-82146947D03*
%TD*%
D15*
%TO.C,D179*%
X60077874Y-125871947D03*
D16*
X60077874Y-128371947D03*
X60077874Y-131171947D03*
D17*
X60077874Y-133671947D03*
%TD*%
D12*
%TO.C,MX127*%
X142151624Y-68176947D03*
D11*
X149771624Y-63096947D03*
D13*
X147231624Y-68176947D03*
D11*
X143421624Y-65636947D03*
D12*
X152311624Y-68176947D03*
D14*
X140146624Y-65636947D03*
X153073624Y-63096947D03*
%TD*%
D18*
%TO.C,D209*%
X243246624Y-152790697D03*
D15*
X245746624Y-152790697D03*
D17*
X237946624Y-152790697D03*
D18*
X240446624Y-152790697D03*
%TD*%
D13*
%TO.C,MX76*%
X299631624Y-163426947D03*
D12*
X294551624Y-163426947D03*
D11*
X295821624Y-160886947D03*
X302171624Y-158346947D03*
D12*
X304711624Y-163426947D03*
D14*
X292546624Y-160886947D03*
X305473624Y-158346947D03*
%TD*%
D16*
%TO.C,D112*%
X193427874Y-52171947D03*
D15*
X193427874Y-49671947D03*
D17*
X193427874Y-57471947D03*
D16*
X193427874Y-54971947D03*
%TD*%
D15*
%TO.C,D150*%
X136277874Y-106821947D03*
D16*
X136277874Y-109321947D03*
D17*
X136277874Y-114621947D03*
D16*
X136277874Y-112121947D03*
%TD*%
D15*
%TO.C,D15*%
X460127874Y-68721947D03*
D16*
X460127874Y-71221947D03*
D17*
X460127874Y-76521947D03*
D16*
X460127874Y-74021947D03*
%TD*%
D11*
%TO.C,MX170*%
X29121624Y-84686947D03*
D12*
X27851624Y-87226947D03*
D13*
X32931624Y-87226947D03*
D12*
X38011624Y-87226947D03*
D11*
X35471624Y-82146947D03*
D14*
X25846624Y-84686947D03*
X38773624Y-82146947D03*
%TD*%
D15*
%TO.C,D86*%
X269612568Y-87786098D03*
D16*
X269612568Y-90286098D03*
X269612568Y-93086098D03*
D17*
X269612568Y-95586098D03*
%TD*%
D11*
%TO.C,MX125*%
X206921624Y-158346947D03*
X200571624Y-160886947D03*
D12*
X199301624Y-163426947D03*
X209461624Y-163426947D03*
D13*
X204381624Y-163426947D03*
D14*
X197296624Y-160886947D03*
X210223624Y-158346947D03*
%TD*%
D15*
%TO.C,D201*%
X502940374Y-57540697D03*
D18*
X505440374Y-57540697D03*
D17*
X510740374Y-57540697D03*
D18*
X508240374Y-57540697D03*
%TD*%
D11*
%TO.C,MX52*%
X397421624Y-101196947D03*
D12*
X399961624Y-106276947D03*
D11*
X391071624Y-103736947D03*
D12*
X389801624Y-106276947D03*
D13*
X394881624Y-106276947D03*
D14*
X387796624Y-103736947D03*
X400723624Y-101196947D03*
%TD*%
D15*
%TO.C,D73*%
X307727874Y-106821947D03*
D16*
X307727874Y-109321947D03*
D17*
X307727874Y-114621947D03*
D16*
X307727874Y-112121947D03*
%TD*%
D12*
%TO.C,MX166*%
X95161624Y-144376947D03*
D13*
X90081624Y-144376947D03*
D11*
X92621624Y-139296947D03*
D12*
X85001624Y-144376947D03*
D11*
X86271624Y-141836947D03*
D14*
X82996624Y-141836947D03*
X95923624Y-139296947D03*
%TD*%
D11*
%TO.C,MX60*%
X340271624Y-120246947D03*
D13*
X337731624Y-125326947D03*
D12*
X332651624Y-125326947D03*
D11*
X333921624Y-122786947D03*
D12*
X342811624Y-125326947D03*
D14*
X330646624Y-122786947D03*
X343573624Y-120246947D03*
%TD*%
D11*
%TO.C,MX157*%
X67221624Y-103736947D03*
D12*
X76111624Y-106276947D03*
D13*
X71031624Y-106276947D03*
D12*
X65951624Y-106276947D03*
D11*
X73571624Y-101196947D03*
D14*
X63946624Y-103736947D03*
X76873624Y-101196947D03*
%TD*%
D12*
%TO.C,MX61*%
X332651624Y-144376947D03*
D11*
X340271624Y-139296947D03*
D12*
X342811624Y-144376947D03*
D11*
X333921624Y-141836947D03*
D13*
X337731624Y-144376947D03*
D14*
X330646624Y-141836947D03*
X343573624Y-139296947D03*
%TD*%
D16*
%TO.C,D75*%
X307727874Y-147421947D03*
D15*
X307727874Y-144921947D03*
D17*
X307727874Y-152721947D03*
D16*
X307727874Y-150221947D03*
%TD*%
D11*
%TO.C,MX121*%
X200571624Y-84686947D03*
D13*
X204381624Y-87226947D03*
D12*
X209461624Y-87226947D03*
X199301624Y-87226947D03*
D11*
X206921624Y-82146947D03*
D14*
X197296624Y-84686947D03*
X210223624Y-82146947D03*
%TD*%
D12*
%TO.C,MX152*%
X123101624Y-144376947D03*
D11*
X124371624Y-141836947D03*
X130721624Y-139296947D03*
D13*
X128181624Y-144376947D03*
D12*
X133261624Y-144376947D03*
D14*
X121096624Y-141836947D03*
X134023624Y-139296947D03*
%TD*%
D12*
%TO.C,MX62*%
X342811624Y-163426947D03*
D11*
X333921624Y-160886947D03*
D12*
X332651624Y-163426947D03*
D11*
X340271624Y-158346947D03*
D13*
X337731624Y-163426947D03*
D14*
X330646624Y-160886947D03*
X343573624Y-158346947D03*
%TD*%
D15*
%TO.C,D206*%
X302896624Y-152790697D03*
D18*
X300396624Y-152790697D03*
D17*
X295096624Y-152790697D03*
D18*
X297596624Y-152790697D03*
%TD*%
D16*
%TO.C,D133*%
X174377874Y-52171947D03*
D15*
X174377874Y-49671947D03*
D16*
X174377874Y-54971947D03*
D17*
X174377874Y-57471947D03*
%TD*%
D16*
%TO.C,D13*%
X517277874Y-166471947D03*
D15*
X517277874Y-163971947D03*
D16*
X517277874Y-169271947D03*
D17*
X517277874Y-171771947D03*
%TD*%
D12*
%TO.C,MX146*%
X104051624Y-163426947D03*
D13*
X109131624Y-163426947D03*
D11*
X111671624Y-158346947D03*
X105321624Y-160886947D03*
D12*
X114211624Y-163426947D03*
D14*
X102046624Y-160886947D03*
X114973624Y-158346947D03*
%TD*%
D13*
%TO.C,MX102*%
X223431624Y-125326947D03*
D11*
X219621624Y-122786947D03*
D12*
X218351624Y-125326947D03*
D11*
X225971624Y-120246947D03*
D12*
X228511624Y-125326947D03*
D14*
X216346624Y-122786947D03*
X229273624Y-120246947D03*
%TD*%
D16*
%TO.C,D126*%
X155327874Y-52171947D03*
D15*
X155327874Y-49671947D03*
D17*
X155327874Y-57471947D03*
D16*
X155327874Y-54971947D03*
%TD*%
D11*
%TO.C,MX41*%
X435521624Y-158346947D03*
D12*
X427901624Y-163426947D03*
D11*
X429171624Y-160886947D03*
D13*
X432981624Y-163426947D03*
D12*
X438061624Y-163426947D03*
D14*
X425896624Y-160886947D03*
X438823624Y-158346947D03*
%TD*%
D13*
%TO.C,MX133*%
X166281624Y-49126947D03*
D12*
X161201624Y-49126947D03*
D11*
X162471624Y-46586947D03*
X168821624Y-44046947D03*
D12*
X171361624Y-49126947D03*
D14*
X159196624Y-46586947D03*
X172123624Y-44046947D03*
%TD*%
D16*
%TO.C,D12*%
X517277874Y-147421947D03*
D15*
X517277874Y-144921947D03*
D17*
X517277874Y-152721947D03*
D16*
X517277874Y-150221947D03*
%TD*%
D13*
%TO.C,MX163*%
X90081624Y-87226947D03*
D12*
X95161624Y-87226947D03*
D11*
X86271624Y-84686947D03*
D12*
X85001624Y-87226947D03*
D11*
X92621624Y-82146947D03*
D14*
X82996624Y-84686947D03*
X95923624Y-82146947D03*
%TD*%
D16*
%TO.C,D105*%
X250577874Y-52171947D03*
D15*
X250577874Y-49671947D03*
D17*
X250577874Y-57471947D03*
D16*
X250577874Y-54971947D03*
%TD*%
D15*
%TO.C,D79*%
X326777874Y-87771947D03*
D16*
X326777874Y-90271947D03*
X326777874Y-93071947D03*
D17*
X326777874Y-95571947D03*
%TD*%
D15*
%TO.C,D148*%
X136277874Y-68721947D03*
D16*
X136277874Y-71221947D03*
X136277874Y-74021947D03*
D17*
X136277874Y-76521947D03*
%TD*%
D16*
%TO.C,D74*%
X307727874Y-128371947D03*
D15*
X307727874Y-125871947D03*
D16*
X307727874Y-131171947D03*
D17*
X307727874Y-133671947D03*
%TD*%
D16*
%TO.C,D166*%
X98177874Y-147421947D03*
D15*
X98177874Y-144921947D03*
D16*
X98177874Y-150221947D03*
D17*
X98177874Y-152721947D03*
%TD*%
D16*
%TO.C,D156*%
X79127874Y-90271947D03*
D15*
X79127874Y-87771947D03*
D16*
X79127874Y-93071947D03*
D17*
X79127874Y-95571947D03*
%TD*%
D11*
%TO.C,MX43*%
X378371624Y-63096947D03*
D13*
X375831624Y-68176947D03*
D12*
X380911624Y-68176947D03*
X370751624Y-68176947D03*
D11*
X372021624Y-65636947D03*
D14*
X368746624Y-65636947D03*
X381673624Y-63096947D03*
%TD*%
D15*
%TO.C,D149*%
X136277874Y-87771947D03*
D16*
X136277874Y-90271947D03*
D17*
X136277874Y-95571947D03*
D16*
X136277874Y-93071947D03*
%TD*%
D13*
%TO.C,MX171*%
X32931624Y-106276947D03*
D12*
X27851624Y-106276947D03*
D11*
X29121624Y-103736947D03*
D12*
X38011624Y-106276947D03*
D11*
X35471624Y-101196947D03*
D14*
X25846624Y-103736947D03*
X38773624Y-101196947D03*
%TD*%
D15*
%TO.C,D53*%
X402977874Y-125871947D03*
D16*
X402977874Y-128371947D03*
X402977874Y-131171947D03*
D17*
X402977874Y-133671947D03*
%TD*%
D15*
%TO.C,D30*%
X422027874Y-87771947D03*
D16*
X422027874Y-90271947D03*
X422027874Y-93071947D03*
D17*
X422027874Y-95571947D03*
%TD*%
D15*
%TO.C,D98*%
X231527874Y-49671947D03*
D16*
X231527874Y-52171947D03*
D17*
X231527874Y-57471947D03*
D16*
X231527874Y-54971947D03*
%TD*%
D15*
%TO.C,D39*%
X441077874Y-125871947D03*
D16*
X441077874Y-128371947D03*
X441077874Y-131171947D03*
D17*
X441077874Y-133671947D03*
%TD*%
D16*
%TO.C,D134*%
X174377874Y-71221947D03*
D15*
X174377874Y-68721947D03*
D16*
X174377874Y-74021947D03*
D17*
X174377874Y-76521947D03*
%TD*%
D11*
%TO.C,MX119*%
X206921624Y-44046947D03*
D12*
X199301624Y-49126947D03*
D13*
X204381624Y-49126947D03*
D11*
X200571624Y-46586947D03*
D12*
X209461624Y-49126947D03*
D14*
X197296624Y-46586947D03*
X210223624Y-44046947D03*
%TD*%
D16*
%TO.C,D176*%
X60077874Y-71221947D03*
D15*
X60077874Y-68721947D03*
D16*
X60077874Y-74021947D03*
D17*
X60077874Y-76521947D03*
%TD*%
D15*
%TO.C,D210*%
X179209124Y-134534447D03*
D18*
X181709124Y-134534447D03*
X184509124Y-134534447D03*
D17*
X187009124Y-134534447D03*
%TD*%
D11*
%TO.C,MX107*%
X238671624Y-84686947D03*
D12*
X247561624Y-87226947D03*
X237401624Y-87226947D03*
D11*
X245021624Y-82146947D03*
D13*
X242481624Y-87226947D03*
D14*
X235396624Y-84686947D03*
X248323624Y-82146947D03*
%TD*%
D11*
%TO.C,MX70*%
X302171624Y-44046947D03*
D12*
X294551624Y-49126947D03*
D11*
X295821624Y-46586947D03*
D12*
X304711624Y-49126947D03*
D13*
X299631624Y-49126947D03*
D14*
X292546624Y-46586947D03*
X305473624Y-44046947D03*
%TD*%
D11*
%TO.C,MX69*%
X352971624Y-160886947D03*
D13*
X356781624Y-163426947D03*
D12*
X351701624Y-163426947D03*
X361861624Y-163426947D03*
D11*
X359321624Y-158346947D03*
D14*
X349696624Y-160886947D03*
X362623624Y-158346947D03*
%TD*%
D13*
%TO.C,MX78*%
X318681624Y-68176947D03*
D12*
X323761624Y-68176947D03*
D11*
X321221624Y-63096947D03*
D12*
X313601624Y-68176947D03*
D11*
X314871624Y-65636947D03*
D14*
X311596624Y-65636947D03*
X324523624Y-63096947D03*
%TD*%
D15*
%TO.C,D158*%
X79127874Y-125871947D03*
D16*
X79127874Y-128371947D03*
X79127874Y-131171947D03*
D17*
X79127874Y-133671947D03*
%TD*%
D12*
%TO.C,MX173*%
X38011624Y-144376947D03*
D11*
X29121624Y-141836947D03*
D12*
X27851624Y-144376947D03*
D13*
X32931624Y-144376947D03*
D11*
X35471624Y-139296947D03*
D14*
X25846624Y-141836947D03*
X38773624Y-139296947D03*
%TD*%
D11*
%TO.C,MX145*%
X111671624Y-139296947D03*
X105321624Y-141836947D03*
D12*
X104051624Y-144376947D03*
X114211624Y-144376947D03*
D13*
X109131624Y-144376947D03*
D14*
X102046624Y-141836947D03*
X114973624Y-139296947D03*
%TD*%
D13*
%TO.C,MX100*%
X223431624Y-87226947D03*
D11*
X219621624Y-84686947D03*
D12*
X228511624Y-87226947D03*
D11*
X225971624Y-82146947D03*
D12*
X218351624Y-87226947D03*
D14*
X216346624Y-84686947D03*
X229273624Y-82146947D03*
%TD*%
D11*
%TO.C,MX28*%
X416471624Y-44046947D03*
D12*
X408851624Y-49126947D03*
D11*
X410121624Y-46586947D03*
D12*
X419011624Y-49126947D03*
D13*
X413931624Y-49126947D03*
D14*
X406846624Y-46586947D03*
X419773624Y-44046947D03*
%TD*%
D16*
%TO.C,D69*%
X364877874Y-166471947D03*
D15*
X364877874Y-163971947D03*
D17*
X364877874Y-171771947D03*
D16*
X364877874Y-169271947D03*
%TD*%
D13*
%TO.C,MX147*%
X128181624Y-49126947D03*
D11*
X124371624Y-46586947D03*
D12*
X123101624Y-49126947D03*
X133261624Y-49126947D03*
D11*
X130721624Y-44046947D03*
D14*
X121096624Y-46586947D03*
X134023624Y-44046947D03*
%TD*%
D11*
%TO.C,MX8*%
X511721624Y-63096947D03*
X505371624Y-65636947D03*
D12*
X514261624Y-68176947D03*
D13*
X509181624Y-68176947D03*
D12*
X504101624Y-68176947D03*
D14*
X502096624Y-65636947D03*
X515023624Y-63096947D03*
%TD*%
D15*
%TO.C,D99*%
X231527874Y-68721947D03*
D16*
X231527874Y-71221947D03*
X231527874Y-74021947D03*
D17*
X231527874Y-76521947D03*
%TD*%
D11*
%TO.C,MX34*%
X416471624Y-158346947D03*
D12*
X419011624Y-163426947D03*
D11*
X410121624Y-160886947D03*
D13*
X413931624Y-163426947D03*
D12*
X408851624Y-163426947D03*
D14*
X406846624Y-160886947D03*
X419773624Y-158346947D03*
%TD*%
D16*
%TO.C,D144*%
X117227874Y-128371947D03*
D15*
X117227874Y-125871947D03*
D16*
X117227874Y-131171947D03*
D17*
X117227874Y-133671947D03*
%TD*%
D12*
%TO.C,MX97*%
X285646318Y-163441098D03*
X275486318Y-163441098D03*
D11*
X276756318Y-160901098D03*
D13*
X280566318Y-163441098D03*
D11*
X283106318Y-158361098D03*
D14*
X273481318Y-160901098D03*
X286408318Y-158361098D03*
%TD*%
D16*
%TO.C,D109*%
X250577874Y-128371947D03*
D15*
X250577874Y-125871947D03*
D16*
X250577874Y-131171947D03*
D17*
X250577874Y-133671947D03*
%TD*%
D15*
%TO.C,D7*%
X517277874Y-49671947D03*
D16*
X517277874Y-52171947D03*
X517277874Y-54971947D03*
D17*
X517277874Y-57471947D03*
%TD*%
D15*
%TO.C,D14*%
X460127874Y-49671947D03*
D16*
X460127874Y-52171947D03*
D17*
X460127874Y-57471947D03*
D16*
X460127874Y-54971947D03*
%TD*%
%TO.C,D26*%
X479177874Y-147421947D03*
D15*
X479177874Y-144921947D03*
D17*
X479177874Y-152721947D03*
D16*
X479177874Y-150221947D03*
%TD*%
D12*
%TO.C,MX111*%
X237401624Y-163426947D03*
X247561624Y-163426947D03*
D11*
X245021624Y-158346947D03*
D13*
X242481624Y-163426947D03*
D11*
X238671624Y-160886947D03*
D14*
X235396624Y-160886947D03*
X248323624Y-158346947D03*
%TD*%
D15*
%TO.C,D71*%
X307727874Y-68721947D03*
D16*
X307727874Y-71221947D03*
X307727874Y-74021947D03*
D17*
X307727874Y-76521947D03*
%TD*%
D15*
%TO.C,D143*%
X117227874Y-106821947D03*
D16*
X117227874Y-109321947D03*
D17*
X117227874Y-114621947D03*
D16*
X117227874Y-112121947D03*
%TD*%
D11*
%TO.C,MX110*%
X238671624Y-141836947D03*
D12*
X247561624Y-144376947D03*
D13*
X242481624Y-144376947D03*
D11*
X245021624Y-139296947D03*
D12*
X237401624Y-144376947D03*
D14*
X235396624Y-141836947D03*
X248323624Y-139296947D03*
%TD*%
D11*
%TO.C,MX56*%
X333921624Y-46586947D03*
D12*
X332651624Y-49126947D03*
D11*
X340271624Y-44046947D03*
D12*
X342811624Y-49126947D03*
D13*
X337731624Y-49126947D03*
D14*
X330646624Y-46586947D03*
X343573624Y-44046947D03*
%TD*%
D16*
%TO.C,D118*%
X193427874Y-166471947D03*
D15*
X193427874Y-163971947D03*
D16*
X193427874Y-169271947D03*
D17*
X193427874Y-171771947D03*
%TD*%
D15*
%TO.C,D211*%
X161746624Y-114690697D03*
D18*
X164246624Y-114690697D03*
D17*
X169546624Y-114690697D03*
D18*
X167046624Y-114690697D03*
%TD*%
D11*
%TO.C,MX58*%
X340271624Y-82146947D03*
D13*
X337731624Y-87226947D03*
D12*
X332651624Y-87226947D03*
X342811624Y-87226947D03*
D11*
X333921624Y-84686947D03*
D14*
X330646624Y-84686947D03*
X343573624Y-82146947D03*
%TD*%
D16*
%TO.C,D45*%
X383927874Y-109321947D03*
D15*
X383927874Y-106821947D03*
D17*
X383927874Y-114621947D03*
D16*
X383927874Y-112121947D03*
%TD*%
%TO.C,D60*%
X345827874Y-128371947D03*
D15*
X345827874Y-125871947D03*
D17*
X345827874Y-133671947D03*
D16*
X345827874Y-131171947D03*
%TD*%
%TO.C,D120*%
X212477874Y-71221947D03*
D15*
X212477874Y-68721947D03*
D16*
X212477874Y-74021947D03*
D17*
X212477874Y-76521947D03*
%TD*%
D12*
%TO.C,MX180*%
X57061624Y-144376947D03*
D13*
X51981624Y-144376947D03*
D12*
X46901624Y-144376947D03*
D11*
X48171624Y-141836947D03*
X54521624Y-139296947D03*
D14*
X44896624Y-141836947D03*
X57823624Y-139296947D03*
%TD*%
D15*
%TO.C,D159*%
X79127874Y-144921947D03*
D16*
X79127874Y-147421947D03*
D17*
X79127874Y-152721947D03*
D16*
X79127874Y-150221947D03*
%TD*%
D15*
%TO.C,D10*%
X517277874Y-106821947D03*
D16*
X517277874Y-109321947D03*
X517277874Y-112121947D03*
D17*
X517277874Y-114621947D03*
%TD*%
D16*
%TO.C,D103*%
X231527874Y-147421947D03*
D15*
X231527874Y-144921947D03*
D17*
X231527874Y-152721947D03*
D16*
X231527874Y-150221947D03*
%TD*%
D11*
%TO.C,MX169*%
X29121624Y-65636947D03*
X35471624Y-63096947D03*
D12*
X38011624Y-68176947D03*
D13*
X32931624Y-68176947D03*
D12*
X27851624Y-68176947D03*
D14*
X25846624Y-65636947D03*
X38773624Y-63096947D03*
%TD*%
D15*
%TO.C,D116*%
X193427874Y-125871947D03*
D16*
X193427874Y-128371947D03*
D17*
X193427874Y-133671947D03*
D16*
X193427874Y-131171947D03*
%TD*%
%TO.C,D25*%
X479177874Y-128371947D03*
D15*
X479177874Y-125871947D03*
D16*
X479177874Y-131171947D03*
D17*
X479177874Y-133671947D03*
%TD*%
D11*
%TO.C,MX136*%
X168821624Y-101196947D03*
D13*
X166281624Y-106276947D03*
D12*
X161201624Y-106276947D03*
D11*
X162471624Y-103736947D03*
D12*
X171361624Y-106276947D03*
D14*
X159196624Y-103736947D03*
X172123624Y-101196947D03*
%TD*%
D16*
%TO.C,D145*%
X117227874Y-147421947D03*
D15*
X117227874Y-144921947D03*
D17*
X117227874Y-152721947D03*
D16*
X117227874Y-150221947D03*
%TD*%
D12*
%TO.C,MX2*%
X495211624Y-87226947D03*
D11*
X486321624Y-84686947D03*
D12*
X485051624Y-87226947D03*
D11*
X492671624Y-82146947D03*
D13*
X490131624Y-87226947D03*
D14*
X483046624Y-84686947D03*
X495973624Y-82146947D03*
%TD*%
D11*
%TO.C,MX156*%
X73571624Y-82146947D03*
D12*
X76111624Y-87226947D03*
X65951624Y-87226947D03*
D13*
X71031624Y-87226947D03*
D11*
X67221624Y-84686947D03*
D14*
X63946624Y-84686947D03*
X76873624Y-82146947D03*
%TD*%
D11*
%TO.C,MX68*%
X352971624Y-141836947D03*
D12*
X351701624Y-144376947D03*
X361861624Y-144376947D03*
D13*
X356781624Y-144376947D03*
D11*
X359321624Y-139296947D03*
D14*
X349696624Y-141836947D03*
X362623624Y-139296947D03*
%TD*%
D15*
%TO.C,D50*%
X402977874Y-68721947D03*
D16*
X402977874Y-71221947D03*
D17*
X402977874Y-76521947D03*
D16*
X402977874Y-74021947D03*
%TD*%
%TO.C,D152*%
X136277874Y-147234447D03*
D15*
X136277874Y-144734447D03*
D17*
X136277874Y-152534447D03*
D16*
X136277874Y-150034447D03*
%TD*%
%TO.C,D175*%
X60077874Y-52171947D03*
D15*
X60077874Y-49671947D03*
D16*
X60077874Y-54971947D03*
D17*
X60077874Y-57471947D03*
%TD*%
D15*
%TO.C,D77*%
X326777874Y-49671947D03*
D16*
X326777874Y-52171947D03*
X326777874Y-54971947D03*
D17*
X326777874Y-57471947D03*
%TD*%
D15*
%TO.C,D138*%
X174377874Y-144921947D03*
D16*
X174377874Y-147421947D03*
D17*
X174377874Y-152721947D03*
D16*
X174377874Y-150221947D03*
%TD*%
D12*
%TO.C,MX73*%
X294551624Y-106276947D03*
D11*
X302171624Y-101196947D03*
D12*
X304711624Y-106276947D03*
D13*
X299631624Y-106276947D03*
D11*
X295821624Y-103736947D03*
D14*
X292546624Y-103736947D03*
X305473624Y-101196947D03*
%TD*%
D12*
%TO.C,MX84*%
X256436318Y-49141098D03*
D11*
X257706318Y-46601098D03*
D13*
X261516318Y-49141098D03*
D12*
X266596318Y-49141098D03*
D11*
X264056318Y-44061098D03*
D14*
X254431318Y-46601098D03*
X267358318Y-44061098D03*
%TD*%
D11*
%TO.C,MX135*%
X168821624Y-82146947D03*
D12*
X161201624Y-87226947D03*
X171361624Y-87226947D03*
D13*
X166281624Y-87226947D03*
D11*
X162471624Y-84686947D03*
D14*
X159196624Y-84686947D03*
X172123624Y-82146947D03*
%TD*%
D11*
%TO.C,MX114*%
X181521624Y-84686947D03*
D12*
X190411624Y-87226947D03*
D11*
X187871624Y-82146947D03*
D13*
X185331624Y-87226947D03*
D12*
X180251624Y-87226947D03*
D14*
X178246624Y-84686947D03*
X191173624Y-82146947D03*
%TD*%
D15*
%TO.C,D43*%
X383927874Y-68721947D03*
D16*
X383927874Y-71221947D03*
D17*
X383927874Y-76521947D03*
D16*
X383927874Y-74021947D03*
%TD*%
%TO.C,D17*%
X460127874Y-109321947D03*
D15*
X460127874Y-106821947D03*
D16*
X460127874Y-112121947D03*
D17*
X460127874Y-114621947D03*
%TD*%
D13*
%TO.C,MX168*%
X32931624Y-49126947D03*
D11*
X29121624Y-46586947D03*
D12*
X27851624Y-49126947D03*
X38011624Y-49126947D03*
D11*
X35471624Y-44046947D03*
D14*
X25846624Y-46586947D03*
X38773624Y-44046947D03*
%TD*%
D16*
%TO.C,D87*%
X269612568Y-109336098D03*
D15*
X269612568Y-106836098D03*
D17*
X269612568Y-114636098D03*
D16*
X269612568Y-112136098D03*
%TD*%
D22*
%TO.C,U2*%
X510812568Y-25155697D03*
D23*
X510812568Y-27695697D03*
X510812568Y-30235697D03*
X510812568Y-32775697D03*
%TD*%
D11*
%TO.C,MX177*%
X48171624Y-84686947D03*
X54521624Y-82146947D03*
D12*
X57061624Y-87226947D03*
D13*
X51981624Y-87226947D03*
D12*
X46901624Y-87226947D03*
D14*
X44896624Y-84686947D03*
X57823624Y-82146947D03*
%TD*%
D16*
%TO.C,D37*%
X441077874Y-90271947D03*
D15*
X441077874Y-87771947D03*
D16*
X441077874Y-93071947D03*
D17*
X441077874Y-95571947D03*
%TD*%
D11*
%TO.C,MX98*%
X225971624Y-44046947D03*
X219621624Y-46586947D03*
D12*
X218351624Y-49126947D03*
D13*
X223431624Y-49126947D03*
D12*
X228511624Y-49126947D03*
D14*
X216346624Y-46586947D03*
X229273624Y-44046947D03*
%TD*%
D15*
%TO.C,D163*%
X98177874Y-87771947D03*
D16*
X98177874Y-90271947D03*
D17*
X98177874Y-95571947D03*
D16*
X98177874Y-93071947D03*
%TD*%
%TO.C,D29*%
X422027874Y-71221947D03*
D15*
X422027874Y-68721947D03*
D17*
X422027874Y-76521947D03*
D16*
X422027874Y-74021947D03*
%TD*%
D13*
%TO.C,MX174*%
X32931624Y-163426947D03*
D12*
X38011624Y-163426947D03*
X27851624Y-163426947D03*
D11*
X29121624Y-160886947D03*
X35471624Y-158346947D03*
D14*
X25846624Y-160886947D03*
X38773624Y-158346947D03*
%TD*%
D15*
%TO.C,D205*%
X352246624Y-132946947D03*
D18*
X354746624Y-132946947D03*
D17*
X360046624Y-132946947D03*
D18*
X357546624Y-132946947D03*
%TD*%
D15*
%TO.C,D18*%
X460127874Y-125871947D03*
D16*
X460127874Y-128371947D03*
D17*
X460127874Y-133671947D03*
D16*
X460127874Y-131171947D03*
%TD*%
%TO.C,D170*%
X41027874Y-90271947D03*
D15*
X41027874Y-87771947D03*
D16*
X41027874Y-93071947D03*
D17*
X41027874Y-95571947D03*
%TD*%
D16*
%TO.C,D114*%
X193427874Y-90271947D03*
D15*
X193427874Y-87771947D03*
D17*
X193427874Y-95571947D03*
D16*
X193427874Y-93071947D03*
%TD*%
D18*
%TO.C,D204*%
X392846624Y-115484447D03*
D15*
X390346624Y-115484447D03*
D17*
X398146624Y-115484447D03*
D18*
X395646624Y-115484447D03*
%TD*%
D16*
%TO.C,D154*%
X79127874Y-52171947D03*
D15*
X79127874Y-49671947D03*
D17*
X79127874Y-57471947D03*
D16*
X79127874Y-54971947D03*
%TD*%
D13*
%TO.C,MX38*%
X432981624Y-106276947D03*
D11*
X429171624Y-103736947D03*
D12*
X438061624Y-106276947D03*
X427901624Y-106276947D03*
D11*
X435521624Y-101196947D03*
D14*
X425896624Y-103736947D03*
X438823624Y-101196947D03*
%TD*%
D13*
%TO.C,MX64*%
X356781624Y-68176947D03*
D12*
X361861624Y-68176947D03*
D11*
X359321624Y-63096947D03*
X352971624Y-65636947D03*
D12*
X351701624Y-68176947D03*
D14*
X349696624Y-65636947D03*
X362623624Y-63096947D03*
%TD*%
D15*
%TO.C,D162*%
X98177874Y-68721947D03*
D16*
X98177874Y-71221947D03*
D17*
X98177874Y-76521947D03*
D16*
X98177874Y-74021947D03*
%TD*%
D12*
%TO.C,MX94*%
X275486318Y-106291098D03*
D11*
X283106318Y-101211098D03*
D13*
X280566318Y-106291098D03*
D11*
X276756318Y-103751098D03*
D12*
X285646318Y-106291098D03*
D14*
X273481318Y-103751098D03*
X286408318Y-101211098D03*
%TD*%
D18*
%TO.C,D203*%
X427771624Y-95640697D03*
D15*
X425271624Y-95640697D03*
D17*
X433071624Y-95640697D03*
D18*
X430571624Y-95640697D03*
%TD*%
D16*
%TO.C,D68*%
X364877874Y-147421947D03*
D15*
X364877874Y-144921947D03*
D16*
X364877874Y-150221947D03*
D17*
X364877874Y-152721947D03*
%TD*%
D15*
%TO.C,D124*%
X212477874Y-144921947D03*
D16*
X212477874Y-147421947D03*
D17*
X212477874Y-152721947D03*
D16*
X212477874Y-150221947D03*
%TD*%
D15*
%TO.C,D21*%
X479177874Y-49671947D03*
D16*
X479177874Y-52171947D03*
D17*
X479177874Y-57471947D03*
D16*
X479177874Y-54971947D03*
%TD*%
%TO.C,D169*%
X41027874Y-71221947D03*
D15*
X41027874Y-68721947D03*
D16*
X41027874Y-74021947D03*
D17*
X41027874Y-76521947D03*
%TD*%
D15*
%TO.C,D127*%
X155327874Y-68721947D03*
D16*
X155327874Y-71221947D03*
D17*
X155327874Y-76521947D03*
D16*
X155327874Y-74021947D03*
%TD*%
D13*
%TO.C,MX106*%
X242481624Y-68176947D03*
D11*
X238671624Y-65636947D03*
D12*
X247561624Y-68176947D03*
D11*
X245021624Y-63096947D03*
D12*
X237401624Y-68176947D03*
D14*
X235396624Y-65636947D03*
X248323624Y-63096947D03*
%TD*%
D16*
%TO.C,D97*%
X288662568Y-166486098D03*
D15*
X288662568Y-163986098D03*
D17*
X288662568Y-171786098D03*
D16*
X288662568Y-169286098D03*
%TD*%
D15*
%TO.C,D173*%
X41027874Y-144921947D03*
D16*
X41027874Y-147421947D03*
X41027874Y-150221947D03*
D17*
X41027874Y-152721947D03*
%TD*%
D13*
%TO.C,MX104*%
X223431624Y-163426947D03*
D11*
X219621624Y-160886947D03*
X225971624Y-158346947D03*
D12*
X228511624Y-163426947D03*
X218351624Y-163426947D03*
D14*
X216346624Y-160886947D03*
X229273624Y-158346947D03*
%TD*%
D13*
%TO.C,MX29*%
X413931624Y-68176947D03*
D11*
X416471624Y-63096947D03*
D12*
X408851624Y-68176947D03*
D11*
X410121624Y-65636947D03*
D12*
X419011624Y-68176947D03*
D14*
X406846624Y-65636947D03*
X419773624Y-63096947D03*
%TD*%
D16*
%TO.C,D151*%
X136277874Y-128371947D03*
D15*
X136277874Y-125871947D03*
D16*
X136277874Y-131171947D03*
D17*
X136277874Y-133671947D03*
%TD*%
D15*
%TO.C,D41*%
X441077874Y-163971947D03*
D16*
X441077874Y-166471947D03*
X441077874Y-169271947D03*
D17*
X441077874Y-171771947D03*
%TD*%
D15*
%TO.C,D207*%
X276840374Y-171840697D03*
D18*
X279340374Y-171840697D03*
D17*
X284640374Y-171840697D03*
D18*
X282140374Y-171840697D03*
%TD*%
D11*
%TO.C,MX0*%
X486321624Y-46586947D03*
D13*
X490131624Y-49126947D03*
D12*
X485051624Y-49126947D03*
X495211624Y-49126947D03*
D11*
X492671624Y-44046947D03*
D14*
X483046624Y-46586947D03*
X495973624Y-44046947D03*
%TD*%
D16*
%TO.C,D141*%
X117227874Y-71221947D03*
D15*
X117227874Y-68721947D03*
D16*
X117227874Y-74021947D03*
D17*
X117227874Y-76521947D03*
%TD*%
D18*
%TO.C,D208*%
X258702874Y-171840697D03*
D15*
X256202874Y-171840697D03*
D18*
X261502874Y-171840697D03*
D17*
X264002874Y-171840697D03*
%TD*%
D11*
%TO.C,MX19*%
X454571624Y-139296947D03*
D13*
X452031624Y-144376947D03*
D12*
X457111624Y-144376947D03*
X446951624Y-144376947D03*
D11*
X448221624Y-141836947D03*
D14*
X444946624Y-141836947D03*
X457873624Y-139296947D03*
%TD*%
D15*
%TO.C,D58*%
X345827874Y-87771947D03*
D16*
X345827874Y-90271947D03*
D17*
X345827874Y-95571947D03*
D16*
X345827874Y-93071947D03*
%TD*%
%TO.C,D110*%
X250577874Y-147421947D03*
D15*
X250577874Y-144921947D03*
D17*
X250577874Y-152721947D03*
D16*
X250577874Y-150221947D03*
%TD*%
D11*
%TO.C,MX39*%
X435521624Y-120246947D03*
D13*
X432981624Y-125326947D03*
D12*
X438061624Y-125326947D03*
D11*
X429171624Y-122786947D03*
D12*
X427901624Y-125326947D03*
D14*
X425896624Y-122786947D03*
X438823624Y-120246947D03*
%TD*%
D16*
%TO.C,D34*%
X422027874Y-166471947D03*
D15*
X422027874Y-163971947D03*
D16*
X422027874Y-169271947D03*
D17*
X422027874Y-171771947D03*
%TD*%
D12*
%TO.C,MX27*%
X476161624Y-163426947D03*
D11*
X467271624Y-160886947D03*
D12*
X466001624Y-163426947D03*
D11*
X473621624Y-158346947D03*
D13*
X471081624Y-163426947D03*
D14*
X463996624Y-160886947D03*
X476923624Y-158346947D03*
%TD*%
D12*
%TO.C,MX143*%
X104051624Y-106276947D03*
X114211624Y-106276947D03*
D11*
X105321624Y-103736947D03*
X111671624Y-101196947D03*
D13*
X109131624Y-106276947D03*
D14*
X102046624Y-103736947D03*
X114973624Y-101196947D03*
%TD*%
D13*
%TO.C,MX128*%
X147231624Y-87226947D03*
D12*
X142151624Y-87226947D03*
X152311624Y-87226947D03*
D11*
X149771624Y-82146947D03*
X143421624Y-84686947D03*
D14*
X140146624Y-84686947D03*
X153073624Y-82146947D03*
%TD*%
D16*
%TO.C,D20*%
X460127874Y-166471947D03*
D15*
X460127874Y-163971947D03*
D17*
X460127874Y-171771947D03*
D16*
X460127874Y-169271947D03*
%TD*%
D13*
%TO.C,MX118*%
X185331624Y-163426947D03*
D11*
X187871624Y-158346947D03*
D12*
X180251624Y-163426947D03*
X190411624Y-163426947D03*
D11*
X181521624Y-160886947D03*
D14*
X178246624Y-160886947D03*
X191173624Y-158346947D03*
%TD*%
D16*
%TO.C,D135*%
X174377874Y-90271947D03*
D15*
X174377874Y-87771947D03*
D17*
X174377874Y-95571947D03*
D16*
X174377874Y-93071947D03*
%TD*%
D11*
%TO.C,MX172*%
X35471624Y-120246947D03*
D12*
X38011624Y-125326947D03*
X27851624Y-125326947D03*
D11*
X29121624Y-122786947D03*
D13*
X32931624Y-125326947D03*
D14*
X25846624Y-122786947D03*
X38773624Y-120246947D03*
%TD*%
D15*
%TO.C,D119*%
X212477874Y-49671947D03*
D16*
X212477874Y-52171947D03*
X212477874Y-54971947D03*
D17*
X212477874Y-57471947D03*
%TD*%
D11*
%TO.C,MX45*%
X378371624Y-101196947D03*
X372021624Y-103736947D03*
D12*
X380911624Y-106276947D03*
D13*
X375831624Y-106276947D03*
D12*
X370751624Y-106276947D03*
D14*
X368746624Y-103736947D03*
X381673624Y-101196947D03*
%TD*%
D13*
%TO.C,MX89*%
X261516318Y-144391098D03*
D12*
X256436318Y-144391098D03*
D11*
X264056318Y-139311098D03*
X257706318Y-141851098D03*
D12*
X266596318Y-144391098D03*
D14*
X254431318Y-141851098D03*
X267358318Y-139311098D03*
%TD*%
D13*
%TO.C,MX57*%
X337731624Y-68176947D03*
D11*
X333921624Y-65636947D03*
X340271624Y-63096947D03*
D12*
X342811624Y-68176947D03*
X332651624Y-68176947D03*
D14*
X330646624Y-65636947D03*
X343573624Y-63096947D03*
%TD*%
D11*
%TO.C,MX67*%
X359321624Y-120246947D03*
X352971624Y-122786947D03*
D12*
X351701624Y-125326947D03*
X361861624Y-125326947D03*
D13*
X356781624Y-125326947D03*
D14*
X349696624Y-122786947D03*
X362623624Y-120246947D03*
%TD*%
D15*
%TO.C,D57*%
X345827874Y-68721947D03*
D16*
X345827874Y-71221947D03*
X345827874Y-74021947D03*
D17*
X345827874Y-76521947D03*
%TD*%
D12*
%TO.C,MX9*%
X514261624Y-87226947D03*
D11*
X505371624Y-84686947D03*
X511721624Y-82146947D03*
D12*
X504101624Y-87226947D03*
D13*
X509181624Y-87226947D03*
D14*
X502096624Y-84686947D03*
X515023624Y-82146947D03*
%TD*%
D15*
%TO.C,D88*%
X269612568Y-125886098D03*
D16*
X269612568Y-128386098D03*
X269612568Y-131186098D03*
D17*
X269612568Y-133686098D03*
%TD*%
D13*
%TO.C,MX175*%
X51981624Y-49126947D03*
D12*
X46901624Y-49126947D03*
X57061624Y-49126947D03*
D11*
X54521624Y-44046947D03*
X48171624Y-46586947D03*
D14*
X44896624Y-46586947D03*
X57823624Y-44046947D03*
%TD*%
D11*
%TO.C,MX22*%
X467271624Y-65636947D03*
D13*
X471081624Y-68176947D03*
D12*
X476161624Y-68176947D03*
D11*
X473621624Y-63096947D03*
D12*
X466001624Y-68176947D03*
D14*
X463996624Y-65636947D03*
X476923624Y-63096947D03*
%TD*%
D16*
%TO.C,D100*%
X231527874Y-90271947D03*
D15*
X231527874Y-87771947D03*
D16*
X231527874Y-93071947D03*
D17*
X231527874Y-95571947D03*
%TD*%
D15*
%TO.C,D128*%
X155327874Y-87771947D03*
D16*
X155327874Y-90271947D03*
X155327874Y-93071947D03*
D17*
X155327874Y-95571947D03*
%TD*%
D13*
%TO.C,MX31*%
X413931624Y-106276947D03*
D12*
X408851624Y-106276947D03*
D11*
X416471624Y-101196947D03*
X410121624Y-103736947D03*
D12*
X419011624Y-106276947D03*
D14*
X406846624Y-103736947D03*
X419773624Y-101196947D03*
%TD*%
D15*
%TO.C,D66*%
X364877874Y-106821947D03*
D16*
X364877874Y-109321947D03*
D17*
X364877874Y-114621947D03*
D16*
X364877874Y-112121947D03*
%TD*%
%TO.C,D56*%
X345827874Y-52171947D03*
D15*
X345827874Y-49671947D03*
D17*
X345827874Y-57471947D03*
D16*
X345827874Y-54971947D03*
%TD*%
D11*
%TO.C,MX123*%
X206921624Y-120246947D03*
D12*
X209461624Y-125326947D03*
X199301624Y-125326947D03*
D13*
X204381624Y-125326947D03*
D11*
X200571624Y-122786947D03*
D14*
X197296624Y-122786947D03*
X210223624Y-120246947D03*
%TD*%
D15*
%TO.C,D46*%
X383927874Y-125871947D03*
D16*
X383927874Y-128371947D03*
D17*
X383927874Y-133671947D03*
D16*
X383927874Y-131171947D03*
%TD*%
D15*
%TO.C,D180*%
X60077874Y-144921947D03*
D16*
X60077874Y-147421947D03*
D17*
X60077874Y-152721947D03*
D16*
X60077874Y-150221947D03*
%TD*%
%TO.C,D42*%
X383927874Y-52171947D03*
D15*
X383927874Y-49671947D03*
D16*
X383927874Y-54971947D03*
D17*
X383927874Y-57471947D03*
%TD*%
D11*
%TO.C,MX85*%
X264056318Y-63111098D03*
X257706318Y-65651098D03*
D12*
X266596318Y-68191098D03*
X256436318Y-68191098D03*
D13*
X261516318Y-68191098D03*
D14*
X254431318Y-65651098D03*
X267358318Y-63111098D03*
%TD*%
D13*
%TO.C,MX160*%
X71031624Y-163426947D03*
D11*
X73571624Y-158346947D03*
X67221624Y-160886947D03*
D12*
X65951624Y-163426947D03*
X76111624Y-163426947D03*
D14*
X63946624Y-160886947D03*
X76873624Y-158346947D03*
%TD*%
D12*
%TO.C,MX26*%
X466001624Y-144376947D03*
X476161624Y-144376947D03*
D11*
X467271624Y-141836947D03*
X473621624Y-139296947D03*
D13*
X471081624Y-144376947D03*
D14*
X463996624Y-141836947D03*
X476923624Y-139296947D03*
%TD*%
D15*
%TO.C,D61*%
X345827874Y-144921947D03*
D16*
X345827874Y-147421947D03*
X345827874Y-150221947D03*
D17*
X345827874Y-152721947D03*
%TD*%
D16*
%TO.C,D81*%
X326777874Y-128184447D03*
D15*
X326777874Y-125684447D03*
D16*
X326777874Y-130984447D03*
D17*
X326777874Y-133484447D03*
%TD*%
D15*
%TO.C,D44*%
X383927874Y-87771947D03*
D16*
X383927874Y-90271947D03*
X383927874Y-93071947D03*
D17*
X383927874Y-95571947D03*
%TD*%
D12*
%TO.C,MX96*%
X285646318Y-144391098D03*
D11*
X276756318Y-141851098D03*
X283106318Y-139311098D03*
D12*
X275486318Y-144391098D03*
D13*
X280566318Y-144391098D03*
D14*
X273481318Y-141851098D03*
X286408318Y-139311098D03*
%TD*%
D16*
%TO.C,D160*%
X79127874Y-166471947D03*
D15*
X79127874Y-163971947D03*
D16*
X79127874Y-169271947D03*
D17*
X79127874Y-171771947D03*
%TD*%
D12*
%TO.C,MX16*%
X446951624Y-87226947D03*
D11*
X454571624Y-82146947D03*
D13*
X452031624Y-87226947D03*
D12*
X457111624Y-87226947D03*
D11*
X448221624Y-84686947D03*
D14*
X444946624Y-84686947D03*
X457873624Y-82146947D03*
%TD*%
D15*
%TO.C,D107*%
X250577874Y-87771947D03*
D16*
X250577874Y-90271947D03*
X250577874Y-93071947D03*
D17*
X250577874Y-95571947D03*
%TD*%
D12*
%TO.C,MX179*%
X46901624Y-125326947D03*
D11*
X54521624Y-120246947D03*
D12*
X57061624Y-125326947D03*
D11*
X48171624Y-122786947D03*
D13*
X51981624Y-125326947D03*
D14*
X44896624Y-122786947D03*
X57823624Y-120246947D03*
%TD*%
D16*
%TO.C,D9*%
X517277874Y-90271947D03*
D15*
X517277874Y-87771947D03*
D17*
X517277874Y-95571947D03*
D16*
X517277874Y-93071947D03*
%TD*%
D15*
%TO.C,D51*%
X402977874Y-87771947D03*
D16*
X402977874Y-90271947D03*
X402977874Y-93071947D03*
D17*
X402977874Y-95571947D03*
%TD*%
D16*
%TO.C,D11*%
X517277874Y-128371947D03*
D15*
X517277874Y-125871947D03*
D16*
X517277874Y-131171947D03*
D17*
X517277874Y-133671947D03*
%TD*%
D11*
%TO.C,MX42*%
X372021624Y-46586947D03*
D13*
X375831624Y-49126947D03*
D12*
X370751624Y-49126947D03*
D11*
X378371624Y-44046947D03*
D12*
X380911624Y-49126947D03*
D14*
X368746624Y-46586947D03*
X381673624Y-44046947D03*
%TD*%
D13*
%TO.C,MX83*%
X318681624Y-163426947D03*
D11*
X321221624Y-158346947D03*
D12*
X323761624Y-163426947D03*
X313601624Y-163426947D03*
D11*
X314871624Y-160886947D03*
D14*
X311596624Y-160886947D03*
X324523624Y-158346947D03*
%TD*%
D15*
%TO.C,D167*%
X98177874Y-163971947D03*
D16*
X98177874Y-166471947D03*
D17*
X98177874Y-171771947D03*
D16*
X98177874Y-169271947D03*
%TD*%
D12*
%TO.C,MX103*%
X218351624Y-144376947D03*
D11*
X219621624Y-141836947D03*
D13*
X223431624Y-144376947D03*
D11*
X225971624Y-139296947D03*
D12*
X228511624Y-144376947D03*
D14*
X216346624Y-141836947D03*
X229273624Y-139296947D03*
%TD*%
D13*
%TO.C,MX139*%
X166281624Y-163426947D03*
D12*
X161201624Y-163426947D03*
X171361624Y-163426947D03*
D11*
X168821624Y-158346947D03*
X162471624Y-160886947D03*
D14*
X159196624Y-160886947D03*
X172123624Y-158346947D03*
%TD*%
D11*
%TO.C,MX138*%
X162471624Y-141836947D03*
D12*
X161201624Y-144376947D03*
D11*
X168821624Y-139296947D03*
D13*
X166281624Y-144376947D03*
D12*
X171361624Y-144376947D03*
D14*
X159196624Y-141836947D03*
X172123624Y-139296947D03*
%TD*%
D15*
%TO.C,D85*%
X269612568Y-68736098D03*
D16*
X269612568Y-71236098D03*
D17*
X269612568Y-76536098D03*
D16*
X269612568Y-74036098D03*
%TD*%
%TO.C,D142*%
X117227874Y-90271947D03*
D15*
X117227874Y-87771947D03*
D16*
X117227874Y-93071947D03*
D17*
X117227874Y-95571947D03*
%TD*%
D19*
%TO.C,R1*%
X494461318Y-34521947D03*
X484301318Y-34521947D03*
%TD*%
D13*
%TO.C,MX137*%
X166281624Y-125326947D03*
D12*
X171361624Y-125326947D03*
D11*
X168821624Y-120246947D03*
D12*
X161201624Y-125326947D03*
D11*
X162471624Y-122786947D03*
D14*
X159196624Y-122786947D03*
X172123624Y-120246947D03*
%TD*%
D15*
%TO.C,D6*%
X498227874Y-163971947D03*
D16*
X498227874Y-166471947D03*
D17*
X498227874Y-171771947D03*
D16*
X498227874Y-169271947D03*
%TD*%
D12*
%TO.C,MX126*%
X152311624Y-49126947D03*
D11*
X143421624Y-46586947D03*
X149771624Y-44046947D03*
D13*
X147231624Y-49126947D03*
D12*
X142151624Y-49126947D03*
D14*
X140146624Y-46586947D03*
X153073624Y-44046947D03*
%TD*%
D16*
%TO.C,D146*%
X117227874Y-166471947D03*
D15*
X117227874Y-163971947D03*
D17*
X117227874Y-171771947D03*
D16*
X117227874Y-169271947D03*
%TD*%
D15*
%TO.C,D82*%
X326777874Y-144921947D03*
D16*
X326777874Y-147421947D03*
X326777874Y-150221947D03*
D17*
X326777874Y-152721947D03*
%TD*%
D16*
%TO.C,D48*%
X383927874Y-166471947D03*
D15*
X383927874Y-163971947D03*
D17*
X383927874Y-171771947D03*
D16*
X383927874Y-169271947D03*
%TD*%
D24*
%TO.C,U3*%
X500165374Y-23230697D03*
X493155374Y-23230697D03*
D25*
X496665374Y-19530697D03*
D12*
X499165374Y-20740697D03*
X494165374Y-20740697D03*
%TD*%
M02*
