M48
; DRILL file {KiCad (6.0.5)} date Sun Aug  7 16:14:39 2022
; FORMAT={-:-/ absolute / inch / decimal}
; #@! TF.CreationDate,2022-08-07T16:14:39-07:00
; #@! TF.GenerationSoftware,Kicad,Pcbnew,(6.0.5)
; #@! TF.FileFunction,Plated,1,2,PTH
FMAT,2
INCH
; #@! TA.AperFunction,Plated,PTH,ViaDrill
T1C0.0157
; #@! TA.AperFunction,Plated,PTH,ComponentDrill
T2C0.0390
; #@! TA.AperFunction,Plated,PTH,ComponentDrill
T3C0.0390
; #@! TA.AperFunction,Plated,PTH,ComponentDrill
T4C0.0394
; #@! TA.AperFunction,Plated,PTH,ComponentDrill
T5C0.0430
; #@! TA.AperFunction,Plated,PTH,ComponentDrill
T6C0.0512
%
G90
G05
T1
X5.584Y-1.7341
X8.6778Y-1.6716
X10.1465Y-1.6716
X11.584Y-1.7029
X13.3028Y-1.6716
X17.6778Y-0.7966
X17.709Y-0.7654
X17.7403Y-0.7341
X17.7715Y-1.3466
X18.1465Y-0.9716
X18.2403Y-0.9404
X18.2715Y-0.9716
X18.2872Y-1.1099
X18.3028Y-1.5466
X18.334Y-1.0029
X18.3653Y-1.0341
X18.3653Y-1.5779
X18.4903Y-1.3466
X18.4903Y-1.5779
X18.5215Y-1.5466
X19.4278Y-1.5466
T2
X19.4553Y-0.8166
X19.6522Y-0.8166
T3
X19.067Y-1.3591
X19.067Y-1.4841
X19.467Y-1.3591
X19.467Y-1.4841
T4
X1.1492Y-2.2966
X1.4563Y-2.2966
X1.6153Y-1.9556
X1.6153Y-2.2627
X1.6153Y-2.7056
X1.6153Y-3.0127
X1.6153Y-3.4556
X1.6153Y-3.7627
X1.6153Y-4.2056
X1.6153Y-4.5127
X1.6153Y-4.9556
X1.6153Y-5.2627
X1.6153Y-5.7056
X1.6153Y-6.0127
X1.6153Y-6.4556
X1.6153Y-6.7627
X2.3653Y-1.9556
X2.3653Y-2.2627
X2.3653Y-2.7056
X2.3653Y-3.0127
X2.3653Y-3.4556
X2.3653Y-3.7627
X2.3653Y-4.2056
X2.3653Y-4.5127
X2.3653Y-4.9556
X2.3653Y-5.2627
X2.3653Y-5.7056
X2.3653Y-6.0127
X2.3653Y-6.4556
X2.3653Y-6.7627
X2.5242Y-3.0154
X2.8313Y-3.0154
X3.1153Y-1.9556
X3.1153Y-2.2627
X3.1153Y-2.7056
X3.1153Y-3.0127
X3.1153Y-3.4556
X3.1153Y-3.7627
X3.1153Y-4.2056
X3.1153Y-4.5127
X3.1153Y-4.9556
X3.1153Y-5.2627
X3.1153Y-5.7056
X3.1153Y-6.0127
X3.1153Y-6.4556
X3.1153Y-6.7627
X3.8653Y-1.9556
X3.8653Y-2.2627
X3.8653Y-2.7056
X3.8653Y-3.0127
X3.8653Y-3.4556
X3.8653Y-3.7627
X3.8653Y-4.2056
X3.8653Y-4.5127
X3.8653Y-4.9556
X3.8653Y-5.2627
X3.8653Y-5.7056
X3.8653Y-6.0127
X3.8653Y-6.4556
X3.8653Y-6.7627
X4.0242Y-3.7654
X4.3313Y-3.7654
X4.6153Y-1.9556
X4.6153Y-2.2627
X4.6153Y-2.7056
X4.6153Y-3.0127
X4.6153Y-3.4556
X4.6153Y-3.7627
X4.6153Y-4.2056
X4.6153Y-4.5127
X4.6153Y-4.9556
X4.6153Y-5.2627
X4.6153Y-5.7056
X4.6153Y-6.0127
X4.6153Y-6.4556
X4.6153Y-6.7627
X5.3653Y-1.9556
X5.3653Y-2.2627
X5.3653Y-2.7056
X5.3653Y-3.0127
X5.3653Y-3.4556
X5.3653Y-3.7627
X5.3653Y-4.2056
X5.3653Y-4.5127
X5.3653Y-4.9556
X5.3653Y-5.2627
X5.3653Y-5.6982
X5.3653Y-6.0053
X5.3653Y-6.4556
X5.3653Y-6.7627
X6.1153Y-1.9556
X6.1153Y-2.2627
X6.1153Y-2.7056
X6.1153Y-3.0127
X6.1153Y-3.4556
X6.1153Y-3.7627
X6.1153Y-4.2056
X6.1153Y-4.5127
X6.1153Y-4.9556
X6.1153Y-5.2627
X6.1153Y-5.7056
X6.1153Y-6.0127
X6.1153Y-6.4556
X6.1153Y-6.7627
X6.368Y-4.5154
X6.6751Y-4.5154
X6.8653Y-1.9556
X6.8653Y-2.2627
X6.8653Y-2.7056
X6.8653Y-3.0127
X6.8653Y-3.4556
X6.8653Y-3.7627
X6.8653Y-4.2056
X6.8653Y-4.5127
X6.8653Y-4.9556
X6.8653Y-5.2627
X6.8653Y-5.7056
X6.8653Y-6.0127
X6.8653Y-6.4556
X6.8653Y-6.7627
X7.0555Y-5.2966
X7.3626Y-5.2966
X7.6153Y-1.9556
X7.6153Y-2.2627
X7.6153Y-2.7056
X7.6153Y-3.0127
X7.6153Y-3.4556
X7.6153Y-3.7627
X7.6153Y-4.2056
X7.6153Y-4.5127
X7.6153Y-4.9556
X7.6153Y-5.2627
X7.6153Y-5.7056
X7.6153Y-6.0127
X7.6153Y-6.4556
X7.6153Y-6.7627
X8.3653Y-1.9556
X8.3653Y-2.2627
X8.3653Y-2.7056
X8.3653Y-3.0127
X8.3653Y-3.4556
X8.3653Y-3.7627
X8.3653Y-4.2056
X8.3653Y-4.5127
X8.3653Y-4.9556
X8.3653Y-5.2627
X8.3653Y-5.7056
X8.3653Y-6.0127
X8.3653Y-6.4556
X8.3653Y-6.7627
X9.1153Y-1.9556
X9.1153Y-2.2627
X9.1153Y-2.7056
X9.1153Y-3.0127
X9.1153Y-3.4556
X9.1153Y-3.7627
X9.1153Y-4.2056
X9.1153Y-4.5127
X9.1153Y-4.9556
X9.1153Y-5.2627
X9.1153Y-5.7056
X9.1153Y-6.0127
X9.1153Y-6.4482
X9.1153Y-6.7553
X9.368Y-6.0154
X9.6751Y-6.0154
X9.8653Y-1.9556
X9.8653Y-2.2627
X9.8653Y-2.7056
X9.8653Y-3.0127
X9.8653Y-3.4556
X9.8653Y-3.7627
X9.8653Y-4.2056
X9.8653Y-4.5127
X9.8653Y-4.9556
X9.8653Y-5.2627
X9.8653Y-5.7056
X9.8653Y-6.0127
X9.8653Y-6.4556
X9.8653Y-6.7627
X10.0867Y-6.7654
X10.3938Y-6.7654
X10.6147Y-1.9561
X10.6147Y-2.2632
X10.6147Y-2.7061
X10.6147Y-3.0132
X10.6147Y-3.4561
X10.6147Y-3.7632
X10.6147Y-4.2061
X10.6147Y-4.5132
X10.6147Y-4.9561
X10.6147Y-5.2632
X10.6147Y-5.7061
X10.6147Y-6.0132
X10.6147Y-6.4561
X10.6147Y-6.7632
X10.8992Y-6.7654
X11.2063Y-6.7654
X11.3647Y-1.9561
X11.3647Y-2.2632
X11.3647Y-2.7061
X11.3647Y-3.0132
X11.3647Y-3.4561
X11.3647Y-3.7632
X11.3647Y-4.2061
X11.3647Y-4.5132
X11.3647Y-4.9561
X11.3647Y-5.2632
X11.3647Y-5.7061
X11.3647Y-6.0132
X11.3647Y-6.4561
X11.3647Y-6.7632
X11.618Y-6.0154
X11.9251Y-6.0154
X12.1153Y-1.9556
X12.1153Y-2.2627
X12.1153Y-2.7056
X12.1153Y-3.0127
X12.1153Y-3.4556
X12.1153Y-3.7627
X12.1153Y-4.2056
X12.1153Y-4.5127
X12.1153Y-4.9556
X12.1153Y-5.2627
X12.1153Y-5.7056
X12.1153Y-6.0127
X12.1153Y-6.4556
X12.1153Y-6.7627
X12.8653Y-1.9556
X12.8653Y-2.2627
X12.8653Y-2.7056
X12.8653Y-3.0127
X12.8653Y-3.4556
X12.8653Y-3.7627
X12.8653Y-4.2056
X12.8653Y-4.5127
X12.8653Y-4.9482
X12.8653Y-5.2553
X12.8653Y-5.7056
X12.8653Y-6.0127
X12.8653Y-6.4556
X12.8653Y-6.7627
X13.6153Y-1.9556
X13.6153Y-2.2627
X13.6153Y-2.7056
X13.6153Y-3.0127
X13.6153Y-3.4556
X13.6153Y-3.7627
X13.6153Y-4.2056
X13.6153Y-4.5127
X13.6153Y-4.9556
X13.6153Y-5.2627
X13.6153Y-5.7056
X13.6153Y-6.0127
X13.6153Y-6.4556
X13.6153Y-6.7627
X13.868Y-5.2341
X14.1751Y-5.2341
X14.3653Y-1.9556
X14.3653Y-2.2627
X14.3653Y-2.7056
X14.3653Y-3.0127
X14.3653Y-3.4556
X14.3653Y-3.7627
X14.3653Y-4.2056
X14.3653Y-4.5127
X14.3653Y-4.9556
X14.3653Y-5.2627
X14.3653Y-5.7056
X14.3653Y-6.0127
X14.3653Y-6.4556
X14.3653Y-6.7627
X15.1153Y-1.9556
X15.1153Y-2.2627
X15.1153Y-2.7056
X15.1153Y-3.0127
X15.1153Y-3.4556
X15.1153Y-3.7627
X15.1153Y-4.2056
X15.1153Y-4.5127
X15.1153Y-4.9556
X15.1153Y-5.2627
X15.1153Y-5.7056
X15.1153Y-6.0127
X15.1153Y-6.4556
X15.1153Y-6.7627
X15.368Y-4.5466
X15.6751Y-4.5466
X15.8653Y-1.9556
X15.8653Y-2.2627
X15.8653Y-2.7056
X15.8653Y-3.0127
X15.8653Y-3.4556
X15.8653Y-3.7627
X15.8653Y-4.2056
X15.8653Y-4.5127
X15.8653Y-4.9556
X15.8653Y-5.2627
X15.8653Y-5.7056
X15.8653Y-6.0127
X15.8653Y-6.4556
X15.8653Y-6.7627
X16.6153Y-1.9556
X16.6153Y-2.2627
X16.6153Y-2.7056
X16.6153Y-3.0127
X16.6153Y-3.4556
X16.6153Y-3.7627
X16.6153Y-4.2056
X16.6153Y-4.5127
X16.6153Y-4.9556
X16.6153Y-5.2627
X16.6153Y-5.7056
X16.6153Y-6.0127
X16.6153Y-6.4556
X16.6153Y-6.7627
X16.743Y-3.7654
X17.0501Y-3.7654
X17.3653Y-1.9556
X17.3653Y-2.2627
X17.3653Y-2.7056
X17.3653Y-3.0127
X17.3653Y-3.4556
X17.3653Y-3.7627
X17.3653Y-4.2056
X17.3653Y-4.5127
X17.3653Y-4.9556
X17.3653Y-5.2627
X17.3653Y-5.7056
X17.3653Y-6.0127
X17.3653Y-6.4556
X17.3653Y-6.7627
X18.1153Y-1.9556
X18.1153Y-2.2627
X18.1153Y-2.7056
X18.1153Y-3.0127
X18.1153Y-3.4556
X18.1153Y-3.7627
X18.1153Y-4.2056
X18.1153Y-4.5127
X18.1153Y-4.9556
X18.1153Y-5.2627
X18.1153Y-5.7056
X18.1153Y-6.0127
X18.1153Y-6.4556
X18.1153Y-6.7627
X18.3367Y-3.0154
X18.6438Y-3.0154
X18.8653Y-1.9556
X18.8653Y-2.2627
X18.8653Y-2.7056
X18.8653Y-3.0127
X18.8653Y-3.4556
X18.8653Y-3.7627
X18.8653Y-4.2056
X18.8653Y-4.5127
X18.8653Y-4.9556
X18.8653Y-5.2627
X18.8653Y-5.7056
X18.8653Y-6.0127
X18.8653Y-6.4556
X18.8653Y-6.7627
X19.6153Y-1.9556
X19.6153Y-2.2627
X19.6153Y-2.7056
X19.6153Y-3.0127
X19.6153Y-3.4556
X19.6153Y-3.7627
X19.6153Y-4.2056
X19.6153Y-4.5127
X19.6153Y-4.9556
X19.6153Y-5.2627
X19.6153Y-5.7056
X19.6153Y-6.0127
X19.6153Y-6.4556
X19.6153Y-6.7627
X19.8008Y-2.2654
X20.1079Y-2.2654
X20.1107Y-0.9904
X20.1107Y-1.0904
X20.1107Y-1.1904
X20.1107Y-1.2904
X20.3653Y-1.9556
X20.3653Y-2.2627
X20.3653Y-2.7056
X20.3653Y-3.0127
X20.3653Y-3.4556
X20.3653Y-3.7627
X20.3653Y-4.2056
X20.3653Y-4.5127
X20.3653Y-4.9556
X20.3653Y-5.2627
X20.3653Y-5.7056
X20.3653Y-6.0127
X20.3653Y-6.4556
X20.3653Y-6.7627
T5
X17.7997Y-0.8591
X17.7997Y-1.4591
X17.8997Y-0.8591
X17.8997Y-1.4591
X17.9997Y-0.8591
X17.9997Y-1.4591
X18.0997Y-0.8591
X18.0997Y-1.4591
X18.1997Y-0.8591
X18.1997Y-1.4591
X18.2997Y-0.8591
X18.2997Y-1.4591
X18.3997Y-0.8591
X18.3997Y-1.4591
X18.4997Y-0.8591
X18.4997Y-1.4591
X18.5997Y-0.8591
X18.5997Y-1.4591
X18.6997Y-0.8591
X18.6997Y-1.4591
X18.7997Y-0.8591
X18.7997Y-1.4591
X18.8997Y-0.8591
X18.8997Y-0.9591
X18.8997Y-1.0591
X18.8997Y-1.1591
X18.8997Y-1.2591
X18.8997Y-1.3591
X18.8997Y-1.4501
T6
X19.4156Y-0.9146
X19.6916Y-0.9146
T0
M30
