%TF.GenerationSoftware,KiCad,Pcbnew,(6.0.5)*%
%TF.CreationDate,2022-08-07T16:14:43-07:00*%
%TF.ProjectId,Dreadnoughtus,44726561-646e-46f7-9567-687475732e6b,rev?*%
%TF.SameCoordinates,Original*%
%TF.FileFunction,Copper,L2,Bot*%
%TF.FilePolarity,Positive*%
%FSLAX46Y46*%
G04 Gerber Fmt 4.6, Leading zero omitted, Abs format (unit mm)*
G04 Created by KiCad (PCBNEW (6.0.5)) date 2022-08-07 16:14:43*
%MOMM*%
%LPD*%
G01*
G04 APERTURE LIST*
%TA.AperFunction,Profile*%
%ADD10C,0.100000*%
%TD*%
%TA.AperFunction,SMDPad,CuDef*%
%ADD11R,2.550000X2.500000*%
%TD*%
%TA.AperFunction,SMDPad,CuDef*%
%ADD12R,0.500000X2.900000*%
%TD*%
%TA.AperFunction,ComponentPad*%
%ADD13R,1.600000X1.600000*%
%TD*%
%TA.AperFunction,SMDPad,CuDef*%
%ADD14R,1.200000X1.600000*%
%TD*%
%TA.AperFunction,ComponentPad*%
%ADD15C,1.600000*%
%TD*%
%TA.AperFunction,SMDPad,CuDef*%
%ADD16R,1.600000X1.200000*%
%TD*%
%TA.AperFunction,SMDPad,CuDef*%
%ADD17R,2.900000X0.500000*%
%TD*%
%TA.AperFunction,ComponentPad*%
%ADD18C,1.651000*%
%TD*%
%TA.AperFunction,ComponentPad*%
%ADD19R,1.752600X1.752600*%
%TD*%
%TA.AperFunction,ComponentPad*%
%ADD20C,1.752600*%
%TD*%
%TA.AperFunction,ComponentPad*%
%ADD21C,1.700000*%
%TD*%
%TA.AperFunction,ComponentPad*%
%ADD22O,1.700000X1.700000*%
%TD*%
%TA.AperFunction,ComponentPad*%
%ADD23C,2.100000*%
%TD*%
%TA.AperFunction,ComponentPad*%
%ADD24C,1.750000*%
%TD*%
%TA.AperFunction,ViaPad*%
%ADD25C,0.800000*%
%TD*%
%TA.AperFunction,Conductor*%
%ADD26C,0.250000*%
%TD*%
G04 APERTURE END LIST*
D10*
X519659124Y-18646947D02*
X519659124Y-172634447D01*
X518865374Y-173428197D01*
X23565374Y-173428197D01*
X22771624Y-172634447D01*
X22771624Y-39284447D01*
X23565374Y-38490697D01*
X446634124Y-38490697D01*
X447427874Y-37696947D01*
X447427874Y-18646947D01*
X448221624Y-17853197D01*
X518865374Y-17853197D01*
X519659124Y-18646947D01*
D11*
%TO.P,MX131,1,COL*%
%TO.N,row10*%
X140146624Y-141836947D03*
%TO.P,MX131,2,ROW*%
%TO.N,Net-(D131-Pad1)*%
X153073624Y-139296947D03*
%TD*%
%TO.P,MX53,1,COL*%
%TO.N,row3*%
X387796624Y-122786947D03*
%TO.P,MX53,2,ROW*%
%TO.N,Net-(D53-Pad1)*%
X400723624Y-120246947D03*
%TD*%
%TO.P,MX92,1,COL*%
%TO.N,row6*%
X273481318Y-65651098D03*
%TO.P,MX92,2,ROW*%
%TO.N,Net-(D92-Pad1)*%
X286408318Y-63111098D03*
%TD*%
D12*
%TO.P,D80,1,A*%
%TO.N,Net-(D80-Pad1)*%
X326777874Y-108221947D03*
D13*
X326777874Y-106821947D03*
D14*
X326777874Y-109321947D03*
%TO.P,D80,2,K*%
%TO.N,Net-(D10-Pad2)*%
X326777874Y-112121947D03*
D12*
X326777874Y-113221947D03*
D15*
X326777874Y-114621947D03*
%TD*%
D11*
%TO.P,MX130,1,COL*%
%TO.N,row10*%
X140146624Y-122786947D03*
%TO.P,MX130,2,ROW*%
%TO.N,Net-(D130-Pad1)*%
X153073624Y-120246947D03*
%TD*%
D12*
%TO.P,D102,1,A*%
%TO.N,Net-(D102-Pad1)*%
X231527874Y-127271947D03*
D14*
X231527874Y-128371947D03*
D13*
X231527874Y-125871947D03*
D15*
%TO.P,D102,2,K*%
%TO.N,Net-(D102-Pad2)*%
X231527874Y-133671947D03*
D12*
X231527874Y-132271947D03*
D14*
X231527874Y-131171947D03*
%TD*%
D11*
%TO.P,MX129,1,COL*%
%TO.N,row10*%
X140146624Y-103736947D03*
%TO.P,MX129,2,ROW*%
%TO.N,Net-(D129-Pad1)*%
X153073624Y-101196947D03*
%TD*%
%TO.P,MX155,1,COL*%
%TO.N,row12*%
X63946624Y-65636947D03*
%TO.P,MX155,2,ROW*%
%TO.N,Net-(D155-Pad1)*%
X76873624Y-63096947D03*
%TD*%
%TO.P,MX1,1,COL*%
%TO.N,row0*%
X483046624Y-65636947D03*
%TO.P,MX1,2,ROW*%
%TO.N,Net-(D1-Pad1)*%
X495973624Y-63096947D03*
%TD*%
D12*
%TO.P,D178,1,A*%
%TO.N,Net-(D178-Pad1)*%
X60077874Y-108221947D03*
D13*
X60077874Y-106821947D03*
D14*
X60077874Y-109321947D03*
D12*
%TO.P,D178,2,K*%
%TO.N,Net-(D10-Pad2)*%
X60077874Y-113221947D03*
D14*
X60077874Y-112121947D03*
D15*
X60077874Y-114621947D03*
%TD*%
D13*
%TO.P,D177,1,A*%
%TO.N,Net-(D177-Pad1)*%
X60077874Y-87771947D03*
D14*
X60077874Y-90271947D03*
D12*
X60077874Y-89171947D03*
D14*
%TO.P,D177,2,K*%
%TO.N,Net-(D107-Pad2)*%
X60077874Y-93071947D03*
D12*
X60077874Y-94171947D03*
D15*
X60077874Y-95571947D03*
%TD*%
D12*
%TO.P,D140,1,A*%
%TO.N,Net-(D140-Pad1)*%
X117227874Y-51071947D03*
D13*
X117227874Y-49671947D03*
D14*
X117227874Y-52171947D03*
D15*
%TO.P,D140,2,K*%
%TO.N,Net-(D0-Pad2)*%
X117227874Y-57471947D03*
D12*
X117227874Y-56071947D03*
D14*
X117227874Y-54971947D03*
%TD*%
D13*
%TO.P,D137,1,A*%
%TO.N,Net-(D137-Pad1)*%
X174377874Y-125871947D03*
D14*
X174377874Y-128371947D03*
D12*
X174377874Y-127271947D03*
%TO.P,D137,2,K*%
%TO.N,Net-(D109-Pad2)*%
X174377874Y-132271947D03*
D15*
X174377874Y-133671947D03*
D14*
X174377874Y-131171947D03*
%TD*%
D11*
%TO.P,MX181,1,COL*%
%TO.N,row13*%
X44896624Y-160886947D03*
%TO.P,MX181,2,ROW*%
%TO.N,Net-(D181-Pad1)*%
X57823624Y-158346947D03*
%TD*%
%TO.P,MX124,1,COL*%
%TO.N,row9*%
X197296624Y-141836947D03*
%TO.P,MX124,2,ROW*%
%TO.N,Net-(D124-Pad1)*%
X210223624Y-139296947D03*
%TD*%
D13*
%TO.P,D212,1,A*%
%TO.N,Net-(D107-Pad2)*%
X102215374Y-95640697D03*
D16*
X104715374Y-95640697D03*
D17*
X103615374Y-95640697D03*
D15*
%TO.P,D212,2,K*%
%TO.N,row11*%
X110015374Y-95640697D03*
D16*
X107515374Y-95640697D03*
D17*
X108615374Y-95640697D03*
%TD*%
D13*
%TO.P,D62,1,A*%
%TO.N,Net-(D62-Pad1)*%
X345827874Y-163971947D03*
D14*
X345827874Y-166471947D03*
D12*
X345827874Y-165371947D03*
D14*
%TO.P,D62,2,K*%
%TO.N,Net-(D104-Pad2)*%
X345827874Y-169271947D03*
D12*
X345827874Y-170371947D03*
D15*
X345827874Y-171771947D03*
%TD*%
D14*
%TO.P,D131,1,A*%
%TO.N,Net-(D131-Pad1)*%
X155327874Y-147421947D03*
D12*
X155327874Y-146321947D03*
D13*
X155327874Y-144921947D03*
D15*
%TO.P,D131,2,K*%
%TO.N,Net-(D103-Pad2)*%
X155327874Y-152721947D03*
D12*
X155327874Y-151321947D03*
D14*
X155327874Y-150221947D03*
%TD*%
D11*
%TO.P,MX18,1,COL*%
%TO.N,row1*%
X444946624Y-122786947D03*
%TO.P,MX18,2,ROW*%
%TO.N,Net-(D18-Pad1)*%
X457873624Y-120246947D03*
%TD*%
%TO.P,MX178,1,COL*%
%TO.N,row13*%
X44896624Y-103736947D03*
%TO.P,MX178,2,ROW*%
%TO.N,Net-(D178-Pad1)*%
X57823624Y-101196947D03*
%TD*%
%TO.P,MX134,1,COL*%
%TO.N,row9*%
X159196624Y-65636947D03*
%TO.P,MX134,2,ROW*%
%TO.N,Net-(D134-Pad1)*%
X172123624Y-63096947D03*
%TD*%
%TO.P,MX109,1,COL*%
%TO.N,row7*%
X235396624Y-122786947D03*
%TO.P,MX109,2,ROW*%
%TO.N,Net-(D109-Pad1)*%
X248323624Y-120246947D03*
%TD*%
D13*
%TO.P,D153,1,A*%
%TO.N,Net-(D153-Pad1)*%
X136277874Y-163971947D03*
D12*
X136277874Y-165371947D03*
D14*
X136277874Y-166471947D03*
%TO.P,D153,2,K*%
%TO.N,Net-(D111-Pad2)*%
X136277874Y-169271947D03*
D12*
X136277874Y-170371947D03*
D15*
X136277874Y-171771947D03*
%TD*%
D14*
%TO.P,D54,1,A*%
%TO.N,Net-(D54-Pad1)*%
X402977874Y-147421947D03*
D12*
X402977874Y-146321947D03*
D13*
X402977874Y-144921947D03*
D12*
%TO.P,D54,2,K*%
%TO.N,Net-(D110-Pad2)*%
X402977874Y-151321947D03*
D15*
X402977874Y-152721947D03*
D14*
X402977874Y-150221947D03*
%TD*%
%TO.P,D129,1,A*%
%TO.N,Net-(D129-Pad1)*%
X155327874Y-109321947D03*
D12*
X155327874Y-108221947D03*
D13*
X155327874Y-106821947D03*
D15*
%TO.P,D129,2,K*%
%TO.N,Net-(D101-Pad2)*%
X155327874Y-114621947D03*
D12*
X155327874Y-113221947D03*
D14*
X155327874Y-112121947D03*
%TD*%
D13*
%TO.P,D2,1,A*%
%TO.N,Net-(D2-Pad1)*%
X498227874Y-87771947D03*
D14*
X498227874Y-90271947D03*
D12*
X498227874Y-89171947D03*
D15*
%TO.P,D2,2,K*%
%TO.N,Net-(D100-Pad2)*%
X498227874Y-95571947D03*
D14*
X498227874Y-93071947D03*
D12*
X498227874Y-94171947D03*
%TD*%
D13*
%TO.P,D52,1,A*%
%TO.N,Net-(D52-Pad1)*%
X402977874Y-106821947D03*
D12*
X402977874Y-108221947D03*
D14*
X402977874Y-109321947D03*
%TO.P,D52,2,K*%
%TO.N,Net-(D10-Pad2)*%
X402977874Y-112121947D03*
D15*
X402977874Y-114621947D03*
D12*
X402977874Y-113221947D03*
%TD*%
D11*
%TO.P,MX33,1,COL*%
%TO.N,row2*%
X406846624Y-141836947D03*
%TO.P,MX33,2,ROW*%
%TO.N,Net-(D33-Pad1)*%
X419773624Y-139296947D03*
%TD*%
D12*
%TO.P,D4,1,A*%
%TO.N,Net-(D4-Pad1)*%
X498227874Y-127271947D03*
D14*
X498227874Y-128371947D03*
D13*
X498227874Y-125871947D03*
D14*
%TO.P,D4,2,K*%
%TO.N,Net-(D102-Pad2)*%
X498227874Y-131171947D03*
D15*
X498227874Y-133671947D03*
D12*
X498227874Y-132271947D03*
%TD*%
D14*
%TO.P,D90,1,A*%
%TO.N,Net-(D90-Pad1)*%
X269612568Y-166486098D03*
D12*
X269612568Y-165386098D03*
D13*
X269612568Y-163986098D03*
D12*
%TO.P,D90,2,K*%
%TO.N,Net-(D104-Pad2)*%
X269612568Y-170386098D03*
D14*
X269612568Y-169286098D03*
D15*
X269612568Y-171786098D03*
%TD*%
D14*
%TO.P,D72,1,A*%
%TO.N,Net-(D72-Pad1)*%
X307727874Y-90271947D03*
D12*
X307727874Y-89171947D03*
D13*
X307727874Y-87771947D03*
D14*
%TO.P,D72,2,K*%
%TO.N,Net-(D100-Pad2)*%
X307727874Y-93071947D03*
D12*
X307727874Y-94171947D03*
D15*
X307727874Y-95571947D03*
%TD*%
D13*
%TO.P,D139,1,A*%
%TO.N,Net-(D139-Pad1)*%
X174377874Y-163971947D03*
D12*
X174377874Y-165371947D03*
D14*
X174377874Y-166471947D03*
%TO.P,D139,2,K*%
%TO.N,Net-(D111-Pad2)*%
X174377874Y-169271947D03*
D15*
X174377874Y-171771947D03*
D12*
X174377874Y-170371947D03*
%TD*%
D13*
%TO.P,D24,1,A*%
%TO.N,Net-(D24-Pad1)*%
X479177874Y-106821947D03*
D14*
X479177874Y-109321947D03*
D12*
X479177874Y-108221947D03*
D15*
%TO.P,D24,2,K*%
%TO.N,Net-(D10-Pad2)*%
X479177874Y-114621947D03*
D12*
X479177874Y-113221947D03*
D14*
X479177874Y-112121947D03*
%TD*%
D11*
%TO.P,MX7,1,COL*%
%TO.N,row0*%
X502096624Y-46586947D03*
%TO.P,MX7,2,ROW*%
%TO.N,Net-(D7-Pad1)*%
X515023624Y-44046947D03*
%TD*%
%TO.P,MX81,1,COL*%
%TO.N,row5*%
X311596624Y-122786947D03*
%TO.P,MX81,2,ROW*%
%TO.N,Net-(D81-Pad1)*%
X324523624Y-120246947D03*
%TD*%
D14*
%TO.P,D157,1,A*%
%TO.N,Net-(D157-Pad1)*%
X79127874Y-109321947D03*
D12*
X79127874Y-108221947D03*
D13*
X79127874Y-106821947D03*
D14*
%TO.P,D157,2,K*%
%TO.N,Net-(D101-Pad2)*%
X79127874Y-112121947D03*
D15*
X79127874Y-114621947D03*
D12*
X79127874Y-113221947D03*
%TD*%
D14*
%TO.P,D22,1,A*%
%TO.N,Net-(D22-Pad1)*%
X479177874Y-71221947D03*
D13*
X479177874Y-68721947D03*
D12*
X479177874Y-70121947D03*
D14*
%TO.P,D22,2,K*%
%TO.N,Net-(D106-Pad2)*%
X479177874Y-74021947D03*
D15*
X479177874Y-76521947D03*
D12*
X479177874Y-75121947D03*
%TD*%
D11*
%TO.P,MX105,1,COL*%
%TO.N,row7*%
X235396624Y-46586947D03*
%TO.P,MX105,2,ROW*%
%TO.N,Net-(D105-Pad1)*%
X248323624Y-44046947D03*
%TD*%
D18*
%TO.P,R0,1*%
%TO.N,SCL*%
X494461318Y-37696947D03*
%TO.P,R0,2*%
%TO.N,+5V*%
X484301318Y-37696947D03*
%TD*%
D11*
%TO.P,MX48,1,COL*%
%TO.N,row3*%
X368746624Y-160886947D03*
%TO.P,MX48,2,ROW*%
%TO.N,Net-(D48-Pad1)*%
X381673624Y-158346947D03*
%TD*%
D13*
%TO.P,D1,1,A*%
%TO.N,Net-(D1-Pad1)*%
X498227874Y-68721947D03*
D12*
X498227874Y-70121947D03*
D14*
X498227874Y-71221947D03*
%TO.P,D1,2,K*%
%TO.N,Net-(D1-Pad2)*%
X498227874Y-74021947D03*
D15*
X498227874Y-76521947D03*
D12*
X498227874Y-75121947D03*
%TD*%
D11*
%TO.P,MX32,1,COL*%
%TO.N,row2*%
X406846624Y-122786947D03*
%TO.P,MX32,2,ROW*%
%TO.N,Net-(D32-Pad1)*%
X419773624Y-120246947D03*
%TD*%
%TO.P,MX150,1,COL*%
%TO.N,row11*%
X121096624Y-103736947D03*
%TO.P,MX150,2,ROW*%
%TO.N,Net-(D150-Pad1)*%
X134023624Y-101196947D03*
%TD*%
D12*
%TO.P,D95,1,A*%
%TO.N,Net-(D95-Pad1)*%
X288662568Y-127286098D03*
D13*
X288662568Y-125886098D03*
D14*
X288662568Y-128386098D03*
D15*
%TO.P,D95,2,K*%
%TO.N,Net-(D109-Pad2)*%
X288662568Y-133686098D03*
D14*
X288662568Y-131186098D03*
D12*
X288662568Y-132286098D03*
%TD*%
D11*
%TO.P,MX91,1,COL*%
%TO.N,row6*%
X273481318Y-46601098D03*
%TO.P,MX91,2,ROW*%
%TO.N,Net-(D91-Pad1)*%
X286408318Y-44061098D03*
%TD*%
%TO.P,MX161,1,COL*%
%TO.N,row11*%
X82996624Y-46586947D03*
%TO.P,MX161,2,ROW*%
%TO.N,Net-(D161-Pad1)*%
X95923624Y-44046947D03*
%TD*%
%TO.P,MX37,1,COL*%
%TO.N,row2*%
X425896624Y-84686947D03*
%TO.P,MX37,2,ROW*%
%TO.N,Net-(D37-Pad1)*%
X438823624Y-82146947D03*
%TD*%
%TO.P,MX117,1,COL*%
%TO.N,row9*%
X178246624Y-141836947D03*
%TO.P,MX117,2,ROW*%
%TO.N,Net-(D117-Pad1)*%
X191173624Y-139296947D03*
%TD*%
%TO.P,MX5,1,COL*%
%TO.N,row0*%
X483046624Y-141836947D03*
%TO.P,MX5,2,ROW*%
%TO.N,Net-(D5-Pad1)*%
X495973624Y-139296947D03*
%TD*%
%TO.P,MX50,1,COL*%
%TO.N,row3*%
X387796624Y-65636947D03*
%TO.P,MX50,2,ROW*%
%TO.N,Net-(D50-Pad1)*%
X400723624Y-63096947D03*
%TD*%
%TO.P,MX140,1,COL*%
%TO.N,row11*%
X102046624Y-46586947D03*
%TO.P,MX140,2,ROW*%
%TO.N,Net-(D140-Pad1)*%
X114973624Y-44046947D03*
%TD*%
D13*
%TO.P,D147,1,A*%
%TO.N,Net-(D147-Pad1)*%
X136277874Y-49671947D03*
D12*
X136277874Y-51071947D03*
D14*
X136277874Y-52171947D03*
%TO.P,D147,2,K*%
%TO.N,Net-(D105-Pad2)*%
X136277874Y-54971947D03*
D15*
X136277874Y-57471947D03*
D12*
X136277874Y-56071947D03*
%TD*%
D11*
%TO.P,MX144,1,COL*%
%TO.N,row11*%
X102046624Y-122786947D03*
%TO.P,MX144,2,ROW*%
%TO.N,Net-(D144-Pad1)*%
X114973624Y-120246947D03*
%TD*%
%TO.P,MX71,1,COL*%
%TO.N,row6*%
X292546624Y-65636947D03*
%TO.P,MX71,2,ROW*%
%TO.N,Net-(D71-Pad1)*%
X305473624Y-63096947D03*
%TD*%
%TO.P,MX47,1,COL*%
%TO.N,row3*%
X368746624Y-141836947D03*
%TO.P,MX47,2,ROW*%
%TO.N,Net-(D47-Pad1)*%
X381673624Y-139296947D03*
%TD*%
D12*
%TO.P,D64,1,A*%
%TO.N,Net-(D64-Pad1)*%
X364877874Y-70121947D03*
D13*
X364877874Y-68721947D03*
D14*
X364877874Y-71221947D03*
%TO.P,D64,2,K*%
%TO.N,Net-(D106-Pad2)*%
X364877874Y-74021947D03*
D15*
X364877874Y-76521947D03*
D12*
X364877874Y-75121947D03*
%TD*%
D14*
%TO.P,D70,1,A*%
%TO.N,Net-(D70-Pad1)*%
X307727874Y-52171947D03*
D12*
X307727874Y-51071947D03*
D13*
X307727874Y-49671947D03*
D12*
%TO.P,D70,2,K*%
%TO.N,Net-(D0-Pad2)*%
X307727874Y-56071947D03*
D15*
X307727874Y-57471947D03*
D14*
X307727874Y-54971947D03*
%TD*%
D13*
%TO.P,D181,1,A*%
%TO.N,Net-(D181-Pad1)*%
X60077874Y-163971947D03*
D14*
X60077874Y-166471947D03*
D12*
X60077874Y-165371947D03*
D14*
%TO.P,D181,2,K*%
%TO.N,Net-(D111-Pad2)*%
X60077874Y-169271947D03*
D15*
X60077874Y-171771947D03*
D12*
X60077874Y-170371947D03*
%TD*%
D11*
%TO.P,MX65,1,COL*%
%TO.N,row4*%
X349696624Y-84686947D03*
%TO.P,MX65,2,ROW*%
%TO.N,Net-(D65-Pad1)*%
X362623624Y-82146947D03*
%TD*%
%TO.P,MX86,1,COL*%
%TO.N,row7*%
X254431318Y-84701098D03*
%TO.P,MX86,2,ROW*%
%TO.N,Net-(D86-Pad1)*%
X267358318Y-82161098D03*
%TD*%
%TO.P,MX112,1,COL*%
%TO.N,row9*%
X178246624Y-46586947D03*
%TO.P,MX112,2,ROW*%
%TO.N,Net-(D112-Pad1)*%
X191173624Y-44046947D03*
%TD*%
%TO.P,MX12,1,COL*%
%TO.N,row0*%
X502096624Y-141836947D03*
%TO.P,MX12,2,ROW*%
%TO.N,Net-(D12-Pad1)*%
X515023624Y-139296947D03*
%TD*%
D13*
%TO.P,D47,1,A*%
%TO.N,Net-(D47-Pad1)*%
X383927874Y-144921947D03*
D12*
X383927874Y-146321947D03*
D14*
X383927874Y-147421947D03*
%TO.P,D47,2,K*%
%TO.N,Net-(D103-Pad2)*%
X383927874Y-150221947D03*
D12*
X383927874Y-151321947D03*
D15*
X383927874Y-152721947D03*
%TD*%
D14*
%TO.P,D49,1,A*%
%TO.N,Net-(D49-Pad1)*%
X402977874Y-52171947D03*
D12*
X402977874Y-51071947D03*
D13*
X402977874Y-49671947D03*
D15*
%TO.P,D49,2,K*%
%TO.N,Net-(D105-Pad2)*%
X402977874Y-57471947D03*
D12*
X402977874Y-56071947D03*
D14*
X402977874Y-54971947D03*
%TD*%
D13*
%TO.P,D63,1,A*%
%TO.N,Net-(D63-Pad1)*%
X364877874Y-49671947D03*
D12*
X364877874Y-51071947D03*
D14*
X364877874Y-52171947D03*
%TO.P,D63,2,K*%
%TO.N,Net-(D105-Pad2)*%
X364877874Y-54971947D03*
D12*
X364877874Y-56071947D03*
D15*
X364877874Y-57471947D03*
%TD*%
D12*
%TO.P,D40,1,A*%
%TO.N,Net-(D40-Pad1)*%
X441077874Y-146321947D03*
D14*
X441077874Y-147421947D03*
D13*
X441077874Y-144921947D03*
D12*
%TO.P,D40,2,K*%
%TO.N,Net-(D110-Pad2)*%
X441077874Y-151321947D03*
D14*
X441077874Y-150221947D03*
D15*
X441077874Y-152721947D03*
%TD*%
D11*
%TO.P,MX30,1,COL*%
%TO.N,row3*%
X406846624Y-84686947D03*
%TO.P,MX30,2,ROW*%
%TO.N,Net-(D30-Pad1)*%
X419773624Y-82146947D03*
%TD*%
%TO.P,MX25,1,COL*%
%TO.N,row1*%
X463996624Y-122786947D03*
%TO.P,MX25,2,ROW*%
%TO.N,Net-(D25-Pad1)*%
X476923624Y-120246947D03*
%TD*%
D13*
%TO.P,D132,1,A*%
%TO.N,Net-(D132-Pad1)*%
X155327874Y-163971947D03*
D12*
X155327874Y-165371947D03*
D14*
X155327874Y-166471947D03*
D12*
%TO.P,D132,2,K*%
%TO.N,Net-(D104-Pad2)*%
X155327874Y-170371947D03*
D14*
X155327874Y-169271947D03*
D15*
X155327874Y-171771947D03*
%TD*%
D12*
%TO.P,D115,1,A*%
%TO.N,Net-(D115-Pad1)*%
X193427874Y-108221947D03*
D14*
X193427874Y-109321947D03*
D13*
X193427874Y-106821947D03*
D14*
%TO.P,D115,2,K*%
%TO.N,Net-(D101-Pad2)*%
X193427874Y-112121947D03*
D12*
X193427874Y-113221947D03*
D15*
X193427874Y-114621947D03*
%TD*%
D14*
%TO.P,D16,1,A*%
%TO.N,Net-(D16-Pad1)*%
X460127874Y-90271947D03*
D12*
X460127874Y-89171947D03*
D13*
X460127874Y-87771947D03*
D15*
%TO.P,D16,2,K*%
%TO.N,Net-(D100-Pad2)*%
X460127874Y-95571947D03*
D12*
X460127874Y-94171947D03*
D14*
X460127874Y-93071947D03*
%TD*%
D13*
%TO.P,D3,1,A*%
%TO.N,Net-(D3-Pad1)*%
X498227874Y-106821947D03*
D14*
X498227874Y-109321947D03*
D12*
X498227874Y-108221947D03*
D14*
%TO.P,D3,2,K*%
%TO.N,Net-(D101-Pad2)*%
X498227874Y-112121947D03*
D15*
X498227874Y-114621947D03*
D12*
X498227874Y-113221947D03*
%TD*%
D11*
%TO.P,MX35,1,COL*%
%TO.N,row2*%
X425896624Y-46586947D03*
%TO.P,MX35,2,ROW*%
%TO.N,Net-(D35-Pad1)*%
X438823624Y-44046947D03*
%TD*%
%TO.P,MX149,1,COL*%
%TO.N,row10*%
X121096624Y-84686947D03*
%TO.P,MX149,2,ROW*%
%TO.N,Net-(D149-Pad1)*%
X134023624Y-82146947D03*
%TD*%
%TO.P,MX108,1,COL*%
%TO.N,row7*%
X235396624Y-103736947D03*
%TO.P,MX108,2,ROW*%
%TO.N,Net-(D108-Pad1)*%
X248323624Y-101196947D03*
%TD*%
D12*
%TO.P,D55,1,A*%
%TO.N,Net-(D55-Pad1)*%
X402977874Y-165371947D03*
D13*
X402977874Y-163971947D03*
D14*
X402977874Y-166471947D03*
D15*
%TO.P,D55,2,K*%
%TO.N,Net-(D111-Pad2)*%
X402977874Y-171771947D03*
D14*
X402977874Y-169271947D03*
D12*
X402977874Y-170371947D03*
%TD*%
D14*
%TO.P,D5,1,A*%
%TO.N,Net-(D5-Pad1)*%
X498227874Y-147421947D03*
D13*
X498227874Y-144921947D03*
D12*
X498227874Y-146321947D03*
D15*
%TO.P,D5,2,K*%
%TO.N,Net-(D103-Pad2)*%
X498227874Y-152721947D03*
D12*
X498227874Y-151321947D03*
D14*
X498227874Y-150221947D03*
%TD*%
D11*
%TO.P,MX158,1,COL*%
%TO.N,row12*%
X63946624Y-122786947D03*
%TO.P,MX158,2,ROW*%
%TO.N,Net-(D158-Pad1)*%
X76873624Y-120246947D03*
%TD*%
D16*
%TO.P,D214,1,A*%
%TO.N,Net-(D105-Pad2)*%
X34490374Y-58334447D03*
D13*
X36990374Y-58334447D03*
D17*
X35590374Y-58334447D03*
%TO.P,D214,2,K*%
%TO.N,row13*%
X30590374Y-58334447D03*
D15*
X29190374Y-58334447D03*
D16*
X31690374Y-58334447D03*
%TD*%
D11*
%TO.P,MX13,1,COL*%
%TO.N,row0*%
X502096624Y-160886947D03*
%TO.P,MX13,2,ROW*%
%TO.N,Net-(D13-Pad1)*%
X515023624Y-158346947D03*
%TD*%
D12*
%TO.P,D31,1,A*%
%TO.N,Net-(D31-Pad1)*%
X422027874Y-108221947D03*
D14*
X422027874Y-109321947D03*
D13*
X422027874Y-106821947D03*
D12*
%TO.P,D31,2,K*%
%TO.N,Net-(D101-Pad2)*%
X422027874Y-113221947D03*
D14*
X422027874Y-112121947D03*
D15*
X422027874Y-114621947D03*
%TD*%
D12*
%TO.P,D92,1,A*%
%TO.N,Net-(D92-Pad1)*%
X288662568Y-70136098D03*
D13*
X288662568Y-68736098D03*
D14*
X288662568Y-71236098D03*
D15*
%TO.P,D92,2,K*%
%TO.N,Net-(D106-Pad2)*%
X288662568Y-76536098D03*
D12*
X288662568Y-75136098D03*
D14*
X288662568Y-74036098D03*
%TD*%
D11*
%TO.P,MX154,1,COL*%
%TO.N,row12*%
X63946624Y-46586947D03*
%TO.P,MX154,2,ROW*%
%TO.N,Net-(D154-Pad1)*%
X76873624Y-44046947D03*
%TD*%
D13*
%TO.P,D36,1,A*%
%TO.N,Net-(D36-Pad1)*%
X441077874Y-68721947D03*
D14*
X441077874Y-71221947D03*
D12*
X441077874Y-70121947D03*
%TO.P,D36,2,K*%
%TO.N,Net-(D106-Pad2)*%
X441077874Y-75121947D03*
D15*
X441077874Y-76521947D03*
D14*
X441077874Y-74021947D03*
%TD*%
D13*
%TO.P,D84,1,A*%
%TO.N,Net-(D84-Pad1)*%
X269612568Y-49686098D03*
D14*
X269612568Y-52186098D03*
D12*
X269612568Y-51086098D03*
%TO.P,D84,2,K*%
%TO.N,Net-(D0-Pad2)*%
X269612568Y-56086098D03*
D15*
X269612568Y-57486098D03*
D14*
X269612568Y-54986098D03*
%TD*%
%TO.P,D67,1,A*%
%TO.N,Net-(D67-Pad1)*%
X364877874Y-128371947D03*
D12*
X364877874Y-127271947D03*
D13*
X364877874Y-125871947D03*
D12*
%TO.P,D67,2,K*%
%TO.N,Net-(D109-Pad2)*%
X364877874Y-132271947D03*
D15*
X364877874Y-133671947D03*
D14*
X364877874Y-131171947D03*
%TD*%
D11*
%TO.P,MX63,1,COL*%
%TO.N,row4*%
X349696624Y-46586947D03*
%TO.P,MX63,2,ROW*%
%TO.N,Net-(D63-Pad1)*%
X362623624Y-44046947D03*
%TD*%
D13*
%TO.P,D78,1,A*%
%TO.N,Net-(D78-Pad1)*%
X326777874Y-68721947D03*
D14*
X326777874Y-71221947D03*
D12*
X326777874Y-70121947D03*
%TO.P,D78,2,K*%
%TO.N,Net-(D106-Pad2)*%
X326777874Y-75121947D03*
D14*
X326777874Y-74021947D03*
D15*
X326777874Y-76521947D03*
%TD*%
D12*
%TO.P,D27,1,A*%
%TO.N,Net-(D27-Pad1)*%
X479177874Y-165371947D03*
D14*
X479177874Y-166471947D03*
D13*
X479177874Y-163971947D03*
D15*
%TO.P,D27,2,K*%
%TO.N,Net-(D111-Pad2)*%
X479177874Y-171771947D03*
D12*
X479177874Y-170371947D03*
D14*
X479177874Y-169271947D03*
%TD*%
D12*
%TO.P,D106,1,A*%
%TO.N,Net-(D106-Pad1)*%
X250577874Y-70121947D03*
D14*
X250577874Y-71221947D03*
D13*
X250577874Y-68721947D03*
D12*
%TO.P,D106,2,K*%
%TO.N,Net-(D106-Pad2)*%
X250577874Y-75121947D03*
D14*
X250577874Y-74021947D03*
D15*
X250577874Y-76521947D03*
%TD*%
D11*
%TO.P,MX122,1,COL*%
%TO.N,row8*%
X197296624Y-103736947D03*
%TO.P,MX122,2,ROW*%
%TO.N,Net-(D122-Pad1)*%
X210223624Y-101196947D03*
%TD*%
D13*
%TO.P,D165,1,A*%
%TO.N,Net-(D165-Pad1)*%
X98177874Y-125871947D03*
D14*
X98177874Y-128371947D03*
D12*
X98177874Y-127271947D03*
%TO.P,D165,2,K*%
%TO.N,Net-(D109-Pad2)*%
X98177874Y-132271947D03*
D14*
X98177874Y-131171947D03*
D15*
X98177874Y-133671947D03*
%TD*%
D13*
%TO.P,D89,1,A*%
%TO.N,Net-(D89-Pad1)*%
X269612568Y-144936098D03*
D14*
X269612568Y-147436098D03*
D12*
X269612568Y-146336098D03*
%TO.P,D89,2,K*%
%TO.N,Net-(D103-Pad2)*%
X269612568Y-151336098D03*
D14*
X269612568Y-150236098D03*
D15*
X269612568Y-152736098D03*
%TD*%
D11*
%TO.P,MX113,1,COL*%
%TO.N,row9*%
X178246624Y-65636947D03*
%TO.P,MX113,2,ROW*%
%TO.N,Net-(D113-Pad1)*%
X191173624Y-63096947D03*
%TD*%
%TO.P,MX101,1,COL*%
%TO.N,row8*%
X216346624Y-103736947D03*
%TO.P,MX101,2,ROW*%
%TO.N,Net-(D101-Pad1)*%
X229273624Y-101196947D03*
%TD*%
D13*
%TO.P,D96,1,A*%
%TO.N,Net-(D96-Pad1)*%
X288662568Y-144936098D03*
D14*
X288662568Y-147436098D03*
D12*
X288662568Y-146336098D03*
D14*
%TO.P,D96,2,K*%
%TO.N,Net-(D110-Pad2)*%
X288662568Y-150236098D03*
D12*
X288662568Y-151336098D03*
D15*
X288662568Y-152736098D03*
%TD*%
D12*
%TO.P,D0,1,A*%
%TO.N,Net-(D0-Pad1)*%
X498227874Y-51071947D03*
D14*
X498227874Y-52171947D03*
D13*
X498227874Y-49671947D03*
D12*
%TO.P,D0,2,K*%
%TO.N,Net-(D0-Pad2)*%
X498227874Y-56071947D03*
D14*
X498227874Y-54971947D03*
D15*
X498227874Y-57471947D03*
%TD*%
D12*
%TO.P,D108,1,A*%
%TO.N,Net-(D108-Pad1)*%
X250577874Y-108221947D03*
D13*
X250577874Y-106821947D03*
D14*
X250577874Y-109321947D03*
D15*
%TO.P,D108,2,K*%
%TO.N,Net-(D10-Pad2)*%
X250577874Y-114621947D03*
D12*
X250577874Y-113221947D03*
D14*
X250577874Y-112121947D03*
%TD*%
D11*
%TO.P,MX40,1,COL*%
%TO.N,row2*%
X425896624Y-141836947D03*
%TO.P,MX40,2,ROW*%
%TO.N,Net-(D40-Pad1)*%
X438823624Y-139296947D03*
%TD*%
D12*
%TO.P,D83,1,A*%
%TO.N,Net-(D83-Pad1)*%
X326777874Y-165371947D03*
D13*
X326777874Y-163971947D03*
D14*
X326777874Y-166471947D03*
%TO.P,D83,2,K*%
%TO.N,Net-(D111-Pad2)*%
X326777874Y-169271947D03*
D12*
X326777874Y-170371947D03*
D15*
X326777874Y-171771947D03*
%TD*%
D11*
%TO.P,MX165,1,COL*%
%TO.N,row12*%
X82996624Y-122786947D03*
%TO.P,MX165,2,ROW*%
%TO.N,Net-(D165-Pad1)*%
X95923624Y-120246947D03*
%TD*%
%TO.P,MX46,1,COL*%
%TO.N,row3*%
X368746624Y-122786947D03*
%TO.P,MX46,2,ROW*%
%TO.N,Net-(D46-Pad1)*%
X381673624Y-120246947D03*
%TD*%
%TO.P,MX80,1,COL*%
%TO.N,row5*%
X311596624Y-103736947D03*
%TO.P,MX80,2,ROW*%
%TO.N,Net-(D80-Pad1)*%
X324523624Y-101196947D03*
%TD*%
%TO.P,MX151,1,COL*%
%TO.N,row11*%
X121096624Y-122786947D03*
%TO.P,MX151,2,ROW*%
%TO.N,Net-(D151-Pad1)*%
X134023624Y-120246947D03*
%TD*%
%TO.P,MX99,1,COL*%
%TO.N,row8*%
X216346624Y-65636947D03*
%TO.P,MX99,2,ROW*%
%TO.N,Net-(D99-Pad1)*%
X229273624Y-63096947D03*
%TD*%
D14*
%TO.P,D28,1,A*%
%TO.N,Net-(D28-Pad1)*%
X422027874Y-52171947D03*
D12*
X422027874Y-51071947D03*
D13*
X422027874Y-49671947D03*
D14*
%TO.P,D28,2,K*%
%TO.N,Net-(D0-Pad2)*%
X422027874Y-54971947D03*
D15*
X422027874Y-57471947D03*
D12*
X422027874Y-56071947D03*
%TD*%
D11*
%TO.P,MX164,1,COL*%
%TO.N,row12*%
X82996624Y-103736947D03*
%TO.P,MX164,2,ROW*%
%TO.N,Net-(D164-Pad1)*%
X95923624Y-101196947D03*
%TD*%
D17*
%TO.P,D213,1,A*%
%TO.N,Net-(D106-Pad2)*%
X65515374Y-76590697D03*
D16*
X66615374Y-76590697D03*
D13*
X64115374Y-76590697D03*
D15*
%TO.P,D213,2,K*%
%TO.N,row12*%
X71915374Y-76590697D03*
D16*
X69415374Y-76590697D03*
D17*
X70515374Y-76590697D03*
%TD*%
D12*
%TO.P,D104,1,A*%
%TO.N,Net-(D104-Pad1)*%
X231527874Y-165184447D03*
D14*
X231527874Y-166284447D03*
D13*
X231527874Y-163784447D03*
D14*
%TO.P,D104,2,K*%
%TO.N,Net-(D104-Pad2)*%
X231527874Y-169084447D03*
D12*
X231527874Y-170184447D03*
D15*
X231527874Y-171584447D03*
%TD*%
D11*
%TO.P,MX14,1,COL*%
%TO.N,row2*%
X444946624Y-46586947D03*
%TO.P,MX14,2,ROW*%
%TO.N,Net-(D14-Pad1)*%
X457873624Y-44046947D03*
%TD*%
%TO.P,MX44,1,COL*%
%TO.N,row4*%
X368746624Y-84686947D03*
%TO.P,MX44,2,ROW*%
%TO.N,Net-(D44-Pad1)*%
X381673624Y-82146947D03*
%TD*%
%TO.P,MX74,1,COL*%
%TO.N,row6*%
X292546624Y-122786947D03*
%TO.P,MX74,2,ROW*%
%TO.N,Net-(D74-Pad1)*%
X305473624Y-120246947D03*
%TD*%
%TO.P,MX23,1,COL*%
%TO.N,row1*%
X463996624Y-84686947D03*
%TO.P,MX23,2,ROW*%
%TO.N,Net-(D23-Pad1)*%
X476923624Y-82146947D03*
%TD*%
D12*
%TO.P,D125,1,A*%
%TO.N,Net-(D125-Pad1)*%
X212477874Y-165371947D03*
D13*
X212477874Y-163971947D03*
D14*
X212477874Y-166471947D03*
%TO.P,D125,2,K*%
%TO.N,Net-(D111-Pad2)*%
X212477874Y-169271947D03*
D12*
X212477874Y-170371947D03*
D15*
X212477874Y-171771947D03*
%TD*%
D11*
%TO.P,MX24,1,COL*%
%TO.N,row1*%
X463996624Y-103736947D03*
%TO.P,MX24,2,ROW*%
%TO.N,Net-(D24-Pad1)*%
X476923624Y-101196947D03*
%TD*%
D13*
%TO.P,D121,1,A*%
%TO.N,Net-(D121-Pad1)*%
X212477874Y-87771947D03*
D14*
X212477874Y-90271947D03*
D12*
X212477874Y-89171947D03*
D15*
%TO.P,D121,2,K*%
%TO.N,Net-(D107-Pad2)*%
X212477874Y-95571947D03*
D12*
X212477874Y-94171947D03*
D14*
X212477874Y-93071947D03*
%TD*%
D11*
%TO.P,MX4,1,COL*%
%TO.N,row0*%
X483046624Y-122786947D03*
%TO.P,MX4,2,ROW*%
%TO.N,Net-(D4-Pad1)*%
X495973624Y-120246947D03*
%TD*%
D14*
%TO.P,D23,1,A*%
%TO.N,Net-(D23-Pad1)*%
X479177874Y-90271947D03*
D13*
X479177874Y-87771947D03*
D12*
X479177874Y-89171947D03*
D15*
%TO.P,D23,2,K*%
%TO.N,Net-(D107-Pad2)*%
X479177874Y-95571947D03*
D12*
X479177874Y-94171947D03*
D14*
X479177874Y-93071947D03*
%TD*%
D11*
%TO.P,MX93,1,COL*%
%TO.N,row6*%
X273481318Y-84701098D03*
%TO.P,MX93,2,ROW*%
%TO.N,Net-(D93-Pad1)*%
X286408318Y-82161098D03*
%TD*%
%TO.P,MX66,1,COL*%
%TO.N,row4*%
X349696624Y-103736947D03*
%TO.P,MX66,2,ROW*%
%TO.N,Net-(D66-Pad1)*%
X362623624Y-101196947D03*
%TD*%
D19*
%TO.P,U1,1,TX0/PD3*%
%TO.N,unconnected-(U1-Pad1)*%
X452113374Y-37061947D03*
D20*
%TO.P,U1,2,RX1/PD2*%
%TO.N,unconnected-(U1-Pad2)*%
X454653374Y-37061947D03*
%TO.P,U1,3,GND*%
%TO.N,GND1*%
X457193374Y-37061947D03*
%TO.P,U1,4,GND*%
X459733374Y-37061947D03*
%TO.P,U1,5,2/PD1*%
%TO.N,SCL*%
X462273374Y-37061947D03*
%TO.P,U1,6,3/PD0*%
%TO.N,SDA*%
X464813374Y-37061947D03*
%TO.P,U1,7,4/PD4*%
%TO.N,row5*%
X467353374Y-37061947D03*
%TO.P,U1,8,5/PC6*%
%TO.N,row4*%
X469893374Y-37061947D03*
%TO.P,U1,9,6/PD7*%
%TO.N,row3*%
X472433374Y-37061947D03*
%TO.P,U1,10,7/PE6*%
%TO.N,row2*%
X474973374Y-37061947D03*
%TO.P,U1,11,8/PB4*%
%TO.N,row1*%
X477513374Y-37061947D03*
%TO.P,U1,12,9/PB5*%
%TO.N,row0*%
X480053374Y-36833347D03*
%TO.P,U1,13,10/PB6*%
%TO.N,row8*%
X480053374Y-21821947D03*
%TO.P,U1,14,16/PB2*%
%TO.N,row9*%
X477513374Y-21821947D03*
%TO.P,U1,15,14/PB3*%
%TO.N,row10*%
X474973374Y-21821947D03*
%TO.P,U1,16,15/PB1*%
%TO.N,row11*%
X472433374Y-21821947D03*
%TO.P,U1,17,A0/PF7*%
%TO.N,row12*%
X469893374Y-21821947D03*
%TO.P,U1,18,A1/PF6*%
%TO.N,row13*%
X467353374Y-21821947D03*
%TO.P,U1,19,A2/PF5*%
%TO.N,unconnected-(U1-Pad19)*%
X464813374Y-21821947D03*
%TO.P,U1,20,A3/PF4*%
%TO.N,unconnected-(U1-Pad20)*%
X462273374Y-21821947D03*
%TO.P,U1,21,VCC*%
%TO.N,+5V*%
X459733374Y-21821947D03*
%TO.P,U1,22,RST*%
%TO.N,reset*%
X457193374Y-21821947D03*
%TO.P,U1,23,GND*%
%TO.N,GND1*%
X454653374Y-21821947D03*
%TO.P,U1,24,B0*%
%TO.N,unconnected-(U1-Pad24)*%
X452113374Y-21821947D03*
%TO.P,U1,25,B7*%
%TO.N,row6*%
X480053374Y-34521947D03*
%TO.P,U1,26,D5*%
%TO.N,unconnected-(U1-Pad26)*%
X480053374Y-31981947D03*
%TO.P,U1,27,C7*%
%TO.N,unconnected-(U1-Pad27)*%
X480053374Y-29441947D03*
%TO.P,U1,28,F1*%
%TO.N,unconnected-(U1-Pad28)*%
X480053374Y-26901947D03*
%TO.P,U1,29,F0*%
%TO.N,row7*%
X480053374Y-24361947D03*
%TD*%
D11*
%TO.P,MX87,1,COL*%
%TO.N,row7*%
X254431318Y-103751098D03*
%TO.P,MX87,2,ROW*%
%TO.N,Net-(D87-Pad1)*%
X267358318Y-101211098D03*
%TD*%
D12*
%TO.P,D117,1,A*%
%TO.N,Net-(D117-Pad1)*%
X193427874Y-146321947D03*
D13*
X193427874Y-144921947D03*
D14*
X193427874Y-147421947D03*
D12*
%TO.P,D117,2,K*%
%TO.N,Net-(D103-Pad2)*%
X193427874Y-151321947D03*
D14*
X193427874Y-150221947D03*
D15*
X193427874Y-152721947D03*
%TD*%
D11*
%TO.P,MX79,1,COL*%
%TO.N,row5*%
X311596624Y-84686947D03*
%TO.P,MX79,2,ROW*%
%TO.N,Net-(D79-Pad1)*%
X324523624Y-82146947D03*
%TD*%
D13*
%TO.P,D8,1,A*%
%TO.N,Net-(D8-Pad1)*%
X517277874Y-68721947D03*
D14*
X517277874Y-71221947D03*
D12*
X517277874Y-70121947D03*
D15*
%TO.P,D8,2,K*%
%TO.N,Net-(D106-Pad2)*%
X517277874Y-76521947D03*
D14*
X517277874Y-74021947D03*
D12*
X517277874Y-75121947D03*
%TD*%
D14*
%TO.P,D33,1,A*%
%TO.N,Net-(D33-Pad1)*%
X422027874Y-147421947D03*
D13*
X422027874Y-144921947D03*
D12*
X422027874Y-146321947D03*
D14*
%TO.P,D33,2,K*%
%TO.N,Net-(D103-Pad2)*%
X422027874Y-150221947D03*
D12*
X422027874Y-151321947D03*
D15*
X422027874Y-152721947D03*
%TD*%
D13*
%TO.P,D35,1,A*%
%TO.N,Net-(D35-Pad1)*%
X441077874Y-49671947D03*
D14*
X441077874Y-52171947D03*
D12*
X441077874Y-51071947D03*
D14*
%TO.P,D35,2,K*%
%TO.N,Net-(D105-Pad2)*%
X441077874Y-54971947D03*
D15*
X441077874Y-57471947D03*
D12*
X441077874Y-56071947D03*
%TD*%
D11*
%TO.P,MX15,1,COL*%
%TO.N,row2*%
X444946624Y-65636947D03*
%TO.P,MX15,2,ROW*%
%TO.N,Net-(D15-Pad1)*%
X457873624Y-63096947D03*
%TD*%
D12*
%TO.P,D164,1,A*%
%TO.N,Net-(D164-Pad1)*%
X98177874Y-108221947D03*
D14*
X98177874Y-109321947D03*
D13*
X98177874Y-106821947D03*
D15*
%TO.P,D164,2,K*%
%TO.N,Net-(D10-Pad2)*%
X98177874Y-114621947D03*
D12*
X98177874Y-113221947D03*
D14*
X98177874Y-112121947D03*
%TD*%
D11*
%TO.P,MX75,1,COL*%
%TO.N,row6*%
X292546624Y-141836947D03*
%TO.P,MX75,2,ROW*%
%TO.N,Net-(D75-Pad1)*%
X305473624Y-139296947D03*
%TD*%
%TO.P,MX116,1,COL*%
%TO.N,row9*%
X178246624Y-122786947D03*
%TO.P,MX116,2,ROW*%
%TO.N,Net-(D116-Pad1)*%
X191173624Y-120246947D03*
%TD*%
%TO.P,MX120,1,COL*%
%TO.N,row8*%
X197296624Y-65636947D03*
%TO.P,MX120,2,ROW*%
%TO.N,Net-(D120-Pad1)*%
X210223624Y-63096947D03*
%TD*%
%TO.P,MX115,1,COL*%
%TO.N,row9*%
X178246624Y-103736947D03*
%TO.P,MX115,2,ROW*%
%TO.N,Net-(D115-Pad1)*%
X191173624Y-101196947D03*
%TD*%
D13*
%TO.P,D19,1,A*%
%TO.N,Net-(D19-Pad1)*%
X460127874Y-144921947D03*
D12*
X460127874Y-146321947D03*
D14*
X460127874Y-147421947D03*
%TO.P,D19,2,K*%
%TO.N,Net-(D103-Pad2)*%
X460127874Y-150221947D03*
D15*
X460127874Y-152721947D03*
D12*
X460127874Y-151321947D03*
%TD*%
D11*
%TO.P,MX3,1,COL*%
%TO.N,row0*%
X483046624Y-103736947D03*
%TO.P,MX3,2,ROW*%
%TO.N,Net-(D3-Pad1)*%
X495973624Y-101196947D03*
%TD*%
%TO.P,MX90,1,COL*%
%TO.N,row7*%
X254431318Y-160901098D03*
%TO.P,MX90,2,ROW*%
%TO.N,Net-(D90-Pad1)*%
X267358318Y-158361098D03*
%TD*%
D14*
%TO.P,D174,1,A*%
%TO.N,Net-(D174-Pad1)*%
X41027874Y-166471947D03*
D13*
X41027874Y-163971947D03*
D12*
X41027874Y-165371947D03*
%TO.P,D174,2,K*%
%TO.N,Net-(D104-Pad2)*%
X41027874Y-170371947D03*
D15*
X41027874Y-171771947D03*
D14*
X41027874Y-169271947D03*
%TD*%
D13*
%TO.P,D202,1,A*%
%TO.N,Net-(D1-Pad2)*%
X465752874Y-76590697D03*
D16*
X468252874Y-76590697D03*
D17*
X467152874Y-76590697D03*
D15*
%TO.P,D202,2,K*%
%TO.N,row1*%
X473552874Y-76590697D03*
D16*
X471052874Y-76590697D03*
D17*
X472152874Y-76590697D03*
%TD*%
D11*
%TO.P,MX153,1,COL*%
%TO.N,row11*%
X121096624Y-160886947D03*
%TO.P,MX153,2,ROW*%
%TO.N,Net-(D153-Pad1)*%
X134023624Y-158346947D03*
%TD*%
%TO.P,MX159,1,COL*%
%TO.N,row12*%
X63946624Y-141836947D03*
%TO.P,MX159,2,ROW*%
%TO.N,Net-(D159-Pad1)*%
X76873624Y-139296947D03*
%TD*%
%TO.P,MX167,1,COL*%
%TO.N,row12*%
X82996624Y-160886947D03*
%TO.P,MX167,2,ROW*%
%TO.N,Net-(D167-Pad1)*%
X95923624Y-158346947D03*
%TD*%
%TO.P,MX51,1,COL*%
%TO.N,row3*%
X387796624Y-84686947D03*
%TO.P,MX51,2,ROW*%
%TO.N,Net-(D51-Pad1)*%
X400723624Y-82146947D03*
%TD*%
D13*
%TO.P,D161,1,A*%
%TO.N,Net-(D161-Pad1)*%
X98177874Y-49671947D03*
D12*
X98177874Y-51071947D03*
D14*
X98177874Y-52171947D03*
%TO.P,D161,2,K*%
%TO.N,Net-(D105-Pad2)*%
X98177874Y-54971947D03*
D15*
X98177874Y-57471947D03*
D12*
X98177874Y-56071947D03*
%TD*%
%TO.P,D38,1,A*%
%TO.N,Net-(D38-Pad1)*%
X441077874Y-108221947D03*
D13*
X441077874Y-106821947D03*
D14*
X441077874Y-109321947D03*
%TO.P,D38,2,K*%
%TO.N,Net-(D10-Pad2)*%
X441077874Y-112121947D03*
D12*
X441077874Y-113221947D03*
D15*
X441077874Y-114621947D03*
%TD*%
D11*
%TO.P,MX162,1,COL*%
%TO.N,row11*%
X82996624Y-65636947D03*
%TO.P,MX162,2,ROW*%
%TO.N,Net-(D162-Pad1)*%
X95923624Y-63096947D03*
%TD*%
%TO.P,MX54,1,COL*%
%TO.N,row3*%
X387796624Y-141836947D03*
%TO.P,MX54,2,ROW*%
%TO.N,Net-(D54-Pad1)*%
X400723624Y-139296947D03*
%TD*%
D12*
%TO.P,D101,1,A*%
%TO.N,Net-(D101-Pad1)*%
X231527874Y-108221947D03*
D13*
X231527874Y-106821947D03*
D14*
X231527874Y-109321947D03*
%TO.P,D101,2,K*%
%TO.N,Net-(D101-Pad2)*%
X231527874Y-112121947D03*
D12*
X231527874Y-113221947D03*
D15*
X231527874Y-114621947D03*
%TD*%
D14*
%TO.P,D65,1,A*%
%TO.N,Net-(D65-Pad1)*%
X364877874Y-90271947D03*
D12*
X364877874Y-89171947D03*
D13*
X364877874Y-87771947D03*
D14*
%TO.P,D65,2,K*%
%TO.N,Net-(D107-Pad2)*%
X364877874Y-93071947D03*
D15*
X364877874Y-95571947D03*
D12*
X364877874Y-94171947D03*
%TD*%
D11*
%TO.P,MX20,1,COL*%
%TO.N,row1*%
X444946624Y-160886947D03*
%TO.P,MX20,2,ROW*%
%TO.N,Net-(D20-Pad1)*%
X457873624Y-158346947D03*
%TD*%
%TO.P,MX21,1,COL*%
%TO.N,row1*%
X463996624Y-46586947D03*
%TO.P,MX21,2,ROW*%
%TO.N,Net-(D21-Pad1)*%
X476923624Y-44046947D03*
%TD*%
D13*
%TO.P,D136,1,A*%
%TO.N,Net-(D136-Pad1)*%
X174377874Y-106821947D03*
D12*
X174377874Y-108221947D03*
D14*
X174377874Y-109321947D03*
D12*
%TO.P,D136,2,K*%
%TO.N,Net-(D10-Pad2)*%
X174377874Y-113221947D03*
D14*
X174377874Y-112121947D03*
D15*
X174377874Y-114621947D03*
%TD*%
D11*
%TO.P,MX176,1,COL*%
%TO.N,row13*%
X44896624Y-65636947D03*
%TO.P,MX176,2,ROW*%
%TO.N,Net-(D176-Pad1)*%
X57823624Y-63096947D03*
%TD*%
D14*
%TO.P,D122,1,A*%
%TO.N,Net-(D122-Pad1)*%
X212477874Y-109321947D03*
D12*
X212477874Y-108221947D03*
D13*
X212477874Y-106821947D03*
D15*
%TO.P,D122,2,K*%
%TO.N,Net-(D10-Pad2)*%
X212477874Y-114621947D03*
D14*
X212477874Y-112121947D03*
D12*
X212477874Y-113221947D03*
%TD*%
D11*
%TO.P,MX11,1,COL*%
%TO.N,row0*%
X502096624Y-122786947D03*
%TO.P,MX11,2,ROW*%
%TO.N,Net-(D11-Pad1)*%
X515023624Y-120246947D03*
%TD*%
%TO.P,MX141,1,COL*%
%TO.N,row11*%
X102046624Y-65636947D03*
%TO.P,MX141,2,ROW*%
%TO.N,Net-(D141-Pad1)*%
X114973624Y-63096947D03*
%TD*%
%TO.P,MX49,1,COL*%
%TO.N,row3*%
X387796624Y-46586947D03*
%TO.P,MX49,2,ROW*%
%TO.N,Net-(D49-Pad1)*%
X400723624Y-44046947D03*
%TD*%
%TO.P,MX142,1,COL*%
%TO.N,row11*%
X102046624Y-84686947D03*
%TO.P,MX142,2,ROW*%
%TO.N,Net-(D142-Pad1)*%
X114973624Y-82146947D03*
%TD*%
%TO.P,MX6,1,COL*%
%TO.N,row0*%
X483046624Y-160886947D03*
%TO.P,MX6,2,ROW*%
%TO.N,Net-(D6-Pad1)*%
X495973624Y-158346947D03*
%TD*%
%TO.P,MX59,1,COL*%
%TO.N,row5*%
X330646624Y-103736947D03*
%TO.P,MX59,2,ROW*%
%TO.N,Net-(D59-Pad1)*%
X343573624Y-101196947D03*
%TD*%
%TO.P,MX36,1,COL*%
%TO.N,row2*%
X425896624Y-65636947D03*
%TO.P,MX36,2,ROW*%
%TO.N,Net-(D36-Pad1)*%
X438823624Y-63096947D03*
%TD*%
D12*
%TO.P,D59,1,A*%
%TO.N,Net-(D59-Pad1)*%
X345827874Y-108221947D03*
D13*
X345827874Y-106821947D03*
D14*
X345827874Y-109321947D03*
%TO.P,D59,2,K*%
%TO.N,Net-(D101-Pad2)*%
X345827874Y-112121947D03*
D15*
X345827874Y-114621947D03*
D12*
X345827874Y-113221947D03*
%TD*%
%TO.P,D172,1,A*%
%TO.N,Net-(D172-Pad1)*%
X41027874Y-127271947D03*
D13*
X41027874Y-125871947D03*
D14*
X41027874Y-128371947D03*
D12*
%TO.P,D172,2,K*%
%TO.N,Net-(D102-Pad2)*%
X41027874Y-132271947D03*
D15*
X41027874Y-133671947D03*
D14*
X41027874Y-131171947D03*
%TD*%
D11*
%TO.P,MX95,1,COL*%
%TO.N,row6*%
X273481318Y-122801098D03*
%TO.P,MX95,2,ROW*%
%TO.N,Net-(D95-Pad1)*%
X286408318Y-120261098D03*
%TD*%
D14*
%TO.P,D32,1,A*%
%TO.N,Net-(D32-Pad1)*%
X422027874Y-128371947D03*
D13*
X422027874Y-125871947D03*
D12*
X422027874Y-127271947D03*
D14*
%TO.P,D32,2,K*%
%TO.N,Net-(D102-Pad2)*%
X422027874Y-131171947D03*
D12*
X422027874Y-132271947D03*
D15*
X422027874Y-133671947D03*
%TD*%
D13*
%TO.P,D155,1,A*%
%TO.N,Net-(D155-Pad1)*%
X79127874Y-68721947D03*
D12*
X79127874Y-70121947D03*
D14*
X79127874Y-71221947D03*
D12*
%TO.P,D155,2,K*%
%TO.N,Net-(D1-Pad2)*%
X79127874Y-75121947D03*
D14*
X79127874Y-74021947D03*
D15*
X79127874Y-76521947D03*
%TD*%
D13*
%TO.P,D76,1,A*%
%TO.N,Net-(D76-Pad1)*%
X307727874Y-163971947D03*
D14*
X307727874Y-166471947D03*
D12*
X307727874Y-165371947D03*
D15*
%TO.P,D76,2,K*%
%TO.N,Net-(D104-Pad2)*%
X307727874Y-171771947D03*
D14*
X307727874Y-169271947D03*
D12*
X307727874Y-170371947D03*
%TD*%
D11*
%TO.P,MX82,1,COL*%
%TO.N,row5*%
X311596624Y-141836947D03*
%TO.P,MX82,2,ROW*%
%TO.N,Net-(D82-Pad1)*%
X324523624Y-139296947D03*
%TD*%
D13*
%TO.P,D94,1,A*%
%TO.N,Net-(D94-Pad1)*%
X288662568Y-106836098D03*
D12*
X288662568Y-108236098D03*
D14*
X288662568Y-109336098D03*
D12*
%TO.P,D94,2,K*%
%TO.N,Net-(D10-Pad2)*%
X288662568Y-113236098D03*
D14*
X288662568Y-112136098D03*
D15*
X288662568Y-114636098D03*
%TD*%
D14*
%TO.P,D168,1,A*%
%TO.N,Net-(D168-Pad1)*%
X41027874Y-52171947D03*
D13*
X41027874Y-49671947D03*
D12*
X41027874Y-51071947D03*
D15*
%TO.P,D168,2,K*%
%TO.N,Net-(D0-Pad2)*%
X41027874Y-57471947D03*
D12*
X41027874Y-56071947D03*
D14*
X41027874Y-54971947D03*
%TD*%
%TO.P,D171,1,A*%
%TO.N,Net-(D171-Pad1)*%
X41027874Y-109321947D03*
D12*
X41027874Y-108221947D03*
D13*
X41027874Y-106821947D03*
D15*
%TO.P,D171,2,K*%
%TO.N,Net-(D101-Pad2)*%
X41027874Y-114621947D03*
D12*
X41027874Y-113221947D03*
D14*
X41027874Y-112121947D03*
%TD*%
D11*
%TO.P,MX17,1,COL*%
%TO.N,row1*%
X444946624Y-103736947D03*
%TO.P,MX17,2,ROW*%
%TO.N,Net-(D17-Pad1)*%
X457873624Y-101196947D03*
%TD*%
D12*
%TO.P,D93,1,A*%
%TO.N,Net-(D93-Pad1)*%
X288662568Y-89186098D03*
D14*
X288662568Y-90286098D03*
D13*
X288662568Y-87786098D03*
D15*
%TO.P,D93,2,K*%
%TO.N,Net-(D107-Pad2)*%
X288662568Y-95586098D03*
D14*
X288662568Y-93086098D03*
D12*
X288662568Y-94186098D03*
%TD*%
D14*
%TO.P,D113,1,A*%
%TO.N,Net-(D113-Pad1)*%
X193427874Y-71221947D03*
D13*
X193427874Y-68721947D03*
D12*
X193427874Y-70121947D03*
%TO.P,D113,2,K*%
%TO.N,Net-(D1-Pad2)*%
X193427874Y-75121947D03*
D15*
X193427874Y-76521947D03*
D14*
X193427874Y-74021947D03*
%TD*%
D11*
%TO.P,MX10,1,COL*%
%TO.N,row0*%
X502096624Y-103736947D03*
%TO.P,MX10,2,ROW*%
%TO.N,Net-(D10-Pad1)*%
X515023624Y-101196947D03*
%TD*%
%TO.P,MX77,1,COL*%
%TO.N,row5*%
X311596624Y-46586947D03*
%TO.P,MX77,2,ROW*%
%TO.N,Net-(D77-Pad1)*%
X324523624Y-44046947D03*
%TD*%
D12*
%TO.P,D130,1,A*%
%TO.N,Net-(D130-Pad1)*%
X155327874Y-127271947D03*
D13*
X155327874Y-125871947D03*
D14*
X155327874Y-128371947D03*
%TO.P,D130,2,K*%
%TO.N,Net-(D102-Pad2)*%
X155327874Y-131171947D03*
D15*
X155327874Y-133671947D03*
D12*
X155327874Y-132271947D03*
%TD*%
D11*
%TO.P,MX55,1,COL*%
%TO.N,row3*%
X387796624Y-160886947D03*
%TO.P,MX55,2,ROW*%
%TO.N,Net-(D55-Pad1)*%
X400723624Y-158346947D03*
%TD*%
D14*
%TO.P,D91,1,A*%
%TO.N,Net-(D91-Pad1)*%
X288662568Y-52186098D03*
D13*
X288662568Y-49686098D03*
D12*
X288662568Y-51086098D03*
%TO.P,D91,2,K*%
%TO.N,Net-(D105-Pad2)*%
X288662568Y-56086098D03*
D14*
X288662568Y-54986098D03*
D15*
X288662568Y-57486098D03*
%TD*%
D11*
%TO.P,MX148,1,COL*%
%TO.N,row10*%
X121096624Y-65636947D03*
%TO.P,MX148,2,ROW*%
%TO.N,Net-(D148-Pad1)*%
X134023624Y-63096947D03*
%TD*%
%TO.P,MX132,1,COL*%
%TO.N,row10*%
X140146624Y-160886947D03*
%TO.P,MX132,2,ROW*%
%TO.N,Net-(D132-Pad1)*%
X153073624Y-158346947D03*
%TD*%
%TO.P,MX88,1,COL*%
%TO.N,row7*%
X254431318Y-122801098D03*
%TO.P,MX88,2,ROW*%
%TO.N,Net-(D88-Pad1)*%
X267358318Y-120261098D03*
%TD*%
D14*
%TO.P,D111,1,A*%
%TO.N,Net-(D111-Pad1)*%
X250577874Y-166471947D03*
D12*
X250577874Y-165371947D03*
D13*
X250577874Y-163971947D03*
D14*
%TO.P,D111,2,K*%
%TO.N,Net-(D111-Pad2)*%
X250577874Y-169271947D03*
D15*
X250577874Y-171771947D03*
D12*
X250577874Y-170371947D03*
%TD*%
D13*
%TO.P,D123,1,A*%
%TO.N,Net-(D123-Pad1)*%
X212477874Y-125871947D03*
D12*
X212477874Y-127271947D03*
D14*
X212477874Y-128371947D03*
%TO.P,D123,2,K*%
%TO.N,Net-(D109-Pad2)*%
X212477874Y-131171947D03*
D15*
X212477874Y-133671947D03*
D12*
X212477874Y-132271947D03*
%TD*%
D11*
%TO.P,MX72,1,COL*%
%TO.N,row6*%
X292546624Y-84686947D03*
%TO.P,MX72,2,ROW*%
%TO.N,Net-(D72-Pad1)*%
X305473624Y-82146947D03*
%TD*%
D12*
%TO.P,D179,1,A*%
%TO.N,Net-(D179-Pad1)*%
X60077874Y-127271947D03*
D13*
X60077874Y-125871947D03*
D14*
X60077874Y-128371947D03*
%TO.P,D179,2,K*%
%TO.N,Net-(D109-Pad2)*%
X60077874Y-131171947D03*
D12*
X60077874Y-132271947D03*
D15*
X60077874Y-133671947D03*
%TD*%
D11*
%TO.P,MX127,1,COL*%
%TO.N,row10*%
X140146624Y-65636947D03*
%TO.P,MX127,2,ROW*%
%TO.N,Net-(D127-Pad1)*%
X153073624Y-63096947D03*
%TD*%
D16*
%TO.P,D209,1,A*%
%TO.N,Net-(D110-Pad2)*%
X243246624Y-152790697D03*
D17*
X244346624Y-152790697D03*
D13*
X245746624Y-152790697D03*
D17*
%TO.P,D209,2,K*%
%TO.N,row8*%
X239346624Y-152790697D03*
D15*
X237946624Y-152790697D03*
D16*
X240446624Y-152790697D03*
%TD*%
D11*
%TO.P,MX76,1,COL*%
%TO.N,row5*%
X292546624Y-160886947D03*
%TO.P,MX76,2,ROW*%
%TO.N,Net-(D76-Pad1)*%
X305473624Y-158346947D03*
%TD*%
D14*
%TO.P,D112,1,A*%
%TO.N,Net-(D112-Pad1)*%
X193427874Y-52171947D03*
D13*
X193427874Y-49671947D03*
D12*
X193427874Y-51071947D03*
D15*
%TO.P,D112,2,K*%
%TO.N,Net-(D0-Pad2)*%
X193427874Y-57471947D03*
D12*
X193427874Y-56071947D03*
D14*
X193427874Y-54971947D03*
%TD*%
D13*
%TO.P,D150,1,A*%
%TO.N,Net-(D150-Pad1)*%
X136277874Y-106821947D03*
D14*
X136277874Y-109321947D03*
D12*
X136277874Y-108221947D03*
D15*
%TO.P,D150,2,K*%
%TO.N,Net-(D10-Pad2)*%
X136277874Y-114621947D03*
D14*
X136277874Y-112121947D03*
D12*
X136277874Y-113221947D03*
%TD*%
D13*
%TO.P,D15,1,A*%
%TO.N,Net-(D15-Pad1)*%
X460127874Y-68721947D03*
D14*
X460127874Y-71221947D03*
D12*
X460127874Y-70121947D03*
%TO.P,D15,2,K*%
%TO.N,Net-(D1-Pad2)*%
X460127874Y-75121947D03*
D15*
X460127874Y-76521947D03*
D14*
X460127874Y-74021947D03*
%TD*%
D11*
%TO.P,MX170,1,COL*%
%TO.N,row13*%
X25846624Y-84686947D03*
%TO.P,MX170,2,ROW*%
%TO.N,Net-(D170-Pad1)*%
X38773624Y-82146947D03*
%TD*%
D12*
%TO.P,D86,1,A*%
%TO.N,Net-(D86-Pad1)*%
X269612568Y-89186098D03*
D13*
X269612568Y-87786098D03*
D14*
X269612568Y-90286098D03*
%TO.P,D86,2,K*%
%TO.N,Net-(D100-Pad2)*%
X269612568Y-93086098D03*
D12*
X269612568Y-94186098D03*
D15*
X269612568Y-95586098D03*
%TD*%
D11*
%TO.P,MX125,1,COL*%
%TO.N,row9*%
X197296624Y-160886947D03*
%TO.P,MX125,2,ROW*%
%TO.N,Net-(D125-Pad1)*%
X210223624Y-158346947D03*
%TD*%
D17*
%TO.P,D201,1,A*%
%TO.N,Net-(D0-Pad2)*%
X504340374Y-57540697D03*
D13*
X502940374Y-57540697D03*
D16*
X505440374Y-57540697D03*
D15*
%TO.P,D201,2,K*%
%TO.N,row0*%
X510740374Y-57540697D03*
D17*
X509340374Y-57540697D03*
D16*
X508240374Y-57540697D03*
%TD*%
D11*
%TO.P,MX52,1,COL*%
%TO.N,row3*%
X387796624Y-103736947D03*
%TO.P,MX52,2,ROW*%
%TO.N,Net-(D52-Pad1)*%
X400723624Y-101196947D03*
%TD*%
D12*
%TO.P,D73,1,A*%
%TO.N,Net-(D73-Pad1)*%
X307727874Y-108221947D03*
D13*
X307727874Y-106821947D03*
D14*
X307727874Y-109321947D03*
D15*
%TO.P,D73,2,K*%
%TO.N,Net-(D101-Pad2)*%
X307727874Y-114621947D03*
D12*
X307727874Y-113221947D03*
D14*
X307727874Y-112121947D03*
%TD*%
D11*
%TO.P,MX166,1,COL*%
%TO.N,row12*%
X82996624Y-141836947D03*
%TO.P,MX166,2,ROW*%
%TO.N,Net-(D166-Pad1)*%
X95923624Y-139296947D03*
%TD*%
%TO.P,MX60,1,COL*%
%TO.N,row5*%
X330646624Y-122786947D03*
%TO.P,MX60,2,ROW*%
%TO.N,Net-(D60-Pad1)*%
X343573624Y-120246947D03*
%TD*%
%TO.P,MX157,1,COL*%
%TO.N,row12*%
X63946624Y-103736947D03*
%TO.P,MX157,2,ROW*%
%TO.N,Net-(D157-Pad1)*%
X76873624Y-101196947D03*
%TD*%
%TO.P,MX61,1,COL*%
%TO.N,row4*%
X330646624Y-141836947D03*
%TO.P,MX61,2,ROW*%
%TO.N,Net-(D61-Pad1)*%
X343573624Y-139296947D03*
%TD*%
D14*
%TO.P,D75,1,A*%
%TO.N,Net-(D75-Pad1)*%
X307727874Y-147421947D03*
D12*
X307727874Y-146321947D03*
D13*
X307727874Y-144921947D03*
D12*
%TO.P,D75,2,K*%
%TO.N,Net-(D103-Pad2)*%
X307727874Y-151321947D03*
D15*
X307727874Y-152721947D03*
D14*
X307727874Y-150221947D03*
%TD*%
D11*
%TO.P,MX121,1,COL*%
%TO.N,row8*%
X197296624Y-84686947D03*
%TO.P,MX121,2,ROW*%
%TO.N,Net-(D121-Pad1)*%
X210223624Y-82146947D03*
%TD*%
%TO.P,MX152,1,COL*%
%TO.N,row11*%
X121096624Y-141836947D03*
%TO.P,MX152,2,ROW*%
%TO.N,Net-(D152-Pad1)*%
X134023624Y-139296947D03*
%TD*%
%TO.P,MX62,1,COL*%
%TO.N,row4*%
X330646624Y-160886947D03*
%TO.P,MX62,2,ROW*%
%TO.N,Net-(D62-Pad1)*%
X343573624Y-158346947D03*
%TD*%
D13*
%TO.P,D206,1,A*%
%TO.N,Net-(D103-Pad2)*%
X302896624Y-152790697D03*
D16*
X300396624Y-152790697D03*
D17*
X301496624Y-152790697D03*
%TO.P,D206,2,K*%
%TO.N,row5*%
X296496624Y-152790697D03*
D15*
X295096624Y-152790697D03*
D16*
X297596624Y-152790697D03*
%TD*%
D12*
%TO.P,D133,1,A*%
%TO.N,Net-(D133-Pad1)*%
X174377874Y-51071947D03*
D14*
X174377874Y-52171947D03*
D13*
X174377874Y-49671947D03*
D12*
%TO.P,D133,2,K*%
%TO.N,Net-(D105-Pad2)*%
X174377874Y-56071947D03*
D14*
X174377874Y-54971947D03*
D15*
X174377874Y-57471947D03*
%TD*%
D12*
%TO.P,D13,1,A*%
%TO.N,Net-(D13-Pad1)*%
X517277874Y-165371947D03*
D14*
X517277874Y-166471947D03*
D13*
X517277874Y-163971947D03*
D12*
%TO.P,D13,2,K*%
%TO.N,Net-(D111-Pad2)*%
X517277874Y-170371947D03*
D14*
X517277874Y-169271947D03*
D15*
X517277874Y-171771947D03*
%TD*%
D11*
%TO.P,MX146,1,COL*%
%TO.N,row11*%
X102046624Y-160886947D03*
%TO.P,MX146,2,ROW*%
%TO.N,Net-(D146-Pad1)*%
X114973624Y-158346947D03*
%TD*%
%TO.P,MX102,1,COL*%
%TO.N,row8*%
X216346624Y-122786947D03*
%TO.P,MX102,2,ROW*%
%TO.N,Net-(D102-Pad1)*%
X229273624Y-120246947D03*
%TD*%
D14*
%TO.P,D126,1,A*%
%TO.N,Net-(D126-Pad1)*%
X155327874Y-52171947D03*
D12*
X155327874Y-51071947D03*
D13*
X155327874Y-49671947D03*
D12*
%TO.P,D126,2,K*%
%TO.N,Net-(D0-Pad2)*%
X155327874Y-56071947D03*
D15*
X155327874Y-57471947D03*
D14*
X155327874Y-54971947D03*
%TD*%
D11*
%TO.P,MX41,1,COL*%
%TO.N,row2*%
X425896624Y-160886947D03*
%TO.P,MX41,2,ROW*%
%TO.N,Net-(D41-Pad1)*%
X438823624Y-158346947D03*
%TD*%
%TO.P,MX133,1,COL*%
%TO.N,row9*%
X159196624Y-46586947D03*
%TO.P,MX133,2,ROW*%
%TO.N,Net-(D133-Pad1)*%
X172123624Y-44046947D03*
%TD*%
D14*
%TO.P,D12,1,A*%
%TO.N,Net-(D12-Pad1)*%
X517277874Y-147421947D03*
D13*
X517277874Y-144921947D03*
D12*
X517277874Y-146321947D03*
D15*
%TO.P,D12,2,K*%
%TO.N,Net-(D110-Pad2)*%
X517277874Y-152721947D03*
D14*
X517277874Y-150221947D03*
D12*
X517277874Y-151321947D03*
%TD*%
D11*
%TO.P,MX163,1,COL*%
%TO.N,row12*%
X82996624Y-84686947D03*
%TO.P,MX163,2,ROW*%
%TO.N,Net-(D163-Pad1)*%
X95923624Y-82146947D03*
%TD*%
D14*
%TO.P,D105,1,A*%
%TO.N,Net-(D105-Pad1)*%
X250577874Y-52171947D03*
D13*
X250577874Y-49671947D03*
D12*
X250577874Y-51071947D03*
D15*
%TO.P,D105,2,K*%
%TO.N,Net-(D105-Pad2)*%
X250577874Y-57471947D03*
D12*
X250577874Y-56071947D03*
D14*
X250577874Y-54971947D03*
%TD*%
D12*
%TO.P,D79,1,A*%
%TO.N,Net-(D79-Pad1)*%
X326777874Y-89171947D03*
D13*
X326777874Y-87771947D03*
D14*
X326777874Y-90271947D03*
D12*
%TO.P,D79,2,K*%
%TO.N,Net-(D107-Pad2)*%
X326777874Y-94171947D03*
D14*
X326777874Y-93071947D03*
D15*
X326777874Y-95571947D03*
%TD*%
D13*
%TO.P,D148,1,A*%
%TO.N,Net-(D148-Pad1)*%
X136277874Y-68721947D03*
D12*
X136277874Y-70121947D03*
D14*
X136277874Y-71221947D03*
D12*
%TO.P,D148,2,K*%
%TO.N,Net-(D106-Pad2)*%
X136277874Y-75121947D03*
D14*
X136277874Y-74021947D03*
D15*
X136277874Y-76521947D03*
%TD*%
D14*
%TO.P,D74,1,A*%
%TO.N,Net-(D74-Pad1)*%
X307727874Y-128371947D03*
D12*
X307727874Y-127271947D03*
D13*
X307727874Y-125871947D03*
D14*
%TO.P,D74,2,K*%
%TO.N,Net-(D102-Pad2)*%
X307727874Y-131171947D03*
D12*
X307727874Y-132271947D03*
D15*
X307727874Y-133671947D03*
%TD*%
D14*
%TO.P,D166,1,A*%
%TO.N,Net-(D166-Pad1)*%
X98177874Y-147421947D03*
D12*
X98177874Y-146321947D03*
D13*
X98177874Y-144921947D03*
D14*
%TO.P,D166,2,K*%
%TO.N,Net-(D110-Pad2)*%
X98177874Y-150221947D03*
D12*
X98177874Y-151321947D03*
D15*
X98177874Y-152721947D03*
%TD*%
D14*
%TO.P,D156,1,A*%
%TO.N,Net-(D156-Pad1)*%
X79127874Y-90271947D03*
D13*
X79127874Y-87771947D03*
D12*
X79127874Y-89171947D03*
D14*
%TO.P,D156,2,K*%
%TO.N,Net-(D100-Pad2)*%
X79127874Y-93071947D03*
D15*
X79127874Y-95571947D03*
D12*
X79127874Y-94171947D03*
%TD*%
D11*
%TO.P,MX43,1,COL*%
%TO.N,row4*%
X368746624Y-65636947D03*
%TO.P,MX43,2,ROW*%
%TO.N,Net-(D43-Pad1)*%
X381673624Y-63096947D03*
%TD*%
D13*
%TO.P,D149,1,A*%
%TO.N,Net-(D149-Pad1)*%
X136277874Y-87771947D03*
D12*
X136277874Y-89171947D03*
D14*
X136277874Y-90271947D03*
D12*
%TO.P,D149,2,K*%
%TO.N,Net-(D107-Pad2)*%
X136277874Y-94171947D03*
D15*
X136277874Y-95571947D03*
D14*
X136277874Y-93071947D03*
%TD*%
D11*
%TO.P,MX171,1,COL*%
%TO.N,row13*%
X25846624Y-103736947D03*
%TO.P,MX171,2,ROW*%
%TO.N,Net-(D171-Pad1)*%
X38773624Y-101196947D03*
%TD*%
D12*
%TO.P,D53,1,A*%
%TO.N,Net-(D53-Pad1)*%
X402977874Y-127271947D03*
D13*
X402977874Y-125871947D03*
D14*
X402977874Y-128371947D03*
%TO.P,D53,2,K*%
%TO.N,Net-(D109-Pad2)*%
X402977874Y-131171947D03*
D15*
X402977874Y-133671947D03*
D12*
X402977874Y-132271947D03*
%TD*%
%TO.P,D30,1,A*%
%TO.N,Net-(D30-Pad1)*%
X422027874Y-89171947D03*
D13*
X422027874Y-87771947D03*
D14*
X422027874Y-90271947D03*
%TO.P,D30,2,K*%
%TO.N,Net-(D100-Pad2)*%
X422027874Y-93071947D03*
D12*
X422027874Y-94171947D03*
D15*
X422027874Y-95571947D03*
%TD*%
D13*
%TO.P,D98,1,A*%
%TO.N,Net-(D98-Pad1)*%
X231527874Y-49671947D03*
D14*
X231527874Y-52171947D03*
D12*
X231527874Y-51071947D03*
D15*
%TO.P,D98,2,K*%
%TO.N,Net-(D0-Pad2)*%
X231527874Y-57471947D03*
D12*
X231527874Y-56071947D03*
D14*
X231527874Y-54971947D03*
%TD*%
D13*
%TO.P,D39,1,A*%
%TO.N,Net-(D39-Pad1)*%
X441077874Y-125871947D03*
D14*
X441077874Y-128371947D03*
D12*
X441077874Y-127271947D03*
D14*
%TO.P,D39,2,K*%
%TO.N,Net-(D109-Pad2)*%
X441077874Y-131171947D03*
D12*
X441077874Y-132271947D03*
D15*
X441077874Y-133671947D03*
%TD*%
D14*
%TO.P,D134,1,A*%
%TO.N,Net-(D134-Pad1)*%
X174377874Y-71221947D03*
D13*
X174377874Y-68721947D03*
D12*
X174377874Y-70121947D03*
D14*
%TO.P,D134,2,K*%
%TO.N,Net-(D106-Pad2)*%
X174377874Y-74021947D03*
D15*
X174377874Y-76521947D03*
D12*
X174377874Y-75121947D03*
%TD*%
D11*
%TO.P,MX119,1,COL*%
%TO.N,row8*%
X197296624Y-46586947D03*
%TO.P,MX119,2,ROW*%
%TO.N,Net-(D119-Pad1)*%
X210223624Y-44046947D03*
%TD*%
D12*
%TO.P,D176,1,A*%
%TO.N,Net-(D176-Pad1)*%
X60077874Y-70121947D03*
D14*
X60077874Y-71221947D03*
D13*
X60077874Y-68721947D03*
D14*
%TO.P,D176,2,K*%
%TO.N,Net-(D106-Pad2)*%
X60077874Y-74021947D03*
D15*
X60077874Y-76521947D03*
D12*
X60077874Y-75121947D03*
%TD*%
D13*
%TO.P,D210,1,A*%
%TO.N,Net-(D109-Pad2)*%
X179209124Y-134534447D03*
D17*
X180609124Y-134534447D03*
D16*
X181709124Y-134534447D03*
%TO.P,D210,2,K*%
%TO.N,row9*%
X184509124Y-134534447D03*
D15*
X187009124Y-134534447D03*
D17*
X185609124Y-134534447D03*
%TD*%
D11*
%TO.P,MX107,1,COL*%
%TO.N,row7*%
X235396624Y-84686947D03*
%TO.P,MX107,2,ROW*%
%TO.N,Net-(D107-Pad1)*%
X248323624Y-82146947D03*
%TD*%
%TO.P,MX70,1,COL*%
%TO.N,row6*%
X292546624Y-46586947D03*
%TO.P,MX70,2,ROW*%
%TO.N,Net-(D70-Pad1)*%
X305473624Y-44046947D03*
%TD*%
%TO.P,MX69,1,COL*%
%TO.N,row4*%
X349696624Y-160886947D03*
%TO.P,MX69,2,ROW*%
%TO.N,Net-(D69-Pad1)*%
X362623624Y-158346947D03*
%TD*%
%TO.P,MX78,1,COL*%
%TO.N,row5*%
X311596624Y-65636947D03*
%TO.P,MX78,2,ROW*%
%TO.N,Net-(D78-Pad1)*%
X324523624Y-63096947D03*
%TD*%
D12*
%TO.P,D158,1,A*%
%TO.N,Net-(D158-Pad1)*%
X79127874Y-127271947D03*
D13*
X79127874Y-125871947D03*
D14*
X79127874Y-128371947D03*
%TO.P,D158,2,K*%
%TO.N,Net-(D102-Pad2)*%
X79127874Y-131171947D03*
D12*
X79127874Y-132271947D03*
D15*
X79127874Y-133671947D03*
%TD*%
D11*
%TO.P,MX173,1,COL*%
%TO.N,row13*%
X25846624Y-141836947D03*
%TO.P,MX173,2,ROW*%
%TO.N,Net-(D173-Pad1)*%
X38773624Y-139296947D03*
%TD*%
%TO.P,MX145,1,COL*%
%TO.N,row11*%
X102046624Y-141836947D03*
%TO.P,MX145,2,ROW*%
%TO.N,Net-(D145-Pad1)*%
X114973624Y-139296947D03*
%TD*%
%TO.P,MX100,1,COL*%
%TO.N,row8*%
X216346624Y-84686947D03*
%TO.P,MX100,2,ROW*%
%TO.N,Net-(D100-Pad1)*%
X229273624Y-82146947D03*
%TD*%
%TO.P,MX28,1,COL*%
%TO.N,row3*%
X406846624Y-46586947D03*
%TO.P,MX28,2,ROW*%
%TO.N,Net-(D28-Pad1)*%
X419773624Y-44046947D03*
%TD*%
D12*
%TO.P,D69,1,A*%
%TO.N,Net-(D69-Pad1)*%
X364877874Y-165371947D03*
D14*
X364877874Y-166471947D03*
D13*
X364877874Y-163971947D03*
D15*
%TO.P,D69,2,K*%
%TO.N,Net-(D111-Pad2)*%
X364877874Y-171771947D03*
D12*
X364877874Y-170371947D03*
D14*
X364877874Y-169271947D03*
%TD*%
D11*
%TO.P,MX147,1,COL*%
%TO.N,row10*%
X121096624Y-46586947D03*
%TO.P,MX147,2,ROW*%
%TO.N,Net-(D147-Pad1)*%
X134023624Y-44046947D03*
%TD*%
%TO.P,MX8,1,COL*%
%TO.N,row0*%
X502096624Y-65636947D03*
%TO.P,MX8,2,ROW*%
%TO.N,Net-(D8-Pad1)*%
X515023624Y-63096947D03*
%TD*%
D13*
%TO.P,D99,1,A*%
%TO.N,Net-(D99-Pad1)*%
X231527874Y-68721947D03*
D14*
X231527874Y-71221947D03*
D12*
X231527874Y-70121947D03*
D14*
%TO.P,D99,2,K*%
%TO.N,Net-(D1-Pad2)*%
X231527874Y-74021947D03*
D12*
X231527874Y-75121947D03*
D15*
X231527874Y-76521947D03*
%TD*%
D11*
%TO.P,MX34,1,COL*%
%TO.N,row2*%
X406846624Y-160886947D03*
%TO.P,MX34,2,ROW*%
%TO.N,Net-(D34-Pad1)*%
X419773624Y-158346947D03*
%TD*%
D14*
%TO.P,D144,1,A*%
%TO.N,Net-(D144-Pad1)*%
X117227874Y-128371947D03*
D12*
X117227874Y-127271947D03*
D13*
X117227874Y-125871947D03*
D14*
%TO.P,D144,2,K*%
%TO.N,Net-(D102-Pad2)*%
X117227874Y-131171947D03*
D15*
X117227874Y-133671947D03*
D12*
X117227874Y-132271947D03*
%TD*%
D11*
%TO.P,MX97,1,COL*%
%TO.N,row6*%
X273481318Y-160901098D03*
%TO.P,MX97,2,ROW*%
%TO.N,Net-(D97-Pad1)*%
X286408318Y-158361098D03*
%TD*%
D14*
%TO.P,D109,1,A*%
%TO.N,Net-(D109-Pad1)*%
X250577874Y-128371947D03*
D13*
X250577874Y-125871947D03*
D12*
X250577874Y-127271947D03*
D14*
%TO.P,D109,2,K*%
%TO.N,Net-(D109-Pad2)*%
X250577874Y-131171947D03*
D15*
X250577874Y-133671947D03*
D12*
X250577874Y-132271947D03*
%TD*%
%TO.P,D7,1,A*%
%TO.N,Net-(D7-Pad1)*%
X517277874Y-51071947D03*
D13*
X517277874Y-49671947D03*
D14*
X517277874Y-52171947D03*
%TO.P,D7,2,K*%
%TO.N,Net-(D105-Pad2)*%
X517277874Y-54971947D03*
D15*
X517277874Y-57471947D03*
D12*
X517277874Y-56071947D03*
%TD*%
D13*
%TO.P,D14,1,A*%
%TO.N,Net-(D14-Pad1)*%
X460127874Y-49671947D03*
D14*
X460127874Y-52171947D03*
D12*
X460127874Y-51071947D03*
%TO.P,D14,2,K*%
%TO.N,Net-(D0-Pad2)*%
X460127874Y-56071947D03*
D15*
X460127874Y-57471947D03*
D14*
X460127874Y-54971947D03*
%TD*%
D12*
%TO.P,D26,1,A*%
%TO.N,Net-(D26-Pad1)*%
X479177874Y-146321947D03*
D14*
X479177874Y-147421947D03*
D13*
X479177874Y-144921947D03*
D15*
%TO.P,D26,2,K*%
%TO.N,Net-(D110-Pad2)*%
X479177874Y-152721947D03*
D14*
X479177874Y-150221947D03*
D12*
X479177874Y-151321947D03*
%TD*%
D11*
%TO.P,MX111,1,COL*%
%TO.N,row8*%
X235396624Y-160886947D03*
%TO.P,MX111,2,ROW*%
%TO.N,Net-(D111-Pad1)*%
X248323624Y-158346947D03*
%TD*%
D13*
%TO.P,D71,1,A*%
%TO.N,Net-(D71-Pad1)*%
X307727874Y-68721947D03*
D14*
X307727874Y-71221947D03*
D12*
X307727874Y-70121947D03*
%TO.P,D71,2,K*%
%TO.N,Net-(D1-Pad2)*%
X307727874Y-75121947D03*
D14*
X307727874Y-74021947D03*
D15*
X307727874Y-76521947D03*
%TD*%
D13*
%TO.P,D143,1,A*%
%TO.N,Net-(D143-Pad1)*%
X117227874Y-106821947D03*
D14*
X117227874Y-109321947D03*
D12*
X117227874Y-108221947D03*
D15*
%TO.P,D143,2,K*%
%TO.N,Net-(D101-Pad2)*%
X117227874Y-114621947D03*
D12*
X117227874Y-113221947D03*
D14*
X117227874Y-112121947D03*
%TD*%
D11*
%TO.P,MX110,1,COL*%
%TO.N,row7*%
X235396624Y-141836947D03*
%TO.P,MX110,2,ROW*%
%TO.N,Net-(D110-Pad1)*%
X248323624Y-139296947D03*
%TD*%
%TO.P,MX56,1,COL*%
%TO.N,row5*%
X330646624Y-46586947D03*
%TO.P,MX56,2,ROW*%
%TO.N,Net-(D56-Pad1)*%
X343573624Y-44046947D03*
%TD*%
D12*
%TO.P,D118,1,A*%
%TO.N,Net-(D118-Pad1)*%
X193427874Y-165371947D03*
D14*
X193427874Y-166471947D03*
D13*
X193427874Y-163971947D03*
D12*
%TO.P,D118,2,K*%
%TO.N,Net-(D104-Pad2)*%
X193427874Y-170371947D03*
D14*
X193427874Y-169271947D03*
D15*
X193427874Y-171771947D03*
%TD*%
D17*
%TO.P,D211,1,A*%
%TO.N,Net-(D10-Pad2)*%
X163146624Y-114690697D03*
D13*
X161746624Y-114690697D03*
D16*
X164246624Y-114690697D03*
D15*
%TO.P,D211,2,K*%
%TO.N,row10*%
X169546624Y-114690697D03*
D17*
X168146624Y-114690697D03*
D16*
X167046624Y-114690697D03*
%TD*%
D11*
%TO.P,MX58,1,COL*%
%TO.N,row5*%
X330646624Y-84686947D03*
%TO.P,MX58,2,ROW*%
%TO.N,Net-(D58-Pad1)*%
X343573624Y-82146947D03*
%TD*%
D12*
%TO.P,D45,1,A*%
%TO.N,Net-(D45-Pad1)*%
X383927874Y-108221947D03*
D14*
X383927874Y-109321947D03*
D13*
X383927874Y-106821947D03*
D12*
%TO.P,D45,2,K*%
%TO.N,Net-(D101-Pad2)*%
X383927874Y-113221947D03*
D15*
X383927874Y-114621947D03*
D14*
X383927874Y-112121947D03*
%TD*%
D12*
%TO.P,D60,1,A*%
%TO.N,Net-(D60-Pad1)*%
X345827874Y-127271947D03*
D14*
X345827874Y-128371947D03*
D13*
X345827874Y-125871947D03*
D15*
%TO.P,D60,2,K*%
%TO.N,Net-(D102-Pad2)*%
X345827874Y-133671947D03*
D14*
X345827874Y-131171947D03*
D12*
X345827874Y-132271947D03*
%TD*%
D14*
%TO.P,D120,1,A*%
%TO.N,Net-(D120-Pad1)*%
X212477874Y-71221947D03*
D13*
X212477874Y-68721947D03*
D12*
X212477874Y-70121947D03*
D14*
%TO.P,D120,2,K*%
%TO.N,Net-(D106-Pad2)*%
X212477874Y-74021947D03*
D15*
X212477874Y-76521947D03*
D12*
X212477874Y-75121947D03*
%TD*%
D11*
%TO.P,MX180,1,COL*%
%TO.N,row13*%
X44896624Y-141836947D03*
%TO.P,MX180,2,ROW*%
%TO.N,Net-(D180-Pad1)*%
X57823624Y-139296947D03*
%TD*%
D13*
%TO.P,D159,1,A*%
%TO.N,Net-(D159-Pad1)*%
X79127874Y-144921947D03*
D14*
X79127874Y-147421947D03*
D12*
X79127874Y-146321947D03*
%TO.P,D159,2,K*%
%TO.N,Net-(D103-Pad2)*%
X79127874Y-151321947D03*
D15*
X79127874Y-152721947D03*
D14*
X79127874Y-150221947D03*
%TD*%
D12*
%TO.P,D10,1,A*%
%TO.N,Net-(D10-Pad1)*%
X517277874Y-108221947D03*
D13*
X517277874Y-106821947D03*
D14*
X517277874Y-109321947D03*
D12*
%TO.P,D10,2,K*%
%TO.N,Net-(D10-Pad2)*%
X517277874Y-113221947D03*
D14*
X517277874Y-112121947D03*
D15*
X517277874Y-114621947D03*
%TD*%
D14*
%TO.P,D103,1,A*%
%TO.N,Net-(D103-Pad1)*%
X231527874Y-147421947D03*
D12*
X231527874Y-146321947D03*
D13*
X231527874Y-144921947D03*
D12*
%TO.P,D103,2,K*%
%TO.N,Net-(D103-Pad2)*%
X231527874Y-151321947D03*
D15*
X231527874Y-152721947D03*
D14*
X231527874Y-150221947D03*
%TD*%
D11*
%TO.P,MX169,1,COL*%
%TO.N,row13*%
X25846624Y-65636947D03*
%TO.P,MX169,2,ROW*%
%TO.N,Net-(D169-Pad1)*%
X38773624Y-63096947D03*
%TD*%
D12*
%TO.P,D116,1,A*%
%TO.N,Net-(D116-Pad1)*%
X193427874Y-127271947D03*
D13*
X193427874Y-125871947D03*
D14*
X193427874Y-128371947D03*
D15*
%TO.P,D116,2,K*%
%TO.N,Net-(D102-Pad2)*%
X193427874Y-133671947D03*
D12*
X193427874Y-132271947D03*
D14*
X193427874Y-131171947D03*
%TD*%
%TO.P,D25,1,A*%
%TO.N,Net-(D25-Pad1)*%
X479177874Y-128371947D03*
D12*
X479177874Y-127271947D03*
D13*
X479177874Y-125871947D03*
D12*
%TO.P,D25,2,K*%
%TO.N,Net-(D109-Pad2)*%
X479177874Y-132271947D03*
D14*
X479177874Y-131171947D03*
D15*
X479177874Y-133671947D03*
%TD*%
D11*
%TO.P,MX136,1,COL*%
%TO.N,row9*%
X159196624Y-103736947D03*
%TO.P,MX136,2,ROW*%
%TO.N,Net-(D136-Pad1)*%
X172123624Y-101196947D03*
%TD*%
D14*
%TO.P,D145,1,A*%
%TO.N,Net-(D145-Pad1)*%
X117227874Y-147421947D03*
D13*
X117227874Y-144921947D03*
D12*
X117227874Y-146321947D03*
%TO.P,D145,2,K*%
%TO.N,Net-(D103-Pad2)*%
X117227874Y-151321947D03*
D15*
X117227874Y-152721947D03*
D14*
X117227874Y-150221947D03*
%TD*%
D11*
%TO.P,MX2,1,COL*%
%TO.N,row0*%
X483046624Y-84686947D03*
%TO.P,MX2,2,ROW*%
%TO.N,Net-(D2-Pad1)*%
X495973624Y-82146947D03*
%TD*%
%TO.P,MX156,1,COL*%
%TO.N,row12*%
X63946624Y-84686947D03*
%TO.P,MX156,2,ROW*%
%TO.N,Net-(D156-Pad1)*%
X76873624Y-82146947D03*
%TD*%
%TO.P,MX68,1,COL*%
%TO.N,row4*%
X349696624Y-141836947D03*
%TO.P,MX68,2,ROW*%
%TO.N,Net-(D68-Pad1)*%
X362623624Y-139296947D03*
%TD*%
D12*
%TO.P,D50,1,A*%
%TO.N,Net-(D50-Pad1)*%
X402977874Y-70121947D03*
D13*
X402977874Y-68721947D03*
D14*
X402977874Y-71221947D03*
D15*
%TO.P,D50,2,K*%
%TO.N,Net-(D106-Pad2)*%
X402977874Y-76521947D03*
D14*
X402977874Y-74021947D03*
D12*
X402977874Y-75121947D03*
%TD*%
%TO.P,D152,1,A*%
%TO.N,Net-(D152-Pad1)*%
X136277874Y-146134447D03*
D14*
X136277874Y-147234447D03*
D13*
X136277874Y-144734447D03*
D15*
%TO.P,D152,2,K*%
%TO.N,Net-(D110-Pad2)*%
X136277874Y-152534447D03*
D14*
X136277874Y-150034447D03*
D12*
X136277874Y-151134447D03*
%TD*%
D14*
%TO.P,D175,1,A*%
%TO.N,Net-(D175-Pad1)*%
X60077874Y-52171947D03*
D12*
X60077874Y-51071947D03*
D13*
X60077874Y-49671947D03*
D12*
%TO.P,D175,2,K*%
%TO.N,Net-(D105-Pad2)*%
X60077874Y-56071947D03*
D14*
X60077874Y-54971947D03*
D15*
X60077874Y-57471947D03*
%TD*%
D13*
%TO.P,D77,1,A*%
%TO.N,Net-(D77-Pad1)*%
X326777874Y-49671947D03*
D12*
X326777874Y-51071947D03*
D14*
X326777874Y-52171947D03*
D12*
%TO.P,D77,2,K*%
%TO.N,Net-(D105-Pad2)*%
X326777874Y-56071947D03*
D14*
X326777874Y-54971947D03*
D15*
X326777874Y-57471947D03*
%TD*%
D13*
%TO.P,D138,1,A*%
%TO.N,Net-(D138-Pad1)*%
X174377874Y-144921947D03*
D14*
X174377874Y-147421947D03*
D12*
X174377874Y-146321947D03*
%TO.P,D138,2,K*%
%TO.N,Net-(D110-Pad2)*%
X174377874Y-151321947D03*
D15*
X174377874Y-152721947D03*
D14*
X174377874Y-150221947D03*
%TD*%
D11*
%TO.P,MX73,1,COL*%
%TO.N,row6*%
X292546624Y-103736947D03*
%TO.P,MX73,2,ROW*%
%TO.N,Net-(D73-Pad1)*%
X305473624Y-101196947D03*
%TD*%
%TO.P,MX84,1,COL*%
%TO.N,row7*%
X254431318Y-46601098D03*
%TO.P,MX84,2,ROW*%
%TO.N,Net-(D84-Pad1)*%
X267358318Y-44061098D03*
%TD*%
%TO.P,MX135,1,COL*%
%TO.N,row9*%
X159196624Y-84686947D03*
%TO.P,MX135,2,ROW*%
%TO.N,Net-(D135-Pad1)*%
X172123624Y-82146947D03*
%TD*%
%TO.P,MX114,1,COL*%
%TO.N,row9*%
X178246624Y-84686947D03*
%TO.P,MX114,2,ROW*%
%TO.N,Net-(D114-Pad1)*%
X191173624Y-82146947D03*
%TD*%
D13*
%TO.P,D43,1,A*%
%TO.N,Net-(D43-Pad1)*%
X383927874Y-68721947D03*
D12*
X383927874Y-70121947D03*
D14*
X383927874Y-71221947D03*
D12*
%TO.P,D43,2,K*%
%TO.N,Net-(D1-Pad2)*%
X383927874Y-75121947D03*
D15*
X383927874Y-76521947D03*
D14*
X383927874Y-74021947D03*
%TD*%
%TO.P,D17,1,A*%
%TO.N,Net-(D17-Pad1)*%
X460127874Y-109321947D03*
D12*
X460127874Y-108221947D03*
D13*
X460127874Y-106821947D03*
D12*
%TO.P,D17,2,K*%
%TO.N,Net-(D101-Pad2)*%
X460127874Y-113221947D03*
D14*
X460127874Y-112121947D03*
D15*
X460127874Y-114621947D03*
%TD*%
D11*
%TO.P,MX168,1,COL*%
%TO.N,row13*%
X25846624Y-46586947D03*
%TO.P,MX168,2,ROW*%
%TO.N,Net-(D168-Pad1)*%
X38773624Y-44046947D03*
%TD*%
D14*
%TO.P,D87,1,A*%
%TO.N,Net-(D87-Pad1)*%
X269612568Y-109336098D03*
D13*
X269612568Y-106836098D03*
D12*
X269612568Y-108236098D03*
%TO.P,D87,2,K*%
%TO.N,Net-(D101-Pad2)*%
X269612568Y-113236098D03*
D15*
X269612568Y-114636098D03*
D14*
X269612568Y-112136098D03*
%TD*%
D21*
%TO.P,U2,1,GND*%
%TO.N,GND1*%
X510812568Y-25155697D03*
D22*
%TO.P,U2,2,I/O1*%
%TO.N,+5V*%
X510812568Y-27695697D03*
%TO.P,U2,3,I/O2*%
%TO.N,SCL*%
X510812568Y-30235697D03*
%TO.P,U2,4,VCC*%
%TO.N,SDA*%
X510812568Y-32775697D03*
%TD*%
D11*
%TO.P,MX177,1,COL*%
%TO.N,row13*%
X44896624Y-84686947D03*
%TO.P,MX177,2,ROW*%
%TO.N,Net-(D177-Pad1)*%
X57823624Y-82146947D03*
%TD*%
D14*
%TO.P,D37,1,A*%
%TO.N,Net-(D37-Pad1)*%
X441077874Y-90271947D03*
D13*
X441077874Y-87771947D03*
D12*
X441077874Y-89171947D03*
D14*
%TO.P,D37,2,K*%
%TO.N,Net-(D107-Pad2)*%
X441077874Y-93071947D03*
D15*
X441077874Y-95571947D03*
D12*
X441077874Y-94171947D03*
%TD*%
D11*
%TO.P,MX98,1,COL*%
%TO.N,row8*%
X216346624Y-46586947D03*
%TO.P,MX98,2,ROW*%
%TO.N,Net-(D98-Pad1)*%
X229273624Y-44046947D03*
%TD*%
D12*
%TO.P,D163,1,A*%
%TO.N,Net-(D163-Pad1)*%
X98177874Y-89171947D03*
D13*
X98177874Y-87771947D03*
D14*
X98177874Y-90271947D03*
D15*
%TO.P,D163,2,K*%
%TO.N,Net-(D107-Pad2)*%
X98177874Y-95571947D03*
D14*
X98177874Y-93071947D03*
D12*
X98177874Y-94171947D03*
%TD*%
%TO.P,D29,1,A*%
%TO.N,Net-(D29-Pad1)*%
X422027874Y-70121947D03*
D14*
X422027874Y-71221947D03*
D13*
X422027874Y-68721947D03*
D12*
%TO.P,D29,2,K*%
%TO.N,Net-(D1-Pad2)*%
X422027874Y-75121947D03*
D15*
X422027874Y-76521947D03*
D14*
X422027874Y-74021947D03*
%TD*%
D11*
%TO.P,MX174,1,COL*%
%TO.N,row13*%
X25846624Y-160886947D03*
%TO.P,MX174,2,ROW*%
%TO.N,Net-(D174-Pad1)*%
X38773624Y-158346947D03*
%TD*%
D13*
%TO.P,D205,1,A*%
%TO.N,Net-(D102-Pad2)*%
X352246624Y-132946947D03*
D16*
X354746624Y-132946947D03*
D17*
X353646624Y-132946947D03*
D15*
%TO.P,D205,2,K*%
%TO.N,row4*%
X360046624Y-132946947D03*
D17*
X358646624Y-132946947D03*
D16*
X357546624Y-132946947D03*
%TD*%
D13*
%TO.P,D18,1,A*%
%TO.N,Net-(D18-Pad1)*%
X460127874Y-125871947D03*
D14*
X460127874Y-128371947D03*
D12*
X460127874Y-127271947D03*
%TO.P,D18,2,K*%
%TO.N,Net-(D102-Pad2)*%
X460127874Y-132271947D03*
D15*
X460127874Y-133671947D03*
D14*
X460127874Y-131171947D03*
%TD*%
D12*
%TO.P,D170,1,A*%
%TO.N,Net-(D170-Pad1)*%
X41027874Y-89171947D03*
D14*
X41027874Y-90271947D03*
D13*
X41027874Y-87771947D03*
D12*
%TO.P,D170,2,K*%
%TO.N,Net-(D100-Pad2)*%
X41027874Y-94171947D03*
D14*
X41027874Y-93071947D03*
D15*
X41027874Y-95571947D03*
%TD*%
D12*
%TO.P,D114,1,A*%
%TO.N,Net-(D114-Pad1)*%
X193427874Y-89171947D03*
D14*
X193427874Y-90271947D03*
D13*
X193427874Y-87771947D03*
D15*
%TO.P,D114,2,K*%
%TO.N,Net-(D100-Pad2)*%
X193427874Y-95571947D03*
D14*
X193427874Y-93071947D03*
D12*
X193427874Y-94171947D03*
%TD*%
D17*
%TO.P,D204,1,A*%
%TO.N,Net-(D101-Pad2)*%
X391746624Y-115484447D03*
D16*
X392846624Y-115484447D03*
D13*
X390346624Y-115484447D03*
D17*
%TO.P,D204,2,K*%
%TO.N,row3*%
X396746624Y-115484447D03*
D15*
X398146624Y-115484447D03*
D16*
X395646624Y-115484447D03*
%TD*%
D12*
%TO.P,D154,1,A*%
%TO.N,Net-(D154-Pad1)*%
X79127874Y-51071947D03*
D14*
X79127874Y-52171947D03*
D13*
X79127874Y-49671947D03*
D15*
%TO.P,D154,2,K*%
%TO.N,Net-(D0-Pad2)*%
X79127874Y-57471947D03*
D12*
X79127874Y-56071947D03*
D14*
X79127874Y-54971947D03*
%TD*%
D11*
%TO.P,MX38,1,COL*%
%TO.N,row2*%
X425896624Y-103736947D03*
%TO.P,MX38,2,ROW*%
%TO.N,Net-(D38-Pad1)*%
X438823624Y-101196947D03*
%TD*%
%TO.P,MX64,1,COL*%
%TO.N,row4*%
X349696624Y-65636947D03*
%TO.P,MX64,2,ROW*%
%TO.N,Net-(D64-Pad1)*%
X362623624Y-63096947D03*
%TD*%
D13*
%TO.P,D162,1,A*%
%TO.N,Net-(D162-Pad1)*%
X98177874Y-68721947D03*
D12*
X98177874Y-70121947D03*
D14*
X98177874Y-71221947D03*
D12*
%TO.P,D162,2,K*%
%TO.N,Net-(D106-Pad2)*%
X98177874Y-75121947D03*
D15*
X98177874Y-76521947D03*
D14*
X98177874Y-74021947D03*
%TD*%
D11*
%TO.P,MX94,1,COL*%
%TO.N,row6*%
X273481318Y-103751098D03*
%TO.P,MX94,2,ROW*%
%TO.N,Net-(D94-Pad1)*%
X286408318Y-101211098D03*
%TD*%
D16*
%TO.P,D203,1,A*%
%TO.N,Net-(D100-Pad2)*%
X427771624Y-95640697D03*
D13*
X425271624Y-95640697D03*
D17*
X426671624Y-95640697D03*
D15*
%TO.P,D203,2,K*%
%TO.N,row2*%
X433071624Y-95640697D03*
D16*
X430571624Y-95640697D03*
D17*
X431671624Y-95640697D03*
%TD*%
D14*
%TO.P,D68,1,A*%
%TO.N,Net-(D68-Pad1)*%
X364877874Y-147421947D03*
D12*
X364877874Y-146321947D03*
D13*
X364877874Y-144921947D03*
D12*
%TO.P,D68,2,K*%
%TO.N,Net-(D110-Pad2)*%
X364877874Y-151321947D03*
D14*
X364877874Y-150221947D03*
D15*
X364877874Y-152721947D03*
%TD*%
D13*
%TO.P,D124,1,A*%
%TO.N,Net-(D124-Pad1)*%
X212477874Y-144921947D03*
D14*
X212477874Y-147421947D03*
D12*
X212477874Y-146321947D03*
%TO.P,D124,2,K*%
%TO.N,Net-(D110-Pad2)*%
X212477874Y-151321947D03*
D15*
X212477874Y-152721947D03*
D14*
X212477874Y-150221947D03*
%TD*%
D13*
%TO.P,D21,1,A*%
%TO.N,Net-(D21-Pad1)*%
X479177874Y-49671947D03*
D14*
X479177874Y-52171947D03*
D12*
X479177874Y-51071947D03*
D15*
%TO.P,D21,2,K*%
%TO.N,Net-(D105-Pad2)*%
X479177874Y-57471947D03*
D14*
X479177874Y-54971947D03*
D12*
X479177874Y-56071947D03*
%TD*%
D14*
%TO.P,D169,1,A*%
%TO.N,Net-(D169-Pad1)*%
X41027874Y-71221947D03*
D13*
X41027874Y-68721947D03*
D12*
X41027874Y-70121947D03*
D14*
%TO.P,D169,2,K*%
%TO.N,Net-(D1-Pad2)*%
X41027874Y-74021947D03*
D15*
X41027874Y-76521947D03*
D12*
X41027874Y-75121947D03*
%TD*%
D13*
%TO.P,D127,1,A*%
%TO.N,Net-(D127-Pad1)*%
X155327874Y-68721947D03*
D14*
X155327874Y-71221947D03*
D12*
X155327874Y-70121947D03*
%TO.P,D127,2,K*%
%TO.N,Net-(D1-Pad2)*%
X155327874Y-75121947D03*
D15*
X155327874Y-76521947D03*
D14*
X155327874Y-74021947D03*
%TD*%
D11*
%TO.P,MX106,1,COL*%
%TO.N,row7*%
X235396624Y-65636947D03*
%TO.P,MX106,2,ROW*%
%TO.N,Net-(D106-Pad1)*%
X248323624Y-63096947D03*
%TD*%
D12*
%TO.P,D97,1,A*%
%TO.N,Net-(D97-Pad1)*%
X288662568Y-165386098D03*
D14*
X288662568Y-166486098D03*
D13*
X288662568Y-163986098D03*
D15*
%TO.P,D97,2,K*%
%TO.N,Net-(D111-Pad2)*%
X288662568Y-171786098D03*
D14*
X288662568Y-169286098D03*
D12*
X288662568Y-170386098D03*
%TD*%
D13*
%TO.P,D173,1,A*%
%TO.N,Net-(D173-Pad1)*%
X41027874Y-144921947D03*
D12*
X41027874Y-146321947D03*
D14*
X41027874Y-147421947D03*
%TO.P,D173,2,K*%
%TO.N,Net-(D103-Pad2)*%
X41027874Y-150221947D03*
D15*
X41027874Y-152721947D03*
D12*
X41027874Y-151321947D03*
%TD*%
D11*
%TO.P,MX104,1,COL*%
%TO.N,row8*%
X216346624Y-160886947D03*
%TO.P,MX104,2,ROW*%
%TO.N,Net-(D104-Pad1)*%
X229273624Y-158346947D03*
%TD*%
%TO.P,MX29,1,COL*%
%TO.N,row3*%
X406846624Y-65636947D03*
%TO.P,MX29,2,ROW*%
%TO.N,Net-(D29-Pad1)*%
X419773624Y-63096947D03*
%TD*%
D14*
%TO.P,D151,1,A*%
%TO.N,Net-(D151-Pad1)*%
X136277874Y-128371947D03*
D12*
X136277874Y-127271947D03*
D13*
X136277874Y-125871947D03*
D12*
%TO.P,D151,2,K*%
%TO.N,Net-(D109-Pad2)*%
X136277874Y-132271947D03*
D14*
X136277874Y-131171947D03*
D15*
X136277874Y-133671947D03*
%TD*%
D13*
%TO.P,D41,1,A*%
%TO.N,Net-(D41-Pad1)*%
X441077874Y-163971947D03*
D14*
X441077874Y-166471947D03*
D12*
X441077874Y-165371947D03*
%TO.P,D41,2,K*%
%TO.N,Net-(D111-Pad2)*%
X441077874Y-170371947D03*
D14*
X441077874Y-169271947D03*
D15*
X441077874Y-171771947D03*
%TD*%
D13*
%TO.P,D207,1,A*%
%TO.N,Net-(D104-Pad2)*%
X276840374Y-171840697D03*
D16*
X279340374Y-171840697D03*
D17*
X278240374Y-171840697D03*
D15*
%TO.P,D207,2,K*%
%TO.N,row6*%
X284640374Y-171840697D03*
D17*
X283240374Y-171840697D03*
D16*
X282140374Y-171840697D03*
%TD*%
D11*
%TO.P,MX0,1,COL*%
%TO.N,row1*%
X483046624Y-46586947D03*
%TO.P,MX0,2,ROW*%
%TO.N,Net-(D0-Pad1)*%
X495973624Y-44046947D03*
%TD*%
D14*
%TO.P,D141,1,A*%
%TO.N,Net-(D141-Pad1)*%
X117227874Y-71221947D03*
D12*
X117227874Y-70121947D03*
D13*
X117227874Y-68721947D03*
D14*
%TO.P,D141,2,K*%
%TO.N,Net-(D1-Pad2)*%
X117227874Y-74021947D03*
D12*
X117227874Y-75121947D03*
D15*
X117227874Y-76521947D03*
%TD*%
D16*
%TO.P,D208,1,A*%
%TO.N,Net-(D111-Pad2)*%
X258702874Y-171840697D03*
D17*
X257602874Y-171840697D03*
D13*
X256202874Y-171840697D03*
D16*
%TO.P,D208,2,K*%
%TO.N,row7*%
X261502874Y-171840697D03*
D17*
X262602874Y-171840697D03*
D15*
X264002874Y-171840697D03*
%TD*%
D11*
%TO.P,MX19,1,COL*%
%TO.N,row1*%
X444946624Y-141836947D03*
%TO.P,MX19,2,ROW*%
%TO.N,Net-(D19-Pad1)*%
X457873624Y-139296947D03*
%TD*%
D12*
%TO.P,D58,1,A*%
%TO.N,Net-(D58-Pad1)*%
X345827874Y-89171947D03*
D13*
X345827874Y-87771947D03*
D14*
X345827874Y-90271947D03*
D15*
%TO.P,D58,2,K*%
%TO.N,Net-(D100-Pad2)*%
X345827874Y-95571947D03*
D12*
X345827874Y-94171947D03*
D14*
X345827874Y-93071947D03*
%TD*%
%TO.P,D110,1,A*%
%TO.N,Net-(D110-Pad1)*%
X250577874Y-147421947D03*
D13*
X250577874Y-144921947D03*
D12*
X250577874Y-146321947D03*
D15*
%TO.P,D110,2,K*%
%TO.N,Net-(D110-Pad2)*%
X250577874Y-152721947D03*
D12*
X250577874Y-151321947D03*
D14*
X250577874Y-150221947D03*
%TD*%
D11*
%TO.P,MX39,1,COL*%
%TO.N,row2*%
X425896624Y-122786947D03*
%TO.P,MX39,2,ROW*%
%TO.N,Net-(D39-Pad1)*%
X438823624Y-120246947D03*
%TD*%
D14*
%TO.P,D34,1,A*%
%TO.N,Net-(D34-Pad1)*%
X422027874Y-166471947D03*
D12*
X422027874Y-165371947D03*
D13*
X422027874Y-163971947D03*
D14*
%TO.P,D34,2,K*%
%TO.N,Net-(D104-Pad2)*%
X422027874Y-169271947D03*
D12*
X422027874Y-170371947D03*
D15*
X422027874Y-171771947D03*
%TD*%
D11*
%TO.P,MX27,1,COL*%
%TO.N,row1*%
X463996624Y-160886947D03*
%TO.P,MX27,2,ROW*%
%TO.N,Net-(D27-Pad1)*%
X476923624Y-158346947D03*
%TD*%
%TO.P,MX143,1,COL*%
%TO.N,row11*%
X102046624Y-103736947D03*
%TO.P,MX143,2,ROW*%
%TO.N,Net-(D143-Pad1)*%
X114973624Y-101196947D03*
%TD*%
%TO.P,MX128,1,COL*%
%TO.N,row10*%
X140146624Y-84686947D03*
%TO.P,MX128,2,ROW*%
%TO.N,Net-(D128-Pad1)*%
X153073624Y-82146947D03*
%TD*%
D12*
%TO.P,D20,1,A*%
%TO.N,Net-(D20-Pad1)*%
X460127874Y-165371947D03*
D14*
X460127874Y-166471947D03*
D13*
X460127874Y-163971947D03*
D15*
%TO.P,D20,2,K*%
%TO.N,Net-(D104-Pad2)*%
X460127874Y-171771947D03*
D14*
X460127874Y-169271947D03*
D12*
X460127874Y-170371947D03*
%TD*%
D11*
%TO.P,MX118,1,COL*%
%TO.N,row9*%
X178246624Y-160886947D03*
%TO.P,MX118,2,ROW*%
%TO.N,Net-(D118-Pad1)*%
X191173624Y-158346947D03*
%TD*%
D14*
%TO.P,D135,1,A*%
%TO.N,Net-(D135-Pad1)*%
X174377874Y-90271947D03*
D12*
X174377874Y-89171947D03*
D13*
X174377874Y-87771947D03*
D15*
%TO.P,D135,2,K*%
%TO.N,Net-(D107-Pad2)*%
X174377874Y-95571947D03*
D14*
X174377874Y-93071947D03*
D12*
X174377874Y-94171947D03*
%TD*%
D11*
%TO.P,MX172,1,COL*%
%TO.N,row13*%
X25846624Y-122786947D03*
%TO.P,MX172,2,ROW*%
%TO.N,Net-(D172-Pad1)*%
X38773624Y-120246947D03*
%TD*%
D12*
%TO.P,D119,1,A*%
%TO.N,Net-(D119-Pad1)*%
X212477874Y-51071947D03*
D13*
X212477874Y-49671947D03*
D14*
X212477874Y-52171947D03*
%TO.P,D119,2,K*%
%TO.N,Net-(D105-Pad2)*%
X212477874Y-54971947D03*
D12*
X212477874Y-56071947D03*
D15*
X212477874Y-57471947D03*
%TD*%
D11*
%TO.P,MX45,1,COL*%
%TO.N,row4*%
X368746624Y-103736947D03*
%TO.P,MX45,2,ROW*%
%TO.N,Net-(D45-Pad1)*%
X381673624Y-101196947D03*
%TD*%
%TO.P,MX89,1,COL*%
%TO.N,row7*%
X254431318Y-141851098D03*
%TO.P,MX89,2,ROW*%
%TO.N,Net-(D89-Pad1)*%
X267358318Y-139311098D03*
%TD*%
%TO.P,MX57,1,COL*%
%TO.N,row5*%
X330646624Y-65636947D03*
%TO.P,MX57,2,ROW*%
%TO.N,Net-(D57-Pad1)*%
X343573624Y-63096947D03*
%TD*%
%TO.P,MX67,1,COL*%
%TO.N,row4*%
X349696624Y-122786947D03*
%TO.P,MX67,2,ROW*%
%TO.N,Net-(D67-Pad1)*%
X362623624Y-120246947D03*
%TD*%
D13*
%TO.P,D57,1,A*%
%TO.N,Net-(D57-Pad1)*%
X345827874Y-68721947D03*
D12*
X345827874Y-70121947D03*
D14*
X345827874Y-71221947D03*
%TO.P,D57,2,K*%
%TO.N,Net-(D1-Pad2)*%
X345827874Y-74021947D03*
D15*
X345827874Y-76521947D03*
D12*
X345827874Y-75121947D03*
%TD*%
D11*
%TO.P,MX9,1,COL*%
%TO.N,row0*%
X502096624Y-84686947D03*
%TO.P,MX9,2,ROW*%
%TO.N,Net-(D9-Pad1)*%
X515023624Y-82146947D03*
%TD*%
D13*
%TO.P,D88,1,A*%
%TO.N,Net-(D88-Pad1)*%
X269612568Y-125886098D03*
D12*
X269612568Y-127286098D03*
D14*
X269612568Y-128386098D03*
%TO.P,D88,2,K*%
%TO.N,Net-(D102-Pad2)*%
X269612568Y-131186098D03*
D12*
X269612568Y-132286098D03*
D15*
X269612568Y-133686098D03*
%TD*%
D11*
%TO.P,MX175,1,COL*%
%TO.N,row12*%
X44896624Y-46586947D03*
%TO.P,MX175,2,ROW*%
%TO.N,Net-(D175-Pad1)*%
X57823624Y-44046947D03*
%TD*%
%TO.P,MX22,1,COL*%
%TO.N,row1*%
X463996624Y-65636947D03*
%TO.P,MX22,2,ROW*%
%TO.N,Net-(D22-Pad1)*%
X476923624Y-63096947D03*
%TD*%
D14*
%TO.P,D100,1,A*%
%TO.N,Net-(D100-Pad1)*%
X231527874Y-90271947D03*
D12*
X231527874Y-89171947D03*
D13*
X231527874Y-87771947D03*
D14*
%TO.P,D100,2,K*%
%TO.N,Net-(D100-Pad2)*%
X231527874Y-93071947D03*
D15*
X231527874Y-95571947D03*
D12*
X231527874Y-94171947D03*
%TD*%
%TO.P,D128,1,A*%
%TO.N,Net-(D128-Pad1)*%
X155327874Y-89171947D03*
D13*
X155327874Y-87771947D03*
D14*
X155327874Y-90271947D03*
%TO.P,D128,2,K*%
%TO.N,Net-(D100-Pad2)*%
X155327874Y-93071947D03*
D12*
X155327874Y-94171947D03*
D15*
X155327874Y-95571947D03*
%TD*%
D11*
%TO.P,MX31,1,COL*%
%TO.N,row2*%
X406846624Y-103736947D03*
%TO.P,MX31,2,ROW*%
%TO.N,Net-(D31-Pad1)*%
X419773624Y-101196947D03*
%TD*%
D12*
%TO.P,D66,1,A*%
%TO.N,Net-(D66-Pad1)*%
X364877874Y-108221947D03*
D13*
X364877874Y-106821947D03*
D14*
X364877874Y-109321947D03*
D12*
%TO.P,D66,2,K*%
%TO.N,Net-(D10-Pad2)*%
X364877874Y-113221947D03*
D15*
X364877874Y-114621947D03*
D14*
X364877874Y-112121947D03*
%TD*%
D12*
%TO.P,D56,1,A*%
%TO.N,Net-(D56-Pad1)*%
X345827874Y-51071947D03*
D14*
X345827874Y-52171947D03*
D13*
X345827874Y-49671947D03*
D12*
%TO.P,D56,2,K*%
%TO.N,Net-(D0-Pad2)*%
X345827874Y-56071947D03*
D15*
X345827874Y-57471947D03*
D14*
X345827874Y-54971947D03*
%TD*%
D11*
%TO.P,MX123,1,COL*%
%TO.N,row8*%
X197296624Y-122786947D03*
%TO.P,MX123,2,ROW*%
%TO.N,Net-(D123-Pad1)*%
X210223624Y-120246947D03*
%TD*%
D12*
%TO.P,D46,1,A*%
%TO.N,Net-(D46-Pad1)*%
X383927874Y-127271947D03*
D13*
X383927874Y-125871947D03*
D14*
X383927874Y-128371947D03*
D12*
%TO.P,D46,2,K*%
%TO.N,Net-(D102-Pad2)*%
X383927874Y-132271947D03*
D15*
X383927874Y-133671947D03*
D14*
X383927874Y-131171947D03*
%TD*%
D13*
%TO.P,D180,1,A*%
%TO.N,Net-(D180-Pad1)*%
X60077874Y-144921947D03*
D14*
X60077874Y-147421947D03*
D12*
X60077874Y-146321947D03*
D15*
%TO.P,D180,2,K*%
%TO.N,Net-(D110-Pad2)*%
X60077874Y-152721947D03*
D12*
X60077874Y-151321947D03*
D14*
X60077874Y-150221947D03*
%TD*%
%TO.P,D42,1,A*%
%TO.N,Net-(D42-Pad1)*%
X383927874Y-52171947D03*
D12*
X383927874Y-51071947D03*
D13*
X383927874Y-49671947D03*
D14*
%TO.P,D42,2,K*%
%TO.N,Net-(D0-Pad2)*%
X383927874Y-54971947D03*
D15*
X383927874Y-57471947D03*
D12*
X383927874Y-56071947D03*
%TD*%
D11*
%TO.P,MX85,1,COL*%
%TO.N,row7*%
X254431318Y-65651098D03*
%TO.P,MX85,2,ROW*%
%TO.N,Net-(D85-Pad1)*%
X267358318Y-63111098D03*
%TD*%
%TO.P,MX160,1,COL*%
%TO.N,row12*%
X63946624Y-160886947D03*
%TO.P,MX160,2,ROW*%
%TO.N,Net-(D160-Pad1)*%
X76873624Y-158346947D03*
%TD*%
%TO.P,MX26,1,COL*%
%TO.N,row1*%
X463996624Y-141836947D03*
%TO.P,MX26,2,ROW*%
%TO.N,Net-(D26-Pad1)*%
X476923624Y-139296947D03*
%TD*%
D13*
%TO.P,D61,1,A*%
%TO.N,Net-(D61-Pad1)*%
X345827874Y-144921947D03*
D14*
X345827874Y-147421947D03*
D12*
X345827874Y-146321947D03*
D14*
%TO.P,D61,2,K*%
%TO.N,Net-(D103-Pad2)*%
X345827874Y-150221947D03*
D12*
X345827874Y-151321947D03*
D15*
X345827874Y-152721947D03*
%TD*%
D14*
%TO.P,D81,1,A*%
%TO.N,Net-(D81-Pad1)*%
X326777874Y-128184447D03*
D13*
X326777874Y-125684447D03*
D12*
X326777874Y-127084447D03*
D14*
%TO.P,D81,2,K*%
%TO.N,Net-(D109-Pad2)*%
X326777874Y-130984447D03*
D12*
X326777874Y-132084447D03*
D15*
X326777874Y-133484447D03*
%TD*%
D13*
%TO.P,D44,1,A*%
%TO.N,Net-(D44-Pad1)*%
X383927874Y-87771947D03*
D12*
X383927874Y-89171947D03*
D14*
X383927874Y-90271947D03*
%TO.P,D44,2,K*%
%TO.N,Net-(D100-Pad2)*%
X383927874Y-93071947D03*
D15*
X383927874Y-95571947D03*
D12*
X383927874Y-94171947D03*
%TD*%
D11*
%TO.P,MX96,1,COL*%
%TO.N,row6*%
X273481318Y-141851098D03*
%TO.P,MX96,2,ROW*%
%TO.N,Net-(D96-Pad1)*%
X286408318Y-139311098D03*
%TD*%
D14*
%TO.P,D160,1,A*%
%TO.N,Net-(D160-Pad1)*%
X79127874Y-166471947D03*
D13*
X79127874Y-163971947D03*
D12*
X79127874Y-165371947D03*
%TO.P,D160,2,K*%
%TO.N,Net-(D104-Pad2)*%
X79127874Y-170371947D03*
D14*
X79127874Y-169271947D03*
D15*
X79127874Y-171771947D03*
%TD*%
D11*
%TO.P,MX16,1,COL*%
%TO.N,row1*%
X444946624Y-84686947D03*
%TO.P,MX16,2,ROW*%
%TO.N,Net-(D16-Pad1)*%
X457873624Y-82146947D03*
%TD*%
D13*
%TO.P,D107,1,A*%
%TO.N,Net-(D107-Pad1)*%
X250577874Y-87771947D03*
D12*
X250577874Y-89171947D03*
D14*
X250577874Y-90271947D03*
%TO.P,D107,2,K*%
%TO.N,Net-(D107-Pad2)*%
X250577874Y-93071947D03*
D12*
X250577874Y-94171947D03*
D15*
X250577874Y-95571947D03*
%TD*%
D11*
%TO.P,MX179,1,COL*%
%TO.N,row13*%
X44896624Y-122786947D03*
%TO.P,MX179,2,ROW*%
%TO.N,Net-(D179-Pad1)*%
X57823624Y-120246947D03*
%TD*%
D14*
%TO.P,D9,1,A*%
%TO.N,Net-(D9-Pad1)*%
X517277874Y-90271947D03*
D12*
X517277874Y-89171947D03*
D13*
X517277874Y-87771947D03*
D15*
%TO.P,D9,2,K*%
%TO.N,Net-(D107-Pad2)*%
X517277874Y-95571947D03*
D12*
X517277874Y-94171947D03*
D14*
X517277874Y-93071947D03*
%TD*%
D12*
%TO.P,D51,1,A*%
%TO.N,Net-(D51-Pad1)*%
X402977874Y-89171947D03*
D13*
X402977874Y-87771947D03*
D14*
X402977874Y-90271947D03*
%TO.P,D51,2,K*%
%TO.N,Net-(D107-Pad2)*%
X402977874Y-93071947D03*
D15*
X402977874Y-95571947D03*
D12*
X402977874Y-94171947D03*
%TD*%
D14*
%TO.P,D11,1,A*%
%TO.N,Net-(D11-Pad1)*%
X517277874Y-128371947D03*
D12*
X517277874Y-127271947D03*
D13*
X517277874Y-125871947D03*
D14*
%TO.P,D11,2,K*%
%TO.N,Net-(D109-Pad2)*%
X517277874Y-131171947D03*
D15*
X517277874Y-133671947D03*
D12*
X517277874Y-132271947D03*
%TD*%
D11*
%TO.P,MX42,1,COL*%
%TO.N,row4*%
X368746624Y-46586947D03*
%TO.P,MX42,2,ROW*%
%TO.N,Net-(D42-Pad1)*%
X381673624Y-44046947D03*
%TD*%
%TO.P,MX83,1,COL*%
%TO.N,row5*%
X311596624Y-160886947D03*
%TO.P,MX83,2,ROW*%
%TO.N,Net-(D83-Pad1)*%
X324523624Y-158346947D03*
%TD*%
D13*
%TO.P,D167,1,A*%
%TO.N,Net-(D167-Pad1)*%
X98177874Y-163971947D03*
D14*
X98177874Y-166471947D03*
D12*
X98177874Y-165371947D03*
%TO.P,D167,2,K*%
%TO.N,Net-(D111-Pad2)*%
X98177874Y-170371947D03*
D15*
X98177874Y-171771947D03*
D14*
X98177874Y-169271947D03*
%TD*%
D11*
%TO.P,MX103,1,COL*%
%TO.N,row8*%
X216346624Y-141836947D03*
%TO.P,MX103,2,ROW*%
%TO.N,Net-(D103-Pad1)*%
X229273624Y-139296947D03*
%TD*%
%TO.P,MX139,1,COL*%
%TO.N,row10*%
X159196624Y-160886947D03*
%TO.P,MX139,2,ROW*%
%TO.N,Net-(D139-Pad1)*%
X172123624Y-158346947D03*
%TD*%
%TO.P,MX138,1,COL*%
%TO.N,row10*%
X159196624Y-141836947D03*
%TO.P,MX138,2,ROW*%
%TO.N,Net-(D138-Pad1)*%
X172123624Y-139296947D03*
%TD*%
D12*
%TO.P,D85,1,A*%
%TO.N,Net-(D85-Pad1)*%
X269612568Y-70136098D03*
D13*
X269612568Y-68736098D03*
D14*
X269612568Y-71236098D03*
D12*
%TO.P,D85,2,K*%
%TO.N,Net-(D1-Pad2)*%
X269612568Y-75136098D03*
D15*
X269612568Y-76536098D03*
D14*
X269612568Y-74036098D03*
%TD*%
%TO.P,D142,1,A*%
%TO.N,Net-(D142-Pad1)*%
X117227874Y-90271947D03*
D12*
X117227874Y-89171947D03*
D13*
X117227874Y-87771947D03*
D12*
%TO.P,D142,2,K*%
%TO.N,Net-(D100-Pad2)*%
X117227874Y-94171947D03*
D14*
X117227874Y-93071947D03*
D15*
X117227874Y-95571947D03*
%TD*%
D18*
%TO.P,R1,1*%
%TO.N,SDA*%
X494461318Y-34521947D03*
%TO.P,R1,2*%
%TO.N,+5V*%
X484301318Y-34521947D03*
%TD*%
D11*
%TO.P,MX137,1,COL*%
%TO.N,row10*%
X159196624Y-122786947D03*
%TO.P,MX137,2,ROW*%
%TO.N,Net-(D137-Pad1)*%
X172123624Y-120246947D03*
%TD*%
D12*
%TO.P,D6,1,A*%
%TO.N,Net-(D6-Pad1)*%
X498227874Y-165371947D03*
D13*
X498227874Y-163971947D03*
D14*
X498227874Y-166471947D03*
D12*
%TO.P,D6,2,K*%
%TO.N,Net-(D104-Pad2)*%
X498227874Y-170371947D03*
D15*
X498227874Y-171771947D03*
D14*
X498227874Y-169271947D03*
%TD*%
D11*
%TO.P,MX126,1,COL*%
%TO.N,row10*%
X140146624Y-46586947D03*
%TO.P,MX126,2,ROW*%
%TO.N,Net-(D126-Pad1)*%
X153073624Y-44046947D03*
%TD*%
D12*
%TO.P,D146,1,A*%
%TO.N,Net-(D146-Pad1)*%
X117227874Y-165371947D03*
D14*
X117227874Y-166471947D03*
D13*
X117227874Y-163971947D03*
D12*
%TO.P,D146,2,K*%
%TO.N,Net-(D104-Pad2)*%
X117227874Y-170371947D03*
D15*
X117227874Y-171771947D03*
D14*
X117227874Y-169271947D03*
%TD*%
D13*
%TO.P,D82,1,A*%
%TO.N,Net-(D82-Pad1)*%
X326777874Y-144921947D03*
D14*
X326777874Y-147421947D03*
D12*
X326777874Y-146321947D03*
D14*
%TO.P,D82,2,K*%
%TO.N,Net-(D110-Pad2)*%
X326777874Y-150221947D03*
D12*
X326777874Y-151321947D03*
D15*
X326777874Y-152721947D03*
%TD*%
D12*
%TO.P,D48,1,A*%
%TO.N,Net-(D48-Pad1)*%
X383927874Y-165371947D03*
D14*
X383927874Y-166471947D03*
D13*
X383927874Y-163971947D03*
D15*
%TO.P,D48,2,K*%
%TO.N,Net-(D104-Pad2)*%
X383927874Y-171771947D03*
D14*
X383927874Y-169271947D03*
D12*
X383927874Y-170371947D03*
%TD*%
D23*
%TO.P,U3,*%
%TO.N,*%
X500165374Y-23230697D03*
X493155374Y-23230697D03*
D24*
%TO.P,U3,1*%
%TO.N,GND1*%
X499165374Y-20740697D03*
%TO.P,U3,2*%
%TO.N,reset*%
X494165374Y-20740697D03*
%TD*%
D25*
%TO.N,row5*%
X337890374Y-42459447D03*
%TO.N,row6*%
X451396624Y-34204447D03*
X294234124Y-43253197D03*
X469652874Y-34204447D03*
%TO.N,row7*%
X466477874Y-26266947D03*
X257721624Y-42459447D03*
%TO.N,row8*%
X465684124Y-25473197D03*
X220415374Y-42459447D03*
%TO.N,row9*%
X464096624Y-24679447D03*
X460921624Y-24679447D03*
%TO.N,row10*%
X463302874Y-23885697D03*
X141834124Y-44046947D03*
%TO.N,row11*%
X450602874Y-18646947D03*
%TO.N,row12*%
X449809124Y-19440697D03*
%TO.N,row13*%
X449015374Y-20234447D03*
%TO.N,SCL*%
X493465374Y-39284447D03*
X470446624Y-39284447D03*
X464890374Y-39284447D03*
%TO.N,SDA*%
X466477874Y-40078197D03*
X469652874Y-40078197D03*
%TO.N,GND1*%
X464495874Y-28191355D03*
%TD*%
D26*
%TO.N,Net-(D0-Pad1)*%
X498227874Y-49671947D02*
X498227874Y-46301197D01*
X498227874Y-46301197D02*
X495973624Y-44046947D01*
%TO.N,Net-(D1-Pad1)*%
X498227874Y-68721947D02*
X498227874Y-65351197D01*
X498227874Y-65351197D02*
X495973624Y-63096947D01*
%TO.N,Net-(D2-Pad1)*%
X498227874Y-87771947D02*
X498227874Y-84401197D01*
X498227874Y-84401197D02*
X495973624Y-82146947D01*
%TO.N,Net-(D3-Pad1)*%
X498227874Y-103451197D02*
X495973624Y-101196947D01*
X498227874Y-106821947D02*
X498227874Y-103451197D01*
%TO.N,Net-(D4-Pad1)*%
X498227874Y-125871947D02*
X498227874Y-122501197D01*
X498227874Y-122501197D02*
X495973624Y-120246947D01*
%TO.N,Net-(D5-Pad1)*%
X498227874Y-144921947D02*
X498227874Y-141551197D01*
X498227874Y-141551197D02*
X495973624Y-139296947D01*
%TO.N,Net-(D6-Pad1)*%
X498227874Y-163971947D02*
X498227874Y-160601197D01*
X498227874Y-160601197D02*
X495973624Y-158346947D01*
%TO.N,Net-(D7-Pad1)*%
X515023624Y-44046947D02*
X515023624Y-47417697D01*
X515023624Y-47417697D02*
X517277874Y-49671947D01*
%TO.N,Net-(D8-Pad1)*%
X515023624Y-66467697D02*
X517277874Y-68721947D01*
X515023624Y-63096947D02*
X515023624Y-66467697D01*
%TO.N,Net-(D9-Pad1)*%
X517277874Y-84401197D02*
X515023624Y-82146947D01*
X517277874Y-87771947D02*
X517277874Y-84401197D01*
%TO.N,Net-(D10-Pad1)*%
X517277874Y-103451197D02*
X515023624Y-101196947D01*
X517277874Y-106821947D02*
X517277874Y-103451197D01*
%TO.N,Net-(D11-Pad1)*%
X517277874Y-122501197D02*
X515023624Y-120246947D01*
X517277874Y-125871947D02*
X517277874Y-122501197D01*
%TO.N,Net-(D12-Pad1)*%
X517277874Y-141551197D02*
X515023624Y-139296947D01*
X517277874Y-144921947D02*
X517277874Y-141551197D01*
%TO.N,Net-(D13-Pad1)*%
X517277874Y-163971947D02*
X517277874Y-160601197D01*
X517277874Y-160601197D02*
X515023624Y-158346947D01*
%TO.N,Net-(D14-Pad1)*%
X460127874Y-49671947D02*
X460127874Y-46301197D01*
X460127874Y-46301197D02*
X457873624Y-44046947D01*
%TO.N,Net-(D15-Pad1)*%
X460127874Y-65351197D02*
X457873624Y-63096947D01*
X460127874Y-68721947D02*
X460127874Y-65351197D01*
%TO.N,Net-(D16-Pad1)*%
X460127874Y-87771947D02*
X460127874Y-84401197D01*
X460127874Y-84401197D02*
X457873624Y-82146947D01*
%TO.N,Net-(D17-Pad1)*%
X460127874Y-106821947D02*
X460127874Y-103451197D01*
X460127874Y-103451197D02*
X457873624Y-101196947D01*
%TO.N,Net-(D18-Pad1)*%
X460127874Y-125871947D02*
X460127874Y-122501197D01*
X460127874Y-122501197D02*
X457873624Y-120246947D01*
%TO.N,Net-(D19-Pad1)*%
X460127874Y-141551197D02*
X457873624Y-139296947D01*
X460127874Y-144921947D02*
X460127874Y-141551197D01*
%TO.N,Net-(D20-Pad1)*%
X460127874Y-163971947D02*
X460127874Y-160601197D01*
X460127874Y-160601197D02*
X457873624Y-158346947D01*
%TO.N,Net-(D21-Pad1)*%
X479177874Y-49671947D02*
X479177874Y-46301197D01*
X479177874Y-46301197D02*
X476923624Y-44046947D01*
%TO.N,Net-(D22-Pad1)*%
X479177874Y-65351197D02*
X476923624Y-63096947D01*
X479177874Y-68721947D02*
X479177874Y-65351197D01*
%TO.N,Net-(D23-Pad1)*%
X479177874Y-87771947D02*
X479177874Y-84401197D01*
X479177874Y-84401197D02*
X476923624Y-82146947D01*
%TO.N,Net-(D24-Pad1)*%
X479177874Y-106821947D02*
X479177874Y-103451197D01*
X479177874Y-103451197D02*
X476923624Y-101196947D01*
%TO.N,Net-(D25-Pad1)*%
X479177874Y-122501197D02*
X476923624Y-120246947D01*
X479177874Y-125871947D02*
X479177874Y-122501197D01*
%TO.N,Net-(D26-Pad1)*%
X479177874Y-141551197D02*
X476923624Y-139296947D01*
X479177874Y-144921947D02*
X479177874Y-141551197D01*
%TO.N,Net-(D27-Pad1)*%
X479177874Y-163971947D02*
X479177874Y-160601197D01*
X479177874Y-160601197D02*
X476923624Y-158346947D01*
%TO.N,Net-(D28-Pad1)*%
X422027874Y-49671947D02*
X422027874Y-46301197D01*
X422027874Y-46301197D02*
X419773624Y-44046947D01*
%TO.N,Net-(D29-Pad1)*%
X422027874Y-68721947D02*
X422027874Y-65351197D01*
X422027874Y-65351197D02*
X419773624Y-63096947D01*
%TO.N,Net-(D30-Pad1)*%
X422027874Y-87771947D02*
X422027874Y-84401197D01*
X422027874Y-84401197D02*
X419773624Y-82146947D01*
%TO.N,Net-(D31-Pad1)*%
X422027874Y-103451197D02*
X419773624Y-101196947D01*
X422027874Y-106821947D02*
X422027874Y-103451197D01*
%TO.N,Net-(D32-Pad1)*%
X422027874Y-125871947D02*
X422027874Y-122501197D01*
X422027874Y-122501197D02*
X419773624Y-120246947D01*
%TO.N,Net-(D33-Pad1)*%
X422027874Y-144921947D02*
X422027874Y-141551197D01*
X422027874Y-141551197D02*
X419773624Y-139296947D01*
%TO.N,Net-(D34-Pad1)*%
X422027874Y-163971947D02*
X422027874Y-160601197D01*
X422027874Y-160601197D02*
X419773624Y-158346947D01*
%TO.N,Net-(D35-Pad1)*%
X441077874Y-46301197D02*
X438823624Y-44046947D01*
X441077874Y-49671947D02*
X441077874Y-46301197D01*
%TO.N,Net-(D36-Pad1)*%
X441077874Y-68721947D02*
X441077874Y-65351197D01*
X441077874Y-65351197D02*
X438823624Y-63096947D01*
%TO.N,Net-(D37-Pad1)*%
X441077874Y-84401197D02*
X438823624Y-82146947D01*
X441077874Y-87771947D02*
X441077874Y-84401197D01*
%TO.N,Net-(D38-Pad1)*%
X441077874Y-106821947D02*
X441077874Y-103451197D01*
X441077874Y-103451197D02*
X438823624Y-101196947D01*
%TO.N,Net-(D39-Pad1)*%
X441077874Y-125871947D02*
X441077874Y-122501197D01*
X441077874Y-122501197D02*
X438823624Y-120246947D01*
%TO.N,Net-(D40-Pad1)*%
X441077874Y-144921947D02*
X441077874Y-141551197D01*
X441077874Y-141551197D02*
X438823624Y-139296947D01*
%TO.N,Net-(D41-Pad1)*%
X441077874Y-163971947D02*
X441077874Y-160601197D01*
X441077874Y-160601197D02*
X438823624Y-158346947D01*
%TO.N,Net-(D42-Pad1)*%
X383927874Y-49671947D02*
X383927874Y-46301197D01*
X383927874Y-46301197D02*
X381673624Y-44046947D01*
%TO.N,Net-(D43-Pad1)*%
X383927874Y-65351197D02*
X381673624Y-63096947D01*
X383927874Y-68721947D02*
X383927874Y-65351197D01*
%TO.N,Net-(D44-Pad1)*%
X383927874Y-84401197D02*
X381673624Y-82146947D01*
X383927874Y-87771947D02*
X383927874Y-84401197D01*
%TO.N,Net-(D45-Pad1)*%
X383927874Y-106821947D02*
X383927874Y-103451197D01*
X383927874Y-103451197D02*
X381673624Y-101196947D01*
%TO.N,Net-(D46-Pad1)*%
X383927874Y-122501197D02*
X381673624Y-120246947D01*
X383927874Y-125871947D02*
X383927874Y-122501197D01*
%TO.N,Net-(D47-Pad1)*%
X383927874Y-144921947D02*
X383927874Y-141551197D01*
X383927874Y-141551197D02*
X381673624Y-139296947D01*
%TO.N,Net-(D48-Pad1)*%
X383927874Y-163971947D02*
X383927874Y-160601197D01*
X383927874Y-160601197D02*
X381673624Y-158346947D01*
%TO.N,Net-(D49-Pad1)*%
X402977874Y-46301197D02*
X400723624Y-44046947D01*
X402977874Y-49671947D02*
X402977874Y-46301197D01*
%TO.N,Net-(D50-Pad1)*%
X402977874Y-68721947D02*
X402977874Y-65351197D01*
X402977874Y-65351197D02*
X400723624Y-63096947D01*
%TO.N,Net-(D51-Pad1)*%
X402977874Y-87771947D02*
X402977874Y-84401197D01*
X402977874Y-84401197D02*
X400723624Y-82146947D01*
%TO.N,Net-(D52-Pad1)*%
X402977874Y-103451197D02*
X400723624Y-101196947D01*
X402977874Y-106821947D02*
X402977874Y-103451197D01*
%TO.N,Net-(D53-Pad1)*%
X402977874Y-125871947D02*
X402977874Y-122501197D01*
X402977874Y-122501197D02*
X400723624Y-120246947D01*
%TO.N,Net-(D54-Pad1)*%
X402977874Y-141551197D02*
X400723624Y-139296947D01*
X402977874Y-144921947D02*
X402977874Y-141551197D01*
%TO.N,Net-(D55-Pad1)*%
X402977874Y-160601197D02*
X400723624Y-158346947D01*
X402977874Y-163971947D02*
X402977874Y-160601197D01*
%TO.N,Net-(D56-Pad1)*%
X345827874Y-49671947D02*
X345827874Y-46301197D01*
X345827874Y-46301197D02*
X343573624Y-44046947D01*
%TO.N,Net-(D57-Pad1)*%
X345827874Y-65351197D02*
X343573624Y-63096947D01*
X345827874Y-68721947D02*
X345827874Y-65351197D01*
%TO.N,Net-(D58-Pad1)*%
X345827874Y-84401197D02*
X343573624Y-82146947D01*
X345827874Y-87771947D02*
X345827874Y-84401197D01*
%TO.N,Net-(D59-Pad1)*%
X345827874Y-106821947D02*
X345827874Y-103451197D01*
X345827874Y-103451197D02*
X343573624Y-101196947D01*
%TO.N,Net-(D60-Pad1)*%
X345827874Y-125871947D02*
X345827874Y-122501197D01*
X345827874Y-122501197D02*
X343573624Y-120246947D01*
%TO.N,Net-(D61-Pad1)*%
X345827874Y-144921947D02*
X345827874Y-141551197D01*
X345827874Y-141551197D02*
X343573624Y-139296947D01*
%TO.N,Net-(D62-Pad1)*%
X345827874Y-160601197D02*
X343573624Y-158346947D01*
X345827874Y-163971947D02*
X345827874Y-160601197D01*
%TO.N,Net-(D63-Pad1)*%
X364877874Y-46301197D02*
X362623624Y-44046947D01*
X364877874Y-49671947D02*
X364877874Y-46301197D01*
%TO.N,Net-(D64-Pad1)*%
X364877874Y-65351197D02*
X362623624Y-63096947D01*
X364877874Y-68721947D02*
X364877874Y-65351197D01*
%TO.N,Net-(D65-Pad1)*%
X364877874Y-84401197D02*
X362623624Y-82146947D01*
X364877874Y-87771947D02*
X364877874Y-84401197D01*
%TO.N,Net-(D66-Pad1)*%
X364877874Y-106821947D02*
X364877874Y-103451197D01*
X364877874Y-103451197D02*
X362623624Y-101196947D01*
%TO.N,Net-(D67-Pad1)*%
X364877874Y-125871947D02*
X364877874Y-122501197D01*
X364877874Y-122501197D02*
X362623624Y-120246947D01*
%TO.N,Net-(D68-Pad1)*%
X364877874Y-141551197D02*
X362623624Y-139296947D01*
X364877874Y-144921947D02*
X364877874Y-141551197D01*
%TO.N,Net-(D69-Pad1)*%
X364877874Y-163971947D02*
X364877874Y-160601197D01*
X364877874Y-160601197D02*
X362623624Y-158346947D01*
%TO.N,Net-(D70-Pad1)*%
X307727874Y-49671947D02*
X307727874Y-46301197D01*
X307727874Y-46301197D02*
X305473624Y-44046947D01*
%TO.N,Net-(D71-Pad1)*%
X307727874Y-65351197D02*
X305473624Y-63096947D01*
X307727874Y-68721947D02*
X307727874Y-65351197D01*
%TO.N,Net-(D72-Pad1)*%
X307727874Y-87771947D02*
X307727874Y-84401197D01*
X307727874Y-84401197D02*
X305473624Y-82146947D01*
%TO.N,Net-(D73-Pad1)*%
X307727874Y-103451197D02*
X305473624Y-101196947D01*
X307727874Y-106821947D02*
X307727874Y-103451197D01*
%TO.N,Net-(D74-Pad1)*%
X307727874Y-122501197D02*
X305473624Y-120246947D01*
X307727874Y-125871947D02*
X307727874Y-122501197D01*
%TO.N,Net-(D75-Pad1)*%
X307727874Y-141551197D02*
X305473624Y-139296947D01*
X307727874Y-144921947D02*
X307727874Y-141551197D01*
%TO.N,Net-(D76-Pad1)*%
X307727874Y-163971947D02*
X307727874Y-160601197D01*
X307727874Y-160601197D02*
X305473624Y-158346947D01*
%TO.N,Net-(D77-Pad1)*%
X326777874Y-49671947D02*
X326777874Y-46301197D01*
X326777874Y-46301197D02*
X324523624Y-44046947D01*
%TO.N,Net-(D78-Pad1)*%
X326777874Y-65351197D02*
X324523624Y-63096947D01*
X326777874Y-68721947D02*
X326777874Y-65351197D01*
%TO.N,Net-(D79-Pad1)*%
X326777874Y-84401197D02*
X324523624Y-82146947D01*
X326777874Y-87771947D02*
X326777874Y-84401197D01*
%TO.N,Net-(D80-Pad1)*%
X326777874Y-106821947D02*
X326777874Y-103451197D01*
X326777874Y-103451197D02*
X324523624Y-101196947D01*
%TO.N,Net-(D81-Pad1)*%
X326777874Y-125684447D02*
X326777874Y-122501197D01*
X326777874Y-122501197D02*
X324523624Y-120246947D01*
%TO.N,Net-(D82-Pad1)*%
X324523624Y-142667697D02*
X326777874Y-144921947D01*
X324523624Y-139296947D02*
X324523624Y-142667697D01*
%TO.N,Net-(D83-Pad1)*%
X326777874Y-163971947D02*
X326777874Y-160601197D01*
X326777874Y-160601197D02*
X324523624Y-158346947D01*
%TO.N,Net-(D84-Pad1)*%
X268834124Y-44840697D02*
X268137917Y-44840697D01*
X269612568Y-45619141D02*
X268834124Y-44840697D01*
X269612568Y-49686098D02*
X269612568Y-45619141D01*
%TO.N,Net-(D85-Pad1)*%
X269612568Y-65365348D02*
X267358318Y-63111098D01*
X269612568Y-68736098D02*
X269612568Y-65365348D01*
%TO.N,Net-(D86-Pad1)*%
X269612568Y-84415348D02*
X267358318Y-82161098D01*
X269612568Y-87786098D02*
X269612568Y-84415348D01*
%TO.N,Net-(D87-Pad1)*%
X269612568Y-106836098D02*
X269612568Y-103465348D01*
X269612568Y-103465348D02*
X267358318Y-101211098D01*
%TO.N,Net-(D88-Pad1)*%
X269612568Y-122515348D02*
X267358318Y-120261098D01*
X269612568Y-125886098D02*
X269612568Y-122515348D01*
%TO.N,Net-(D89-Pad1)*%
X269612568Y-144936098D02*
X269612568Y-141565348D01*
X269612568Y-141565348D02*
X267358318Y-139311098D01*
%TO.N,Net-(D90-Pad1)*%
X269612568Y-163986098D02*
X269612568Y-160615348D01*
X269612568Y-160615348D02*
X267358318Y-158361098D01*
%TO.N,Net-(D91-Pad1)*%
X288662568Y-49686098D02*
X288662568Y-46315348D01*
X288662568Y-46315348D02*
X286408318Y-44061098D01*
%TO.N,Net-(D92-Pad1)*%
X288662568Y-68736098D02*
X288662568Y-65365348D01*
X288662568Y-65365348D02*
X286408318Y-63111098D01*
%TO.N,Net-(D93-Pad1)*%
X288662568Y-87786098D02*
X288662568Y-84415348D01*
X288662568Y-84415348D02*
X286408318Y-82161098D01*
%TO.N,Net-(D94-Pad1)*%
X288662568Y-106836098D02*
X288662568Y-103465348D01*
X288662568Y-103465348D02*
X286408318Y-101211098D01*
%TO.N,Net-(D95-Pad1)*%
X288662568Y-125886098D02*
X288662568Y-122515348D01*
X288662568Y-122515348D02*
X286408318Y-120261098D01*
%TO.N,Net-(D96-Pad1)*%
X288662568Y-141565348D02*
X286408318Y-139311098D01*
X288662568Y-144936098D02*
X288662568Y-141565348D01*
%TO.N,Net-(D97-Pad1)*%
X288662568Y-163986098D02*
X288662568Y-160615348D01*
X288662568Y-160615348D02*
X286408318Y-158361098D01*
%TO.N,Net-(D98-Pad1)*%
X231527874Y-46301197D02*
X229273624Y-44046947D01*
X231527874Y-49671947D02*
X231527874Y-46301197D01*
%TO.N,Net-(D99-Pad1)*%
X231527874Y-68721947D02*
X231527874Y-65351197D01*
X231527874Y-65351197D02*
X229273624Y-63096947D01*
%TO.N,Net-(D100-Pad1)*%
X231527874Y-84401197D02*
X229273624Y-82146947D01*
X231527874Y-87771947D02*
X231527874Y-84401197D01*
%TO.N,Net-(D101-Pad1)*%
X231527874Y-103451197D02*
X229273624Y-101196947D01*
X231527874Y-106821947D02*
X231527874Y-103451197D01*
%TO.N,Net-(D102-Pad1)*%
X231527874Y-125871947D02*
X231527874Y-122501197D01*
X231527874Y-122501197D02*
X229273624Y-120246947D01*
%TO.N,Net-(D103-Pad1)*%
X231527874Y-141551197D02*
X229273624Y-139296947D01*
X231527874Y-144921947D02*
X231527874Y-141551197D01*
%TO.N,Net-(D104-Pad1)*%
X231527874Y-160601197D02*
X229273624Y-158346947D01*
X231527874Y-163784447D02*
X231527874Y-160601197D01*
%TO.N,Net-(D105-Pad1)*%
X250577874Y-46301197D02*
X248323624Y-44046947D01*
X250577874Y-49671947D02*
X250577874Y-46301197D01*
%TO.N,Net-(D106-Pad1)*%
X250577874Y-65351197D02*
X248323624Y-63096947D01*
X250577874Y-68721947D02*
X250577874Y-65351197D01*
%TO.N,Net-(D107-Pad1)*%
X250577874Y-84401197D02*
X248323624Y-82146947D01*
X250577874Y-87771947D02*
X250577874Y-84401197D01*
%TO.N,Net-(D108-Pad1)*%
X250577874Y-103451197D02*
X248323624Y-101196947D01*
X250577874Y-106821947D02*
X250577874Y-103451197D01*
%TO.N,Net-(D109-Pad1)*%
X250577874Y-122501197D02*
X248323624Y-120246947D01*
X250577874Y-125871947D02*
X250577874Y-122501197D01*
%TO.N,Net-(D110-Pad1)*%
X250577874Y-144921947D02*
X250577874Y-141551197D01*
X250577874Y-141551197D02*
X248323624Y-139296947D01*
%TO.N,Net-(D111-Pad1)*%
X250577874Y-163971947D02*
X250577874Y-160601197D01*
X250577874Y-160601197D02*
X248323624Y-158346947D01*
%TO.N,Net-(D112-Pad1)*%
X193427874Y-46301197D02*
X191173624Y-44046947D01*
X193427874Y-49671947D02*
X193427874Y-46301197D01*
%TO.N,Net-(D113-Pad1)*%
X193427874Y-65351197D02*
X191173624Y-63096947D01*
X193427874Y-68721947D02*
X193427874Y-65351197D01*
%TO.N,Net-(D114-Pad1)*%
X193427874Y-87771947D02*
X193427874Y-84401197D01*
X193427874Y-84401197D02*
X191173624Y-82146947D01*
%TO.N,Net-(D115-Pad1)*%
X193427874Y-103451197D02*
X191173624Y-101196947D01*
X193427874Y-106821947D02*
X193427874Y-103451197D01*
%TO.N,Net-(D116-Pad1)*%
X193427874Y-125871947D02*
X193427874Y-122501197D01*
X193427874Y-122501197D02*
X191173624Y-120246947D01*
%TO.N,Net-(D117-Pad1)*%
X193427874Y-141551197D02*
X191173624Y-139296947D01*
X193427874Y-144921947D02*
X193427874Y-141551197D01*
%TO.N,Net-(D118-Pad1)*%
X193427874Y-160601197D02*
X191173624Y-158346947D01*
X193427874Y-163971947D02*
X193427874Y-160601197D01*
%TO.N,Net-(D119-Pad1)*%
X212477874Y-49671947D02*
X212477874Y-46301197D01*
X212477874Y-46301197D02*
X210223624Y-44046947D01*
%TO.N,Net-(D120-Pad1)*%
X212477874Y-65351197D02*
X210223624Y-63096947D01*
X212477874Y-68721947D02*
X212477874Y-65351197D01*
%TO.N,Net-(D121-Pad1)*%
X212477874Y-87771947D02*
X212477874Y-84401197D01*
X212477874Y-84401197D02*
X210223624Y-82146947D01*
%TO.N,Net-(D122-Pad1)*%
X212477874Y-106821947D02*
X212477874Y-103451197D01*
X212477874Y-103451197D02*
X210223624Y-101196947D01*
%TO.N,Net-(D123-Pad1)*%
X212477874Y-122501197D02*
X210223624Y-120246947D01*
X212477874Y-125871947D02*
X212477874Y-122501197D01*
%TO.N,Net-(D124-Pad1)*%
X212477874Y-141551197D02*
X210223624Y-139296947D01*
X212477874Y-144921947D02*
X212477874Y-141551197D01*
%TO.N,Net-(D125-Pad1)*%
X212477874Y-163971947D02*
X212477874Y-160601197D01*
X212477874Y-160601197D02*
X210223624Y-158346947D01*
%TO.N,Net-(D126-Pad1)*%
X155327874Y-46301197D02*
X153073624Y-44046947D01*
X155327874Y-49671947D02*
X155327874Y-46301197D01*
%TO.N,Net-(D127-Pad1)*%
X155327874Y-68721947D02*
X155327874Y-65351197D01*
X155327874Y-65351197D02*
X153073624Y-63096947D01*
%TO.N,Net-(D128-Pad1)*%
X155327874Y-87771947D02*
X155327874Y-84401197D01*
X155327874Y-84401197D02*
X153073624Y-82146947D01*
%TO.N,Net-(D129-Pad1)*%
X155327874Y-106821947D02*
X155327874Y-103451197D01*
X155327874Y-103451197D02*
X153073624Y-101196947D01*
%TO.N,Net-(D130-Pad1)*%
X155327874Y-125871947D02*
X155327874Y-122501197D01*
X155327874Y-122501197D02*
X153073624Y-120246947D01*
%TO.N,Net-(D131-Pad1)*%
X155327874Y-141551197D02*
X153073624Y-139296947D01*
X155327874Y-144921947D02*
X155327874Y-141551197D01*
%TO.N,Net-(D132-Pad1)*%
X155327874Y-160601197D02*
X153073624Y-158346947D01*
X155327874Y-163971947D02*
X155327874Y-160601197D01*
%TO.N,Net-(D133-Pad1)*%
X174377874Y-49671947D02*
X174377874Y-46301197D01*
X174377874Y-46301197D02*
X172123624Y-44046947D01*
%TO.N,Net-(D134-Pad1)*%
X174377874Y-68721947D02*
X174377874Y-65351197D01*
X174377874Y-65351197D02*
X172123624Y-63096947D01*
%TO.N,Net-(D135-Pad1)*%
X174377874Y-87771947D02*
X174377874Y-84401197D01*
X174377874Y-84401197D02*
X172123624Y-82146947D01*
%TO.N,Net-(D136-Pad1)*%
X174377874Y-103451197D02*
X172123624Y-101196947D01*
X174377874Y-106821947D02*
X174377874Y-103451197D01*
%TO.N,Net-(D137-Pad1)*%
X174377874Y-122501197D02*
X172123624Y-120246947D01*
X174377874Y-125871947D02*
X174377874Y-122501197D01*
%TO.N,Net-(D138-Pad1)*%
X174377874Y-141551197D02*
X172123624Y-139296947D01*
X174377874Y-144921947D02*
X174377874Y-141551197D01*
%TO.N,Net-(D139-Pad1)*%
X174377874Y-163971947D02*
X174377874Y-160601197D01*
X174377874Y-160601197D02*
X172123624Y-158346947D01*
%TO.N,Net-(D140-Pad1)*%
X117227874Y-49671947D02*
X117227874Y-46301197D01*
X117227874Y-46301197D02*
X114973624Y-44046947D01*
%TO.N,Net-(D141-Pad1)*%
X114973624Y-66467697D02*
X117227874Y-68721947D01*
X114973624Y-63096947D02*
X114973624Y-66467697D01*
%TO.N,Net-(D142-Pad1)*%
X117227874Y-87771947D02*
X117227874Y-84401197D01*
X117227874Y-84401197D02*
X114973624Y-82146947D01*
%TO.N,Net-(D143-Pad1)*%
X117227874Y-103451197D02*
X114973624Y-101196947D01*
X117227874Y-106821947D02*
X117227874Y-103451197D01*
%TO.N,Net-(D144-Pad1)*%
X117227874Y-125871947D02*
X117227874Y-122501197D01*
X117227874Y-122501197D02*
X114973624Y-120246947D01*
%TO.N,Net-(D145-Pad1)*%
X117227874Y-141551197D02*
X114973624Y-139296947D01*
X117227874Y-144921947D02*
X117227874Y-141551197D01*
%TO.N,Net-(D146-Pad1)*%
X117227874Y-160601197D02*
X114973624Y-158346947D01*
X117227874Y-163971947D02*
X117227874Y-160601197D01*
%TO.N,Net-(D147-Pad1)*%
X136277874Y-49671947D02*
X136277874Y-46301197D01*
X136277874Y-46301197D02*
X134023624Y-44046947D01*
%TO.N,Net-(D148-Pad1)*%
X136277874Y-68721947D02*
X136277874Y-65351197D01*
X136277874Y-65351197D02*
X134023624Y-63096947D01*
%TO.N,Net-(D149-Pad1)*%
X136277874Y-84401197D02*
X134023624Y-82146947D01*
X136277874Y-87771947D02*
X136277874Y-84401197D01*
%TO.N,Net-(D150-Pad1)*%
X136277874Y-106821947D02*
X136277874Y-103451197D01*
X136277874Y-103451197D02*
X134023624Y-101196947D01*
%TO.N,Net-(D151-Pad1)*%
X136277874Y-125871947D02*
X136277874Y-122501197D01*
X136277874Y-122501197D02*
X134023624Y-120246947D01*
%TO.N,Net-(D152-Pad1)*%
X136277874Y-144734447D02*
X136277874Y-141551197D01*
X136277874Y-141551197D02*
X134023624Y-139296947D01*
%TO.N,Net-(D153-Pad1)*%
X136277874Y-163971947D02*
X136277874Y-160601197D01*
X136277874Y-160601197D02*
X134023624Y-158346947D01*
%TO.N,Net-(D154-Pad1)*%
X79127874Y-49671947D02*
X79127874Y-46301197D01*
X79127874Y-46301197D02*
X76873624Y-44046947D01*
%TO.N,Net-(D155-Pad1)*%
X79127874Y-65351197D02*
X76873624Y-63096947D01*
X79127874Y-68721947D02*
X79127874Y-65351197D01*
%TO.N,Net-(D156-Pad1)*%
X79127874Y-87771947D02*
X79127874Y-84401197D01*
X79127874Y-84401197D02*
X76873624Y-82146947D01*
%TO.N,Net-(D157-Pad1)*%
X79127874Y-106821947D02*
X79127874Y-103451197D01*
X79127874Y-103451197D02*
X76873624Y-101196947D01*
%TO.N,Net-(D158-Pad1)*%
X79127874Y-125871947D02*
X79127874Y-122501197D01*
X79127874Y-122501197D02*
X76873624Y-120246947D01*
%TO.N,Net-(D159-Pad1)*%
X79127874Y-141551197D02*
X76873624Y-139296947D01*
X79127874Y-144921947D02*
X79127874Y-141551197D01*
%TO.N,Net-(D160-Pad1)*%
X79127874Y-160601197D02*
X76873624Y-158346947D01*
X79127874Y-163971947D02*
X79127874Y-160601197D01*
%TO.N,Net-(D161-Pad1)*%
X98177874Y-49671947D02*
X98177874Y-46301197D01*
X98177874Y-46301197D02*
X95923624Y-44046947D01*
%TO.N,Net-(D162-Pad1)*%
X95923624Y-63096947D02*
X95923624Y-66467697D01*
X95923624Y-66467697D02*
X98177874Y-68721947D01*
%TO.N,Net-(D163-Pad1)*%
X98177874Y-84401197D02*
X95923624Y-82146947D01*
X98177874Y-87771947D02*
X98177874Y-84401197D01*
%TO.N,Net-(D164-Pad1)*%
X98177874Y-103451197D02*
X95923624Y-101196947D01*
X98177874Y-106821947D02*
X98177874Y-103451197D01*
%TO.N,Net-(D165-Pad1)*%
X98177874Y-122501197D02*
X95923624Y-120246947D01*
X98177874Y-125871947D02*
X98177874Y-122501197D01*
%TO.N,Net-(D166-Pad1)*%
X98177874Y-144921947D02*
X98177874Y-141551197D01*
X98177874Y-141551197D02*
X95923624Y-139296947D01*
%TO.N,Net-(D167-Pad1)*%
X98177874Y-160601197D02*
X95923624Y-158346947D01*
X98177874Y-163971947D02*
X98177874Y-160601197D01*
%TO.N,Net-(D168-Pad1)*%
X41027874Y-49671947D02*
X41027874Y-46301197D01*
X41027874Y-46301197D02*
X38773624Y-44046947D01*
%TO.N,Net-(D169-Pad1)*%
X41027874Y-65351197D02*
X38773624Y-63096947D01*
X41027874Y-68721947D02*
X41027874Y-65351197D01*
%TO.N,Net-(D170-Pad1)*%
X41027874Y-87771947D02*
X41027874Y-84401197D01*
X41027874Y-84401197D02*
X38773624Y-82146947D01*
%TO.N,Net-(D171-Pad1)*%
X41027874Y-103451197D02*
X38773624Y-101196947D01*
X41027874Y-106821947D02*
X41027874Y-103451197D01*
%TO.N,Net-(D172-Pad1)*%
X41027874Y-122501197D02*
X38773624Y-120246947D01*
X41027874Y-125871947D02*
X41027874Y-122501197D01*
%TO.N,Net-(D173-Pad1)*%
X41027874Y-141551197D02*
X38773624Y-139296947D01*
X41027874Y-144921947D02*
X41027874Y-141551197D01*
%TO.N,Net-(D174-Pad1)*%
X41027874Y-163971947D02*
X41027874Y-160601197D01*
X41027874Y-160601197D02*
X38773624Y-158346947D01*
%TO.N,Net-(D175-Pad1)*%
X60077874Y-46301197D02*
X57823624Y-44046947D01*
X60077874Y-49671947D02*
X60077874Y-46301197D01*
%TO.N,Net-(D176-Pad1)*%
X57823624Y-63096947D02*
X57823624Y-66467697D01*
X57823624Y-66467697D02*
X60077874Y-68721947D01*
%TO.N,Net-(D177-Pad1)*%
X60077874Y-87771947D02*
X60077874Y-84401197D01*
X60077874Y-84401197D02*
X57823624Y-82146947D01*
%TO.N,Net-(D178-Pad1)*%
X60077874Y-103451197D02*
X57823624Y-101196947D01*
X60077874Y-106821947D02*
X60077874Y-103451197D01*
%TO.N,Net-(D179-Pad1)*%
X60077874Y-122501197D02*
X57823624Y-120246947D01*
X60077874Y-125871947D02*
X60077874Y-122501197D01*
%TO.N,Net-(D180-Pad1)*%
X60077874Y-144921947D02*
X60077874Y-141551197D01*
X60077874Y-141551197D02*
X57823624Y-139296947D01*
%TO.N,Net-(D181-Pad1)*%
X60077874Y-160601197D02*
X57823624Y-158346947D01*
X60077874Y-163971947D02*
X60077874Y-160601197D01*
%TO.N,row0*%
X502096624Y-48896947D02*
X510740374Y-57540697D01*
X510740374Y-57540697D02*
X502644124Y-65636947D01*
X501561624Y-65636947D02*
X495846624Y-59921947D01*
X480053374Y-36833347D02*
X483298224Y-40078197D01*
X502096624Y-46586947D02*
X502096624Y-48896947D01*
X499815374Y-40078197D02*
X502096624Y-42359447D01*
X502096624Y-42359447D02*
X502096624Y-46586947D01*
X495846624Y-59921947D02*
X488761624Y-59921947D01*
X483046624Y-65636947D02*
X483046624Y-160886947D01*
X483298224Y-40078197D02*
X499815374Y-40078197D01*
X488761624Y-59921947D02*
X483046624Y-65636947D01*
X502096624Y-160886947D02*
X502096624Y-65636947D01*
%TO.N,row1*%
X472092874Y-76590697D02*
X463996624Y-84686947D01*
X449867874Y-79765697D02*
X444946624Y-84686947D01*
X463996624Y-59028197D02*
X463996624Y-65636947D01*
X463996624Y-67939038D02*
X472648283Y-76590697D01*
X464096624Y-59128197D02*
X463996624Y-59028197D01*
X483046624Y-46586947D02*
X483046624Y-56846947D01*
X483046624Y-56846947D02*
X480765374Y-59128197D01*
X463996624Y-84428197D02*
X459334124Y-79765697D01*
X444946624Y-84686947D02*
X444946624Y-160886947D01*
X472648283Y-76590697D02*
X473552874Y-76590697D01*
X473552874Y-76590697D02*
X472092874Y-76590697D01*
X480765374Y-59128197D02*
X464096624Y-59128197D01*
X463996624Y-65636947D02*
X463996624Y-67939038D01*
X477513374Y-41053697D02*
X483046624Y-46586947D01*
X463996624Y-84686947D02*
X463996624Y-160886947D01*
X459334124Y-79765697D02*
X449867874Y-79765697D01*
X463996624Y-46586947D02*
X463996624Y-59028197D01*
X477513374Y-37061947D02*
X477513374Y-41053697D01*
%TO.N,row2*%
X425896624Y-84686947D02*
X425896624Y-65636947D01*
X425896624Y-88465697D02*
X425896624Y-84686947D01*
X425896624Y-65636947D02*
X425896624Y-46586947D01*
X406846624Y-160886947D02*
X406846624Y-163189038D01*
X425896624Y-103736947D02*
X425896624Y-100315697D01*
X425896624Y-48889038D02*
X436135783Y-59128197D01*
X444946624Y-65636947D02*
X444946624Y-46586947D01*
X474973374Y-40046177D02*
X472847125Y-42172426D01*
X425896624Y-160886947D02*
X425896624Y-103736947D01*
X411529533Y-167871947D02*
X423615374Y-167871947D01*
X439490374Y-59128197D02*
X444946624Y-64584447D01*
X472847125Y-42172426D02*
X449522103Y-42172426D01*
X425896624Y-46586947D02*
X425896624Y-48889038D01*
X423615374Y-167871947D02*
X425896624Y-165590697D01*
X474973374Y-40046177D02*
X474973374Y-37061947D01*
X425896624Y-165590697D02*
X425896624Y-160886947D01*
X449522103Y-42172426D02*
X445107582Y-46586947D01*
X425896624Y-100315697D02*
X430571624Y-95640697D01*
X406846624Y-103736947D02*
X406846624Y-160886947D01*
X406846624Y-163189038D02*
X411529533Y-167871947D01*
X433071624Y-95640697D02*
X425896624Y-88465697D01*
X436135783Y-59128197D02*
X439490374Y-59128197D01*
%TO.N,row3*%
X387796624Y-103736947D02*
X387796624Y-106039038D01*
X391865374Y-79765697D02*
X387796624Y-83834447D01*
X472433374Y-39678947D02*
X472433374Y-37061947D01*
X395723150Y-115484447D02*
X388420650Y-122786947D01*
X387796624Y-46586947D02*
X387796624Y-65636947D01*
X368746624Y-122786947D02*
X368746624Y-160886947D01*
X411709124Y-41665697D02*
X406846624Y-46528197D01*
X398146624Y-115484447D02*
X395723150Y-115484447D01*
X401925374Y-79765697D02*
X391865374Y-79765697D01*
X374461624Y-117071947D02*
X368746624Y-122786947D01*
X396627874Y-113965697D02*
X398146624Y-115484447D01*
X387796624Y-65636947D02*
X387796624Y-84686947D01*
X472433374Y-39678947D02*
X470446624Y-41665697D01*
X406846624Y-84686947D02*
X401925374Y-79765697D01*
X387796624Y-122786947D02*
X387796624Y-141836947D01*
X387796624Y-106039038D02*
X395723283Y-113965697D01*
X382081624Y-117071947D02*
X374461624Y-117071947D01*
X470446624Y-41665697D02*
X411709124Y-41665697D01*
X387796624Y-141836947D02*
X387796624Y-160886947D01*
X387796624Y-122786947D02*
X382081624Y-117071947D01*
X387796624Y-84686947D02*
X387796624Y-103736947D01*
X406846624Y-46586947D02*
X406846624Y-84686947D01*
X395723283Y-113965697D02*
X396627874Y-113965697D01*
%TO.N,row4*%
X357546624Y-132946947D02*
X357546624Y-133986947D01*
X379194749Y-41695072D02*
X373638499Y-41695072D01*
X379224124Y-41665697D02*
X379194749Y-41695072D01*
X368746624Y-64584447D02*
X364084124Y-59921947D01*
X469893374Y-37061947D02*
X471983854Y-39152427D01*
X410915374Y-41665697D02*
X379224124Y-41665697D01*
X349696624Y-125089038D02*
X357546624Y-132939038D01*
X357546624Y-133986947D02*
X349696624Y-141836947D01*
X349696624Y-46586947D02*
X349696624Y-125089038D01*
X364084124Y-59921947D02*
X355411624Y-59921947D01*
X349696624Y-141836947D02*
X349696624Y-160886947D01*
X343981624Y-136121947D02*
X336361624Y-136121947D01*
X471983854Y-39334717D02*
X470102394Y-41216177D01*
X368746624Y-84686947D02*
X368746624Y-103736947D01*
X336361624Y-136121947D02*
X330646624Y-141836947D01*
X471983854Y-39152427D02*
X471983854Y-39334717D01*
X373638499Y-41695072D02*
X368746624Y-46586947D01*
X368746624Y-46586947D02*
X368746624Y-65636947D01*
X470102394Y-41216177D02*
X411364894Y-41216177D01*
X368746624Y-84686947D02*
X368746624Y-65636947D01*
X411364894Y-41216177D02*
X410915374Y-41665697D01*
X355411624Y-59921947D02*
X349696624Y-65636947D01*
X349696624Y-141836947D02*
X343981624Y-136121947D01*
X330646624Y-141836947D02*
X330646624Y-160886947D01*
%TO.N,row5*%
X292546624Y-163189038D02*
X297229533Y-167871947D01*
X330646624Y-46586947D02*
X330646624Y-122786947D01*
X311596624Y-141836947D02*
X311596624Y-145602219D01*
X299977874Y-150409447D02*
X297596624Y-152790697D01*
X330646624Y-46586947D02*
X334774124Y-42459447D01*
X311596624Y-46586947D02*
X311596624Y-141836947D01*
X291852874Y-156034447D02*
X291852874Y-156759447D01*
X304552874Y-148821947D02*
X302965374Y-150409447D01*
X325725374Y-60715697D02*
X316517874Y-60715697D01*
X311596624Y-166384447D02*
X311596624Y-160886947D01*
X308376896Y-148821947D02*
X304552874Y-148821947D01*
X310109124Y-167871947D02*
X311596624Y-166384447D01*
X292546624Y-160886947D02*
X292546624Y-163189038D01*
X330646624Y-65636947D02*
X325725374Y-60715697D01*
X297229533Y-167871947D02*
X310109124Y-167871947D01*
X295096624Y-152790697D02*
X291852874Y-156034447D01*
X334774124Y-42459447D02*
X337890374Y-42459447D01*
X316517874Y-60715697D02*
X311596624Y-65636947D01*
X292546624Y-157453197D02*
X292546624Y-160886947D01*
X311596624Y-145602219D02*
X308376896Y-148821947D01*
X291852874Y-156759447D02*
X292546624Y-157453197D01*
X302965374Y-150409447D02*
X299977874Y-150409447D01*
%TO.N,row6*%
X277895839Y-80286577D02*
X273481318Y-84701098D01*
X273481318Y-163203189D02*
X282118826Y-171840697D01*
X292546624Y-46586947D02*
X292546624Y-44940697D01*
X469652874Y-34204447D02*
X451396624Y-34204447D01*
X273481318Y-160901098D02*
X273481318Y-163203189D01*
X288146254Y-80286577D02*
X277895839Y-80286577D01*
X292546624Y-44940697D02*
X294234124Y-43253197D01*
X292546624Y-46586947D02*
X292546624Y-141836947D01*
X292546624Y-84686947D02*
X288146254Y-80286577D01*
X273481318Y-160901098D02*
X273481318Y-46601098D01*
%TO.N,row7*%
X235396624Y-141836947D02*
X235396624Y-46586947D01*
X251371624Y-136121947D02*
X241111624Y-136121947D01*
X478148374Y-26266947D02*
X466477874Y-26266947D01*
X257721624Y-43310792D02*
X257721624Y-42459447D01*
X480053374Y-24361947D02*
X478148374Y-26266947D01*
X254431318Y-46601098D02*
X257721624Y-43310792D01*
X254431318Y-160901098D02*
X254431318Y-164667525D01*
X254431318Y-46601098D02*
X254431318Y-160901098D01*
X241111624Y-136121947D02*
X235396624Y-141836947D01*
X254431318Y-139181641D02*
X251371624Y-136121947D01*
X254431318Y-164667525D02*
X261502874Y-171739081D01*
X254431318Y-141851098D02*
X254431318Y-139181641D01*
%TO.N,row8*%
X216346624Y-160886947D02*
X222061624Y-155171947D01*
X212477874Y-98021947D02*
X203011624Y-98021947D01*
X197296624Y-103736947D02*
X197296624Y-122786947D01*
X476402124Y-25473197D02*
X465684124Y-25473197D01*
X222061624Y-155171947D02*
X229681624Y-155171947D01*
X216346624Y-46528197D02*
X220415374Y-42459447D01*
X197296624Y-103736947D02*
X197296624Y-84686947D01*
X229681624Y-155171947D02*
X235396624Y-160886947D01*
X235396624Y-160886947D02*
X235396624Y-155340697D01*
X197296624Y-84686947D02*
X197296624Y-65636947D01*
X197296624Y-65636947D02*
X203011624Y-59921947D01*
X197296624Y-65636947D02*
X197296624Y-46586947D01*
X216346624Y-103736947D02*
X216346624Y-101890697D01*
X216346624Y-101890697D02*
X212477874Y-98021947D01*
X216346624Y-46586947D02*
X216346624Y-65636947D01*
X480053374Y-21821947D02*
X476402124Y-25473197D01*
X203011624Y-59921947D02*
X210631624Y-59921947D01*
X210631624Y-59921947D02*
X216346624Y-65636947D01*
X203011624Y-98021947D02*
X197296624Y-103736947D01*
X216346624Y-65636947D02*
X216346624Y-160886947D01*
X235396624Y-155340697D02*
X237946624Y-152790697D01*
%TO.N,row9*%
X476560156Y-24679447D02*
X477513374Y-23726229D01*
X200571624Y-41665697D02*
X353188406Y-41665697D01*
X174377874Y-80818197D02*
X174377874Y-79765697D01*
X200064895Y-42172426D02*
X182661145Y-42172426D01*
X464096624Y-24679447D02*
X476560156Y-24679447D01*
X178246624Y-46586947D02*
X178246624Y-128271947D01*
X197296624Y-141836947D02*
X197296624Y-160886947D01*
X450602874Y-32616947D02*
X450602874Y-40078197D01*
X182661145Y-42172426D02*
X178246624Y-46586947D01*
X178246624Y-141836947D02*
X178246624Y-160886947D01*
X184509124Y-134534447D02*
X184509124Y-135574447D01*
X164911624Y-78971947D02*
X159196624Y-84686947D01*
X373481676Y-41216177D02*
X373320640Y-41377213D01*
X184509124Y-135574447D02*
X178246624Y-141836947D01*
X159196624Y-65636947D02*
X159196624Y-46586947D01*
X450602874Y-40078197D02*
X449914414Y-40766657D01*
X159196624Y-84686947D02*
X159196624Y-65636947D01*
X411020664Y-40766657D02*
X410571144Y-41216177D01*
X174377874Y-79765697D02*
X173584124Y-78971947D01*
X353476890Y-41377213D02*
X353188406Y-41665697D01*
X449914414Y-40766657D02*
X411020664Y-40766657D01*
X373320640Y-41377213D02*
X353476890Y-41377213D01*
X159196624Y-84686947D02*
X159196624Y-103736947D01*
X460921624Y-24679447D02*
X458540374Y-24679447D01*
X458540374Y-24679447D02*
X450602874Y-32616947D01*
X173584124Y-78971947D02*
X164911624Y-78971947D01*
X189585146Y-134534447D02*
X196887646Y-141836947D01*
X178246624Y-84686947D02*
X174377874Y-80818197D01*
X178246624Y-128271947D02*
X184509124Y-134534447D01*
X187009124Y-134534447D02*
X189585146Y-134534447D01*
X477513374Y-21821947D02*
X477513374Y-23726229D01*
X200571624Y-41665697D02*
X200064895Y-42172426D01*
X410571144Y-41216177D02*
X373481676Y-41216177D01*
%TO.N,row10*%
X121096624Y-84686947D02*
X121096624Y-46586947D01*
X474973374Y-21821947D02*
X472909624Y-23885697D01*
X135732103Y-61222426D02*
X140146624Y-65636947D01*
X125511145Y-61222426D02*
X135732103Y-61222426D01*
X121096624Y-65636947D02*
X125511145Y-61222426D01*
X472909624Y-23885697D02*
X463302874Y-23885697D01*
X140146624Y-46586947D02*
X140146624Y-160886947D01*
X159196624Y-122786947D02*
X159196624Y-160886947D01*
X154221125Y-118372426D02*
X158635646Y-122786947D01*
X144561145Y-118372426D02*
X154221125Y-118372426D01*
X140146624Y-122786947D02*
X144561145Y-118372426D01*
X159196624Y-122786947D02*
X167046624Y-114936947D01*
X141834124Y-44046947D02*
X140146624Y-45734447D01*
%TO.N,row11*%
X102046624Y-122786947D02*
X102046624Y-160886947D01*
X353027370Y-41191016D02*
X200410587Y-41191016D01*
X121096624Y-103736947D02*
X113000374Y-95640697D01*
X199935907Y-41665697D02*
X106967874Y-41665697D01*
X106967874Y-41665697D02*
X102046624Y-46586947D01*
X102046624Y-103736947D02*
X102046624Y-122786947D01*
X121096624Y-160886947D02*
X121096624Y-103736947D01*
X102046624Y-46586947D02*
X102046624Y-65636947D01*
X450602874Y-31981229D02*
X450153354Y-32430750D01*
X449570184Y-40317137D02*
X410571144Y-40317137D01*
X353451728Y-40766657D02*
X353027370Y-41191016D01*
X102046624Y-65636947D02*
X102046624Y-90171947D01*
X107515374Y-98268197D02*
X102046624Y-103736947D01*
X82996624Y-65636947D02*
X82996624Y-46586947D01*
X410571144Y-40317137D02*
X410121624Y-40766657D01*
X107515374Y-95640697D02*
X107515374Y-98268197D01*
X113000374Y-95640697D02*
X110015374Y-95640697D01*
X410121624Y-40766657D02*
X353451728Y-40766657D01*
X450153354Y-39733967D02*
X449570184Y-40317137D01*
X200410587Y-41191016D02*
X199935907Y-41665697D01*
X450153354Y-32430750D02*
X450153354Y-39733967D01*
X102046624Y-65636947D02*
X96331624Y-59921947D01*
X96331624Y-59921947D02*
X88711624Y-59921947D01*
X450602874Y-18646947D02*
X450602874Y-31981229D01*
X102046624Y-90171947D02*
X107515374Y-95640697D01*
X88711624Y-59921947D02*
X82996624Y-65636947D01*
%TO.N,row12*%
X106564894Y-41216177D02*
X106115374Y-41665697D01*
X57696624Y-53571947D02*
X55620045Y-51495368D01*
X63946624Y-46586947D02*
X63946624Y-65636947D01*
X68361145Y-118372426D02*
X78582103Y-118372426D01*
X76487874Y-135328197D02*
X82996624Y-141836947D01*
X60726896Y-53571947D02*
X57696624Y-53571947D01*
X106115374Y-41665697D02*
X66227874Y-41665697D01*
X63946624Y-141836947D02*
X70455374Y-135328197D01*
X63946624Y-65636947D02*
X63946624Y-71121947D01*
X69415374Y-76590697D02*
X69415374Y-79218197D01*
X63946624Y-46586947D02*
X63946624Y-50352219D01*
X76487874Y-97228197D02*
X70455374Y-97228197D01*
X82996624Y-160886947D02*
X82996624Y-141836947D01*
X78582103Y-118372426D02*
X82996624Y-122786947D01*
X69415374Y-79218197D02*
X63946624Y-84686947D01*
X449703834Y-32244553D02*
X449703834Y-39389737D01*
X44896624Y-48889038D02*
X44896624Y-46586947D01*
X352841173Y-40741496D02*
X200224389Y-40741497D01*
X410121624Y-40078197D02*
X353504471Y-40078197D01*
X449809124Y-19440697D02*
X450153354Y-19784927D01*
X82996624Y-103736947D02*
X76487874Y-97228197D01*
X63946624Y-50352219D02*
X60726896Y-53571947D01*
X353504471Y-40078197D02*
X352841173Y-40741496D01*
X63946624Y-43946947D02*
X63946624Y-46586947D01*
X449225954Y-39867617D02*
X410332204Y-39867617D01*
X199749710Y-41216177D02*
X106564894Y-41216177D01*
X449703834Y-39389737D02*
X449225954Y-39867617D01*
X70455374Y-97228197D02*
X63946624Y-103736947D01*
X82996624Y-81980997D02*
X82996624Y-84686947D01*
X450153354Y-19784927D02*
X450153354Y-31795032D01*
X63946624Y-71121947D02*
X69415374Y-76590697D01*
X63946624Y-160886947D02*
X63946624Y-141836947D01*
X410332204Y-39867617D02*
X410121624Y-40078197D01*
X71915374Y-76590697D02*
X77606324Y-76590697D01*
X82996624Y-122786947D02*
X82996624Y-141836947D01*
X70455374Y-135328197D02*
X76487874Y-135328197D01*
X200224389Y-40741497D02*
X199749710Y-41216177D01*
X47502954Y-51495368D02*
X44896624Y-48889038D01*
X66227874Y-41665697D02*
X63946624Y-43946947D01*
X55620045Y-51495368D02*
X47502954Y-51495368D01*
X450153354Y-31795032D02*
X449703834Y-32244553D01*
X63946624Y-122786947D02*
X68361145Y-118372426D01*
X77606324Y-76590697D02*
X82996624Y-81980997D01*
X63946624Y-103736947D02*
X63946624Y-122786947D01*
X82996624Y-84686947D02*
X82996624Y-103736947D01*
%TO.N,row13*%
X29190374Y-58334447D02*
X25846624Y-54990697D01*
X409935426Y-39628677D02*
X353318273Y-39628678D01*
X449015374Y-20234447D02*
X449703834Y-20922907D01*
X25846624Y-42559447D02*
X25846624Y-46586947D01*
X25846624Y-122786947D02*
X25846624Y-103736947D01*
X65592157Y-41665697D02*
X26740374Y-41665697D01*
X29190374Y-62293197D02*
X25846624Y-65636947D01*
X449703834Y-31608835D02*
X449254314Y-32058356D01*
X34578353Y-61222426D02*
X40482103Y-61222426D01*
X40482103Y-61222426D02*
X44896624Y-65636947D01*
X105929177Y-41216177D02*
X66041677Y-41216177D01*
X31690374Y-58334447D02*
X34578353Y-61222426D01*
X106378696Y-40766657D02*
X105929177Y-41216177D01*
X25846624Y-141836947D02*
X25846624Y-122786947D01*
X449015374Y-39284447D02*
X410279656Y-39284447D01*
X449703834Y-20922907D02*
X449703834Y-31608835D01*
X200038191Y-40291978D02*
X199563513Y-40766657D01*
X25846624Y-160886947D02*
X25846624Y-141836947D01*
X449254314Y-32058356D02*
X449254314Y-39045507D01*
X44896624Y-65636947D02*
X44896624Y-160886947D01*
X26740374Y-41665697D02*
X25846624Y-42559447D01*
X352654976Y-40291976D02*
X200038191Y-40291978D01*
X199563513Y-40766657D02*
X106378696Y-40766657D01*
X25846624Y-54990697D02*
X25846624Y-46586947D01*
X410279656Y-39284447D02*
X409935426Y-39628677D01*
X353318273Y-39628678D02*
X352654976Y-40291976D01*
X25846624Y-84686947D02*
X25846624Y-65636947D01*
X25846624Y-103736947D02*
X25846624Y-84686947D01*
X66041677Y-41216177D02*
X65592157Y-41665697D01*
X29190374Y-58334447D02*
X29190374Y-62293197D01*
X449254314Y-39045507D02*
X449015374Y-39284447D01*
%TO.N,SCL*%
X464890374Y-39284447D02*
X470446624Y-39284447D01*
X506482874Y-39284447D02*
X508070374Y-37696947D01*
X508070374Y-32977891D02*
X510812568Y-30235697D01*
X508070374Y-37696947D02*
X508070374Y-32977891D01*
X493465374Y-39284447D02*
X506482874Y-39284447D01*
%TO.N,+5V*%
X491120493Y-27702773D02*
X491877874Y-26945392D01*
X484301318Y-37696947D02*
X484301318Y-34521947D01*
X489496624Y-19545987D02*
X491084124Y-21133487D01*
X491084124Y-21133487D02*
X491084124Y-24996947D01*
X486365068Y-34521947D02*
X484301318Y-34521947D01*
X491120493Y-27702773D02*
X484301318Y-34521947D01*
X492628179Y-27695697D02*
X510812568Y-27695697D01*
X462009334Y-19545987D02*
X489496624Y-19545987D01*
X491084124Y-24996947D02*
X491877874Y-25790697D01*
X491127568Y-27695697D02*
X491120493Y-27702773D01*
X459733374Y-21821947D02*
X462009334Y-19545987D01*
X491877874Y-26945392D02*
X491877874Y-25790697D01*
X491877874Y-26945392D02*
X492628179Y-27695697D01*
%TO.N,SDA*%
X466477874Y-40078197D02*
X469652874Y-40078197D01*
%TO.N,GND1*%
X506397568Y-20740697D02*
X510812568Y-25155697D01*
X460676238Y-23409447D02*
X456240874Y-23409447D01*
X496352874Y-20740697D02*
X499165374Y-20740697D01*
X464495874Y-28191355D02*
X464495874Y-27229083D01*
X456240874Y-23409447D02*
X454653374Y-21821947D01*
X494259124Y-18646947D02*
X496352874Y-20740697D01*
X464495874Y-27229083D02*
X460676238Y-23409447D01*
X499165374Y-20740697D02*
X506397568Y-20740697D01*
X454653374Y-21821947D02*
X457828374Y-18646947D01*
X457828374Y-18646947D02*
X494259124Y-18646947D01*
%TO.N,reset*%
X493121144Y-19096467D02*
X494165374Y-20140697D01*
X459918854Y-19096467D02*
X493121144Y-19096467D01*
X457193374Y-21821947D02*
X459918854Y-19096467D01*
%TD*%
M02*
